%TF.GenerationSoftware,KiCad,Pcbnew,7.0.1*%
%TF.CreationDate,2023-04-06T15:27:56+10:00*%
%TF.ProjectId,genesys,67656e65-7379-4732-9e6b-696361645f70,rev?*%
%TF.SameCoordinates,Original*%
%TF.FileFunction,Copper,L2,Bot*%
%TF.FilePolarity,Positive*%
%FSLAX46Y46*%
G04 Gerber Fmt 4.6, Leading zero omitted, Abs format (unit mm)*
G04 Created by KiCad (PCBNEW 7.0.1) date 2023-04-06 15:27:56*
%MOMM*%
%LPD*%
G01*
G04 APERTURE LIST*
G04 Aperture macros list*
%AMHorizOval*
0 Thick line with rounded ends*
0 $1 width*
0 $2 $3 position (X,Y) of the first rounded end (center of the circle)*
0 $4 $5 position (X,Y) of the second rounded end (center of the circle)*
0 Add line between two ends*
20,1,$1,$2,$3,$4,$5,0*
0 Add two circle primitives to create the rounded ends*
1,1,$1,$2,$3*
1,1,$1,$4,$5*%
%AMRotRect*
0 Rectangle, with rotation*
0 The origin of the aperture is its center*
0 $1 length*
0 $2 width*
0 $3 Rotation angle, in degrees counterclockwise*
0 Add horizontal line*
21,1,$1,$2,0,0,$3*%
G04 Aperture macros list end*
%TA.AperFunction,ComponentPad*%
%ADD10C,1.651000*%
%TD*%
%TA.AperFunction,ComponentPad*%
%ADD11C,1.400000*%
%TD*%
%TA.AperFunction,SMDPad,CuDef*%
%ADD12R,2.500000X1.200000*%
%TD*%
%TA.AperFunction,ComponentPad*%
%ADD13C,3.200000*%
%TD*%
%TA.AperFunction,ComponentPad*%
%ADD14C,2.286000*%
%TD*%
%TA.AperFunction,ComponentPad*%
%ADD15R,2.200000X2.200000*%
%TD*%
%TA.AperFunction,ComponentPad*%
%ADD16O,2.200000X2.200000*%
%TD*%
%TA.AperFunction,ComponentPad*%
%ADD17RotRect,2.200000X2.200000X40.000000*%
%TD*%
%TA.AperFunction,ComponentPad*%
%ADD18HorizOval,2.200000X0.000000X0.000000X0.000000X0.000000X0*%
%TD*%
%TA.AperFunction,ComponentPad*%
%ADD19R,1.752600X1.752600*%
%TD*%
%TA.AperFunction,ComponentPad*%
%ADD20C,1.752600*%
%TD*%
%TA.AperFunction,ComponentPad*%
%ADD21RotRect,2.200000X2.200000X65.000000*%
%TD*%
%TA.AperFunction,ComponentPad*%
%ADD22HorizOval,2.200000X0.000000X0.000000X0.000000X0.000000X0*%
%TD*%
%TA.AperFunction,ComponentPad*%
%ADD23RotRect,2.200000X2.200000X75.000000*%
%TD*%
%TA.AperFunction,ComponentPad*%
%ADD24HorizOval,2.200000X0.000000X0.000000X0.000000X0.000000X0*%
%TD*%
%TA.AperFunction,ComponentPad*%
%ADD25RotRect,2.200000X2.200000X15.000000*%
%TD*%
%TA.AperFunction,ComponentPad*%
%ADD26HorizOval,2.200000X0.000000X0.000000X0.000000X0.000000X0*%
%TD*%
%TA.AperFunction,ViaPad*%
%ADD27C,0.500000*%
%TD*%
%TA.AperFunction,Conductor*%
%ADD28C,0.254000*%
%TD*%
%TA.AperFunction,Conductor*%
%ADD29C,0.200000*%
%TD*%
G04 APERTURE END LIST*
D10*
%TO.P,R2,1*%
%TO.N,/SCL*%
X152500000Y-112540000D03*
%TO.P,R2,2*%
%TO.N,/LED_5V*%
X152500000Y-122700000D03*
%TD*%
%TO.P,R1,1*%
%TO.N,/SDA*%
X155650000Y-112540000D03*
%TO.P,R1,2*%
%TO.N,/LED_5V*%
X155650000Y-122700000D03*
%TD*%
D11*
%TO.P,TP4,2,2*%
%TO.N,/LED_GND*%
X159600000Y-119510000D03*
%TO.P,TP4,1,1*%
%TO.N,/LED_5V*%
X159600000Y-122050000D03*
%TD*%
%TO.P,TP3,2,2*%
%TO.N,/SCL*%
X159600000Y-115640000D03*
%TO.P,TP3,1,1*%
%TO.N,/SDA*%
X159600000Y-113100000D03*
%TD*%
D12*
%TO.P,J2,R1*%
%TO.N,/LED_GND*%
X122405000Y-42735000D03*
%TO.P,J2,R2*%
%TO.N,unconnected-(J2-PadR2)*%
X122405000Y-38735000D03*
%TO.P,J2,S*%
%TO.N,/LED_5V*%
X122405000Y-35735000D03*
%TO.P,J2,T*%
%TO.N,/SERIAL*%
X128905000Y-43835000D03*
%TD*%
D13*
%TO.P,H7,*%
%TO.N,*%
X144145000Y-147955000D03*
%TD*%
%TO.P,H5,*%
%TO.N,*%
X144500000Y-79300000D03*
%TD*%
%TO.P,H4,*%
%TO.N,*%
X144500000Y-40525000D03*
%TD*%
%TO.P,H2,*%
%TO.N,*%
X48895000Y-79375000D03*
%TD*%
%TO.P,H1,*%
%TO.N,*%
X48895000Y-40525000D03*
%TD*%
D14*
%TO.P,SW23,1,1*%
%TO.N,/Col1*%
X54660000Y-85595000D03*
X55930000Y-83055000D03*
%TO.P,SW23,2,2*%
%TO.N,Net-(D23-A)*%
X61010000Y-83055000D03*
X62280000Y-85595000D03*
%TD*%
D15*
%TO.P,D3,1,A*%
%TO.N,Net-(D3-A)*%
X84160000Y-38875000D03*
D16*
%TO.P,D3,2,K*%
%TO.N,/Row0*%
X84160000Y-28715000D03*
%TD*%
D15*
%TO.P,D22,1,A*%
%TO.N,Net-(D22-A)*%
X46060000Y-96025000D03*
D16*
%TO.P,D22,2,K*%
%TO.N,/Row3*%
X46060000Y-85865000D03*
%TD*%
D15*
%TO.P,D28,1,A*%
%TO.N,Net-(D28-A)*%
X160360000Y-96025000D03*
D16*
%TO.P,D28,2,K*%
%TO.N,/Row3*%
X160360000Y-85865000D03*
%TD*%
D14*
%TO.P,SW4,1,1*%
%TO.N,/Col3*%
X92760000Y-28445000D03*
X94030000Y-25905000D03*
%TO.P,SW4,2,2*%
%TO.N,Net-(D4-A)*%
X99110000Y-25905000D03*
X100380000Y-28445000D03*
%TD*%
%TO.P,SW18,1,1*%
%TO.N,/Col3*%
X92760000Y-66545000D03*
X94030000Y-64005000D03*
%TO.P,SW18,2,2*%
%TO.N,Net-(D18-A)*%
X99110000Y-64005000D03*
X100380000Y-66545000D03*
%TD*%
D15*
%TO.P,D11,1,A*%
%TO.N,Net-(D11-A)*%
X103210000Y-57925000D03*
D16*
%TO.P,D11,2,K*%
%TO.N,/Row1*%
X103210000Y-47765000D03*
%TD*%
D14*
%TO.P,SW30,1,1*%
%TO.N,/Col1*%
X59422500Y-109407500D03*
X60692500Y-106867500D03*
%TO.P,SW30,2,2*%
%TO.N,Net-(D30-A)*%
X65772500Y-106867500D03*
X67042500Y-109407500D03*
%TD*%
%TO.P,SW27,1,1*%
%TO.N,/Col5*%
X130860000Y-85595000D03*
X132130000Y-83055000D03*
%TO.P,SW27,2,2*%
%TO.N,Net-(D27-A)*%
X137210000Y-83055000D03*
X138480000Y-85595000D03*
%TD*%
%TO.P,SW15,1,1*%
%TO.N,/Col0*%
X35610000Y-66545000D03*
X36880000Y-64005000D03*
%TO.P,SW15,2,2*%
%TO.N,Net-(D15-A)*%
X41960000Y-64005000D03*
X43230000Y-66545000D03*
%TD*%
D15*
%TO.P,D17,1,A*%
%TO.N,Net-(D17-A)*%
X84160000Y-76975000D03*
D16*
%TO.P,D17,2,K*%
%TO.N,/Row2*%
X84160000Y-66815000D03*
%TD*%
D14*
%TO.P,SW32,1,1*%
%TO.N,/Col3*%
X97522500Y-109407500D03*
X98792500Y-106867500D03*
%TO.P,SW32,2,2*%
%TO.N,Net-(D32-A)*%
X103872500Y-106867500D03*
X105142500Y-109407500D03*
%TD*%
%TO.P,SW9,1,1*%
%TO.N,/Col1*%
X54660000Y-47495000D03*
X55930000Y-44955000D03*
%TO.P,SW9,2,2*%
%TO.N,Net-(D9-A)*%
X61010000Y-44955000D03*
X62280000Y-47495000D03*
%TD*%
D15*
%TO.P,D29,1,A*%
%TO.N,Net-(D29-A)*%
X46060000Y-129362500D03*
D16*
%TO.P,D29,2,K*%
%TO.N,/Row4*%
X46060000Y-119202500D03*
%TD*%
D15*
%TO.P,D20,1,A*%
%TO.N,Net-(D20-A)*%
X141310000Y-76975000D03*
D16*
%TO.P,D20,2,K*%
%TO.N,/Row2*%
X141310000Y-66815000D03*
%TD*%
D15*
%TO.P,D21,1,A*%
%TO.N,Net-(D21-A)*%
X160360000Y-76975000D03*
D16*
%TO.P,D21,2,K*%
%TO.N,/Row2*%
X160360000Y-66815000D03*
%TD*%
D15*
%TO.P,D18,1,A*%
%TO.N,Net-(D18-A)*%
X103210000Y-76975000D03*
D16*
%TO.P,D18,2,K*%
%TO.N,/Row2*%
X103210000Y-66815000D03*
%TD*%
D14*
%TO.P,SW10,1,1*%
%TO.N,/Col2*%
X73710000Y-47495000D03*
X74980000Y-44955000D03*
%TO.P,SW10,2,2*%
%TO.N,Net-(D10-A)*%
X80060000Y-44955000D03*
X81330000Y-47495000D03*
%TD*%
D15*
%TO.P,D23,1,A*%
%TO.N,Net-(D23-A)*%
X65110000Y-96025000D03*
D16*
%TO.P,D23,2,K*%
%TO.N,/Row3*%
X65110000Y-85865000D03*
%TD*%
D14*
%TO.P,SW20,1,1*%
%TO.N,/Col5*%
X130860000Y-66545000D03*
X132130000Y-64005000D03*
%TO.P,SW20,2,2*%
%TO.N,Net-(D20-A)*%
X137210000Y-64005000D03*
X138480000Y-66545000D03*
%TD*%
%TO.P,SW7,1,1*%
%TO.N,/Col6*%
X149910000Y-28445000D03*
X151180000Y-25905000D03*
%TO.P,SW7,2,2*%
%TO.N,Net-(D7-A)*%
X156260000Y-25905000D03*
X157530000Y-28445000D03*
%TD*%
%TO.P,SW33,1,1*%
%TO.N,/Col4*%
X119885644Y-119143024D03*
X122110105Y-117377727D03*
%TO.P,SW33,2,2*%
%TO.N,Net-(D33-A)*%
X126714149Y-119524628D03*
X126791709Y-122363375D03*
%TD*%
D15*
%TO.P,D6,1,A*%
%TO.N,Net-(D6-A)*%
X141300000Y-39196904D03*
D16*
%TO.P,D6,2,K*%
%TO.N,/Row0*%
X141300000Y-29036904D03*
%TD*%
D14*
%TO.P,SW28,1,1*%
%TO.N,/Col6*%
X149910000Y-85595000D03*
X151180000Y-83055000D03*
%TO.P,SW28,2,2*%
%TO.N,Net-(D28-A)*%
X156260000Y-83055000D03*
X157530000Y-85595000D03*
%TD*%
%TO.P,SW24,1,1*%
%TO.N,/Col2*%
X73710000Y-85595000D03*
X74980000Y-83055000D03*
%TO.P,SW24,2,2*%
%TO.N,Net-(D24-A)*%
X80060000Y-83055000D03*
X81330000Y-85595000D03*
%TD*%
D15*
%TO.P,D7,1,A*%
%TO.N,Net-(D7-A)*%
X160360000Y-38875000D03*
D16*
%TO.P,D7,2,K*%
%TO.N,/Row0*%
X160360000Y-28715000D03*
%TD*%
D15*
%TO.P,D32,1,A*%
%TO.N,Net-(D32-A)*%
X107972500Y-119837500D03*
D16*
%TO.P,D32,2,K*%
%TO.N,/Row4*%
X107972500Y-109677500D03*
%TD*%
D15*
%TO.P,D12,1,A*%
%TO.N,Net-(D12-A)*%
X122260000Y-57925000D03*
D16*
%TO.P,D12,2,K*%
%TO.N,/Row1*%
X122260000Y-47765000D03*
%TD*%
D14*
%TO.P,SW34,1,1*%
%TO.N,/Col5*%
X139961958Y-132337741D03*
X142724051Y-131677937D03*
%TO.P,SW34,2,2*%
%TO.N,Net-(D34-A)*%
X145989412Y-135569443D03*
X144860000Y-138175000D03*
%TD*%
%TO.P,SW6,1,1*%
%TO.N,/Col5*%
X130860000Y-28445000D03*
X132130000Y-25905000D03*
%TO.P,SW6,2,2*%
%TO.N,Net-(D6-A)*%
X137210000Y-25905000D03*
X138480000Y-28445000D03*
%TD*%
D17*
%TO.P,D34,1,A*%
%TO.N,Net-(D34-A)*%
X138693811Y-146991561D03*
D18*
%TO.P,D34,2,K*%
%TO.N,/Row4*%
X146476823Y-140460839D03*
%TD*%
D14*
%TO.P,SW26,1,1*%
%TO.N,/Col4*%
X111810000Y-85595000D03*
X113080000Y-83055000D03*
%TO.P,SW26,2,2*%
%TO.N,Net-(D26-A)*%
X118160000Y-83055000D03*
X119430000Y-85595000D03*
%TD*%
%TO.P,SW22,1,1*%
%TO.N,/Col0*%
X35610000Y-85595000D03*
X36880000Y-83055000D03*
%TO.P,SW22,2,2*%
%TO.N,Net-(D22-A)*%
X41960000Y-83055000D03*
X43230000Y-85595000D03*
%TD*%
D19*
%TO.P,U1,1,TX*%
%TO.N,/SERIAL*%
X90396400Y-31376750D03*
D20*
%TO.P,U1,2,RX*%
%TO.N,unconnected-(U1-RX-Pad2)*%
X90396400Y-33916750D03*
%TO.P,U1,3,GND*%
%TO.N,unconnected-(U1-GND-Pad3)*%
X90396400Y-36456750D03*
%TO.P,U1,4,GND*%
%TO.N,unconnected-(U1-GND-Pad4)*%
X90396400Y-38996750D03*
%TO.P,U1,5,SDA*%
%TO.N,/SDA*%
X90396400Y-41536750D03*
%TO.P,U1,6,SCL*%
%TO.N,/SCL*%
X90396400Y-44076750D03*
%TO.P,U1,7,D4*%
%TO.N,/Row0*%
X90396400Y-46616750D03*
%TO.P,U1,8,C6*%
%TO.N,/Row1*%
X90396400Y-49156750D03*
%TO.P,U1,9,D7*%
%TO.N,/Row2*%
X90396400Y-51696750D03*
%TO.P,U1,10,E6*%
%TO.N,/Row3*%
X90396400Y-54236750D03*
%TO.P,U1,11,B4*%
%TO.N,/Row4*%
X90396400Y-56776750D03*
%TO.P,U1,12,B5*%
%TO.N,/Row5*%
X90396400Y-59316750D03*
%TO.P,U1,13,B6*%
%TO.N,/LED_DIN*%
X105636400Y-59316750D03*
%TO.P,U1,14,B2*%
%TO.N,/Col6*%
X105636400Y-56776750D03*
%TO.P,U1,15,B3*%
%TO.N,/Col5*%
X105636400Y-54236750D03*
%TO.P,U1,16,B1*%
%TO.N,/Col4*%
X105636400Y-51696750D03*
%TO.P,U1,17,F7*%
%TO.N,/Col3*%
X105636400Y-49156750D03*
%TO.P,U1,18,F6*%
%TO.N,/Col2*%
X105636400Y-46616750D03*
%TO.P,U1,19,F5*%
%TO.N,/Col1*%
X105636400Y-44076750D03*
%TO.P,U1,20,F4*%
%TO.N,/Col0*%
X105636400Y-41536750D03*
%TO.P,U1,21,VCC*%
%TO.N,/LED_5V*%
X105636400Y-38996750D03*
%TO.P,U1,22,RST*%
%TO.N,unconnected-(U1-RST-Pad22)*%
X105636400Y-36456750D03*
%TO.P,U1,23,GND*%
%TO.N,/LED_GND*%
X105636400Y-33916750D03*
%TO.P,U1,24,RAW*%
%TO.N,unconnected-(U1-RAW-Pad24)*%
X105636400Y-31376750D03*
%TD*%
D14*
%TO.P,SW35,1,1*%
%TO.N,/Col6*%
X152132577Y-152617643D03*
X154914729Y-153186969D03*
%TO.P,SW35,2,2*%
%TO.N,Net-(D35-A)*%
X156229530Y-158093872D03*
X154104778Y-159977998D03*
%TD*%
D15*
%TO.P,D26,1,A*%
%TO.N,Net-(D26-A)*%
X122260000Y-96025000D03*
D16*
%TO.P,D26,2,K*%
%TO.N,/Row3*%
X122260000Y-85865000D03*
%TD*%
D21*
%TO.P,D33,1,A*%
%TO.N,Net-(D33-A)*%
X124763174Y-133081540D03*
D22*
%TO.P,D33,2,K*%
%TO.N,/Row4*%
X129056976Y-123873453D03*
%TD*%
D14*
%TO.P,SW12,1,1*%
%TO.N,/Col4*%
X111810000Y-47495000D03*
X113080000Y-44955000D03*
%TO.P,SW12,2,2*%
%TO.N,Net-(D12-A)*%
X118160000Y-44955000D03*
X119430000Y-47495000D03*
%TD*%
D23*
%TO.P,D5,1,A*%
%TO.N,Net-(D5-A)*%
X119380000Y-38875000D03*
D24*
%TO.P,D5,2,K*%
%TO.N,/Row0*%
X122009601Y-29061194D03*
%TD*%
D14*
%TO.P,SW2,1,1*%
%TO.N,/Col1*%
X54660000Y-28445000D03*
X55930000Y-25905000D03*
%TO.P,SW2,2,2*%
%TO.N,Net-(D2-A)*%
X61010000Y-25905000D03*
X62280000Y-28445000D03*
%TD*%
%TO.P,SW13,1,1*%
%TO.N,/Col5*%
X130860000Y-47495000D03*
X132130000Y-44955000D03*
%TO.P,SW13,2,2*%
%TO.N,Net-(D13-A)*%
X137210000Y-44955000D03*
X138480000Y-47495000D03*
%TD*%
D15*
%TO.P,D16,1,A*%
%TO.N,Net-(D16-A)*%
X65110000Y-76975000D03*
D16*
%TO.P,D16,2,K*%
%TO.N,/Row2*%
X65110000Y-66815000D03*
%TD*%
D15*
%TO.P,D13,1,A*%
%TO.N,Net-(D13-A)*%
X141310000Y-57925000D03*
D16*
%TO.P,D13,2,K*%
%TO.N,/Row1*%
X141310000Y-47765000D03*
%TD*%
D15*
%TO.P,D30,1,A*%
%TO.N,Net-(D30-A)*%
X69895000Y-119790000D03*
D16*
%TO.P,D30,2,K*%
%TO.N,/Row4*%
X69895000Y-109630000D03*
%TD*%
D14*
%TO.P,SW16,1,1*%
%TO.N,/Col1*%
X54660000Y-66545000D03*
X55930000Y-64005000D03*
%TO.P,SW16,2,2*%
%TO.N,Net-(D16-A)*%
X61010000Y-64005000D03*
X62280000Y-66545000D03*
%TD*%
%TO.P,SW21,1,1*%
%TO.N,/Col6*%
X149910000Y-66545000D03*
X151180000Y-64005000D03*
%TO.P,SW21,2,2*%
%TO.N,Net-(D21-A)*%
X156260000Y-64005000D03*
X157530000Y-66545000D03*
%TD*%
%TO.P,SW29,1,1*%
%TO.N,/Col0*%
X35610000Y-118932500D03*
X36880000Y-116392500D03*
%TO.P,SW29,2,2*%
%TO.N,Net-(D29-A)*%
X41960000Y-116392500D03*
X43230000Y-118932500D03*
%TD*%
%TO.P,SW3,1,1*%
%TO.N,/Col2*%
X73710000Y-28445000D03*
X74980000Y-25905000D03*
%TO.P,SW3,2,2*%
%TO.N,Net-(D3-A)*%
X80060000Y-25905000D03*
X81330000Y-28445000D03*
%TD*%
D15*
%TO.P,D10,1,A*%
%TO.N,Net-(D10-A)*%
X84160000Y-57925000D03*
D16*
%TO.P,D10,2,K*%
%TO.N,/Row1*%
X84160000Y-47765000D03*
%TD*%
D15*
%TO.P,D9,1,A*%
%TO.N,Net-(D9-A)*%
X65110000Y-57925000D03*
D16*
%TO.P,D9,2,K*%
%TO.N,/Row1*%
X65110000Y-47765000D03*
%TD*%
D14*
%TO.P,SW14,1,1*%
%TO.N,/Col6*%
X149910000Y-47495000D03*
X151180000Y-44955000D03*
%TO.P,SW14,2,2*%
%TO.N,Net-(D14-A)*%
X156260000Y-44955000D03*
X157530000Y-47495000D03*
%TD*%
D15*
%TO.P,D4,1,A*%
%TO.N,Net-(D4-A)*%
X103210000Y-38875000D03*
D16*
%TO.P,D4,2,K*%
%TO.N,/Row0*%
X103210000Y-28715000D03*
%TD*%
D15*
%TO.P,D24,1,A*%
%TO.N,Net-(D24-A)*%
X84160000Y-96025000D03*
D16*
%TO.P,D24,2,K*%
%TO.N,/Row3*%
X84160000Y-85865000D03*
%TD*%
D15*
%TO.P,D31,1,A*%
%TO.N,Net-(D31-A)*%
X88922500Y-119837500D03*
D16*
%TO.P,D31,2,K*%
%TO.N,/Row4*%
X88922500Y-109677500D03*
%TD*%
D15*
%TO.P,D19,1,A*%
%TO.N,Net-(D19-A)*%
X122260000Y-76975000D03*
D16*
%TO.P,D19,2,K*%
%TO.N,/Row2*%
X122260000Y-66815000D03*
%TD*%
D14*
%TO.P,SW31,1,1*%
%TO.N,/Col2*%
X78395000Y-109407500D03*
X79665000Y-106867500D03*
%TO.P,SW31,2,2*%
%TO.N,Net-(D31-A)*%
X84745000Y-106867500D03*
X86015000Y-109407500D03*
%TD*%
D15*
%TO.P,D15,1,A*%
%TO.N,Net-(D15-A)*%
X46060000Y-76975000D03*
D16*
%TO.P,D15,2,K*%
%TO.N,/Row2*%
X46060000Y-66815000D03*
%TD*%
D14*
%TO.P,SW5,1,1*%
%TO.N,/Col4*%
X111810000Y-28445000D03*
X113080000Y-25905000D03*
%TO.P,SW5,2,2*%
%TO.N,Net-(D5-A)*%
X118160000Y-25905000D03*
X119430000Y-28445000D03*
%TD*%
D25*
%TO.P,D35,1,A*%
%TO.N,Net-(D35-A)*%
X145811194Y-166964601D03*
D26*
%TO.P,D35,2,K*%
%TO.N,/Row4*%
X155625000Y-164335000D03*
%TD*%
D15*
%TO.P,D8,1,A*%
%TO.N,Net-(D8-A)*%
X46060000Y-57925000D03*
D16*
%TO.P,D8,2,K*%
%TO.N,/Row1*%
X46060000Y-47765000D03*
%TD*%
D15*
%TO.P,D25,1,A*%
%TO.N,Net-(D25-A)*%
X103210000Y-96025000D03*
D16*
%TO.P,D25,2,K*%
%TO.N,/Row3*%
X103210000Y-85865000D03*
%TD*%
D14*
%TO.P,SW19,1,1*%
%TO.N,/Col4*%
X111810000Y-66545000D03*
X113080000Y-64005000D03*
%TO.P,SW19,2,2*%
%TO.N,Net-(D19-A)*%
X118160000Y-64005000D03*
X119430000Y-66545000D03*
%TD*%
%TO.P,SW8,1,1*%
%TO.N,/Col0*%
X35610000Y-47495000D03*
X36880000Y-44955000D03*
%TO.P,SW8,2,2*%
%TO.N,Net-(D8-A)*%
X41960000Y-44955000D03*
X43230000Y-47495000D03*
%TD*%
%TO.P,SW25,1,1*%
%TO.N,/Col3*%
X92760000Y-85595000D03*
X94030000Y-83055000D03*
%TO.P,SW25,2,2*%
%TO.N,Net-(D25-A)*%
X99110000Y-83055000D03*
X100380000Y-85595000D03*
%TD*%
%TO.P,SW17,1,1*%
%TO.N,/Col2*%
X73710000Y-66545000D03*
X74980000Y-64005000D03*
%TO.P,SW17,2,2*%
%TO.N,Net-(D17-A)*%
X80060000Y-64005000D03*
X81330000Y-66545000D03*
%TD*%
D15*
%TO.P,D2,1,A*%
%TO.N,Net-(D2-A)*%
X65110000Y-38875000D03*
D16*
%TO.P,D2,2,K*%
%TO.N,/Row0*%
X65110000Y-28715000D03*
%TD*%
D15*
%TO.P,D1,1,A*%
%TO.N,Net-(D1-A)*%
X46060000Y-38875000D03*
D16*
%TO.P,D1,2,K*%
%TO.N,/Row0*%
X46060000Y-28715000D03*
%TD*%
D15*
%TO.P,D14,1,A*%
%TO.N,Net-(D14-A)*%
X160360000Y-57925000D03*
D16*
%TO.P,D14,2,K*%
%TO.N,/Row1*%
X160360000Y-47765000D03*
%TD*%
D14*
%TO.P,SW1,1,1*%
%TO.N,/Col0*%
X35610000Y-28445000D03*
X36880000Y-25905000D03*
%TO.P,SW1,2,2*%
%TO.N,Net-(D1-A)*%
X41960000Y-25905000D03*
X43230000Y-28445000D03*
%TD*%
%TO.P,SW11,1,1*%
%TO.N,/Col3*%
X92760000Y-47495000D03*
X94030000Y-44955000D03*
%TO.P,SW11,2,2*%
%TO.N,Net-(D11-A)*%
X99110000Y-44955000D03*
X100380000Y-47495000D03*
%TD*%
D15*
%TO.P,D27,1,A*%
%TO.N,Net-(D27-A)*%
X141310000Y-96025000D03*
D16*
%TO.P,D27,2,K*%
%TO.N,/Row3*%
X141310000Y-85865000D03*
%TD*%
D27*
%TO.N,/LED_GND*%
X155600000Y-119500000D03*
%TO.N,/LED_DIN*%
X148200000Y-38500000D03*
X148200000Y-61800000D03*
%TO.N,/LED_GND*%
X123825000Y-33655000D03*
%TO.N,/SERIAL*%
X92710000Y-38100000D03*
X125730000Y-44450000D03*
%TO.N,/LED_GND*%
X125730000Y-43180000D03*
%TO.N,/LED_5V*%
X125730000Y-37465000D03*
%TO.N,/LED_GND*%
X112895000Y-57210000D03*
X112885000Y-60450000D03*
%TO.N,/LED_5V*%
X41960000Y-90675000D03*
X111210500Y-52710000D03*
X41960000Y-95120000D03*
X101125000Y-52960000D03*
%TO.N,/Col5*%
X112445000Y-51940000D03*
%TD*%
D28*
%TO.N,/SCL*%
X152500000Y-112540000D02*
X155600000Y-115640000D01*
X155600000Y-115640000D02*
X159600000Y-115640000D01*
%TO.N,/SDA*%
X159040000Y-112540000D02*
X159600000Y-113100000D01*
X155650000Y-112540000D02*
X159040000Y-112540000D01*
%TO.N,/LED_5V*%
X155650000Y-122700000D02*
X158950000Y-122700000D01*
X158950000Y-122700000D02*
X159600000Y-122050000D01*
X152500000Y-122700000D02*
X155650000Y-122700000D01*
D29*
%TO.N,/Col0*%
X35610000Y-65275000D02*
X35610000Y-66545000D01*
X36880000Y-64005000D02*
X35610000Y-65275000D01*
D28*
%TO.N,/SDA*%
X93459343Y-24500000D02*
X158059846Y-24500000D01*
X161714000Y-28154154D02*
X158059846Y-24500000D01*
X161714000Y-110986000D02*
X161714000Y-28154154D01*
X159600000Y-113100000D02*
X161714000Y-110986000D01*
X91363000Y-29023657D02*
X91363000Y-26596343D01*
X93676000Y-31336657D02*
X91363000Y-29023657D01*
X93676000Y-38257150D02*
X93676000Y-31336657D01*
X91363000Y-26596343D02*
X93459343Y-24500000D01*
X90396400Y-41536750D02*
X93676000Y-38257150D01*
%TO.N,/SCL*%
X162095000Y-113145000D02*
X159600000Y-115640000D01*
X158217661Y-24119000D02*
X162095000Y-27996339D01*
X92681000Y-24119000D02*
X158217661Y-24119000D01*
X89266100Y-27533900D02*
X92681000Y-24119000D01*
X89266100Y-42946450D02*
X89266100Y-27533900D01*
X90396400Y-44076750D02*
X89266100Y-42946450D01*
X162095000Y-27996339D02*
X162095000Y-113145000D01*
D29*
%TO.N,/LED_GND*%
X155610000Y-119510000D02*
X159600000Y-119510000D01*
X155600000Y-119500000D02*
X155610000Y-119510000D01*
%TO.N,/Col6*%
X149910000Y-84325000D02*
X149910000Y-85595000D01*
X151180000Y-83055000D02*
X149910000Y-84325000D01*
%TO.N,/Col0*%
X35610000Y-66545000D02*
X35610000Y-76575000D01*
D28*
%TO.N,/LED_DIN*%
X148200000Y-61800000D02*
X148200000Y-38500000D01*
%TO.N,/Row4*%
X88922500Y-58250650D02*
X88922500Y-109677500D01*
X90396400Y-56776750D02*
X88922500Y-58250650D01*
%TO.N,/Row3*%
X85895000Y-84130000D02*
X84160000Y-85865000D01*
X85895000Y-58738150D02*
X85895000Y-84130000D01*
X90396400Y-54236750D02*
X85895000Y-58738150D01*
%TO.N,/Row2*%
X85514000Y-56579150D02*
X85514000Y-65461000D01*
X85514000Y-65461000D02*
X84160000Y-66815000D01*
X90396400Y-51696750D02*
X85514000Y-56579150D01*
%TO.N,/Row1*%
X90396400Y-49156750D02*
X89004650Y-47765000D01*
X89004650Y-47765000D02*
X84160000Y-47765000D01*
%TO.N,/Row0*%
X88342000Y-32897000D02*
X84160000Y-28715000D01*
X88342000Y-44562350D02*
X88342000Y-32897000D01*
X90396400Y-46616750D02*
X88342000Y-44562350D01*
%TO.N,/Col6*%
X149910000Y-85595000D02*
X149910000Y-150395066D01*
X149910000Y-150395066D02*
X152132577Y-152617643D01*
D29*
%TO.N,Net-(D5-A)*%
X119430000Y-28445000D02*
X119430000Y-38825000D01*
%TO.N,Net-(D6-A)*%
X138480000Y-36071904D02*
X141605000Y-39196904D01*
X138480000Y-28445000D02*
X138480000Y-36071904D01*
D28*
%TO.N,/LED_GND*%
X126234000Y-36064000D02*
X123825000Y-33655000D01*
X126234000Y-42676000D02*
X126234000Y-36064000D01*
X125730000Y-43180000D02*
X126234000Y-42676000D01*
%TO.N,/SERIAL*%
X92710000Y-38100000D02*
X92710000Y-33690350D01*
X92710000Y-33690350D02*
X90396400Y-31376750D01*
%TO.N,/LED_5V*%
X124000000Y-35735000D02*
X125730000Y-37465000D01*
X122405000Y-35735000D02*
X124000000Y-35735000D01*
%TO.N,/LED_GND*%
X125285000Y-42735000D02*
X125730000Y-43180000D01*
X122405000Y-42735000D02*
X125285000Y-42735000D01*
%TO.N,/SERIAL*%
X126345000Y-43835000D02*
X125730000Y-44450000D01*
X128905000Y-43835000D02*
X126345000Y-43835000D01*
D29*
%TO.N,/Col5*%
X119956662Y-43585000D02*
X121778662Y-45407000D01*
X121778662Y-45407000D02*
X131678000Y-45407000D01*
X117489289Y-43585000D02*
X119956662Y-43585000D01*
X113180000Y-47894289D02*
X117489289Y-43585000D01*
X113180000Y-51205000D02*
X113180000Y-47894289D01*
X112445000Y-51940000D02*
X113180000Y-51205000D01*
%TO.N,Net-(D1-A)*%
X41960000Y-25905000D02*
X43230000Y-27175000D01*
X43230000Y-28445000D02*
X43230000Y-36045000D01*
X43230000Y-27175000D02*
X43230000Y-28445000D01*
X43230000Y-36045000D02*
X46060000Y-38875000D01*
%TO.N,Net-(D9-A)*%
X62280000Y-47495000D02*
X62280000Y-55095000D01*
X62280000Y-46225000D02*
X62280000Y-47495000D01*
X62280000Y-55095000D02*
X65110000Y-57925000D01*
X61010000Y-44955000D02*
X62280000Y-46225000D01*
%TO.N,Net-(D8-A)*%
X43230000Y-55095000D02*
X46060000Y-57925000D01*
X41960000Y-44955000D02*
X43230000Y-46225000D01*
X43230000Y-46225000D02*
X43230000Y-47495000D01*
X43230000Y-47495000D02*
X43230000Y-55095000D01*
%TO.N,Net-(D7-A)*%
X157530000Y-27175000D02*
X157530000Y-28445000D01*
X157530000Y-36045000D02*
X160360000Y-38875000D01*
X156260000Y-25905000D02*
X157530000Y-27175000D01*
X157530000Y-28445000D02*
X157530000Y-36045000D01*
%TO.N,Net-(D6-A)*%
X137210000Y-25905000D02*
X138480000Y-27175000D01*
X138480000Y-27175000D02*
X138480000Y-28445000D01*
%TO.N,Net-(D5-A)*%
X118160000Y-25905000D02*
X119430000Y-27175000D01*
X119430000Y-27175000D02*
X119430000Y-28445000D01*
%TO.N,Net-(D4-A)*%
X100380000Y-27175000D02*
X100380000Y-28445000D01*
X99110000Y-25905000D02*
X100380000Y-27175000D01*
X100380000Y-36045000D02*
X103210000Y-38875000D01*
X100380000Y-28445000D02*
X100380000Y-36045000D01*
D28*
%TO.N,Net-(D35-A)*%
X151135095Y-165457150D02*
X149627644Y-166964601D01*
X151266399Y-165229722D02*
X151135095Y-165457150D01*
X154104778Y-159977998D02*
X154104778Y-162391343D01*
X149627644Y-166964601D02*
X145811194Y-166964601D01*
X154104778Y-162391343D02*
X151266399Y-165229722D01*
X154104778Y-159977998D02*
X155988904Y-158093872D01*
%TO.N,Net-(D34-A)*%
X138693811Y-146991561D02*
X138693811Y-144341189D01*
X138693811Y-144341189D02*
X144860000Y-138175000D01*
X144860000Y-138175000D02*
X144860000Y-136698855D01*
X144860000Y-136698855D02*
X145989412Y-135569443D01*
%TO.N,Net-(D33-A)*%
X124763174Y-124391910D02*
X126791709Y-122363375D01*
X126791709Y-122363375D02*
X126791709Y-119602188D01*
X124763174Y-133081540D02*
X124763174Y-124391910D01*
D29*
%TO.N,Net-(D32-A)*%
X103872500Y-106867500D02*
X105142500Y-108137500D01*
X105142500Y-117007500D02*
X107972500Y-119837500D01*
X105142500Y-109407500D02*
X105142500Y-117007500D01*
X105142500Y-108137500D02*
X105142500Y-109407500D01*
%TO.N,Net-(D31-A)*%
X86015000Y-109407500D02*
X86015000Y-116930000D01*
X86015000Y-108137500D02*
X86015000Y-109407500D01*
X84745000Y-106867500D02*
X86015000Y-108137500D01*
X86015000Y-116930000D02*
X88922500Y-119837500D01*
%TO.N,Net-(D30-A)*%
X67042500Y-116937500D02*
X69895000Y-119790000D01*
X65772500Y-106867500D02*
X67042500Y-108137500D01*
X67042500Y-108137500D02*
X67042500Y-109407500D01*
X67042500Y-109407500D02*
X67042500Y-116937500D01*
%TO.N,Net-(D3-A)*%
X81330000Y-27175000D02*
X81330000Y-28445000D01*
X81330000Y-28445000D02*
X81330000Y-36045000D01*
X81330000Y-36045000D02*
X84160000Y-38875000D01*
X80060000Y-25905000D02*
X81330000Y-27175000D01*
%TO.N,Net-(D29-A)*%
X43230000Y-118932500D02*
X43230000Y-126532500D01*
X41960000Y-116392500D02*
X43230000Y-117662500D01*
X43230000Y-117662500D02*
X43230000Y-118932500D01*
X43230000Y-126532500D02*
X46060000Y-129362500D01*
%TO.N,Net-(D28-A)*%
X157530000Y-85595000D02*
X157530000Y-93195000D01*
X156260000Y-83055000D02*
X157530000Y-84325000D01*
X157530000Y-84325000D02*
X157530000Y-85595000D01*
X157530000Y-93195000D02*
X160360000Y-96025000D01*
%TO.N,Net-(D27-A)*%
X137210000Y-83055000D02*
X138480000Y-84325000D01*
X138480000Y-93195000D02*
X141310000Y-96025000D01*
X138480000Y-84325000D02*
X138480000Y-85595000D01*
X138480000Y-85595000D02*
X138480000Y-93195000D01*
%TO.N,Net-(D26-A)*%
X118160000Y-83055000D02*
X119430000Y-84325000D01*
X119430000Y-93195000D02*
X122260000Y-96025000D01*
X119430000Y-84325000D02*
X119430000Y-85595000D01*
X119430000Y-85595000D02*
X119430000Y-93195000D01*
%TO.N,Net-(D25-A)*%
X100380000Y-84325000D02*
X100380000Y-85595000D01*
X100380000Y-85595000D02*
X100380000Y-93195000D01*
X100380000Y-93195000D02*
X103210000Y-96025000D01*
X99110000Y-83055000D02*
X100380000Y-84325000D01*
%TO.N,Net-(D24-A)*%
X81330000Y-85595000D02*
X81330000Y-93195000D01*
X81330000Y-93195000D02*
X84160000Y-96025000D01*
X81330000Y-84325000D02*
X81330000Y-85595000D01*
X80060000Y-83055000D02*
X81330000Y-84325000D01*
%TO.N,Net-(D23-A)*%
X61010000Y-83055000D02*
X62280000Y-84325000D01*
X62280000Y-84325000D02*
X62280000Y-85595000D01*
X62280000Y-85595000D02*
X62280000Y-93195000D01*
X62280000Y-93195000D02*
X65110000Y-96025000D01*
%TO.N,Net-(D22-A)*%
X41960000Y-83055000D02*
X43230000Y-84325000D01*
X43230000Y-84325000D02*
X43230000Y-85595000D01*
X43230000Y-93195000D02*
X46060000Y-96025000D01*
X43230000Y-85595000D02*
X43230000Y-93195000D01*
%TO.N,Net-(D21-A)*%
X157530000Y-66545000D02*
X157530000Y-74145000D01*
X157530000Y-65275000D02*
X157530000Y-66545000D01*
X157530000Y-74145000D02*
X160360000Y-76975000D01*
X156260000Y-64005000D02*
X157530000Y-65275000D01*
%TO.N,Net-(D20-A)*%
X137210000Y-64005000D02*
X138480000Y-65275000D01*
X138480000Y-74145000D02*
X141310000Y-76975000D01*
X138480000Y-66545000D02*
X138480000Y-74145000D01*
X138480000Y-65275000D02*
X138480000Y-66545000D01*
%TO.N,Net-(D2-A)*%
X62280000Y-36045000D02*
X65110000Y-38875000D01*
X62280000Y-28445000D02*
X62280000Y-36045000D01*
X61010000Y-25905000D02*
X62280000Y-27175000D01*
X62280000Y-27175000D02*
X62280000Y-28445000D01*
%TO.N,Net-(D19-A)*%
X119430000Y-66545000D02*
X119430000Y-74145000D01*
X119430000Y-74145000D02*
X122260000Y-76975000D01*
X119430000Y-65275000D02*
X119430000Y-66545000D01*
X118160000Y-64005000D02*
X119430000Y-65275000D01*
%TO.N,Net-(D18-A)*%
X100380000Y-66545000D02*
X100380000Y-74145000D01*
X100380000Y-65275000D02*
X100380000Y-66545000D01*
X99110000Y-64005000D02*
X100380000Y-65275000D01*
X100380000Y-74145000D02*
X103210000Y-76975000D01*
%TO.N,Net-(D17-A)*%
X80060000Y-64005000D02*
X81330000Y-65275000D01*
X81330000Y-65275000D02*
X81330000Y-66545000D01*
X81330000Y-74145000D02*
X84160000Y-76975000D01*
X81330000Y-66545000D02*
X81330000Y-74145000D01*
%TO.N,Net-(D16-A)*%
X61010000Y-64005000D02*
X62280000Y-65275000D01*
X62280000Y-65275000D02*
X62280000Y-66545000D01*
X62280000Y-66545000D02*
X62280000Y-74145000D01*
X62280000Y-74145000D02*
X65110000Y-76975000D01*
%TO.N,Net-(D15-A)*%
X41960000Y-64005000D02*
X43230000Y-65275000D01*
X43230000Y-74145000D02*
X46060000Y-76975000D01*
X43230000Y-66545000D02*
X43230000Y-74145000D01*
X43230000Y-65275000D02*
X43230000Y-66545000D01*
%TO.N,Net-(D14-A)*%
X157530000Y-47495000D02*
X157530000Y-55095000D01*
X157530000Y-46225000D02*
X157530000Y-47495000D01*
X156260000Y-44955000D02*
X157530000Y-46225000D01*
X157530000Y-55095000D02*
X160360000Y-57925000D01*
%TO.N,Net-(D13-A)*%
X137210000Y-44955000D02*
X138480000Y-46225000D01*
X138480000Y-46225000D02*
X138480000Y-47495000D01*
X138480000Y-47495000D02*
X138480000Y-55095000D01*
X138480000Y-55095000D02*
X141310000Y-57925000D01*
%TO.N,Net-(D12-A)*%
X118160000Y-44955000D02*
X119430000Y-46225000D01*
X122110000Y-57925000D02*
X119430000Y-55245000D01*
X119430000Y-46225000D02*
X119430000Y-47495000D01*
X119430000Y-55245000D02*
X119430000Y-47495000D01*
%TO.N,Net-(D11-A)*%
X103210000Y-57925000D02*
X100380000Y-55095000D01*
X100380000Y-46225000D02*
X100380000Y-47495000D01*
X100380000Y-55095000D02*
X100380000Y-47495000D01*
X99110000Y-44955000D02*
X100380000Y-46225000D01*
%TO.N,Net-(D10-A)*%
X81330000Y-47495000D02*
X81330000Y-55095000D01*
X81330000Y-46225000D02*
X81330000Y-47495000D01*
X81330000Y-55095000D02*
X84160000Y-57925000D01*
X80060000Y-44955000D02*
X81330000Y-46225000D01*
%TO.N,/LED_GND*%
X112885000Y-60450000D02*
X112895000Y-60440000D01*
X112895000Y-60440000D02*
X112895000Y-57210000D01*
%TO.N,/LED_5V*%
X111210500Y-52710000D02*
X110960500Y-52960000D01*
X110960500Y-52960000D02*
X101125000Y-52960000D01*
D28*
X41960000Y-95120000D02*
X41960000Y-90675000D01*
D29*
%TO.N,/Col6*%
X151180000Y-44955000D02*
X149910000Y-46225000D01*
X149910000Y-28445000D02*
X149910000Y-43685000D01*
X149910000Y-46225000D02*
X149910000Y-47495000D01*
X149910000Y-66545000D02*
X149910000Y-81785000D01*
X149910000Y-62735000D02*
X151180000Y-64005000D01*
X149910000Y-47495000D02*
X149910000Y-62735000D01*
X149910000Y-27175000D02*
X149910000Y-28445000D01*
D28*
X154914729Y-153186969D02*
X152701903Y-153186969D01*
D29*
X149910000Y-43685000D02*
X151180000Y-44955000D01*
X151180000Y-25905000D02*
X149910000Y-27175000D01*
X151180000Y-64005000D02*
X149910000Y-65275000D01*
X149910000Y-81785000D02*
X151180000Y-83055000D01*
X149910000Y-65275000D02*
X149910000Y-66545000D01*
%TO.N,/Col5*%
X130860000Y-28445000D02*
X130860000Y-43685000D01*
X130860000Y-81785000D02*
X132130000Y-83055000D01*
X130860000Y-47495000D02*
X130860000Y-62735000D01*
X130860000Y-84325000D02*
X130860000Y-85595000D01*
X130895000Y-68960000D02*
X130860000Y-68995000D01*
X132130000Y-83055000D02*
X130860000Y-84325000D01*
X132130000Y-25905000D02*
X130860000Y-27175000D01*
X130860000Y-123235783D02*
X139961958Y-132337741D01*
D28*
X139961958Y-132337741D02*
X142064247Y-132337741D01*
D29*
X130860000Y-68995000D02*
X130860000Y-81785000D01*
X130860000Y-65275000D02*
X130860000Y-66545000D01*
X130860000Y-43685000D02*
X132130000Y-44955000D01*
X130860000Y-46225000D02*
X130860000Y-47495000D01*
X132130000Y-44955000D02*
X130860000Y-46225000D01*
X130860000Y-85595000D02*
X130860000Y-123235783D01*
X130860000Y-66545000D02*
X130860000Y-68925000D01*
X130860000Y-68925000D02*
X130895000Y-68960000D01*
X132130000Y-64005000D02*
X130860000Y-65275000D01*
X130860000Y-62735000D02*
X132130000Y-64005000D01*
X130860000Y-27175000D02*
X130860000Y-28445000D01*
%TO.N,/Col4*%
X111810000Y-84325000D02*
X111810000Y-85595000D01*
X111810000Y-62735000D02*
X113080000Y-64005000D01*
X113080000Y-83055000D02*
X111810000Y-84325000D01*
X111810000Y-107077622D02*
X122110105Y-117377727D01*
X111810000Y-81785000D02*
X113080000Y-83055000D01*
X111810000Y-85595000D02*
X111810000Y-107077622D01*
X111810000Y-65275000D02*
X111810000Y-66545000D01*
X113080000Y-25905000D02*
X111810000Y-27175000D01*
X111810000Y-27175000D02*
X111810000Y-28445000D01*
X113080000Y-44955000D02*
X111810000Y-43685000D01*
X113080000Y-64005000D02*
X111810000Y-65275000D01*
X113080000Y-44955000D02*
X111810000Y-46225000D01*
D28*
X119885644Y-119143024D02*
X121650941Y-117377727D01*
D29*
X111810000Y-46225000D02*
X111810000Y-47495000D01*
X111810000Y-43685000D02*
X111810000Y-28445000D01*
X111810000Y-47495000D02*
X111810000Y-62735000D01*
X111810000Y-66545000D02*
X111810000Y-81785000D01*
%TO.N,/Col3*%
X98792500Y-99619669D02*
X98792500Y-106867500D01*
X94030000Y-64005000D02*
X92760000Y-65275000D01*
X92760000Y-85595000D02*
X92760000Y-93587169D01*
X92760000Y-84325000D02*
X92760000Y-85595000D01*
X92760000Y-81785000D02*
X94030000Y-83055000D01*
X92760000Y-47495000D02*
X94030000Y-48765000D01*
X92760000Y-28445000D02*
X94030000Y-29715000D01*
X98792500Y-106867500D02*
X97522500Y-108137500D01*
X94030000Y-29715000D02*
X94030000Y-44955000D01*
X92760000Y-27175000D02*
X92760000Y-28445000D01*
X97522500Y-108137500D02*
X97522500Y-109407500D01*
X92760000Y-46225000D02*
X92760000Y-47495000D01*
X94030000Y-83055000D02*
X92760000Y-84325000D01*
X94030000Y-25905000D02*
X92760000Y-27175000D01*
X94030000Y-44955000D02*
X92760000Y-46225000D01*
X92760000Y-66545000D02*
X92760000Y-81785000D01*
X92760000Y-65275000D02*
X92760000Y-66545000D01*
X94030000Y-48765000D02*
X94030000Y-64005000D01*
X92760000Y-93587169D02*
X98792500Y-99619669D01*
%TO.N,/Col2*%
X74980000Y-25905000D02*
X73710000Y-27175000D01*
X74980000Y-83055000D02*
X73710000Y-84325000D01*
X79665000Y-99542169D02*
X79665000Y-106867500D01*
X74980000Y-44955000D02*
X73710000Y-46225000D01*
X78395000Y-108137500D02*
X78395000Y-109407500D01*
X74980000Y-29715000D02*
X74980000Y-44955000D01*
X74980000Y-48765000D02*
X74980000Y-64005000D01*
X73710000Y-47495000D02*
X74980000Y-48765000D01*
X73710000Y-93587169D02*
X79665000Y-99542169D01*
X73710000Y-46225000D02*
X73710000Y-47495000D01*
X74980000Y-64005000D02*
X73710000Y-65275000D01*
X73710000Y-65275000D02*
X73710000Y-66545000D01*
X73710000Y-84325000D02*
X73710000Y-85595000D01*
X73710000Y-85595000D02*
X73710000Y-93587169D01*
X73710000Y-27175000D02*
X73710000Y-28445000D01*
X73710000Y-81785000D02*
X74980000Y-83055000D01*
X73710000Y-66545000D02*
X73710000Y-81785000D01*
X73710000Y-28445000D02*
X74980000Y-29715000D01*
X79665000Y-106867500D02*
X78395000Y-108137500D01*
%TO.N,/Col1*%
X59422500Y-108137500D02*
X59422500Y-109407500D01*
X54660000Y-47495000D02*
X54660000Y-62735000D01*
X54660000Y-65275000D02*
X54660000Y-66545000D01*
X54660000Y-66545000D02*
X54660000Y-81785000D01*
X54660000Y-27175000D02*
X54660000Y-28445000D01*
X55930000Y-83055000D02*
X54660000Y-84325000D01*
X54660000Y-43685000D02*
X55930000Y-44955000D01*
X54660000Y-46225000D02*
X54660000Y-47495000D01*
X54660000Y-28445000D02*
X54660000Y-43685000D01*
X55930000Y-64005000D02*
X54660000Y-65275000D01*
X60692500Y-106867500D02*
X59422500Y-108137500D01*
X55930000Y-44955000D02*
X54660000Y-46225000D01*
X54660000Y-85595000D02*
X54660000Y-100835000D01*
X55930000Y-25905000D02*
X54660000Y-27175000D01*
X54660000Y-81785000D02*
X55930000Y-83055000D01*
X54660000Y-100835000D02*
X60692500Y-106867500D01*
X54660000Y-62735000D02*
X55930000Y-64005000D01*
X54660000Y-84325000D02*
X54660000Y-85595000D01*
%TO.N,/Col0*%
X35610000Y-43685000D02*
X36880000Y-44955000D01*
X35610000Y-115122500D02*
X36880000Y-116392500D01*
X35610000Y-85595000D02*
X35610000Y-115122500D01*
X36880000Y-44955000D02*
X35610000Y-46225000D01*
X35610000Y-62735000D02*
X36880000Y-64005000D01*
X35610000Y-27175000D02*
X35610000Y-28445000D01*
X35610000Y-117662500D02*
X35610000Y-118932500D01*
X35610000Y-46225000D02*
X35610000Y-47495000D01*
X35634835Y-81809835D02*
X36880000Y-83055000D01*
X36880000Y-116392500D02*
X35610000Y-117662500D01*
X35610000Y-47495000D02*
X35610000Y-62735000D01*
X36880000Y-83055000D02*
X35610000Y-84325000D01*
X35610000Y-28445000D02*
X35610000Y-43685000D01*
X35610000Y-84325000D02*
X35610000Y-85595000D01*
X36880000Y-25905000D02*
X35610000Y-27175000D01*
X35634835Y-76599835D02*
X35634835Y-81809835D01*
%TD*%
M02*
