M48
; DRILL file {KiCad 7.0.1} date Thu Apr  6 15:28:19 2023
; FORMAT={-:-/ absolute / metric / decimal}
; #@! TF.CreationDate,2023-04-06T15:28:19+10:00
; #@! TF.GenerationSoftware,Kicad,Pcbnew,7.0.1
; #@! TF.FileFunction,NonPlated,1,2,NPTH
FMAT,2
METRIC
; #@! TA.AperFunction,NonPlated,NPTH,ComponentDrill
T1C3.988
%
G90
G05
T1
X39.42Y-30.985
X39.42Y-50.035
X39.42Y-69.085
X39.42Y-88.135
X39.42Y-121.472
X58.47Y-30.985
X58.47Y-50.035
X58.47Y-69.085
X58.47Y-88.135
X63.232Y-111.947
X77.52Y-30.985
X77.52Y-50.035
X77.52Y-69.085
X77.52Y-88.135
X82.205Y-111.947
X96.57Y-30.985
X96.57Y-50.035
X96.57Y-69.085
X96.57Y-88.135
X101.332Y-111.947
X115.62Y-30.985
X115.62Y-50.035
X115.62Y-69.085
X115.62Y-88.135
X122.265Y-123.055
X134.67Y-30.985
X134.67Y-50.035
X134.67Y-69.085
X134.67Y-88.135
X140.465Y-136.889
X150.665Y-156.955
X153.72Y-30.985
X153.72Y-50.035
X153.72Y-69.085
X153.72Y-88.135
T0
M30
