%TF.GenerationSoftware,KiCad,Pcbnew,7.0.1*%
%TF.CreationDate,2023-04-06T15:27:56+10:00*%
%TF.ProjectId,genesys,67656e65-7379-4732-9e6b-696361645f70,rev?*%
%TF.SameCoordinates,Original*%
%TF.FileFunction,Legend,Bot*%
%TF.FilePolarity,Positive*%
%FSLAX46Y46*%
G04 Gerber Fmt 4.6, Leading zero omitted, Abs format (unit mm)*
G04 Created by KiCad (PCBNEW 7.0.1) date 2023-04-06 15:27:56*
%MOMM*%
%LPD*%
G01*
G04 APERTURE LIST*
G04 Aperture macros list*
%AMHorizOval*
0 Thick line with rounded ends*
0 $1 width*
0 $2 $3 position (X,Y) of the first rounded end (center of the circle)*
0 $4 $5 position (X,Y) of the second rounded end (center of the circle)*
0 Add line between two ends*
20,1,$1,$2,$3,$4,$5,0*
0 Add two circle primitives to create the rounded ends*
1,1,$1,$2,$3*
1,1,$1,$4,$5*%
%AMRotRect*
0 Rectangle, with rotation*
0 The origin of the aperture is its center*
0 $1 length*
0 $2 width*
0 $3 Rotation angle, in degrees counterclockwise*
0 Add horizontal line*
21,1,$1,$2,0,0,$3*%
G04 Aperture macros list end*
%ADD10C,0.075000*%
%ADD11C,0.625000*%
%ADD12C,0.150000*%
%ADD13C,0.381000*%
%ADD14C,1.651000*%
%ADD15R,1.752600X1.752600*%
%ADD16C,1.752600*%
%ADD17C,1.400000*%
%ADD18R,2.500000X1.200000*%
%ADD19C,3.200000*%
%ADD20C,3.987800*%
%ADD21C,2.286000*%
%ADD22R,2.200000X2.200000*%
%ADD23O,2.200000X2.200000*%
%ADD24RotRect,2.200000X2.200000X40.000000*%
%ADD25HorizOval,2.200000X0.000000X0.000000X0.000000X0.000000X0*%
%ADD26RotRect,2.200000X2.200000X65.000000*%
%ADD27HorizOval,2.200000X0.000000X0.000000X0.000000X0.000000X0*%
%ADD28RotRect,2.200000X2.200000X75.000000*%
%ADD29HorizOval,2.200000X0.000000X0.000000X0.000000X0.000000X0*%
%ADD30RotRect,2.200000X2.200000X15.000000*%
%ADD31HorizOval,2.200000X0.000000X0.000000X0.000000X0.000000X0*%
G04 APERTURE END LIST*
D10*
X160042857Y-114749000D02*
X160000000Y-114763285D01*
X160000000Y-114763285D02*
X159928571Y-114763285D01*
X159928571Y-114763285D02*
X159900000Y-114749000D01*
X159900000Y-114749000D02*
X159885714Y-114734714D01*
X159885714Y-114734714D02*
X159871428Y-114706142D01*
X159871428Y-114706142D02*
X159871428Y-114677571D01*
X159871428Y-114677571D02*
X159885714Y-114649000D01*
X159885714Y-114649000D02*
X159900000Y-114634714D01*
X159900000Y-114634714D02*
X159928571Y-114620428D01*
X159928571Y-114620428D02*
X159985714Y-114606142D01*
X159985714Y-114606142D02*
X160014285Y-114591857D01*
X160014285Y-114591857D02*
X160028571Y-114577571D01*
X160028571Y-114577571D02*
X160042857Y-114549000D01*
X160042857Y-114549000D02*
X160042857Y-114520428D01*
X160042857Y-114520428D02*
X160028571Y-114491857D01*
X160028571Y-114491857D02*
X160014285Y-114477571D01*
X160014285Y-114477571D02*
X159985714Y-114463285D01*
X159985714Y-114463285D02*
X159914285Y-114463285D01*
X159914285Y-114463285D02*
X159871428Y-114477571D01*
X159571428Y-114734714D02*
X159585714Y-114749000D01*
X159585714Y-114749000D02*
X159628571Y-114763285D01*
X159628571Y-114763285D02*
X159657143Y-114763285D01*
X159657143Y-114763285D02*
X159700000Y-114749000D01*
X159700000Y-114749000D02*
X159728571Y-114720428D01*
X159728571Y-114720428D02*
X159742857Y-114691857D01*
X159742857Y-114691857D02*
X159757143Y-114634714D01*
X159757143Y-114634714D02*
X159757143Y-114591857D01*
X159757143Y-114591857D02*
X159742857Y-114534714D01*
X159742857Y-114534714D02*
X159728571Y-114506142D01*
X159728571Y-114506142D02*
X159700000Y-114477571D01*
X159700000Y-114477571D02*
X159657143Y-114463285D01*
X159657143Y-114463285D02*
X159628571Y-114463285D01*
X159628571Y-114463285D02*
X159585714Y-114477571D01*
X159585714Y-114477571D02*
X159571428Y-114491857D01*
X159300000Y-114763285D02*
X159442857Y-114763285D01*
X159442857Y-114763285D02*
X159442857Y-114463285D01*
X160042857Y-114249000D02*
X160000000Y-114263285D01*
X160000000Y-114263285D02*
X159928571Y-114263285D01*
X159928571Y-114263285D02*
X159900000Y-114249000D01*
X159900000Y-114249000D02*
X159885714Y-114234714D01*
X159885714Y-114234714D02*
X159871428Y-114206142D01*
X159871428Y-114206142D02*
X159871428Y-114177571D01*
X159871428Y-114177571D02*
X159885714Y-114149000D01*
X159885714Y-114149000D02*
X159900000Y-114134714D01*
X159900000Y-114134714D02*
X159928571Y-114120428D01*
X159928571Y-114120428D02*
X159985714Y-114106142D01*
X159985714Y-114106142D02*
X160014285Y-114091857D01*
X160014285Y-114091857D02*
X160028571Y-114077571D01*
X160028571Y-114077571D02*
X160042857Y-114049000D01*
X160042857Y-114049000D02*
X160042857Y-114020428D01*
X160042857Y-114020428D02*
X160028571Y-113991857D01*
X160028571Y-113991857D02*
X160014285Y-113977571D01*
X160014285Y-113977571D02*
X159985714Y-113963285D01*
X159985714Y-113963285D02*
X159914285Y-113963285D01*
X159914285Y-113963285D02*
X159871428Y-113977571D01*
X159742857Y-114263285D02*
X159742857Y-113963285D01*
X159742857Y-113963285D02*
X159671428Y-113963285D01*
X159671428Y-113963285D02*
X159628571Y-113977571D01*
X159628571Y-113977571D02*
X159600000Y-114006142D01*
X159600000Y-114006142D02*
X159585714Y-114034714D01*
X159585714Y-114034714D02*
X159571428Y-114091857D01*
X159571428Y-114091857D02*
X159571428Y-114134714D01*
X159571428Y-114134714D02*
X159585714Y-114191857D01*
X159585714Y-114191857D02*
X159600000Y-114220428D01*
X159600000Y-114220428D02*
X159628571Y-114249000D01*
X159628571Y-114249000D02*
X159671428Y-114263285D01*
X159671428Y-114263285D02*
X159742857Y-114263285D01*
X159457143Y-114177571D02*
X159314286Y-114177571D01*
X159485714Y-114263285D02*
X159385714Y-113963285D01*
X159385714Y-113963285D02*
X159285714Y-114263285D01*
X159771428Y-120377571D02*
X159800000Y-120363285D01*
X159800000Y-120363285D02*
X159842857Y-120363285D01*
X159842857Y-120363285D02*
X159885714Y-120377571D01*
X159885714Y-120377571D02*
X159914285Y-120406142D01*
X159914285Y-120406142D02*
X159928571Y-120434714D01*
X159928571Y-120434714D02*
X159942857Y-120491857D01*
X159942857Y-120491857D02*
X159942857Y-120534714D01*
X159942857Y-120534714D02*
X159928571Y-120591857D01*
X159928571Y-120591857D02*
X159914285Y-120620428D01*
X159914285Y-120620428D02*
X159885714Y-120649000D01*
X159885714Y-120649000D02*
X159842857Y-120663285D01*
X159842857Y-120663285D02*
X159814285Y-120663285D01*
X159814285Y-120663285D02*
X159771428Y-120649000D01*
X159771428Y-120649000D02*
X159757142Y-120634714D01*
X159757142Y-120634714D02*
X159757142Y-120534714D01*
X159757142Y-120534714D02*
X159814285Y-120534714D01*
X159628571Y-120663285D02*
X159628571Y-120363285D01*
X159628571Y-120363285D02*
X159457142Y-120663285D01*
X159457142Y-120663285D02*
X159457142Y-120363285D01*
X159314285Y-120663285D02*
X159314285Y-120363285D01*
X159314285Y-120363285D02*
X159242856Y-120363285D01*
X159242856Y-120363285D02*
X159199999Y-120377571D01*
X159199999Y-120377571D02*
X159171428Y-120406142D01*
X159171428Y-120406142D02*
X159157142Y-120434714D01*
X159157142Y-120434714D02*
X159142856Y-120491857D01*
X159142856Y-120491857D02*
X159142856Y-120534714D01*
X159142856Y-120534714D02*
X159157142Y-120591857D01*
X159157142Y-120591857D02*
X159171428Y-120620428D01*
X159171428Y-120620428D02*
X159199999Y-120649000D01*
X159199999Y-120649000D02*
X159242856Y-120663285D01*
X159242856Y-120663285D02*
X159314285Y-120663285D01*
X159928571Y-121163285D02*
X159928571Y-120863285D01*
X159928571Y-120863285D02*
X159814285Y-120863285D01*
X159814285Y-120863285D02*
X159785714Y-120877571D01*
X159785714Y-120877571D02*
X159771428Y-120891857D01*
X159771428Y-120891857D02*
X159757142Y-120920428D01*
X159757142Y-120920428D02*
X159757142Y-120963285D01*
X159757142Y-120963285D02*
X159771428Y-120991857D01*
X159771428Y-120991857D02*
X159785714Y-121006142D01*
X159785714Y-121006142D02*
X159814285Y-121020428D01*
X159814285Y-121020428D02*
X159928571Y-121020428D01*
X159657142Y-120863285D02*
X159585714Y-121163285D01*
X159585714Y-121163285D02*
X159528571Y-120949000D01*
X159528571Y-120949000D02*
X159471428Y-121163285D01*
X159471428Y-121163285D02*
X159400000Y-120863285D01*
X159114285Y-121163285D02*
X159214285Y-121020428D01*
X159285714Y-121163285D02*
X159285714Y-120863285D01*
X159285714Y-120863285D02*
X159171428Y-120863285D01*
X159171428Y-120863285D02*
X159142857Y-120877571D01*
X159142857Y-120877571D02*
X159128571Y-120891857D01*
X159128571Y-120891857D02*
X159114285Y-120920428D01*
X159114285Y-120920428D02*
X159114285Y-120963285D01*
X159114285Y-120963285D02*
X159128571Y-120991857D01*
X159128571Y-120991857D02*
X159142857Y-121006142D01*
X159142857Y-121006142D02*
X159171428Y-121020428D01*
X159171428Y-121020428D02*
X159285714Y-121020428D01*
D11*
X73279285Y-125680714D02*
X73565000Y-125537857D01*
X73565000Y-125537857D02*
X73993571Y-125537857D01*
X73993571Y-125537857D02*
X74422142Y-125680714D01*
X74422142Y-125680714D02*
X74707857Y-125966428D01*
X74707857Y-125966428D02*
X74850714Y-126252142D01*
X74850714Y-126252142D02*
X74993571Y-126823571D01*
X74993571Y-126823571D02*
X74993571Y-127252142D01*
X74993571Y-127252142D02*
X74850714Y-127823571D01*
X74850714Y-127823571D02*
X74707857Y-128109285D01*
X74707857Y-128109285D02*
X74422142Y-128395000D01*
X74422142Y-128395000D02*
X73993571Y-128537857D01*
X73993571Y-128537857D02*
X73707857Y-128537857D01*
X73707857Y-128537857D02*
X73279285Y-128395000D01*
X73279285Y-128395000D02*
X73136428Y-128252142D01*
X73136428Y-128252142D02*
X73136428Y-127252142D01*
X73136428Y-127252142D02*
X73707857Y-127252142D01*
X70707857Y-128395000D02*
X70993571Y-128537857D01*
X70993571Y-128537857D02*
X71565000Y-128537857D01*
X71565000Y-128537857D02*
X71850714Y-128395000D01*
X71850714Y-128395000D02*
X71993571Y-128109285D01*
X71993571Y-128109285D02*
X71993571Y-126966428D01*
X71993571Y-126966428D02*
X71850714Y-126680714D01*
X71850714Y-126680714D02*
X71565000Y-126537857D01*
X71565000Y-126537857D02*
X70993571Y-126537857D01*
X70993571Y-126537857D02*
X70707857Y-126680714D01*
X70707857Y-126680714D02*
X70565000Y-126966428D01*
X70565000Y-126966428D02*
X70565000Y-127252142D01*
X70565000Y-127252142D02*
X71993571Y-127537857D01*
X69279285Y-126537857D02*
X69279285Y-128537857D01*
X69279285Y-126823571D02*
X69136428Y-126680714D01*
X69136428Y-126680714D02*
X68850713Y-126537857D01*
X68850713Y-126537857D02*
X68422142Y-126537857D01*
X68422142Y-126537857D02*
X68136428Y-126680714D01*
X68136428Y-126680714D02*
X67993571Y-126966428D01*
X67993571Y-126966428D02*
X67993571Y-128537857D01*
X65422142Y-128395000D02*
X65707856Y-128537857D01*
X65707856Y-128537857D02*
X66279285Y-128537857D01*
X66279285Y-128537857D02*
X66564999Y-128395000D01*
X66564999Y-128395000D02*
X66707856Y-128109285D01*
X66707856Y-128109285D02*
X66707856Y-126966428D01*
X66707856Y-126966428D02*
X66564999Y-126680714D01*
X66564999Y-126680714D02*
X66279285Y-126537857D01*
X66279285Y-126537857D02*
X65707856Y-126537857D01*
X65707856Y-126537857D02*
X65422142Y-126680714D01*
X65422142Y-126680714D02*
X65279285Y-126966428D01*
X65279285Y-126966428D02*
X65279285Y-127252142D01*
X65279285Y-127252142D02*
X66707856Y-127537857D01*
X64136427Y-128395000D02*
X63850713Y-128537857D01*
X63850713Y-128537857D02*
X63279284Y-128537857D01*
X63279284Y-128537857D02*
X62993570Y-128395000D01*
X62993570Y-128395000D02*
X62850713Y-128109285D01*
X62850713Y-128109285D02*
X62850713Y-127966428D01*
X62850713Y-127966428D02*
X62993570Y-127680714D01*
X62993570Y-127680714D02*
X63279284Y-127537857D01*
X63279284Y-127537857D02*
X63707856Y-127537857D01*
X63707856Y-127537857D02*
X63993570Y-127395000D01*
X63993570Y-127395000D02*
X64136427Y-127109285D01*
X64136427Y-127109285D02*
X64136427Y-126966428D01*
X64136427Y-126966428D02*
X63993570Y-126680714D01*
X63993570Y-126680714D02*
X63707856Y-126537857D01*
X63707856Y-126537857D02*
X63279284Y-126537857D01*
X63279284Y-126537857D02*
X62993570Y-126680714D01*
X61850713Y-126537857D02*
X61136427Y-128537857D01*
X60422142Y-126537857D02*
X61136427Y-128537857D01*
X61136427Y-128537857D02*
X61422142Y-129252142D01*
X61422142Y-129252142D02*
X61564999Y-129395000D01*
X61564999Y-129395000D02*
X61850713Y-129537857D01*
X59422142Y-128395000D02*
X59136428Y-128537857D01*
X59136428Y-128537857D02*
X58564999Y-128537857D01*
X58564999Y-128537857D02*
X58279285Y-128395000D01*
X58279285Y-128395000D02*
X58136428Y-128109285D01*
X58136428Y-128109285D02*
X58136428Y-127966428D01*
X58136428Y-127966428D02*
X58279285Y-127680714D01*
X58279285Y-127680714D02*
X58564999Y-127537857D01*
X58564999Y-127537857D02*
X58993571Y-127537857D01*
X58993571Y-127537857D02*
X59279285Y-127395000D01*
X59279285Y-127395000D02*
X59422142Y-127109285D01*
X59422142Y-127109285D02*
X59422142Y-126966428D01*
X59422142Y-126966428D02*
X59279285Y-126680714D01*
X59279285Y-126680714D02*
X58993571Y-126537857D01*
X58993571Y-126537857D02*
X58564999Y-126537857D01*
X58564999Y-126537857D02*
X58279285Y-126680714D01*
D12*
%TO.C,J2*%
X128705000Y-32535000D02*
X128705000Y-44635000D01*
X128455000Y-32535000D02*
X128455000Y-30535000D01*
X122855000Y-30535000D02*
X128455000Y-30535000D01*
X122855000Y-32535000D02*
X122855000Y-30535000D01*
X122605000Y-32535000D02*
X128705000Y-32535000D01*
X122605000Y-32535000D02*
X122605000Y-44635000D01*
X122605000Y-44635000D02*
X128705000Y-44635000D01*
D13*
%TO.C,U1*%
X106906400Y-27566750D02*
X89126400Y-27566750D01*
X89126400Y-27566750D02*
X89126400Y-60586750D01*
X91666400Y-30106750D02*
X89126400Y-30106750D01*
X91666400Y-30106750D02*
X91666400Y-32646750D01*
X91666400Y-32646750D02*
X89126400Y-32646750D01*
X106906400Y-60586750D02*
X106906400Y-27566750D01*
X89126400Y-60586750D02*
X106906400Y-60586750D01*
%TD*%
D14*
%TO.C,R2*%
X152500000Y-112540000D03*
X152500000Y-122700000D03*
%TD*%
%TO.C,R1*%
X155650000Y-112540000D03*
X155650000Y-122700000D03*
%TD*%
D15*
%TO.C,U1*%
X90396400Y-31376750D03*
D16*
X90396400Y-33916750D03*
X90396400Y-36456750D03*
X90396400Y-38996750D03*
X90396400Y-41536750D03*
X90396400Y-44076750D03*
X90396400Y-46616750D03*
X90396400Y-49156750D03*
X90396400Y-51696750D03*
X90396400Y-54236750D03*
X90396400Y-56776750D03*
X90396400Y-59316750D03*
X105636400Y-59316750D03*
X105636400Y-56776750D03*
X105636400Y-54236750D03*
X105636400Y-51696750D03*
X105636400Y-49156750D03*
X105636400Y-46616750D03*
X105636400Y-44076750D03*
X105636400Y-41536750D03*
X105636400Y-38996750D03*
X105636400Y-36456750D03*
X105636400Y-33916750D03*
X105636400Y-31376750D03*
%TD*%
%LPC*%
D14*
%TO.C,R2*%
X152500000Y-112540000D03*
X152500000Y-122700000D03*
%TD*%
%TO.C,R1*%
X155650000Y-112540000D03*
X155650000Y-122700000D03*
%TD*%
D17*
%TO.C,TP4*%
X159600000Y-119510000D03*
X159600000Y-122050000D03*
%TD*%
%TO.C,TP3*%
X159600000Y-115640000D03*
X159600000Y-113100000D03*
%TD*%
D18*
%TO.C,J2*%
X122405000Y-42735000D03*
X122405000Y-38735000D03*
X122405000Y-35735000D03*
X128905000Y-43835000D03*
%TD*%
D19*
%TO.C,H7*%
X144145000Y-147955000D03*
%TD*%
%TO.C,H5*%
X144500000Y-79300000D03*
%TD*%
%TO.C,H4*%
X144500000Y-40525000D03*
%TD*%
%TO.C,H2*%
X48895000Y-79375000D03*
%TD*%
%TO.C,H1*%
X48895000Y-40525000D03*
%TD*%
D20*
%TO.C,SW23*%
X58470000Y-88135000D03*
D21*
X54660000Y-85595000D03*
X55930000Y-83055000D03*
X61010000Y-83055000D03*
X62280000Y-85595000D03*
%TD*%
D22*
%TO.C,D3*%
X84160000Y-38875000D03*
D23*
X84160000Y-28715000D03*
%TD*%
D22*
%TO.C,D22*%
X46060000Y-96025000D03*
D23*
X46060000Y-85865000D03*
%TD*%
D22*
%TO.C,D28*%
X160360000Y-96025000D03*
D23*
X160360000Y-85865000D03*
%TD*%
D20*
%TO.C,SW4*%
X96570000Y-30985000D03*
D21*
X92760000Y-28445000D03*
X94030000Y-25905000D03*
X99110000Y-25905000D03*
X100380000Y-28445000D03*
%TD*%
D20*
%TO.C,SW18*%
X96570000Y-69085000D03*
D21*
X92760000Y-66545000D03*
X94030000Y-64005000D03*
X99110000Y-64005000D03*
X100380000Y-66545000D03*
%TD*%
D22*
%TO.C,D11*%
X103210000Y-57925000D03*
D23*
X103210000Y-47765000D03*
%TD*%
D20*
%TO.C,SW30*%
X63232500Y-111947500D03*
D21*
X59422500Y-109407500D03*
X60692500Y-106867500D03*
X65772500Y-106867500D03*
X67042500Y-109407500D03*
%TD*%
D20*
%TO.C,SW27*%
X134670000Y-88135000D03*
D21*
X130860000Y-85595000D03*
X132130000Y-83055000D03*
X137210000Y-83055000D03*
X138480000Y-85595000D03*
%TD*%
D20*
%TO.C,SW15*%
X39420000Y-69085000D03*
D21*
X35610000Y-66545000D03*
X36880000Y-64005000D03*
X41960000Y-64005000D03*
X43230000Y-66545000D03*
%TD*%
D22*
%TO.C,D17*%
X84160000Y-76975000D03*
D23*
X84160000Y-66815000D03*
%TD*%
D20*
%TO.C,SW32*%
X101332500Y-111947500D03*
D21*
X97522500Y-109407500D03*
X98792500Y-106867500D03*
X103872500Y-106867500D03*
X105142500Y-109407500D03*
%TD*%
D20*
%TO.C,SW9*%
X58470000Y-50035000D03*
D21*
X54660000Y-47495000D03*
X55930000Y-44955000D03*
X61010000Y-44955000D03*
X62280000Y-47495000D03*
%TD*%
D22*
%TO.C,D29*%
X46060000Y-129362500D03*
D23*
X46060000Y-119202500D03*
%TD*%
D22*
%TO.C,D20*%
X141310000Y-76975000D03*
D23*
X141310000Y-66815000D03*
%TD*%
D22*
%TO.C,D21*%
X160360000Y-76975000D03*
D23*
X160360000Y-66815000D03*
%TD*%
D22*
%TO.C,D18*%
X103210000Y-76975000D03*
D23*
X103210000Y-66815000D03*
%TD*%
D20*
%TO.C,SW10*%
X77520000Y-50035000D03*
D21*
X73710000Y-47495000D03*
X74980000Y-44955000D03*
X80060000Y-44955000D03*
X81330000Y-47495000D03*
%TD*%
D22*
%TO.C,D23*%
X65110000Y-96025000D03*
D23*
X65110000Y-85865000D03*
%TD*%
D20*
%TO.C,SW20*%
X134670000Y-69085000D03*
D21*
X130860000Y-66545000D03*
X132130000Y-64005000D03*
X137210000Y-64005000D03*
X138480000Y-66545000D03*
%TD*%
D20*
%TO.C,SW7*%
X153720000Y-30985000D03*
D21*
X149910000Y-28445000D03*
X151180000Y-25905000D03*
X156260000Y-25905000D03*
X157530000Y-28445000D03*
%TD*%
D20*
%TO.C,SW33*%
X122265226Y-123055221D03*
D21*
X119885644Y-119143024D03*
X122110105Y-117377727D03*
X126714149Y-119524628D03*
X126791709Y-122363375D03*
%TD*%
D22*
%TO.C,D6*%
X141300000Y-39196904D03*
D23*
X141300000Y-29036904D03*
%TD*%
D20*
%TO.C,SW28*%
X153720000Y-88135000D03*
D21*
X149910000Y-85595000D03*
X151180000Y-83055000D03*
X156260000Y-83055000D03*
X157530000Y-85595000D03*
%TD*%
D20*
%TO.C,SW24*%
X77520000Y-88135000D03*
D21*
X73710000Y-85595000D03*
X74980000Y-83055000D03*
X80060000Y-83055000D03*
X81330000Y-85595000D03*
%TD*%
D22*
%TO.C,D7*%
X160360000Y-38875000D03*
D23*
X160360000Y-28715000D03*
%TD*%
D22*
%TO.C,D32*%
X107972500Y-119837500D03*
D23*
X107972500Y-109677500D03*
%TD*%
D22*
%TO.C,D12*%
X122260000Y-57925000D03*
D23*
X122260000Y-47765000D03*
%TD*%
D20*
%TO.C,SW34*%
X140465226Y-136889051D03*
D21*
X139961958Y-132337741D03*
X142724051Y-131677937D03*
X145989412Y-135569443D03*
X144860000Y-138175000D03*
%TD*%
D20*
%TO.C,SW6*%
X134670000Y-30985000D03*
D21*
X130860000Y-28445000D03*
X132130000Y-25905000D03*
X137210000Y-25905000D03*
X138480000Y-28445000D03*
%TD*%
D24*
%TO.C,D34*%
X138693811Y-146991561D03*
D25*
X146476823Y-140460839D03*
%TD*%
D20*
%TO.C,SW26*%
X115620000Y-88135000D03*
D21*
X111810000Y-85595000D03*
X113080000Y-83055000D03*
X118160000Y-83055000D03*
X119430000Y-85595000D03*
%TD*%
D20*
%TO.C,SW22*%
X39420000Y-88135000D03*
D21*
X35610000Y-85595000D03*
X36880000Y-83055000D03*
X41960000Y-83055000D03*
X43230000Y-85595000D03*
%TD*%
D15*
%TO.C,U1*%
X90396400Y-31376750D03*
D16*
X90396400Y-33916750D03*
X90396400Y-36456750D03*
X90396400Y-38996750D03*
X90396400Y-41536750D03*
X90396400Y-44076750D03*
X90396400Y-46616750D03*
X90396400Y-49156750D03*
X90396400Y-51696750D03*
X90396400Y-54236750D03*
X90396400Y-56776750D03*
X90396400Y-59316750D03*
X105636400Y-59316750D03*
X105636400Y-56776750D03*
X105636400Y-54236750D03*
X105636400Y-51696750D03*
X105636400Y-49156750D03*
X105636400Y-46616750D03*
X105636400Y-44076750D03*
X105636400Y-41536750D03*
X105636400Y-38996750D03*
X105636400Y-36456750D03*
X105636400Y-33916750D03*
X105636400Y-31376750D03*
%TD*%
D20*
%TO.C,SW35*%
X150665226Y-156955221D03*
D21*
X152132577Y-152617643D03*
X154914729Y-153186969D03*
X156229530Y-158093872D03*
X154104778Y-159977998D03*
%TD*%
D22*
%TO.C,D26*%
X122260000Y-96025000D03*
D23*
X122260000Y-85865000D03*
%TD*%
D26*
%TO.C,D33*%
X124763174Y-133081540D03*
D27*
X129056976Y-123873453D03*
%TD*%
D20*
%TO.C,SW12*%
X115620000Y-50035000D03*
D21*
X111810000Y-47495000D03*
X113080000Y-44955000D03*
X118160000Y-44955000D03*
X119430000Y-47495000D03*
%TD*%
D28*
%TO.C,D5*%
X119380000Y-38875000D03*
D29*
X122009601Y-29061194D03*
%TD*%
D20*
%TO.C,SW2*%
X58470000Y-30985000D03*
D21*
X54660000Y-28445000D03*
X55930000Y-25905000D03*
X61010000Y-25905000D03*
X62280000Y-28445000D03*
%TD*%
D20*
%TO.C,SW13*%
X134670000Y-50035000D03*
D21*
X130860000Y-47495000D03*
X132130000Y-44955000D03*
X137210000Y-44955000D03*
X138480000Y-47495000D03*
%TD*%
D22*
%TO.C,D16*%
X65110000Y-76975000D03*
D23*
X65110000Y-66815000D03*
%TD*%
D22*
%TO.C,D13*%
X141310000Y-57925000D03*
D23*
X141310000Y-47765000D03*
%TD*%
D22*
%TO.C,D30*%
X69895000Y-119790000D03*
D23*
X69895000Y-109630000D03*
%TD*%
D20*
%TO.C,SW16*%
X58470000Y-69085000D03*
D21*
X54660000Y-66545000D03*
X55930000Y-64005000D03*
X61010000Y-64005000D03*
X62280000Y-66545000D03*
%TD*%
D20*
%TO.C,SW21*%
X153720000Y-69085000D03*
D21*
X149910000Y-66545000D03*
X151180000Y-64005000D03*
X156260000Y-64005000D03*
X157530000Y-66545000D03*
%TD*%
D20*
%TO.C,SW29*%
X39420000Y-121472500D03*
D21*
X35610000Y-118932500D03*
X36880000Y-116392500D03*
X41960000Y-116392500D03*
X43230000Y-118932500D03*
%TD*%
D20*
%TO.C,SW3*%
X77520000Y-30985000D03*
D21*
X73710000Y-28445000D03*
X74980000Y-25905000D03*
X80060000Y-25905000D03*
X81330000Y-28445000D03*
%TD*%
D22*
%TO.C,D10*%
X84160000Y-57925000D03*
D23*
X84160000Y-47765000D03*
%TD*%
D22*
%TO.C,D9*%
X65110000Y-57925000D03*
D23*
X65110000Y-47765000D03*
%TD*%
D20*
%TO.C,SW14*%
X153720000Y-50035000D03*
D21*
X149910000Y-47495000D03*
X151180000Y-44955000D03*
X156260000Y-44955000D03*
X157530000Y-47495000D03*
%TD*%
D22*
%TO.C,D4*%
X103210000Y-38875000D03*
D23*
X103210000Y-28715000D03*
%TD*%
D22*
%TO.C,D24*%
X84160000Y-96025000D03*
D23*
X84160000Y-85865000D03*
%TD*%
D22*
%TO.C,D31*%
X88922500Y-119837500D03*
D23*
X88922500Y-109677500D03*
%TD*%
D22*
%TO.C,D19*%
X122260000Y-76975000D03*
D23*
X122260000Y-66815000D03*
%TD*%
D20*
%TO.C,SW31*%
X82205000Y-111947500D03*
D21*
X78395000Y-109407500D03*
X79665000Y-106867500D03*
X84745000Y-106867500D03*
X86015000Y-109407500D03*
%TD*%
D22*
%TO.C,D15*%
X46060000Y-76975000D03*
D23*
X46060000Y-66815000D03*
%TD*%
D20*
%TO.C,SW5*%
X115620000Y-30985000D03*
D21*
X111810000Y-28445000D03*
X113080000Y-25905000D03*
X118160000Y-25905000D03*
X119430000Y-28445000D03*
%TD*%
D30*
%TO.C,D35*%
X145811194Y-166964601D03*
D31*
X155625000Y-164335000D03*
%TD*%
D22*
%TO.C,D8*%
X46060000Y-57925000D03*
D23*
X46060000Y-47765000D03*
%TD*%
D22*
%TO.C,D25*%
X103210000Y-96025000D03*
D23*
X103210000Y-85865000D03*
%TD*%
D20*
%TO.C,SW19*%
X115620000Y-69085000D03*
D21*
X111810000Y-66545000D03*
X113080000Y-64005000D03*
X118160000Y-64005000D03*
X119430000Y-66545000D03*
%TD*%
D20*
%TO.C,SW8*%
X39420000Y-50035000D03*
D21*
X35610000Y-47495000D03*
X36880000Y-44955000D03*
X41960000Y-44955000D03*
X43230000Y-47495000D03*
%TD*%
D20*
%TO.C,SW25*%
X96570000Y-88135000D03*
D21*
X92760000Y-85595000D03*
X94030000Y-83055000D03*
X99110000Y-83055000D03*
X100380000Y-85595000D03*
%TD*%
D20*
%TO.C,SW17*%
X77520000Y-69085000D03*
D21*
X73710000Y-66545000D03*
X74980000Y-64005000D03*
X80060000Y-64005000D03*
X81330000Y-66545000D03*
%TD*%
D22*
%TO.C,D2*%
X65110000Y-38875000D03*
D23*
X65110000Y-28715000D03*
%TD*%
D22*
%TO.C,D1*%
X46060000Y-38875000D03*
D23*
X46060000Y-28715000D03*
%TD*%
D22*
%TO.C,D14*%
X160360000Y-57925000D03*
D23*
X160360000Y-47765000D03*
%TD*%
D20*
%TO.C,SW1*%
X39420000Y-30985000D03*
D21*
X35610000Y-28445000D03*
X36880000Y-25905000D03*
X41960000Y-25905000D03*
X43230000Y-28445000D03*
%TD*%
D20*
%TO.C,SW11*%
X96570000Y-50035000D03*
D21*
X92760000Y-47495000D03*
X94030000Y-44955000D03*
X99110000Y-44955000D03*
X100380000Y-47495000D03*
%TD*%
D22*
%TO.C,D27*%
X141310000Y-96025000D03*
D23*
X141310000Y-85865000D03*
%TD*%
M02*
