%TF.GenerationSoftware,KiCad,Pcbnew,7.0.1*%
%TF.CreationDate,2023-04-06T15:27:56+10:00*%
%TF.ProjectId,genesys,67656e65-7379-4732-9e6b-696361645f70,rev?*%
%TF.SameCoordinates,Original*%
%TF.FileFunction,Soldermask,Top*%
%TF.FilePolarity,Negative*%
%FSLAX46Y46*%
G04 Gerber Fmt 4.6, Leading zero omitted, Abs format (unit mm)*
G04 Created by KiCad (PCBNEW 7.0.1) date 2023-04-06 15:27:56*
%MOMM*%
%LPD*%
G01*
G04 APERTURE LIST*
G04 Aperture macros list*
%AMRoundRect*
0 Rectangle with rounded corners*
0 $1 Rounding radius*
0 $2 $3 $4 $5 $6 $7 $8 $9 X,Y pos of 4 corners*
0 Add a 4 corners polygon primitive as box body*
4,1,4,$2,$3,$4,$5,$6,$7,$8,$9,$2,$3,0*
0 Add four circle primitives for the rounded corners*
1,1,$1+$1,$2,$3*
1,1,$1+$1,$4,$5*
1,1,$1+$1,$6,$7*
1,1,$1+$1,$8,$9*
0 Add four rect primitives between the rounded corners*
20,1,$1+$1,$2,$3,$4,$5,0*
20,1,$1+$1,$4,$5,$6,$7,0*
20,1,$1+$1,$6,$7,$8,$9,0*
20,1,$1+$1,$8,$9,$2,$3,0*%
%AMHorizOval*
0 Thick line with rounded ends*
0 $1 width*
0 $2 $3 position (X,Y) of the first rounded end (center of the circle)*
0 $4 $5 position (X,Y) of the second rounded end (center of the circle)*
0 Add line between two ends*
20,1,$1,$2,$3,$4,$5,0*
0 Add two circle primitives to create the rounded ends*
1,1,$1,$2,$3*
1,1,$1,$4,$5*%
%AMRotRect*
0 Rectangle, with rotation*
0 The origin of the aperture is its center*
0 $1 length*
0 $2 width*
0 $3 Rotation angle, in degrees counterclockwise*
0 Add horizontal line*
21,1,$1,$2,0,0,$3*%
G04 Aperture macros list end*
%ADD10C,1.651000*%
%ADD11C,1.400000*%
%ADD12R,2.500000X1.200000*%
%ADD13C,3.200000*%
%ADD14C,3.987800*%
%ADD15C,2.286000*%
%ADD16R,2.200000X2.200000*%
%ADD17O,2.200000X2.200000*%
%ADD18R,1.700000X0.820000*%
%ADD19RoundRect,0.205000X0.645000X0.205000X-0.645000X0.205000X-0.645000X-0.205000X0.645000X-0.205000X0*%
%ADD20RoundRect,0.205000X-0.645000X-0.205000X0.645000X-0.205000X0.645000X0.205000X-0.645000X0.205000X0*%
%ADD21RotRect,1.700000X0.820000X285.000000*%
%ADD22RoundRect,0.205000X-0.364953X0.569964X-0.031077X-0.676080X0.364953X-0.569964X0.031077X0.676080X0*%
%ADD23RotRect,2.200000X2.200000X40.000000*%
%ADD24HorizOval,2.200000X0.000000X0.000000X0.000000X0.000000X0*%
%ADD25R,1.752600X1.752600*%
%ADD26C,1.752600*%
%ADD27RotRect,2.200000X2.200000X65.000000*%
%ADD28HorizOval,2.200000X0.000000X0.000000X0.000000X0.000000X0*%
%ADD29RotRect,2.200000X2.200000X75.000000*%
%ADD30HorizOval,2.200000X0.000000X0.000000X0.000000X0.000000X0*%
%ADD31RotRect,1.700000X0.820000X310.000000*%
%ADD32RoundRect,0.205000X-0.571637X0.362327X0.257559X-0.625870X0.571637X-0.362327X-0.257559X0.625870X0*%
%ADD33RotRect,1.700000X0.820000X335.000000*%
%ADD34RoundRect,0.205000X-0.671205X0.086796X0.497932X-0.458382X0.671205X-0.086796X-0.497932X0.458382X0*%
%ADD35RotRect,2.200000X2.200000X15.000000*%
%ADD36HorizOval,2.200000X0.000000X0.000000X0.000000X0.000000X0*%
G04 APERTURE END LIST*
D10*
%TO.C,R2*%
X152500000Y-112540000D03*
X152500000Y-122700000D03*
%TD*%
%TO.C,R1*%
X155650000Y-112540000D03*
X155650000Y-122700000D03*
%TD*%
D11*
%TO.C,TP4*%
X159600000Y-119510000D03*
X159600000Y-122050000D03*
%TD*%
%TO.C,TP3*%
X159600000Y-115640000D03*
X159600000Y-113100000D03*
%TD*%
D12*
%TO.C,J1*%
X128905000Y-42735000D03*
X128905000Y-38735000D03*
X128905000Y-35735000D03*
X122405000Y-43835000D03*
%TD*%
D13*
%TO.C,H7*%
X144145000Y-147955000D03*
%TD*%
%TO.C,H5*%
X144500000Y-79300000D03*
%TD*%
%TO.C,H4*%
X144500000Y-40525000D03*
%TD*%
%TO.C,H2*%
X48895000Y-79375000D03*
%TD*%
%TO.C,H1*%
X48895000Y-40525000D03*
%TD*%
D14*
%TO.C,SW23*%
X58470000Y-88135000D03*
D15*
X54660000Y-85595000D03*
X55930000Y-83055000D03*
X61010000Y-83055000D03*
X62280000Y-85595000D03*
%TD*%
D16*
%TO.C,D3*%
X84160000Y-38875000D03*
D17*
X84160000Y-28715000D03*
%TD*%
D16*
%TO.C,D22*%
X46060000Y-96025000D03*
D17*
X46060000Y-85865000D03*
%TD*%
D18*
%TO.C,SK6812Mini-E26*%
X118488836Y-92000000D03*
X118488836Y-93500000D03*
D19*
X112928836Y-93490000D03*
D18*
X112928836Y-91990000D03*
%TD*%
D16*
%TO.C,D28*%
X160360000Y-96025000D03*
D17*
X160360000Y-85865000D03*
%TD*%
D18*
%TO.C,SK6812Mini-E27*%
X137538836Y-92000000D03*
X137538836Y-93500000D03*
D19*
X131978836Y-93490000D03*
D18*
X131978836Y-91990000D03*
%TD*%
%TO.C,SK6812Mini-E7*%
X36708836Y-36420000D03*
X36708836Y-34920000D03*
D20*
X42268836Y-34930000D03*
D18*
X42268836Y-36430000D03*
%TD*%
D14*
%TO.C,SW4*%
X96570000Y-30985000D03*
D15*
X92760000Y-28445000D03*
X94030000Y-25905000D03*
X99110000Y-25905000D03*
X100380000Y-28445000D03*
%TD*%
D14*
%TO.C,SW18*%
X96570000Y-69085000D03*
D15*
X92760000Y-66545000D03*
X94030000Y-64005000D03*
X99110000Y-64005000D03*
X100380000Y-66545000D03*
%TD*%
D16*
%TO.C,D11*%
X103210000Y-57925000D03*
D17*
X103210000Y-47765000D03*
%TD*%
D14*
%TO.C,SW30*%
X63232500Y-111947500D03*
D15*
X59422500Y-109407500D03*
X60692500Y-106867500D03*
X65772500Y-106867500D03*
X67042500Y-109407500D03*
%TD*%
D14*
%TO.C,SW27*%
X134670000Y-88135000D03*
D15*
X130860000Y-85595000D03*
X132130000Y-83055000D03*
X137210000Y-83055000D03*
X138480000Y-85595000D03*
%TD*%
D18*
%TO.C,SK6812Mini-E19*%
X74685000Y-74450000D03*
X74685000Y-72950000D03*
D20*
X80245000Y-72960000D03*
D18*
X80245000Y-74460000D03*
%TD*%
%TO.C,SK6812Mini-E34*%
X60355000Y-117170000D03*
X60355000Y-115670000D03*
D20*
X65915000Y-115680000D03*
D18*
X65915000Y-117180000D03*
%TD*%
%TO.C,SK6812Mini-E23*%
X61338836Y-92000000D03*
X61338836Y-93500000D03*
D19*
X55778836Y-93490000D03*
D18*
X55778836Y-91990000D03*
%TD*%
%TO.C,SK6812Mini-E11*%
X99438836Y-53912492D03*
X99438836Y-55412492D03*
D19*
X93878836Y-55402492D03*
D18*
X93878836Y-53902492D03*
%TD*%
%TO.C,SK6812Mini-E5*%
X74808836Y-36420000D03*
X74808836Y-34920000D03*
D20*
X80368836Y-34930000D03*
D18*
X80368836Y-36430000D03*
%TD*%
D14*
%TO.C,SW15*%
X39420000Y-69085000D03*
D15*
X35610000Y-66545000D03*
X36880000Y-64005000D03*
X41960000Y-64005000D03*
X43230000Y-66545000D03*
%TD*%
D18*
%TO.C,SK6812Mini-E21*%
X36585000Y-74450000D03*
X36585000Y-72950000D03*
D20*
X42145000Y-72960000D03*
D18*
X42145000Y-74460000D03*
%TD*%
D16*
%TO.C,D17*%
X84160000Y-76975000D03*
D17*
X84160000Y-66815000D03*
%TD*%
D14*
%TO.C,SW32*%
X101332500Y-111947500D03*
D15*
X97522500Y-109407500D03*
X98792500Y-106867500D03*
X103872500Y-106867500D03*
X105142500Y-109407500D03*
%TD*%
D14*
%TO.C,SW9*%
X58470000Y-50035000D03*
D15*
X54660000Y-47495000D03*
X55930000Y-44955000D03*
X61010000Y-44955000D03*
X62280000Y-47495000D03*
%TD*%
D18*
%TO.C,SK6812Mini-E25*%
X99438836Y-92000000D03*
X99438836Y-93500000D03*
D19*
X93878836Y-93490000D03*
D18*
X93878836Y-91990000D03*
%TD*%
D16*
%TO.C,D29*%
X46060000Y-129362500D03*
D17*
X46060000Y-119202500D03*
%TD*%
D16*
%TO.C,D20*%
X141310000Y-76975000D03*
D17*
X141310000Y-66815000D03*
%TD*%
D21*
%TO.C,SK6812Mini-E29*%
X144688430Y-155782546D03*
X146137318Y-155394318D03*
D22*
X147566693Y-160767454D03*
D21*
X146117804Y-161155682D03*
%TD*%
D16*
%TO.C,D21*%
X160360000Y-76975000D03*
D17*
X160360000Y-66815000D03*
%TD*%
D16*
%TO.C,D18*%
X103210000Y-76975000D03*
D17*
X103210000Y-66815000D03*
%TD*%
D18*
%TO.C,SK6812Mini-E17*%
X112785000Y-74450000D03*
X112785000Y-72950000D03*
D20*
X118345000Y-72960000D03*
D18*
X118345000Y-74460000D03*
%TD*%
D14*
%TO.C,SW10*%
X77520000Y-50035000D03*
D15*
X73710000Y-47495000D03*
X74980000Y-44955000D03*
X80060000Y-44955000D03*
X81330000Y-47495000D03*
%TD*%
D18*
%TO.C,SK6812Mini-E22*%
X42288836Y-92000000D03*
X42288836Y-93500000D03*
D19*
X36728836Y-93490000D03*
D18*
X36728836Y-91990000D03*
%TD*%
D16*
%TO.C,D23*%
X65110000Y-96025000D03*
D17*
X65110000Y-85865000D03*
%TD*%
D18*
%TO.C,SK6812Mini-E33*%
X79605000Y-117170000D03*
X79605000Y-115670000D03*
D20*
X85165000Y-115680000D03*
D18*
X85165000Y-117180000D03*
%TD*%
D14*
%TO.C,SW20*%
X134670000Y-69085000D03*
D15*
X130860000Y-66545000D03*
X132130000Y-64005000D03*
X137210000Y-64005000D03*
X138480000Y-66545000D03*
%TD*%
D14*
%TO.C,SW7*%
X153720000Y-30985000D03*
D15*
X149910000Y-28445000D03*
X151180000Y-25905000D03*
X156260000Y-25905000D03*
X157530000Y-28445000D03*
%TD*%
D18*
%TO.C,SK6812Mini-E6*%
X55758836Y-36420000D03*
X55758836Y-34920000D03*
D20*
X61318836Y-34930000D03*
D18*
X61318836Y-36430000D03*
%TD*%
%TO.C,SK6812Mini-E18*%
X93735000Y-74450000D03*
X93735000Y-72950000D03*
D20*
X99295000Y-72960000D03*
D18*
X99295000Y-74460000D03*
%TD*%
D14*
%TO.C,SW33*%
X122265226Y-123055221D03*
D15*
X119885644Y-119143024D03*
X122110105Y-117377727D03*
X126714149Y-119524628D03*
X126791709Y-122363375D03*
%TD*%
D16*
%TO.C,D6*%
X141300000Y-39196904D03*
D17*
X141300000Y-29036904D03*
%TD*%
D14*
%TO.C,SW28*%
X153720000Y-88135000D03*
D15*
X149910000Y-85595000D03*
X151180000Y-83055000D03*
X156260000Y-83055000D03*
X157530000Y-85595000D03*
%TD*%
D14*
%TO.C,SW24*%
X77520000Y-88135000D03*
D15*
X73710000Y-85595000D03*
X74980000Y-83055000D03*
X80060000Y-83055000D03*
X81330000Y-85595000D03*
%TD*%
D16*
%TO.C,D7*%
X160360000Y-38875000D03*
D17*
X160360000Y-28715000D03*
%TD*%
D16*
%TO.C,D32*%
X107972500Y-119837500D03*
D17*
X107972500Y-109677500D03*
%TD*%
D16*
%TO.C,D12*%
X122260000Y-57925000D03*
D17*
X122260000Y-47765000D03*
%TD*%
D14*
%TO.C,SW34*%
X140465226Y-136889051D03*
D15*
X139961958Y-132337741D03*
X142724051Y-131677937D03*
X145989412Y-135569443D03*
X144860000Y-138175000D03*
%TD*%
D14*
%TO.C,SW6*%
X134670000Y-30985000D03*
D15*
X130860000Y-28445000D03*
X132130000Y-25905000D03*
X137210000Y-25905000D03*
X138480000Y-28445000D03*
%TD*%
D18*
%TO.C,SK6812Mini-E20*%
X55635000Y-74450000D03*
X55635000Y-72950000D03*
D20*
X61195000Y-72960000D03*
D18*
X61195000Y-74460000D03*
%TD*%
D23*
%TO.C,D34*%
X138693811Y-146991561D03*
D24*
X146476823Y-140460839D03*
%TD*%
D14*
%TO.C,SW26*%
X115620000Y-88135000D03*
D15*
X111810000Y-85595000D03*
X113080000Y-83055000D03*
X118160000Y-83055000D03*
X119430000Y-85595000D03*
%TD*%
D14*
%TO.C,SW22*%
X39420000Y-88135000D03*
D15*
X35610000Y-85595000D03*
X36880000Y-83055000D03*
X41960000Y-83055000D03*
X43230000Y-85595000D03*
%TD*%
D25*
%TO.C,U1*%
X90396400Y-31376750D03*
D26*
X90396400Y-33916750D03*
X90396400Y-36456750D03*
X90396400Y-38996750D03*
X90396400Y-41536750D03*
X90396400Y-44076750D03*
X90396400Y-46616750D03*
X90396400Y-49156750D03*
X90396400Y-51696750D03*
X90396400Y-54236750D03*
X90396400Y-56776750D03*
X90396400Y-59316750D03*
X105636400Y-59316750D03*
X105636400Y-56776750D03*
X105636400Y-54236750D03*
X105636400Y-51696750D03*
X105636400Y-49156750D03*
X105636400Y-46616750D03*
X105636400Y-44076750D03*
X105636400Y-41536750D03*
X105636400Y-38996750D03*
X105636400Y-36456750D03*
X105636400Y-33916750D03*
X105636400Y-31376750D03*
%TD*%
D14*
%TO.C,SW35*%
X150665226Y-156955221D03*
D15*
X152132577Y-152617643D03*
X154914729Y-153186969D03*
X156229530Y-158093872D03*
X154104778Y-159977998D03*
%TD*%
D16*
%TO.C,D26*%
X122260000Y-96025000D03*
D17*
X122260000Y-85865000D03*
%TD*%
D18*
%TO.C,SK6812Mini-E3*%
X112908836Y-36420000D03*
X112908836Y-34920000D03*
D20*
X118468836Y-34930000D03*
D18*
X118468836Y-36430000D03*
%TD*%
D27*
%TO.C,D33*%
X124763174Y-133081540D03*
D28*
X129056976Y-123873453D03*
%TD*%
D18*
%TO.C,SK6812Mini-E28*%
X156588836Y-92000000D03*
X156588836Y-93500000D03*
D19*
X151028836Y-93490000D03*
D18*
X151028836Y-91990000D03*
%TD*%
D14*
%TO.C,SW12*%
X115620000Y-50035000D03*
D15*
X111810000Y-47495000D03*
X113080000Y-44955000D03*
X118160000Y-44955000D03*
X119430000Y-47495000D03*
%TD*%
D29*
%TO.C,D5*%
X119380000Y-38875000D03*
D30*
X122009601Y-29061194D03*
%TD*%
D14*
%TO.C,SW2*%
X58470000Y-30985000D03*
D15*
X54660000Y-28445000D03*
X55930000Y-25905000D03*
X61010000Y-25905000D03*
X62280000Y-28445000D03*
%TD*%
D14*
%TO.C,SW13*%
X134670000Y-50035000D03*
D15*
X130860000Y-47495000D03*
X132130000Y-44955000D03*
X137210000Y-44955000D03*
X138480000Y-47495000D03*
%TD*%
D16*
%TO.C,D16*%
X65110000Y-76975000D03*
D17*
X65110000Y-66815000D03*
%TD*%
D16*
%TO.C,D13*%
X141310000Y-57925000D03*
D17*
X141310000Y-47765000D03*
%TD*%
D18*
%TO.C,SK6812Mini-E4*%
X93858836Y-36420000D03*
X93858836Y-34920000D03*
D20*
X99418836Y-34930000D03*
D18*
X99418836Y-36430000D03*
%TD*%
%TO.C,SK6812Mini-E8*%
X42288836Y-53912492D03*
X42288836Y-55412492D03*
D19*
X36728836Y-55402492D03*
D18*
X36728836Y-53902492D03*
%TD*%
D16*
%TO.C,D30*%
X69895000Y-119790000D03*
D17*
X69895000Y-109630000D03*
%TD*%
D18*
%TO.C,SK6812Mini-E32*%
X98585000Y-117200000D03*
X98585000Y-115700000D03*
D20*
X104145000Y-115710000D03*
D18*
X104145000Y-117210000D03*
%TD*%
D14*
%TO.C,SW16*%
X58470000Y-69085000D03*
D15*
X54660000Y-66545000D03*
X55930000Y-64005000D03*
X61010000Y-64005000D03*
X62280000Y-66545000D03*
%TD*%
D14*
%TO.C,SW21*%
X153720000Y-69085000D03*
D15*
X149910000Y-66545000D03*
X151180000Y-64005000D03*
X156260000Y-64005000D03*
X157530000Y-66545000D03*
%TD*%
D14*
%TO.C,SW29*%
X39420000Y-121472500D03*
D15*
X35610000Y-118932500D03*
X36880000Y-116392500D03*
X41960000Y-116392500D03*
X43230000Y-118932500D03*
%TD*%
D14*
%TO.C,SW3*%
X77520000Y-30985000D03*
D15*
X73710000Y-28445000D03*
X74980000Y-25905000D03*
X80060000Y-25905000D03*
X81330000Y-28445000D03*
%TD*%
D16*
%TO.C,D10*%
X84160000Y-57925000D03*
D17*
X84160000Y-47765000D03*
%TD*%
D18*
%TO.C,SK6812Mini-E12*%
X118488836Y-53912492D03*
X118488836Y-55412492D03*
D19*
X112928836Y-55402492D03*
D18*
X112928836Y-53902492D03*
%TD*%
D16*
%TO.C,D9*%
X65110000Y-57925000D03*
D17*
X65110000Y-47765000D03*
%TD*%
D14*
%TO.C,SW14*%
X153720000Y-50035000D03*
D15*
X149910000Y-47495000D03*
X151180000Y-44955000D03*
X156260000Y-44955000D03*
X157530000Y-47495000D03*
%TD*%
D16*
%TO.C,D4*%
X103210000Y-38875000D03*
D17*
X103210000Y-28715000D03*
%TD*%
D31*
%TO.C,SK6812Mini-E30*%
X134587024Y-138192415D03*
X135736091Y-137228234D03*
D32*
X139302329Y-141493869D03*
D31*
X138153263Y-142458050D03*
%TD*%
D18*
%TO.C,SK6812Mini-E24*%
X80388836Y-92000000D03*
X80388836Y-93500000D03*
D19*
X74828836Y-93490000D03*
D18*
X74828836Y-91990000D03*
%TD*%
D16*
%TO.C,D24*%
X84160000Y-96025000D03*
D17*
X84160000Y-85865000D03*
%TD*%
D16*
%TO.C,D31*%
X88922500Y-119837500D03*
D17*
X88922500Y-109677500D03*
%TD*%
D16*
%TO.C,D19*%
X122260000Y-76975000D03*
D17*
X122260000Y-66815000D03*
%TD*%
D18*
%TO.C,SK6812Mini-E10*%
X80388836Y-53912492D03*
X80388836Y-55412492D03*
D19*
X74828836Y-55402492D03*
D18*
X74828836Y-53902492D03*
%TD*%
D33*
%TO.C,SK6812Mini-E31*%
X117542027Y-126679975D03*
X118175955Y-125320513D03*
D34*
X123210800Y-127679334D03*
D33*
X122576872Y-129038795D03*
%TD*%
D14*
%TO.C,SW31*%
X82205000Y-111947500D03*
D15*
X78395000Y-109407500D03*
X79665000Y-106867500D03*
X84745000Y-106867500D03*
X86015000Y-109407500D03*
%TD*%
D16*
%TO.C,D15*%
X46060000Y-76975000D03*
D17*
X46060000Y-66815000D03*
%TD*%
D14*
%TO.C,SW5*%
X115620000Y-30985000D03*
D15*
X111810000Y-28445000D03*
X113080000Y-25905000D03*
X118160000Y-25905000D03*
X119430000Y-28445000D03*
%TD*%
D35*
%TO.C,D35*%
X145811194Y-166964601D03*
D36*
X155625000Y-164335000D03*
%TD*%
D16*
%TO.C,D8*%
X46060000Y-57925000D03*
D17*
X46060000Y-47765000D03*
%TD*%
D16*
%TO.C,D25*%
X103210000Y-96025000D03*
D17*
X103210000Y-85865000D03*
%TD*%
D18*
%TO.C,SK6812Mini-E15*%
X150885000Y-74450000D03*
X150885000Y-72950000D03*
D20*
X156445000Y-72960000D03*
D18*
X156445000Y-74460000D03*
%TD*%
D14*
%TO.C,SW19*%
X115620000Y-69085000D03*
D15*
X111810000Y-66545000D03*
X113080000Y-64005000D03*
X118160000Y-64005000D03*
X119430000Y-66545000D03*
%TD*%
D14*
%TO.C,SW8*%
X39420000Y-50035000D03*
D15*
X35610000Y-47495000D03*
X36880000Y-44955000D03*
X41960000Y-44955000D03*
X43230000Y-47495000D03*
%TD*%
D14*
%TO.C,SW25*%
X96570000Y-88135000D03*
D15*
X92760000Y-85595000D03*
X94030000Y-83055000D03*
X99110000Y-83055000D03*
X100380000Y-85595000D03*
%TD*%
D18*
%TO.C,SK6812Mini-E14*%
X156588836Y-53912492D03*
X156588836Y-55412492D03*
D19*
X151028836Y-55402492D03*
D18*
X151028836Y-53902492D03*
%TD*%
D14*
%TO.C,SW17*%
X77520000Y-69085000D03*
D15*
X73710000Y-66545000D03*
X74980000Y-64005000D03*
X80060000Y-64005000D03*
X81330000Y-66545000D03*
%TD*%
D16*
%TO.C,D2*%
X65110000Y-38875000D03*
D17*
X65110000Y-28715000D03*
%TD*%
D16*
%TO.C,D1*%
X46060000Y-38875000D03*
D17*
X46060000Y-28715000D03*
%TD*%
D16*
%TO.C,D14*%
X160360000Y-57925000D03*
D17*
X160360000Y-47765000D03*
%TD*%
D18*
%TO.C,SK6812Mini-E9*%
X61338836Y-53912492D03*
X61338836Y-55412492D03*
D19*
X55778836Y-55402492D03*
D18*
X55778836Y-53902492D03*
%TD*%
%TO.C,SK6812Mini-E2*%
X131958836Y-36420000D03*
X131958836Y-34920000D03*
D20*
X137518836Y-34930000D03*
D18*
X137518836Y-36430000D03*
%TD*%
%TO.C,SK6812Mini-E16*%
X131835000Y-74450000D03*
X131835000Y-72950000D03*
D20*
X137395000Y-72960000D03*
D18*
X137395000Y-74460000D03*
%TD*%
%TO.C,SK6812Mini-E13*%
X137538836Y-53912492D03*
X137538836Y-55412492D03*
D19*
X131978836Y-55402492D03*
D18*
X131978836Y-53902492D03*
%TD*%
D14*
%TO.C,SW1*%
X39420000Y-30985000D03*
D15*
X35610000Y-28445000D03*
X36880000Y-25905000D03*
X41960000Y-25905000D03*
X43230000Y-28445000D03*
%TD*%
D18*
%TO.C,SK6812Mini-E1*%
X151008836Y-36420000D03*
X151008836Y-34920000D03*
D20*
X156568836Y-34930000D03*
D18*
X156568836Y-36430000D03*
%TD*%
D14*
%TO.C,SW11*%
X96570000Y-50035000D03*
D15*
X92760000Y-47495000D03*
X94030000Y-44955000D03*
X99110000Y-44955000D03*
X100380000Y-47495000D03*
%TD*%
D18*
%TO.C,SK6812Mini-E35*%
X36645000Y-126710000D03*
X36645000Y-125210000D03*
D20*
X42205000Y-125220000D03*
D18*
X42205000Y-126720000D03*
%TD*%
D16*
%TO.C,D27*%
X141310000Y-96025000D03*
D17*
X141310000Y-85865000D03*
%TD*%
M02*
