M48
; DRILL file {KiCad 7.0.1} date Thu Apr  6 15:28:19 2023
; FORMAT={-:-/ absolute / metric / decimal}
; #@! TF.CreationDate,2023-04-06T15:28:19+10:00
; #@! TF.GenerationSoftware,Kicad,Pcbnew,7.0.1
; #@! TF.FileFunction,Plated,1,2,PTH
FMAT,2
METRIC
; #@! TA.AperFunction,Plated,PTH,ViaDrill
T1C0.300
; #@! TA.AperFunction,Plated,PTH,ComponentDrill
T2C0.800
; #@! TA.AperFunction,Plated,PTH,ComponentDrill
T3C0.991
; #@! TA.AperFunction,Plated,PTH,ComponentDrill
T4C1.092
; #@! TA.AperFunction,Plated,PTH,ComponentDrill
T5C1.100
; #@! TA.AperFunction,Plated,PTH,ComponentDrill
T6C1.499
; #@! TA.AperFunction,Plated,PTH,ComponentDrill
T7C3.000
%
G90
G05
T1
X41.96Y-90.675
X41.96Y-95.12
X92.71Y-38.1
X101.125Y-52.96
X111.21Y-52.71
X112.445Y-51.94
X112.885Y-60.45
X112.895Y-57.21
X123.825Y-33.655
X125.73Y-37.465
X125.73Y-43.18
X125.73Y-44.45
X148.2Y-38.5
X148.2Y-61.8
X155.6Y-119.5
T2
X159.6Y-113.1
X159.6Y-115.64
X159.6Y-119.51
X159.6Y-122.05
T3
X152.5Y-112.54
X152.5Y-122.7
X155.65Y-112.54
X155.65Y-122.7
T4
X90.396Y-31.377
X90.396Y-33.917
X90.396Y-36.457
X90.396Y-38.997
X90.396Y-41.537
X90.396Y-44.077
X90.396Y-46.617
X90.396Y-49.157
X90.396Y-51.697
X90.396Y-54.237
X90.396Y-56.777
X90.396Y-59.317
X105.636Y-31.377
X105.636Y-33.917
X105.636Y-36.457
X105.636Y-38.997
X105.636Y-41.537
X105.636Y-44.077
X105.636Y-46.617
X105.636Y-49.157
X105.636Y-51.697
X105.636Y-54.237
X105.636Y-56.777
X105.636Y-59.317
T5
X46.06Y-28.715
X46.06Y-38.875
X46.06Y-47.765
X46.06Y-57.925
X46.06Y-66.815
X46.06Y-76.975
X46.06Y-85.865
X46.06Y-96.025
X46.06Y-119.203
X46.06Y-129.362
X65.11Y-28.715
X65.11Y-38.875
X65.11Y-47.765
X65.11Y-57.925
X65.11Y-66.815
X65.11Y-76.975
X65.11Y-85.865
X65.11Y-96.025
X69.895Y-109.63
X69.895Y-119.79
X84.16Y-28.715
X84.16Y-38.875
X84.16Y-47.765
X84.16Y-57.925
X84.16Y-66.815
X84.16Y-76.975
X84.16Y-85.865
X84.16Y-96.025
X88.922Y-109.677
X88.922Y-119.837
X103.21Y-28.715
X103.21Y-38.875
X103.21Y-47.765
X103.21Y-57.925
X103.21Y-66.815
X103.21Y-76.975
X103.21Y-85.865
X103.21Y-96.025
X107.972Y-109.677
X107.972Y-119.837
X119.38Y-38.875
X122.01Y-29.061
X122.26Y-47.765
X122.26Y-57.925
X122.26Y-66.815
X122.26Y-76.975
X122.26Y-85.865
X122.26Y-96.025
X124.763Y-133.082
X129.057Y-123.873
X138.694Y-146.992
X141.3Y-29.037
X141.3Y-39.197
X141.31Y-47.765
X141.31Y-57.925
X141.31Y-66.815
X141.31Y-76.975
X141.31Y-85.865
X141.31Y-96.025
X145.811Y-166.965
X146.477Y-140.461
X155.625Y-164.335
X160.36Y-28.715
X160.36Y-38.875
X160.36Y-47.765
X160.36Y-57.925
X160.36Y-66.815
X160.36Y-76.975
X160.36Y-85.865
X160.36Y-96.025
T6
X35.61Y-28.445
X35.61Y-47.495
X35.61Y-66.545
X35.61Y-85.595
X35.61Y-118.932
X36.88Y-25.905
X36.88Y-44.955
X36.88Y-64.005
X36.88Y-83.055
X36.88Y-116.392
X41.96Y-25.905
X41.96Y-44.955
X41.96Y-64.005
X41.96Y-83.055
X41.96Y-116.392
X43.23Y-28.445
X43.23Y-47.495
X43.23Y-66.545
X43.23Y-85.595
X43.23Y-118.932
X54.66Y-28.445
X54.66Y-47.495
X54.66Y-66.545
X54.66Y-85.595
X55.93Y-25.905
X55.93Y-44.955
X55.93Y-64.005
X55.93Y-83.055
X59.422Y-109.407
X60.692Y-106.867
X61.01Y-25.905
X61.01Y-44.955
X61.01Y-64.005
X61.01Y-83.055
X62.28Y-28.445
X62.28Y-47.495
X62.28Y-66.545
X62.28Y-85.595
X65.772Y-106.867
X67.043Y-109.407
X73.71Y-28.445
X73.71Y-47.495
X73.71Y-66.545
X73.71Y-85.595
X74.98Y-25.905
X74.98Y-44.955
X74.98Y-64.005
X74.98Y-83.055
X78.395Y-109.407
X79.665Y-106.867
X80.06Y-25.905
X80.06Y-44.955
X80.06Y-64.005
X80.06Y-83.055
X81.33Y-28.445
X81.33Y-47.495
X81.33Y-66.545
X81.33Y-85.595
X84.745Y-106.867
X86.015Y-109.407
X92.76Y-28.445
X92.76Y-47.495
X92.76Y-66.545
X92.76Y-85.595
X94.03Y-25.905
X94.03Y-44.955
X94.03Y-64.005
X94.03Y-83.055
X97.522Y-109.407
X98.792Y-106.867
X99.11Y-25.905
X99.11Y-44.955
X99.11Y-64.005
X99.11Y-83.055
X100.38Y-28.445
X100.38Y-47.495
X100.38Y-66.545
X100.38Y-85.595
X103.873Y-106.867
X105.142Y-109.407
X111.81Y-28.445
X111.81Y-47.495
X111.81Y-66.545
X111.81Y-85.595
X113.08Y-25.905
X113.08Y-44.955
X113.08Y-64.005
X113.08Y-83.055
X118.16Y-25.905
X118.16Y-44.955
X118.16Y-64.005
X118.16Y-83.055
X119.43Y-28.445
X119.43Y-47.495
X119.43Y-66.545
X119.43Y-85.595
X119.886Y-119.143
X122.11Y-117.378
X126.714Y-119.525
X126.792Y-122.363
X130.86Y-28.445
X130.86Y-47.495
X130.86Y-66.545
X130.86Y-85.595
X132.13Y-25.905
X132.13Y-44.955
X132.13Y-64.005
X132.13Y-83.055
X137.21Y-25.905
X137.21Y-44.955
X137.21Y-64.005
X137.21Y-83.055
X138.48Y-28.445
X138.48Y-47.495
X138.48Y-66.545
X138.48Y-85.595
X139.962Y-132.338
X142.724Y-131.678
X144.86Y-138.175
X145.989Y-135.569
X149.91Y-28.445
X149.91Y-47.495
X149.91Y-66.545
X149.91Y-85.595
X151.18Y-25.905
X151.18Y-44.955
X151.18Y-64.005
X151.18Y-83.055
X152.133Y-152.618
X154.105Y-159.978
X154.915Y-153.187
X156.23Y-158.094
X156.26Y-25.905
X156.26Y-44.955
X156.26Y-64.005
X156.26Y-83.055
X157.53Y-28.445
X157.53Y-47.495
X157.53Y-66.545
X157.53Y-85.595
T7
X48.895Y-40.525
X48.895Y-79.375
X144.145Y-147.955
X144.5Y-40.525
X144.5Y-79.3
T0
M30
