%TF.GenerationSoftware,KiCad,Pcbnew,7.0.1*%
%TF.CreationDate,2023-04-06T15:27:56+10:00*%
%TF.ProjectId,genesys,67656e65-7379-4732-9e6b-696361645f70,rev?*%
%TF.SameCoordinates,Original*%
%TF.FileFunction,Copper,L1,Top*%
%TF.FilePolarity,Positive*%
%FSLAX46Y46*%
G04 Gerber Fmt 4.6, Leading zero omitted, Abs format (unit mm)*
G04 Created by KiCad (PCBNEW 7.0.1) date 2023-04-06 15:27:56*
%MOMM*%
%LPD*%
G01*
G04 APERTURE LIST*
G04 Aperture macros list*
%AMRoundRect*
0 Rectangle with rounded corners*
0 $1 Rounding radius*
0 $2 $3 $4 $5 $6 $7 $8 $9 X,Y pos of 4 corners*
0 Add a 4 corners polygon primitive as box body*
4,1,4,$2,$3,$4,$5,$6,$7,$8,$9,$2,$3,0*
0 Add four circle primitives for the rounded corners*
1,1,$1+$1,$2,$3*
1,1,$1+$1,$4,$5*
1,1,$1+$1,$6,$7*
1,1,$1+$1,$8,$9*
0 Add four rect primitives between the rounded corners*
20,1,$1+$1,$2,$3,$4,$5,0*
20,1,$1+$1,$4,$5,$6,$7,0*
20,1,$1+$1,$6,$7,$8,$9,0*
20,1,$1+$1,$8,$9,$2,$3,0*%
%AMHorizOval*
0 Thick line with rounded ends*
0 $1 width*
0 $2 $3 position (X,Y) of the first rounded end (center of the circle)*
0 $4 $5 position (X,Y) of the second rounded end (center of the circle)*
0 Add line between two ends*
20,1,$1,$2,$3,$4,$5,0*
0 Add two circle primitives to create the rounded ends*
1,1,$1,$2,$3*
1,1,$1,$4,$5*%
%AMRotRect*
0 Rectangle, with rotation*
0 The origin of the aperture is its center*
0 $1 length*
0 $2 width*
0 $3 Rotation angle, in degrees counterclockwise*
0 Add horizontal line*
21,1,$1,$2,0,0,$3*%
G04 Aperture macros list end*
%TA.AperFunction,ComponentPad*%
%ADD10C,1.651000*%
%TD*%
%TA.AperFunction,ComponentPad*%
%ADD11C,1.400000*%
%TD*%
%TA.AperFunction,SMDPad,CuDef*%
%ADD12R,2.500000X1.200000*%
%TD*%
%TA.AperFunction,ComponentPad*%
%ADD13C,3.200000*%
%TD*%
%TA.AperFunction,ComponentPad*%
%ADD14C,2.286000*%
%TD*%
%TA.AperFunction,ComponentPad*%
%ADD15R,2.200000X2.200000*%
%TD*%
%TA.AperFunction,ComponentPad*%
%ADD16O,2.200000X2.200000*%
%TD*%
%TA.AperFunction,SMDPad,CuDef*%
%ADD17R,1.700000X0.820000*%
%TD*%
%TA.AperFunction,SMDPad,CuDef*%
%ADD18RoundRect,0.205000X0.645000X0.205000X-0.645000X0.205000X-0.645000X-0.205000X0.645000X-0.205000X0*%
%TD*%
%TA.AperFunction,SMDPad,CuDef*%
%ADD19RoundRect,0.205000X-0.645000X-0.205000X0.645000X-0.205000X0.645000X0.205000X-0.645000X0.205000X0*%
%TD*%
%TA.AperFunction,SMDPad,CuDef*%
%ADD20RotRect,1.700000X0.820000X285.000000*%
%TD*%
%TA.AperFunction,SMDPad,CuDef*%
%ADD21RoundRect,0.205000X-0.364953X0.569964X-0.031077X-0.676080X0.364953X-0.569964X0.031077X0.676080X0*%
%TD*%
%TA.AperFunction,ComponentPad*%
%ADD22RotRect,2.200000X2.200000X40.000000*%
%TD*%
%TA.AperFunction,ComponentPad*%
%ADD23HorizOval,2.200000X0.000000X0.000000X0.000000X0.000000X0*%
%TD*%
%TA.AperFunction,ComponentPad*%
%ADD24R,1.752600X1.752600*%
%TD*%
%TA.AperFunction,ComponentPad*%
%ADD25C,1.752600*%
%TD*%
%TA.AperFunction,ComponentPad*%
%ADD26RotRect,2.200000X2.200000X65.000000*%
%TD*%
%TA.AperFunction,ComponentPad*%
%ADD27HorizOval,2.200000X0.000000X0.000000X0.000000X0.000000X0*%
%TD*%
%TA.AperFunction,ComponentPad*%
%ADD28RotRect,2.200000X2.200000X75.000000*%
%TD*%
%TA.AperFunction,ComponentPad*%
%ADD29HorizOval,2.200000X0.000000X0.000000X0.000000X0.000000X0*%
%TD*%
%TA.AperFunction,SMDPad,CuDef*%
%ADD30RotRect,1.700000X0.820000X310.000000*%
%TD*%
%TA.AperFunction,SMDPad,CuDef*%
%ADD31RoundRect,0.205000X-0.571637X0.362327X0.257559X-0.625870X0.571637X-0.362327X-0.257559X0.625870X0*%
%TD*%
%TA.AperFunction,SMDPad,CuDef*%
%ADD32RotRect,1.700000X0.820000X335.000000*%
%TD*%
%TA.AperFunction,SMDPad,CuDef*%
%ADD33RoundRect,0.205000X-0.671205X0.086796X0.497932X-0.458382X0.671205X-0.086796X-0.497932X0.458382X0*%
%TD*%
%TA.AperFunction,ComponentPad*%
%ADD34RotRect,2.200000X2.200000X15.000000*%
%TD*%
%TA.AperFunction,ComponentPad*%
%ADD35HorizOval,2.200000X0.000000X0.000000X0.000000X0.000000X0*%
%TD*%
%TA.AperFunction,ViaPad*%
%ADD36C,0.500000*%
%TD*%
%TA.AperFunction,Conductor*%
%ADD37C,0.200000*%
%TD*%
%TA.AperFunction,Conductor*%
%ADD38C,0.254000*%
%TD*%
G04 APERTURE END LIST*
D10*
%TO.P,R2,1*%
%TO.N,/SCL*%
X152500000Y-112540000D03*
%TO.P,R2,2*%
%TO.N,/LED_5V*%
X152500000Y-122700000D03*
%TD*%
%TO.P,R1,1*%
%TO.N,/SDA*%
X155650000Y-112540000D03*
%TO.P,R1,2*%
%TO.N,/LED_5V*%
X155650000Y-122700000D03*
%TD*%
D11*
%TO.P,TP4,2,2*%
%TO.N,/LED_GND*%
X159600000Y-119510000D03*
%TO.P,TP4,1,1*%
%TO.N,/LED_5V*%
X159600000Y-122050000D03*
%TD*%
%TO.P,TP3,2,2*%
%TO.N,/SCL*%
X159600000Y-115640000D03*
%TO.P,TP3,1,1*%
%TO.N,/SDA*%
X159600000Y-113100000D03*
%TD*%
D12*
%TO.P,J1,R1*%
%TO.N,/LED_GND*%
X128905000Y-42735000D03*
%TO.P,J1,R2*%
%TO.N,unconnected-(J1-PadR2)*%
X128905000Y-38735000D03*
%TO.P,J1,S*%
%TO.N,/LED_5V*%
X128905000Y-35735000D03*
%TO.P,J1,T*%
%TO.N,/SERIAL*%
X122405000Y-43835000D03*
%TD*%
D13*
%TO.P,H7,*%
%TO.N,*%
X144145000Y-147955000D03*
%TD*%
%TO.P,H5,*%
%TO.N,*%
X144500000Y-79300000D03*
%TD*%
%TO.P,H4,*%
%TO.N,*%
X144500000Y-40525000D03*
%TD*%
%TO.P,H2,*%
%TO.N,*%
X48895000Y-79375000D03*
%TD*%
%TO.P,H1,*%
%TO.N,*%
X48895000Y-40525000D03*
%TD*%
D14*
%TO.P,SW23,1,1*%
%TO.N,/Col1*%
X54660000Y-85595000D03*
X55930000Y-83055000D03*
%TO.P,SW23,2,2*%
%TO.N,Net-(D23-A)*%
X61010000Y-83055000D03*
X62280000Y-85595000D03*
%TD*%
D15*
%TO.P,D3,1,A*%
%TO.N,Net-(D3-A)*%
X84160000Y-38875000D03*
D16*
%TO.P,D3,2,K*%
%TO.N,/Row0*%
X84160000Y-28715000D03*
%TD*%
D15*
%TO.P,D22,1,A*%
%TO.N,Net-(D22-A)*%
X46060000Y-96025000D03*
D16*
%TO.P,D22,2,K*%
%TO.N,/Row3*%
X46060000Y-85865000D03*
%TD*%
D17*
%TO.P,SK6812Mini-E26,1,VSS*%
%TO.N,/LED_5V*%
X118488836Y-92000000D03*
%TO.P,SK6812Mini-E26,2,DOUT*%
%TO.N,Net-(SK6812Mini-E26-DOUT)*%
X118488836Y-93500000D03*
D18*
%TO.P,SK6812Mini-E26,3,VDD*%
%TO.N,/LED_GND*%
X112928836Y-93490000D03*
D17*
%TO.P,SK6812Mini-E26,4,DIN*%
%TO.N,Net-(SK6812Mini-E25-DOUT)*%
X112928836Y-91990000D03*
%TD*%
D15*
%TO.P,D28,1,A*%
%TO.N,Net-(D28-A)*%
X160360000Y-96025000D03*
D16*
%TO.P,D28,2,K*%
%TO.N,/Row3*%
X160360000Y-85865000D03*
%TD*%
D17*
%TO.P,SK6812Mini-E27,1,VSS*%
%TO.N,/LED_5V*%
X137538836Y-92000000D03*
%TO.P,SK6812Mini-E27,2,DOUT*%
%TO.N,Net-(SK6812Mini-E27-DOUT)*%
X137538836Y-93500000D03*
D18*
%TO.P,SK6812Mini-E27,3,VDD*%
%TO.N,/LED_GND*%
X131978836Y-93490000D03*
D17*
%TO.P,SK6812Mini-E27,4,DIN*%
%TO.N,Net-(SK6812Mini-E26-DOUT)*%
X131978836Y-91990000D03*
%TD*%
%TO.P,SK6812Mini-E7,1,VSS*%
%TO.N,/LED_5V*%
X36708836Y-36420000D03*
%TO.P,SK6812Mini-E7,2,DOUT*%
%TO.N,Net-(SK6812Mini-E7-DOUT)*%
X36708836Y-34920000D03*
D19*
%TO.P,SK6812Mini-E7,3,VDD*%
%TO.N,/LED_GND*%
X42268836Y-34930000D03*
D17*
%TO.P,SK6812Mini-E7,4,DIN*%
%TO.N,Net-(SK6812Mini-E6-DOUT)*%
X42268836Y-36430000D03*
%TD*%
D14*
%TO.P,SW4,1,1*%
%TO.N,/Col3*%
X92760000Y-28445000D03*
X94030000Y-25905000D03*
%TO.P,SW4,2,2*%
%TO.N,Net-(D4-A)*%
X99110000Y-25905000D03*
X100380000Y-28445000D03*
%TD*%
%TO.P,SW18,1,1*%
%TO.N,/Col3*%
X92760000Y-66545000D03*
X94030000Y-64005000D03*
%TO.P,SW18,2,2*%
%TO.N,Net-(D18-A)*%
X99110000Y-64005000D03*
X100380000Y-66545000D03*
%TD*%
D15*
%TO.P,D11,1,A*%
%TO.N,Net-(D11-A)*%
X103210000Y-57925000D03*
D16*
%TO.P,D11,2,K*%
%TO.N,/Row1*%
X103210000Y-47765000D03*
%TD*%
D14*
%TO.P,SW30,1,1*%
%TO.N,/Col1*%
X59422500Y-109407500D03*
X60692500Y-106867500D03*
%TO.P,SW30,2,2*%
%TO.N,Net-(D30-A)*%
X65772500Y-106867500D03*
X67042500Y-109407500D03*
%TD*%
%TO.P,SW27,1,1*%
%TO.N,/Col5*%
X130860000Y-85595000D03*
X132130000Y-83055000D03*
%TO.P,SW27,2,2*%
%TO.N,Net-(D27-A)*%
X137210000Y-83055000D03*
X138480000Y-85595000D03*
%TD*%
D17*
%TO.P,SK6812Mini-E19,1,VSS*%
%TO.N,/LED_5V*%
X74685000Y-74450000D03*
%TO.P,SK6812Mini-E19,2,DOUT*%
%TO.N,Net-(SK6812Mini-E19-DOUT)*%
X74685000Y-72950000D03*
D19*
%TO.P,SK6812Mini-E19,3,VDD*%
%TO.N,/LED_GND*%
X80245000Y-72960000D03*
D17*
%TO.P,SK6812Mini-E19,4,DIN*%
%TO.N,Net-(SK6812Mini-E18-DOUT)*%
X80245000Y-74460000D03*
%TD*%
%TO.P,SK6812Mini-E34,1,VSS*%
%TO.N,/LED_5V*%
X60355000Y-117170000D03*
%TO.P,SK6812Mini-E34,2,DOUT*%
%TO.N,Net-(SK6812Mini-E34-DOUT)*%
X60355000Y-115670000D03*
D19*
%TO.P,SK6812Mini-E34,3,VDD*%
%TO.N,/LED_GND*%
X65915000Y-115680000D03*
D17*
%TO.P,SK6812Mini-E34,4,DIN*%
%TO.N,Net-(SK6812Mini-E33-DOUT)*%
X65915000Y-117180000D03*
%TD*%
%TO.P,SK6812Mini-E23,1,VSS*%
%TO.N,/LED_5V*%
X61338836Y-92000000D03*
%TO.P,SK6812Mini-E23,2,DOUT*%
%TO.N,Net-(SK6812Mini-E23-DOUT)*%
X61338836Y-93500000D03*
D18*
%TO.P,SK6812Mini-E23,3,VDD*%
%TO.N,/LED_GND*%
X55778836Y-93490000D03*
D17*
%TO.P,SK6812Mini-E23,4,DIN*%
%TO.N,Net-(SK6812Mini-E22-DOUT)*%
X55778836Y-91990000D03*
%TD*%
%TO.P,SK6812Mini-E11,1,VSS*%
%TO.N,/LED_5V*%
X99438836Y-53912492D03*
%TO.P,SK6812Mini-E11,2,DOUT*%
%TO.N,Net-(SK6812Mini-E11-DOUT)*%
X99438836Y-55412492D03*
D18*
%TO.P,SK6812Mini-E11,3,VDD*%
%TO.N,/LED_GND*%
X93878836Y-55402492D03*
D17*
%TO.P,SK6812Mini-E11,4,DIN*%
%TO.N,Net-(SK6812Mini-E10-DOUT)*%
X93878836Y-53902492D03*
%TD*%
%TO.P,SK6812Mini-E5,1,VSS*%
%TO.N,/LED_5V*%
X74808836Y-36420000D03*
%TO.P,SK6812Mini-E5,2,DOUT*%
%TO.N,Net-(SK6812Mini-E5-DOUT)*%
X74808836Y-34920000D03*
D19*
%TO.P,SK6812Mini-E5,3,VDD*%
%TO.N,/LED_GND*%
X80368836Y-34930000D03*
D17*
%TO.P,SK6812Mini-E5,4,DIN*%
%TO.N,Net-(SK6812Mini-E4-DOUT)*%
X80368836Y-36430000D03*
%TD*%
D14*
%TO.P,SW15,1,1*%
%TO.N,/Col0*%
X35610000Y-66545000D03*
X36880000Y-64005000D03*
%TO.P,SW15,2,2*%
%TO.N,Net-(D15-A)*%
X41960000Y-64005000D03*
X43230000Y-66545000D03*
%TD*%
D17*
%TO.P,SK6812Mini-E21,1,VSS*%
%TO.N,/LED_5V*%
X36585000Y-74450000D03*
%TO.P,SK6812Mini-E21,2,DOUT*%
%TO.N,Net-(SK6812Mini-E21-DOUT)*%
X36585000Y-72950000D03*
D19*
%TO.P,SK6812Mini-E21,3,VDD*%
%TO.N,/LED_GND*%
X42145000Y-72960000D03*
D17*
%TO.P,SK6812Mini-E21,4,DIN*%
%TO.N,Net-(SK6812Mini-E20-DOUT)*%
X42145000Y-74460000D03*
%TD*%
D15*
%TO.P,D17,1,A*%
%TO.N,Net-(D17-A)*%
X84160000Y-76975000D03*
D16*
%TO.P,D17,2,K*%
%TO.N,/Row2*%
X84160000Y-66815000D03*
%TD*%
D14*
%TO.P,SW32,1,1*%
%TO.N,/Col3*%
X97522500Y-109407500D03*
X98792500Y-106867500D03*
%TO.P,SW32,2,2*%
%TO.N,Net-(D32-A)*%
X103872500Y-106867500D03*
X105142500Y-109407500D03*
%TD*%
%TO.P,SW9,1,1*%
%TO.N,/Col1*%
X54660000Y-47495000D03*
X55930000Y-44955000D03*
%TO.P,SW9,2,2*%
%TO.N,Net-(D9-A)*%
X61010000Y-44955000D03*
X62280000Y-47495000D03*
%TD*%
D17*
%TO.P,SK6812Mini-E25,1,VSS*%
%TO.N,/LED_5V*%
X99438836Y-92000000D03*
%TO.P,SK6812Mini-E25,2,DOUT*%
%TO.N,Net-(SK6812Mini-E25-DOUT)*%
X99438836Y-93500000D03*
D18*
%TO.P,SK6812Mini-E25,3,VDD*%
%TO.N,/LED_GND*%
X93878836Y-93490000D03*
D17*
%TO.P,SK6812Mini-E25,4,DIN*%
%TO.N,Net-(SK6812Mini-E24-DOUT)*%
X93878836Y-91990000D03*
%TD*%
D15*
%TO.P,D29,1,A*%
%TO.N,Net-(D29-A)*%
X46060000Y-129362500D03*
D16*
%TO.P,D29,2,K*%
%TO.N,/Row4*%
X46060000Y-119202500D03*
%TD*%
D15*
%TO.P,D20,1,A*%
%TO.N,Net-(D20-A)*%
X141310000Y-76975000D03*
D16*
%TO.P,D20,2,K*%
%TO.N,/Row2*%
X141310000Y-66815000D03*
%TD*%
D20*
%TO.P,SK6812Mini-E29,1,VSS*%
%TO.N,/LED_5V*%
X144688430Y-155782546D03*
%TO.P,SK6812Mini-E29,2,DOUT*%
%TO.N,Net-(SK6812Mini-E29-DOUT)*%
X146137318Y-155394318D03*
D21*
%TO.P,SK6812Mini-E29,3,VDD*%
%TO.N,/LED_GND*%
X147566693Y-160767454D03*
D20*
%TO.P,SK6812Mini-E29,4,DIN*%
%TO.N,Net-(SK6812Mini-E28-DOUT)*%
X146117804Y-161155682D03*
%TD*%
D15*
%TO.P,D21,1,A*%
%TO.N,Net-(D21-A)*%
X160360000Y-76975000D03*
D16*
%TO.P,D21,2,K*%
%TO.N,/Row2*%
X160360000Y-66815000D03*
%TD*%
D15*
%TO.P,D18,1,A*%
%TO.N,Net-(D18-A)*%
X103210000Y-76975000D03*
D16*
%TO.P,D18,2,K*%
%TO.N,/Row2*%
X103210000Y-66815000D03*
%TD*%
D17*
%TO.P,SK6812Mini-E17,1,VSS*%
%TO.N,/LED_5V*%
X112785000Y-74450000D03*
%TO.P,SK6812Mini-E17,2,DOUT*%
%TO.N,Net-(SK6812Mini-E17-DOUT)*%
X112785000Y-72950000D03*
D19*
%TO.P,SK6812Mini-E17,3,VDD*%
%TO.N,/LED_GND*%
X118345000Y-72960000D03*
D17*
%TO.P,SK6812Mini-E17,4,DIN*%
%TO.N,Net-(SK6812Mini-E16-DOUT)*%
X118345000Y-74460000D03*
%TD*%
D14*
%TO.P,SW10,1,1*%
%TO.N,/Col2*%
X73710000Y-47495000D03*
X74980000Y-44955000D03*
%TO.P,SW10,2,2*%
%TO.N,Net-(D10-A)*%
X80060000Y-44955000D03*
X81330000Y-47495000D03*
%TD*%
D17*
%TO.P,SK6812Mini-E22,1,VSS*%
%TO.N,/LED_5V*%
X42288836Y-92000000D03*
%TO.P,SK6812Mini-E22,2,DOUT*%
%TO.N,Net-(SK6812Mini-E22-DOUT)*%
X42288836Y-93500000D03*
D18*
%TO.P,SK6812Mini-E22,3,VDD*%
%TO.N,/LED_GND*%
X36728836Y-93490000D03*
D17*
%TO.P,SK6812Mini-E22,4,DIN*%
%TO.N,Net-(SK6812Mini-E21-DOUT)*%
X36728836Y-91990000D03*
%TD*%
D15*
%TO.P,D23,1,A*%
%TO.N,Net-(D23-A)*%
X65110000Y-96025000D03*
D16*
%TO.P,D23,2,K*%
%TO.N,/Row3*%
X65110000Y-85865000D03*
%TD*%
D17*
%TO.P,SK6812Mini-E33,1,VSS*%
%TO.N,/LED_5V*%
X79605000Y-117170000D03*
%TO.P,SK6812Mini-E33,2,DOUT*%
%TO.N,Net-(SK6812Mini-E33-DOUT)*%
X79605000Y-115670000D03*
D19*
%TO.P,SK6812Mini-E33,3,VDD*%
%TO.N,/LED_GND*%
X85165000Y-115680000D03*
D17*
%TO.P,SK6812Mini-E33,4,DIN*%
%TO.N,Net-(SK6812Mini-E32-DOUT)*%
X85165000Y-117180000D03*
%TD*%
D14*
%TO.P,SW20,1,1*%
%TO.N,/Col5*%
X130860000Y-66545000D03*
X132130000Y-64005000D03*
%TO.P,SW20,2,2*%
%TO.N,Net-(D20-A)*%
X137210000Y-64005000D03*
X138480000Y-66545000D03*
%TD*%
%TO.P,SW7,1,1*%
%TO.N,/Col6*%
X149910000Y-28445000D03*
X151180000Y-25905000D03*
%TO.P,SW7,2,2*%
%TO.N,Net-(D7-A)*%
X156260000Y-25905000D03*
X157530000Y-28445000D03*
%TD*%
D17*
%TO.P,SK6812Mini-E6,1,VSS*%
%TO.N,/LED_5V*%
X55758836Y-36420000D03*
%TO.P,SK6812Mini-E6,2,DOUT*%
%TO.N,Net-(SK6812Mini-E6-DOUT)*%
X55758836Y-34920000D03*
D19*
%TO.P,SK6812Mini-E6,3,VDD*%
%TO.N,/LED_GND*%
X61318836Y-34930000D03*
D17*
%TO.P,SK6812Mini-E6,4,DIN*%
%TO.N,Net-(SK6812Mini-E5-DOUT)*%
X61318836Y-36430000D03*
%TD*%
%TO.P,SK6812Mini-E18,1,VSS*%
%TO.N,/LED_5V*%
X93735000Y-74450000D03*
%TO.P,SK6812Mini-E18,2,DOUT*%
%TO.N,Net-(SK6812Mini-E18-DOUT)*%
X93735000Y-72950000D03*
D19*
%TO.P,SK6812Mini-E18,3,VDD*%
%TO.N,/LED_GND*%
X99295000Y-72960000D03*
D17*
%TO.P,SK6812Mini-E18,4,DIN*%
%TO.N,Net-(SK6812Mini-E17-DOUT)*%
X99295000Y-74460000D03*
%TD*%
D14*
%TO.P,SW33,1,1*%
%TO.N,/Col4*%
X119885644Y-119143024D03*
X122110105Y-117377727D03*
%TO.P,SW33,2,2*%
%TO.N,Net-(D33-A)*%
X126714149Y-119524628D03*
X126791709Y-122363375D03*
%TD*%
D15*
%TO.P,D6,1,A*%
%TO.N,Net-(D6-A)*%
X141300000Y-39196904D03*
D16*
%TO.P,D6,2,K*%
%TO.N,/Row0*%
X141300000Y-29036904D03*
%TD*%
D14*
%TO.P,SW28,1,1*%
%TO.N,/Col6*%
X149910000Y-85595000D03*
X151180000Y-83055000D03*
%TO.P,SW28,2,2*%
%TO.N,Net-(D28-A)*%
X156260000Y-83055000D03*
X157530000Y-85595000D03*
%TD*%
%TO.P,SW24,1,1*%
%TO.N,/Col2*%
X73710000Y-85595000D03*
X74980000Y-83055000D03*
%TO.P,SW24,2,2*%
%TO.N,Net-(D24-A)*%
X80060000Y-83055000D03*
X81330000Y-85595000D03*
%TD*%
D15*
%TO.P,D7,1,A*%
%TO.N,Net-(D7-A)*%
X160360000Y-38875000D03*
D16*
%TO.P,D7,2,K*%
%TO.N,/Row0*%
X160360000Y-28715000D03*
%TD*%
D15*
%TO.P,D32,1,A*%
%TO.N,Net-(D32-A)*%
X107972500Y-119837500D03*
D16*
%TO.P,D32,2,K*%
%TO.N,/Row4*%
X107972500Y-109677500D03*
%TD*%
D15*
%TO.P,D12,1,A*%
%TO.N,Net-(D12-A)*%
X122260000Y-57925000D03*
D16*
%TO.P,D12,2,K*%
%TO.N,/Row1*%
X122260000Y-47765000D03*
%TD*%
D14*
%TO.P,SW34,1,1*%
%TO.N,/Col5*%
X139961958Y-132337741D03*
X142724051Y-131677937D03*
%TO.P,SW34,2,2*%
%TO.N,Net-(D34-A)*%
X145989412Y-135569443D03*
X144860000Y-138175000D03*
%TD*%
%TO.P,SW6,1,1*%
%TO.N,/Col5*%
X130860000Y-28445000D03*
X132130000Y-25905000D03*
%TO.P,SW6,2,2*%
%TO.N,Net-(D6-A)*%
X137210000Y-25905000D03*
X138480000Y-28445000D03*
%TD*%
D17*
%TO.P,SK6812Mini-E20,1,VSS*%
%TO.N,/LED_5V*%
X55635000Y-74450000D03*
%TO.P,SK6812Mini-E20,2,DOUT*%
%TO.N,Net-(SK6812Mini-E20-DOUT)*%
X55635000Y-72950000D03*
D19*
%TO.P,SK6812Mini-E20,3,VDD*%
%TO.N,/LED_GND*%
X61195000Y-72960000D03*
D17*
%TO.P,SK6812Mini-E20,4,DIN*%
%TO.N,Net-(SK6812Mini-E19-DOUT)*%
X61195000Y-74460000D03*
%TD*%
D22*
%TO.P,D34,1,A*%
%TO.N,Net-(D34-A)*%
X138693811Y-146991561D03*
D23*
%TO.P,D34,2,K*%
%TO.N,/Row4*%
X146476823Y-140460839D03*
%TD*%
D14*
%TO.P,SW26,1,1*%
%TO.N,/Col4*%
X111810000Y-85595000D03*
X113080000Y-83055000D03*
%TO.P,SW26,2,2*%
%TO.N,Net-(D26-A)*%
X118160000Y-83055000D03*
X119430000Y-85595000D03*
%TD*%
%TO.P,SW22,1,1*%
%TO.N,/Col0*%
X35610000Y-85595000D03*
X36880000Y-83055000D03*
%TO.P,SW22,2,2*%
%TO.N,Net-(D22-A)*%
X41960000Y-83055000D03*
X43230000Y-85595000D03*
%TD*%
D24*
%TO.P,U1,1,TX*%
%TO.N,/SERIAL*%
X90396400Y-31376750D03*
D25*
%TO.P,U1,2,RX*%
%TO.N,unconnected-(U1-RX-Pad2)*%
X90396400Y-33916750D03*
%TO.P,U1,3,GND*%
%TO.N,unconnected-(U1-GND-Pad3)*%
X90396400Y-36456750D03*
%TO.P,U1,4,GND*%
%TO.N,unconnected-(U1-GND-Pad4)*%
X90396400Y-38996750D03*
%TO.P,U1,5,SDA*%
%TO.N,/SDA*%
X90396400Y-41536750D03*
%TO.P,U1,6,SCL*%
%TO.N,/SCL*%
X90396400Y-44076750D03*
%TO.P,U1,7,D4*%
%TO.N,/Row0*%
X90396400Y-46616750D03*
%TO.P,U1,8,C6*%
%TO.N,/Row1*%
X90396400Y-49156750D03*
%TO.P,U1,9,D7*%
%TO.N,/Row2*%
X90396400Y-51696750D03*
%TO.P,U1,10,E6*%
%TO.N,/Row3*%
X90396400Y-54236750D03*
%TO.P,U1,11,B4*%
%TO.N,/Row4*%
X90396400Y-56776750D03*
%TO.P,U1,12,B5*%
%TO.N,/Row5*%
X90396400Y-59316750D03*
%TO.P,U1,13,B6*%
%TO.N,/LED_DIN*%
X105636400Y-59316750D03*
%TO.P,U1,14,B2*%
%TO.N,/Col6*%
X105636400Y-56776750D03*
%TO.P,U1,15,B3*%
%TO.N,/Col5*%
X105636400Y-54236750D03*
%TO.P,U1,16,B1*%
%TO.N,/Col4*%
X105636400Y-51696750D03*
%TO.P,U1,17,F7*%
%TO.N,/Col3*%
X105636400Y-49156750D03*
%TO.P,U1,18,F6*%
%TO.N,/Col2*%
X105636400Y-46616750D03*
%TO.P,U1,19,F5*%
%TO.N,/Col1*%
X105636400Y-44076750D03*
%TO.P,U1,20,F4*%
%TO.N,/Col0*%
X105636400Y-41536750D03*
%TO.P,U1,21,VCC*%
%TO.N,/LED_5V*%
X105636400Y-38996750D03*
%TO.P,U1,22,RST*%
%TO.N,unconnected-(U1-RST-Pad22)*%
X105636400Y-36456750D03*
%TO.P,U1,23,GND*%
%TO.N,/LED_GND*%
X105636400Y-33916750D03*
%TO.P,U1,24,RAW*%
%TO.N,unconnected-(U1-RAW-Pad24)*%
X105636400Y-31376750D03*
%TD*%
D14*
%TO.P,SW35,1,1*%
%TO.N,/Col6*%
X152132577Y-152617643D03*
X154914729Y-153186969D03*
%TO.P,SW35,2,2*%
%TO.N,Net-(D35-A)*%
X156229530Y-158093872D03*
X154104778Y-159977998D03*
%TD*%
D15*
%TO.P,D26,1,A*%
%TO.N,Net-(D26-A)*%
X122260000Y-96025000D03*
D16*
%TO.P,D26,2,K*%
%TO.N,/Row3*%
X122260000Y-85865000D03*
%TD*%
D17*
%TO.P,SK6812Mini-E3,1,VSS*%
%TO.N,/LED_5V*%
X112908836Y-36420000D03*
%TO.P,SK6812Mini-E3,2,DOUT*%
%TO.N,Net-(SK6812Mini-E3-DOUT)*%
X112908836Y-34920000D03*
D19*
%TO.P,SK6812Mini-E3,3,VDD*%
%TO.N,/LED_GND*%
X118468836Y-34930000D03*
D17*
%TO.P,SK6812Mini-E3,4,DIN*%
%TO.N,Net-(SK6812Mini-E2-DOUT)*%
X118468836Y-36430000D03*
%TD*%
D26*
%TO.P,D33,1,A*%
%TO.N,Net-(D33-A)*%
X124763174Y-133081540D03*
D27*
%TO.P,D33,2,K*%
%TO.N,/Row4*%
X129056976Y-123873453D03*
%TD*%
D17*
%TO.P,SK6812Mini-E28,1,VSS*%
%TO.N,/LED_5V*%
X156588836Y-92000000D03*
%TO.P,SK6812Mini-E28,2,DOUT*%
%TO.N,Net-(SK6812Mini-E28-DOUT)*%
X156588836Y-93500000D03*
D18*
%TO.P,SK6812Mini-E28,3,VDD*%
%TO.N,/LED_GND*%
X151028836Y-93490000D03*
D17*
%TO.P,SK6812Mini-E28,4,DIN*%
%TO.N,Net-(SK6812Mini-E27-DOUT)*%
X151028836Y-91990000D03*
%TD*%
D14*
%TO.P,SW12,1,1*%
%TO.N,/Col4*%
X111810000Y-47495000D03*
X113080000Y-44955000D03*
%TO.P,SW12,2,2*%
%TO.N,Net-(D12-A)*%
X118160000Y-44955000D03*
X119430000Y-47495000D03*
%TD*%
D28*
%TO.P,D5,1,A*%
%TO.N,Net-(D5-A)*%
X119380000Y-38875000D03*
D29*
%TO.P,D5,2,K*%
%TO.N,/Row0*%
X122009601Y-29061194D03*
%TD*%
D14*
%TO.P,SW2,1,1*%
%TO.N,/Col1*%
X54660000Y-28445000D03*
X55930000Y-25905000D03*
%TO.P,SW2,2,2*%
%TO.N,Net-(D2-A)*%
X61010000Y-25905000D03*
X62280000Y-28445000D03*
%TD*%
%TO.P,SW13,1,1*%
%TO.N,/Col5*%
X130860000Y-47495000D03*
X132130000Y-44955000D03*
%TO.P,SW13,2,2*%
%TO.N,Net-(D13-A)*%
X137210000Y-44955000D03*
X138480000Y-47495000D03*
%TD*%
D15*
%TO.P,D16,1,A*%
%TO.N,Net-(D16-A)*%
X65110000Y-76975000D03*
D16*
%TO.P,D16,2,K*%
%TO.N,/Row2*%
X65110000Y-66815000D03*
%TD*%
D15*
%TO.P,D13,1,A*%
%TO.N,Net-(D13-A)*%
X141310000Y-57925000D03*
D16*
%TO.P,D13,2,K*%
%TO.N,/Row1*%
X141310000Y-47765000D03*
%TD*%
D17*
%TO.P,SK6812Mini-E4,1,VSS*%
%TO.N,/LED_5V*%
X93858836Y-36420000D03*
%TO.P,SK6812Mini-E4,2,DOUT*%
%TO.N,Net-(SK6812Mini-E4-DOUT)*%
X93858836Y-34920000D03*
D19*
%TO.P,SK6812Mini-E4,3,VDD*%
%TO.N,/LED_GND*%
X99418836Y-34930000D03*
D17*
%TO.P,SK6812Mini-E4,4,DIN*%
%TO.N,Net-(SK6812Mini-E3-DOUT)*%
X99418836Y-36430000D03*
%TD*%
%TO.P,SK6812Mini-E8,1,VSS*%
%TO.N,/LED_5V*%
X42288836Y-53912492D03*
%TO.P,SK6812Mini-E8,2,DOUT*%
%TO.N,Net-(SK6812Mini-E8-DOUT)*%
X42288836Y-55412492D03*
D18*
%TO.P,SK6812Mini-E8,3,VDD*%
%TO.N,/LED_GND*%
X36728836Y-55402492D03*
D17*
%TO.P,SK6812Mini-E8,4,DIN*%
%TO.N,Net-(SK6812Mini-E7-DOUT)*%
X36728836Y-53902492D03*
%TD*%
D15*
%TO.P,D30,1,A*%
%TO.N,Net-(D30-A)*%
X69895000Y-119790000D03*
D16*
%TO.P,D30,2,K*%
%TO.N,/Row4*%
X69895000Y-109630000D03*
%TD*%
D17*
%TO.P,SK6812Mini-E32,1,VSS*%
%TO.N,/LED_5V*%
X98585000Y-117200000D03*
%TO.P,SK6812Mini-E32,2,DOUT*%
%TO.N,Net-(SK6812Mini-E32-DOUT)*%
X98585000Y-115700000D03*
D19*
%TO.P,SK6812Mini-E32,3,VDD*%
%TO.N,/LED_GND*%
X104145000Y-115710000D03*
D17*
%TO.P,SK6812Mini-E32,4,DIN*%
%TO.N,Net-(SK6812Mini-E31-DOUT)*%
X104145000Y-117210000D03*
%TD*%
D14*
%TO.P,SW16,1,1*%
%TO.N,/Col1*%
X54660000Y-66545000D03*
X55930000Y-64005000D03*
%TO.P,SW16,2,2*%
%TO.N,Net-(D16-A)*%
X61010000Y-64005000D03*
X62280000Y-66545000D03*
%TD*%
%TO.P,SW21,1,1*%
%TO.N,/Col6*%
X149910000Y-66545000D03*
X151180000Y-64005000D03*
%TO.P,SW21,2,2*%
%TO.N,Net-(D21-A)*%
X156260000Y-64005000D03*
X157530000Y-66545000D03*
%TD*%
%TO.P,SW29,1,1*%
%TO.N,/Col0*%
X35610000Y-118932500D03*
X36880000Y-116392500D03*
%TO.P,SW29,2,2*%
%TO.N,Net-(D29-A)*%
X41960000Y-116392500D03*
X43230000Y-118932500D03*
%TD*%
%TO.P,SW3,1,1*%
%TO.N,/Col2*%
X73710000Y-28445000D03*
X74980000Y-25905000D03*
%TO.P,SW3,2,2*%
%TO.N,Net-(D3-A)*%
X80060000Y-25905000D03*
X81330000Y-28445000D03*
%TD*%
D15*
%TO.P,D10,1,A*%
%TO.N,Net-(D10-A)*%
X84160000Y-57925000D03*
D16*
%TO.P,D10,2,K*%
%TO.N,/Row1*%
X84160000Y-47765000D03*
%TD*%
D17*
%TO.P,SK6812Mini-E12,1,VSS*%
%TO.N,/LED_5V*%
X118488836Y-53912492D03*
%TO.P,SK6812Mini-E12,2,DOUT*%
%TO.N,Net-(SK6812Mini-E12-DOUT)*%
X118488836Y-55412492D03*
D18*
%TO.P,SK6812Mini-E12,3,VDD*%
%TO.N,/LED_GND*%
X112928836Y-55402492D03*
D17*
%TO.P,SK6812Mini-E12,4,DIN*%
%TO.N,Net-(SK6812Mini-E11-DOUT)*%
X112928836Y-53902492D03*
%TD*%
D15*
%TO.P,D9,1,A*%
%TO.N,Net-(D9-A)*%
X65110000Y-57925000D03*
D16*
%TO.P,D9,2,K*%
%TO.N,/Row1*%
X65110000Y-47765000D03*
%TD*%
D14*
%TO.P,SW14,1,1*%
%TO.N,/Col6*%
X149910000Y-47495000D03*
X151180000Y-44955000D03*
%TO.P,SW14,2,2*%
%TO.N,Net-(D14-A)*%
X156260000Y-44955000D03*
X157530000Y-47495000D03*
%TD*%
D15*
%TO.P,D4,1,A*%
%TO.N,Net-(D4-A)*%
X103210000Y-38875000D03*
D16*
%TO.P,D4,2,K*%
%TO.N,/Row0*%
X103210000Y-28715000D03*
%TD*%
D30*
%TO.P,SK6812Mini-E30,1,VSS*%
%TO.N,/LED_5V*%
X134587024Y-138192415D03*
%TO.P,SK6812Mini-E30,2,DOUT*%
%TO.N,Net-(SK6812Mini-E30-DOUT)*%
X135736091Y-137228234D03*
D31*
%TO.P,SK6812Mini-E30,3,VDD*%
%TO.N,/LED_GND*%
X139302329Y-141493869D03*
D30*
%TO.P,SK6812Mini-E30,4,DIN*%
%TO.N,Net-(SK6812Mini-E29-DOUT)*%
X138153263Y-142458050D03*
%TD*%
D17*
%TO.P,SK6812Mini-E24,1,VSS*%
%TO.N,/LED_5V*%
X80388836Y-92000000D03*
%TO.P,SK6812Mini-E24,2,DOUT*%
%TO.N,Net-(SK6812Mini-E24-DOUT)*%
X80388836Y-93500000D03*
D18*
%TO.P,SK6812Mini-E24,3,VDD*%
%TO.N,/LED_GND*%
X74828836Y-93490000D03*
D17*
%TO.P,SK6812Mini-E24,4,DIN*%
%TO.N,Net-(SK6812Mini-E23-DOUT)*%
X74828836Y-91990000D03*
%TD*%
D15*
%TO.P,D24,1,A*%
%TO.N,Net-(D24-A)*%
X84160000Y-96025000D03*
D16*
%TO.P,D24,2,K*%
%TO.N,/Row3*%
X84160000Y-85865000D03*
%TD*%
D15*
%TO.P,D31,1,A*%
%TO.N,Net-(D31-A)*%
X88922500Y-119837500D03*
D16*
%TO.P,D31,2,K*%
%TO.N,/Row4*%
X88922500Y-109677500D03*
%TD*%
D15*
%TO.P,D19,1,A*%
%TO.N,Net-(D19-A)*%
X122260000Y-76975000D03*
D16*
%TO.P,D19,2,K*%
%TO.N,/Row2*%
X122260000Y-66815000D03*
%TD*%
D17*
%TO.P,SK6812Mini-E10,1,VSS*%
%TO.N,/LED_5V*%
X80388836Y-53912492D03*
%TO.P,SK6812Mini-E10,2,DOUT*%
%TO.N,Net-(SK6812Mini-E10-DOUT)*%
X80388836Y-55412492D03*
D18*
%TO.P,SK6812Mini-E10,3,VDD*%
%TO.N,/LED_GND*%
X74828836Y-55402492D03*
D17*
%TO.P,SK6812Mini-E10,4,DIN*%
%TO.N,Net-(SK6812Mini-E10-DIN)*%
X74828836Y-53902492D03*
%TD*%
D32*
%TO.P,SK6812Mini-E31,1,VSS*%
%TO.N,/LED_5V*%
X117542027Y-126679975D03*
%TO.P,SK6812Mini-E31,2,DOUT*%
%TO.N,Net-(SK6812Mini-E31-DOUT)*%
X118175955Y-125320513D03*
D33*
%TO.P,SK6812Mini-E31,3,VDD*%
%TO.N,/LED_GND*%
X123210800Y-127679334D03*
D32*
%TO.P,SK6812Mini-E31,4,DIN*%
%TO.N,Net-(SK6812Mini-E30-DOUT)*%
X122576872Y-129038795D03*
%TD*%
D14*
%TO.P,SW31,1,1*%
%TO.N,/Col2*%
X78395000Y-109407500D03*
X79665000Y-106867500D03*
%TO.P,SW31,2,2*%
%TO.N,Net-(D31-A)*%
X84745000Y-106867500D03*
X86015000Y-109407500D03*
%TD*%
D15*
%TO.P,D15,1,A*%
%TO.N,Net-(D15-A)*%
X46060000Y-76975000D03*
D16*
%TO.P,D15,2,K*%
%TO.N,/Row2*%
X46060000Y-66815000D03*
%TD*%
D14*
%TO.P,SW5,1,1*%
%TO.N,/Col4*%
X111810000Y-28445000D03*
X113080000Y-25905000D03*
%TO.P,SW5,2,2*%
%TO.N,Net-(D5-A)*%
X118160000Y-25905000D03*
X119430000Y-28445000D03*
%TD*%
D34*
%TO.P,D35,1,A*%
%TO.N,Net-(D35-A)*%
X145811194Y-166964601D03*
D35*
%TO.P,D35,2,K*%
%TO.N,/Row4*%
X155625000Y-164335000D03*
%TD*%
D15*
%TO.P,D8,1,A*%
%TO.N,Net-(D8-A)*%
X46060000Y-57925000D03*
D16*
%TO.P,D8,2,K*%
%TO.N,/Row1*%
X46060000Y-47765000D03*
%TD*%
D15*
%TO.P,D25,1,A*%
%TO.N,Net-(D25-A)*%
X103210000Y-96025000D03*
D16*
%TO.P,D25,2,K*%
%TO.N,/Row3*%
X103210000Y-85865000D03*
%TD*%
D17*
%TO.P,SK6812Mini-E15,1,VSS*%
%TO.N,/LED_5V*%
X150885000Y-74450000D03*
%TO.P,SK6812Mini-E15,2,DOUT*%
%TO.N,Net-(SK6812Mini-E15-DOUT)*%
X150885000Y-72950000D03*
D19*
%TO.P,SK6812Mini-E15,3,VDD*%
%TO.N,/LED_GND*%
X156445000Y-72960000D03*
D17*
%TO.P,SK6812Mini-E15,4,DIN*%
%TO.N,Net-(SK6812Mini-E14-DOUT)*%
X156445000Y-74460000D03*
%TD*%
D14*
%TO.P,SW19,1,1*%
%TO.N,/Col4*%
X111810000Y-66545000D03*
X113080000Y-64005000D03*
%TO.P,SW19,2,2*%
%TO.N,Net-(D19-A)*%
X118160000Y-64005000D03*
X119430000Y-66545000D03*
%TD*%
%TO.P,SW8,1,1*%
%TO.N,/Col0*%
X35610000Y-47495000D03*
X36880000Y-44955000D03*
%TO.P,SW8,2,2*%
%TO.N,Net-(D8-A)*%
X41960000Y-44955000D03*
X43230000Y-47495000D03*
%TD*%
%TO.P,SW25,1,1*%
%TO.N,/Col3*%
X92760000Y-85595000D03*
X94030000Y-83055000D03*
%TO.P,SW25,2,2*%
%TO.N,Net-(D25-A)*%
X99110000Y-83055000D03*
X100380000Y-85595000D03*
%TD*%
D17*
%TO.P,SK6812Mini-E14,1,VSS*%
%TO.N,/LED_5V*%
X156588836Y-53912492D03*
%TO.P,SK6812Mini-E14,2,DOUT*%
%TO.N,Net-(SK6812Mini-E14-DOUT)*%
X156588836Y-55412492D03*
D18*
%TO.P,SK6812Mini-E14,3,VDD*%
%TO.N,/LED_GND*%
X151028836Y-55402492D03*
D17*
%TO.P,SK6812Mini-E14,4,DIN*%
%TO.N,Net-(SK6812Mini-E13-DOUT)*%
X151028836Y-53902492D03*
%TD*%
D14*
%TO.P,SW17,1,1*%
%TO.N,/Col2*%
X73710000Y-66545000D03*
X74980000Y-64005000D03*
%TO.P,SW17,2,2*%
%TO.N,Net-(D17-A)*%
X80060000Y-64005000D03*
X81330000Y-66545000D03*
%TD*%
D15*
%TO.P,D2,1,A*%
%TO.N,Net-(D2-A)*%
X65110000Y-38875000D03*
D16*
%TO.P,D2,2,K*%
%TO.N,/Row0*%
X65110000Y-28715000D03*
%TD*%
D15*
%TO.P,D1,1,A*%
%TO.N,Net-(D1-A)*%
X46060000Y-38875000D03*
D16*
%TO.P,D1,2,K*%
%TO.N,/Row0*%
X46060000Y-28715000D03*
%TD*%
D15*
%TO.P,D14,1,A*%
%TO.N,Net-(D14-A)*%
X160360000Y-57925000D03*
D16*
%TO.P,D14,2,K*%
%TO.N,/Row1*%
X160360000Y-47765000D03*
%TD*%
D17*
%TO.P,SK6812Mini-E9,1,VSS*%
%TO.N,/LED_5V*%
X61338836Y-53912492D03*
%TO.P,SK6812Mini-E9,2,DOUT*%
%TO.N,Net-(SK6812Mini-E10-DIN)*%
X61338836Y-55412492D03*
D18*
%TO.P,SK6812Mini-E9,3,VDD*%
%TO.N,/LED_GND*%
X55778836Y-55402492D03*
D17*
%TO.P,SK6812Mini-E9,4,DIN*%
%TO.N,Net-(SK6812Mini-E8-DOUT)*%
X55778836Y-53902492D03*
%TD*%
%TO.P,SK6812Mini-E2,1,VSS*%
%TO.N,/LED_5V*%
X131958836Y-36420000D03*
%TO.P,SK6812Mini-E2,2,DOUT*%
%TO.N,Net-(SK6812Mini-E2-DOUT)*%
X131958836Y-34920000D03*
D19*
%TO.P,SK6812Mini-E2,3,VDD*%
%TO.N,/LED_GND*%
X137518836Y-34930000D03*
D17*
%TO.P,SK6812Mini-E2,4,DIN*%
%TO.N,Net-(SK6812Mini-E1-DOUT)*%
X137518836Y-36430000D03*
%TD*%
%TO.P,SK6812Mini-E16,1,VSS*%
%TO.N,/LED_5V*%
X131835000Y-74450000D03*
%TO.P,SK6812Mini-E16,2,DOUT*%
%TO.N,Net-(SK6812Mini-E16-DOUT)*%
X131835000Y-72950000D03*
D19*
%TO.P,SK6812Mini-E16,3,VDD*%
%TO.N,/LED_GND*%
X137395000Y-72960000D03*
D17*
%TO.P,SK6812Mini-E16,4,DIN*%
%TO.N,Net-(SK6812Mini-E15-DOUT)*%
X137395000Y-74460000D03*
%TD*%
%TO.P,SK6812Mini-E13,1,VSS*%
%TO.N,/LED_5V*%
X137538836Y-53912492D03*
%TO.P,SK6812Mini-E13,2,DOUT*%
%TO.N,Net-(SK6812Mini-E13-DOUT)*%
X137538836Y-55412492D03*
D18*
%TO.P,SK6812Mini-E13,3,VDD*%
%TO.N,/LED_GND*%
X131978836Y-55402492D03*
D17*
%TO.P,SK6812Mini-E13,4,DIN*%
%TO.N,Net-(SK6812Mini-E12-DOUT)*%
X131978836Y-53902492D03*
%TD*%
D14*
%TO.P,SW1,1,1*%
%TO.N,/Col0*%
X35610000Y-28445000D03*
X36880000Y-25905000D03*
%TO.P,SW1,2,2*%
%TO.N,Net-(D1-A)*%
X41960000Y-25905000D03*
X43230000Y-28445000D03*
%TD*%
D17*
%TO.P,SK6812Mini-E1,1,VSS*%
%TO.N,/LED_5V*%
X151008836Y-36420000D03*
%TO.P,SK6812Mini-E1,2,DOUT*%
%TO.N,Net-(SK6812Mini-E1-DOUT)*%
X151008836Y-34920000D03*
D19*
%TO.P,SK6812Mini-E1,3,VDD*%
%TO.N,/LED_GND*%
X156568836Y-34930000D03*
D17*
%TO.P,SK6812Mini-E1,4,DIN*%
%TO.N,/LED_DIN*%
X156568836Y-36430000D03*
%TD*%
D14*
%TO.P,SW11,1,1*%
%TO.N,/Col3*%
X92760000Y-47495000D03*
X94030000Y-44955000D03*
%TO.P,SW11,2,2*%
%TO.N,Net-(D11-A)*%
X99110000Y-44955000D03*
X100380000Y-47495000D03*
%TD*%
D17*
%TO.P,SK6812Mini-E35,1,VSS*%
%TO.N,/LED_5V*%
X36645000Y-126710000D03*
%TO.P,SK6812Mini-E35,2,DOUT*%
%TO.N,unconnected-(SK6812Mini-E35-DOUT-Pad2)*%
X36645000Y-125210000D03*
D19*
%TO.P,SK6812Mini-E35,3,VDD*%
%TO.N,/LED_GND*%
X42205000Y-125220000D03*
D17*
%TO.P,SK6812Mini-E35,4,DIN*%
%TO.N,Net-(SK6812Mini-E34-DOUT)*%
X42205000Y-126720000D03*
%TD*%
D15*
%TO.P,D27,1,A*%
%TO.N,Net-(D27-A)*%
X141310000Y-96025000D03*
D16*
%TO.P,D27,2,K*%
%TO.N,/Row3*%
X141310000Y-85865000D03*
%TD*%
D36*
%TO.N,/LED_GND*%
X155600000Y-119500000D03*
%TO.N,/LED_DIN*%
X148200000Y-38500000D03*
X148200000Y-61800000D03*
%TO.N,/LED_GND*%
X123825000Y-33655000D03*
%TO.N,/SERIAL*%
X92710000Y-38100000D03*
X125730000Y-44450000D03*
%TO.N,/LED_GND*%
X125730000Y-43180000D03*
%TO.N,/LED_5V*%
X125730000Y-37465000D03*
%TO.N,/LED_GND*%
X112895000Y-57210000D03*
X112885000Y-60450000D03*
%TO.N,/LED_5V*%
X41960000Y-90675000D03*
X111210500Y-52710000D03*
X41960000Y-95120000D03*
X101125000Y-52960000D03*
%TO.N,/Col5*%
X112445000Y-51940000D03*
%TD*%
D37*
%TO.N,/LED_GND*%
X151028836Y-114928836D02*
X155600000Y-119500000D01*
X151028836Y-93490000D02*
X151028836Y-114928836D01*
D38*
%TO.N,/LED_5V*%
X157692836Y-92836000D02*
X157692836Y-120142836D01*
X156856836Y-92000000D02*
X157692836Y-92836000D01*
X157692836Y-120142836D02*
X159600000Y-122050000D01*
%TO.N,Net-(SK6812Mini-E28-DOUT)*%
X156185846Y-165689000D02*
X150651122Y-165689000D01*
X156979000Y-164895846D02*
X156185846Y-165689000D01*
X154683435Y-157664310D02*
X154683435Y-158580998D01*
X150651122Y-165689000D02*
X146117804Y-161155682D01*
X156588836Y-155758909D02*
X154683435Y-157664310D01*
X156588836Y-93500000D02*
X156588836Y-155758909D01*
X154683435Y-158580998D02*
X156979000Y-160876563D01*
X156979000Y-160876563D02*
X156979000Y-164895846D01*
%TO.N,/Row1*%
X106004586Y-50387050D02*
X108070872Y-48320764D01*
X100392196Y-50387050D02*
X106004586Y-50387050D01*
X95608652Y-47714100D02*
X97719246Y-47714100D01*
X108070872Y-48320764D02*
X108070872Y-47847050D01*
X94166002Y-49156750D02*
X95608652Y-47714100D01*
X90396400Y-49156750D02*
X94166002Y-49156750D01*
X97719246Y-47714100D02*
X100392196Y-50387050D01*
%TO.N,/LED_DIN*%
X156568836Y-37094000D02*
X156568836Y-36430000D01*
X148200000Y-38500000D02*
X155162836Y-38500000D01*
X155162836Y-38500000D02*
X156568836Y-37094000D01*
X146346000Y-59946000D02*
X148200000Y-61800000D01*
X106265650Y-59946000D02*
X146346000Y-59946000D01*
X105636400Y-59316750D02*
X106265650Y-59946000D01*
%TO.N,/LED_5V*%
X151017000Y-90883000D02*
X155634284Y-90883000D01*
X151000000Y-90900000D02*
X151017000Y-90883000D01*
X150983000Y-90883000D02*
X151000000Y-90900000D01*
X149585932Y-37842904D02*
X151008836Y-36420000D01*
X131958836Y-36420000D02*
X131958836Y-37084000D01*
X131958836Y-37084000D02*
X132717740Y-37842904D01*
X132717740Y-37842904D02*
X149585932Y-37842904D01*
%TO.N,Net-(SK6812Mini-E2-DOUT)*%
X120017836Y-34881000D02*
X131919836Y-34881000D01*
X118468836Y-36430000D02*
X120017836Y-34881000D01*
%TO.N,/LED_5V*%
X125538781Y-37273781D02*
X125730000Y-37465000D01*
X118048000Y-37527000D02*
X118301219Y-37273781D01*
X113351836Y-37527000D02*
X118048000Y-37527000D01*
X112908836Y-37084000D02*
X113351836Y-37527000D01*
X112908836Y-36420000D02*
X112908836Y-37084000D01*
X118301219Y-37273781D02*
X125538781Y-37273781D01*
X131273836Y-35735000D02*
X131958836Y-36420000D01*
X128905000Y-35735000D02*
X131273836Y-35735000D01*
%TO.N,/SERIAL*%
X118799000Y-40229000D02*
X122405000Y-43835000D01*
X92710000Y-38100000D02*
X94839000Y-40229000D01*
X94839000Y-40229000D02*
X118799000Y-40229000D01*
X105168214Y-40406450D02*
X104506100Y-41068564D01*
X104506100Y-41068564D02*
X104506100Y-41543900D01*
X104506100Y-41543900D02*
X96153900Y-41543900D01*
X96153900Y-41543900D02*
X92710000Y-38100000D01*
%TO.N,/LED_GND*%
X126175000Y-42735000D02*
X125730000Y-43180000D01*
X128905000Y-42735000D02*
X126175000Y-42735000D01*
%TO.N,/SERIAL*%
X125115000Y-43835000D02*
X125730000Y-44450000D01*
X122405000Y-43835000D02*
X125115000Y-43835000D01*
%TO.N,/LED_5V*%
X127175000Y-37465000D02*
X128905000Y-35735000D01*
X125730000Y-37465000D02*
X127175000Y-37465000D01*
%TO.N,Net-(SK6812Mini-E29-DOUT)*%
X141605000Y-145909787D02*
X138153263Y-142458050D01*
X141605000Y-150621814D02*
X141605000Y-145909787D01*
X146260666Y-155277480D02*
X141605000Y-150621814D01*
%TO.N,/LED_GND*%
X147460000Y-146825000D02*
X142128869Y-141493869D01*
X142128869Y-141493869D02*
X139302329Y-141493869D01*
X147486023Y-156054538D02*
X147460000Y-156028515D01*
X148433977Y-159592349D02*
X147486023Y-156054538D01*
X148433977Y-159900170D02*
X148433977Y-159592349D01*
X147460000Y-156028515D02*
X147460000Y-146825000D01*
X147566693Y-160767454D02*
X148433977Y-159900170D01*
%TO.N,/Row4*%
X150495000Y-152955723D02*
X150495000Y-144479016D01*
X150495000Y-144479016D02*
X146476823Y-140460839D01*
X152986126Y-155446849D02*
X150495000Y-152955723D01*
X152707778Y-158194917D02*
X152986126Y-157916569D01*
X155625000Y-164335000D02*
X152707778Y-161417778D01*
X152707778Y-161417778D02*
X152707778Y-158194917D01*
X152986126Y-157916569D02*
X152986126Y-155446849D01*
%TO.N,/Col0*%
X38655000Y-43180000D02*
X36880000Y-44955000D01*
X42160657Y-43180000D02*
X38655000Y-43180000D01*
X44700657Y-45720000D02*
X42160657Y-43180000D01*
X53189343Y-45720000D02*
X44700657Y-45720000D01*
X55751343Y-43158000D02*
X53189343Y-45720000D01*
X78274897Y-43158000D02*
X55751343Y-43158000D01*
X81026447Y-40406450D02*
X78274897Y-43158000D01*
X90864586Y-40406450D02*
X81026447Y-40406450D01*
X92871186Y-42413050D02*
X90864586Y-40406450D01*
X105636400Y-41536750D02*
X104760100Y-42413050D01*
X104760100Y-42413050D02*
X92871186Y-42413050D01*
%TO.N,/LED_5V*%
X93858836Y-37084000D02*
X93858836Y-36420000D01*
X94369682Y-37594846D02*
X93858836Y-37084000D01*
X104508000Y-37465000D02*
X98542142Y-37465000D01*
X98542142Y-37465000D02*
X98412296Y-37594846D01*
X105636400Y-38593400D02*
X104508000Y-37465000D01*
X98412296Y-37594846D02*
X94369682Y-37594846D01*
D37*
X105407800Y-38996750D02*
X110612086Y-38996750D01*
X94098836Y-36460000D02*
X94098836Y-37208528D01*
X110612086Y-38996750D02*
X113148836Y-36460000D01*
D38*
%TO.N,/Row0*%
X63856000Y-29969000D02*
X65110000Y-28715000D01*
X159233000Y-29842000D02*
X160360000Y-28715000D01*
X152720468Y-28664100D02*
X155664100Y-28664100D01*
X46060000Y-28715000D02*
X47314000Y-29969000D01*
X142749799Y-30483097D02*
X150901471Y-30483097D01*
X66364000Y-29969000D02*
X75177384Y-29969000D01*
X55886000Y-29969000D02*
X57244900Y-28610100D01*
D37*
X132595936Y-29815000D02*
X133719836Y-28691100D01*
X84160000Y-28715000D02*
X90912922Y-28715000D01*
D38*
X141649800Y-29383098D02*
X142749799Y-30483097D01*
X79339838Y-28610100D02*
X80939738Y-30210000D01*
X76536284Y-28610100D02*
X79339838Y-28610100D01*
D37*
X103210000Y-28715000D02*
X104437000Y-29942000D01*
D38*
X156842000Y-29842000D02*
X159233000Y-29842000D01*
D37*
X99759922Y-29942000D02*
X101983000Y-29942000D01*
D38*
X59545100Y-28610100D02*
X60904000Y-29969000D01*
D37*
X133719836Y-28691100D02*
X136788627Y-28691100D01*
X92139922Y-29942000D02*
X94292568Y-29942000D01*
D38*
X60904000Y-29969000D02*
X63856000Y-29969000D01*
D37*
X90912922Y-28715000D02*
X92139922Y-29942000D01*
X104437000Y-29942000D02*
X113342568Y-29942000D01*
D38*
X155664100Y-28664100D02*
X156842000Y-29842000D01*
D37*
X122260000Y-28715000D02*
X123360000Y-29815000D01*
X121033000Y-29942000D02*
X122260000Y-28715000D01*
X117505022Y-28637100D02*
X118809922Y-29942000D01*
X101983000Y-29942000D02*
X103210000Y-28715000D01*
X155605022Y-28637100D02*
X156909922Y-29942000D01*
D38*
X65110000Y-28715000D02*
X66364000Y-29969000D01*
D37*
X113342568Y-29942000D02*
X114647468Y-28637100D01*
X98455022Y-28637100D02*
X99759922Y-29942000D01*
D38*
X80939738Y-30210000D02*
X82665000Y-30210000D01*
D37*
X95597468Y-28637100D02*
X98455022Y-28637100D01*
X123360000Y-29815000D02*
X132595936Y-29815000D01*
X137912527Y-29815000D02*
X141217898Y-29815000D01*
D38*
X47314000Y-29969000D02*
X55886000Y-29969000D01*
X75177384Y-29969000D02*
X76536284Y-28610100D01*
D37*
X136788627Y-28691100D02*
X137912527Y-29815000D01*
X152747468Y-28637100D02*
X155605022Y-28637100D01*
X159133000Y-29942000D02*
X160360000Y-28715000D01*
X114647468Y-28637100D02*
X117505022Y-28637100D01*
D38*
X57244900Y-28610100D02*
X59545100Y-28610100D01*
D37*
X156909922Y-29942000D02*
X159133000Y-29942000D01*
D38*
X82665000Y-30210000D02*
X84160000Y-28715000D01*
X150901471Y-30483097D02*
X152720468Y-28664100D01*
D37*
X94292568Y-29942000D02*
X95597468Y-28637100D01*
X118809922Y-29942000D02*
X121033000Y-29942000D01*
%TO.N,Net-(SK6812Mini-E8-DOUT)*%
X55598836Y-54272492D02*
X55998836Y-53872492D01*
X43835672Y-54272492D02*
X55598836Y-54272492D01*
X42735672Y-55372492D02*
X43835672Y-54272492D01*
%TO.N,Net-(SK6812Mini-E7-DOUT)*%
X33625000Y-37480000D02*
X33625000Y-50548656D01*
X33625000Y-50548656D02*
X36948836Y-53872492D01*
X36145000Y-34960000D02*
X33625000Y-37480000D01*
%TO.N,Net-(SK6812Mini-E6-DOUT)*%
X42488836Y-36460000D02*
X43988836Y-34960000D01*
X43988836Y-34960000D02*
X55998836Y-34960000D01*
%TO.N,Net-(SK6812Mini-E5-DOUT)*%
X74376918Y-34960000D02*
X72876918Y-36460000D01*
X72876918Y-36460000D02*
X61098836Y-36460000D01*
%TO.N,Net-(SK6812Mini-E4-DOUT)*%
X84395000Y-32710000D02*
X80645000Y-36460000D01*
X94098836Y-34960000D02*
X91848836Y-32710000D01*
X91848836Y-32710000D02*
X84395000Y-32710000D01*
D38*
%TO.N,Net-(SK6812Mini-E34-DOUT)*%
X59915000Y-115670000D02*
X48865000Y-126720000D01*
X48865000Y-126720000D02*
X42205000Y-126720000D01*
%TO.N,Net-(SK6812Mini-E33-DOUT)*%
X79165000Y-115670000D02*
X77655000Y-117180000D01*
X77655000Y-117180000D02*
X65915000Y-117180000D01*
%TO.N,Net-(SK6812Mini-E32-DOUT)*%
X98145000Y-115700000D02*
X96665000Y-117180000D01*
X96665000Y-117180000D02*
X85165000Y-117180000D01*
%TO.N,Net-(SK6812Mini-E31-DOUT)*%
X110065442Y-117210000D02*
X104145000Y-117210000D01*
X118175955Y-125320513D02*
X110065442Y-117210000D01*
%TO.N,Net-(SK6812Mini-E30-DOUT)*%
X135736091Y-137228234D02*
X127546652Y-129038795D01*
X127546652Y-129038795D02*
X122576872Y-129038795D01*
D37*
%TO.N,Net-(SK6812Mini-E3-DOUT)*%
X101078836Y-35210000D02*
X112618836Y-35210000D01*
X99858836Y-36430000D02*
X101078836Y-35210000D01*
%TO.N,Net-(SK6812Mini-E27-DOUT)*%
X137978836Y-93720000D02*
X139488836Y-92210000D01*
X139488836Y-92210000D02*
X151028836Y-92210000D01*
%TO.N,Net-(SK6812Mini-E26-DOUT)*%
X118928836Y-93720000D02*
X120438836Y-92210000D01*
X120438836Y-92210000D02*
X131978836Y-92210000D01*
%TO.N,Net-(SK6812Mini-E25-DOUT)*%
X101388836Y-92210000D02*
X112928836Y-92210000D01*
X99878836Y-93720000D02*
X101388836Y-92210000D01*
%TO.N,Net-(SK6812Mini-E24-DOUT)*%
X82338836Y-92210000D02*
X93878836Y-92210000D01*
X80828836Y-93720000D02*
X82338836Y-92210000D01*
%TO.N,Net-(SK6812Mini-E23-DOUT)*%
X61778836Y-93720000D02*
X63288836Y-92210000D01*
X63288836Y-92210000D02*
X74828836Y-92210000D01*
%TO.N,Net-(SK6812Mini-E22-DOUT)*%
X42728836Y-93720000D02*
X44238836Y-92210000D01*
X44238836Y-92210000D02*
X55778836Y-92210000D01*
%TO.N,Net-(SK6812Mini-E21-DOUT)*%
X36145000Y-72950000D02*
X33767000Y-75328000D01*
X33767000Y-89248164D02*
X36728836Y-92210000D01*
X33767000Y-75328000D02*
X33767000Y-89248164D01*
%TO.N,Net-(SK6812Mini-E20-DOUT)*%
X55635000Y-72950000D02*
X44405000Y-72950000D01*
X44405000Y-72950000D02*
X42895000Y-74460000D01*
%TO.N,Net-(SK6812Mini-E19-DOUT)*%
X62145000Y-74460000D02*
X61195000Y-74460000D01*
X74685000Y-72950000D02*
X63655000Y-72950000D01*
X63655000Y-72950000D02*
X62145000Y-74460000D01*
%TO.N,Net-(SK6812Mini-E18-DOUT)*%
X81145000Y-74460000D02*
X80245000Y-74460000D01*
X82655000Y-72950000D02*
X81145000Y-74460000D01*
X93735000Y-72950000D02*
X82655000Y-72950000D01*
%TO.N,Net-(SK6812Mini-E17-DOUT)*%
X112785000Y-72950000D02*
X101655000Y-72950000D01*
X101655000Y-72950000D02*
X100145000Y-74460000D01*
X100145000Y-74460000D02*
X99295000Y-74460000D01*
%TO.N,Net-(SK6812Mini-E16-DOUT)*%
X120655000Y-72950000D02*
X119145000Y-74460000D01*
X119145000Y-74460000D02*
X118345000Y-74460000D01*
X131835000Y-72950000D02*
X120655000Y-72950000D01*
%TO.N,Net-(SK6812Mini-E15-DOUT)*%
X150885000Y-72950000D02*
X139655000Y-72950000D01*
X139655000Y-72950000D02*
X138145000Y-74460000D01*
%TO.N,Net-(SK6812Mini-E14-DOUT)*%
X156588836Y-60498252D02*
X162160000Y-66069416D01*
X156588836Y-55412492D02*
X156588836Y-60498252D01*
X162160000Y-66069416D02*
X162160000Y-68809178D01*
X162160000Y-68809178D02*
X156509178Y-74460000D01*
%TO.N,Net-(SK6812Mini-E13-DOUT)*%
X137985672Y-55372492D02*
X139485672Y-53872492D01*
X139485672Y-53872492D02*
X151248836Y-53872492D01*
%TO.N,Net-(SK6812Mini-E12-DOUT)*%
X118982508Y-55372492D02*
X120482508Y-53872492D01*
X120482508Y-53872492D02*
X132198836Y-53872492D01*
%TO.N,Net-(SK6812Mini-E11-DOUT)*%
X112708836Y-53872492D02*
X111121328Y-55460000D01*
X111121328Y-55460000D02*
X99286344Y-55460000D01*
%TO.N,Net-(SK6812Mini-E10-DOUT)*%
X94098836Y-53872492D02*
X93286794Y-53060450D01*
X93286794Y-53060450D02*
X83274550Y-53060450D01*
X83274550Y-53060450D02*
X80962508Y-55372492D01*
%TO.N,Net-(SK6812Mini-E10-DIN)*%
X63232508Y-53872492D02*
X61732508Y-55372492D01*
X75048836Y-53872492D02*
X63232508Y-53872492D01*
D38*
%TO.N,Net-(SK6812Mini-E1-DOUT)*%
X145100000Y-36430000D02*
X137518836Y-36430000D01*
X146610000Y-34920000D02*
X145100000Y-36430000D01*
X151008836Y-34920000D02*
X146610000Y-34920000D01*
%TO.N,/Row4*%
X71196500Y-110931500D02*
X79673500Y-110931500D01*
D37*
X129056976Y-123873453D02*
X138964264Y-133780741D01*
X143417000Y-135089000D02*
X143417000Y-138772711D01*
X107972500Y-109677500D02*
X118881024Y-120586024D01*
D38*
X66433606Y-110877500D02*
X68647500Y-110877500D01*
D37*
X103217522Y-109599600D02*
X104522422Y-110904500D01*
X118881024Y-120586024D02*
X124671024Y-120586024D01*
D38*
X79673500Y-110931500D02*
X81032400Y-109572600D01*
D37*
X126261076Y-123873453D02*
X129056976Y-123873453D01*
X142108741Y-133780741D02*
X143417000Y-135089000D01*
X99055068Y-110904500D02*
X100359968Y-109599600D01*
D38*
X52624541Y-119202500D02*
X62250441Y-109576600D01*
D37*
X90149500Y-110904500D02*
X99055068Y-110904500D01*
D38*
X69895000Y-109630000D02*
X71196500Y-110931500D01*
D37*
X138964264Y-133780741D02*
X142108741Y-133780741D01*
X145105128Y-140460839D02*
X146476823Y-140460839D01*
X88922500Y-109677500D02*
X90149500Y-110904500D01*
X124671024Y-122283401D02*
X126261076Y-123873453D01*
D38*
X85383738Y-110931500D02*
X87668500Y-110931500D01*
X68647500Y-110877500D02*
X69895000Y-109630000D01*
D37*
X124671024Y-120586024D02*
X124671024Y-122283401D01*
D38*
X65132706Y-109576600D02*
X66433606Y-110877500D01*
X84024838Y-109572600D02*
X85383738Y-110931500D01*
D37*
X143417000Y-138772711D02*
X145105128Y-140460839D01*
D38*
X46060000Y-119202500D02*
X52624541Y-119202500D01*
D37*
X104522422Y-110904500D02*
X106745500Y-110904500D01*
D38*
X81032400Y-109572600D02*
X84024838Y-109572600D01*
X87668500Y-110931500D02*
X88922500Y-109677500D01*
D37*
X106745500Y-110904500D02*
X107972500Y-109677500D01*
D38*
X62250441Y-109576600D02*
X65132706Y-109576600D01*
D37*
X100359968Y-109599600D02*
X103217522Y-109599600D01*
D38*
%TO.N,/Row3*%
X82906000Y-87119000D02*
X84160000Y-85865000D01*
D37*
X117505022Y-85787100D02*
X118809922Y-87092000D01*
X101983000Y-87092000D02*
X103210000Y-85865000D01*
X118809922Y-87092000D02*
X121033000Y-87092000D01*
X137859922Y-87092000D02*
X140083000Y-87092000D01*
D38*
X46060000Y-85865000D02*
X47314000Y-87119000D01*
D37*
X114647468Y-85787100D02*
X117505022Y-85787100D01*
X136555022Y-85787100D02*
X137859922Y-87092000D01*
D38*
X57344900Y-85760100D02*
X60289838Y-85760100D01*
X75177384Y-87119000D02*
X76536284Y-85760100D01*
D37*
X113342568Y-87092000D02*
X114647468Y-85787100D01*
X95645000Y-85710000D02*
X98377922Y-85710000D01*
D38*
X79339838Y-85760100D02*
X80698738Y-87119000D01*
X80698738Y-87119000D02*
X82906000Y-87119000D01*
X66364000Y-87119000D02*
X75177384Y-87119000D01*
X60289838Y-85760100D02*
X61648738Y-87119000D01*
D37*
X122260000Y-85865000D02*
X123487000Y-87092000D01*
X123487000Y-87092000D02*
X132013000Y-87092000D01*
X133317900Y-85787100D02*
X136555022Y-85787100D01*
D38*
X47314000Y-87119000D02*
X55986000Y-87119000D01*
D37*
X121033000Y-87092000D02*
X122260000Y-85865000D01*
X104437000Y-87092000D02*
X113342568Y-87092000D01*
X85387000Y-87092000D02*
X94263000Y-87092000D01*
D38*
X65110000Y-85865000D02*
X66364000Y-87119000D01*
D37*
X142537000Y-87092000D02*
X151263000Y-87092000D01*
X99759922Y-87092000D02*
X101983000Y-87092000D01*
D38*
X76536284Y-85760100D02*
X79339838Y-85760100D01*
X55986000Y-87119000D02*
X57344900Y-85760100D01*
D37*
X98377922Y-85710000D02*
X99759922Y-87092000D01*
X94263000Y-87092000D02*
X95645000Y-85710000D01*
D38*
X61648738Y-87119000D02*
X63856000Y-87119000D01*
D37*
X159133000Y-87092000D02*
X160360000Y-85865000D01*
X155527922Y-85710000D02*
X156909922Y-87092000D01*
X151263000Y-87092000D02*
X152645000Y-85710000D01*
X103210000Y-85865000D02*
X104437000Y-87092000D01*
X140083000Y-87092000D02*
X141310000Y-85865000D01*
X141310000Y-85865000D02*
X142537000Y-87092000D01*
X132013000Y-87092000D02*
X133317900Y-85787100D01*
X152645000Y-85710000D02*
X155527922Y-85710000D01*
X84160000Y-85865000D02*
X85387000Y-87092000D01*
D38*
X63856000Y-87119000D02*
X65110000Y-85865000D01*
D37*
X156909922Y-87092000D02*
X159133000Y-87092000D01*
%TO.N,/Row2*%
X117477922Y-66710000D02*
X118809922Y-68042000D01*
D38*
X56036000Y-68069000D02*
X57395000Y-66710000D01*
X63856000Y-68069000D02*
X65110000Y-66815000D01*
D37*
X152747468Y-66737100D02*
X155605022Y-66737100D01*
X101983000Y-68042000D02*
X103210000Y-66815000D01*
D38*
X80698738Y-68069000D02*
X82906000Y-68069000D01*
D37*
X155605022Y-66737100D02*
X156909922Y-68042000D01*
X113313000Y-68042000D02*
X114645000Y-66710000D01*
X159133000Y-68042000D02*
X160360000Y-66815000D01*
X118809922Y-68042000D02*
X121033000Y-68042000D01*
X99759922Y-68042000D02*
X101983000Y-68042000D01*
X95645000Y-66460000D02*
X98177922Y-66460000D01*
X104437000Y-68042000D02*
X113313000Y-68042000D01*
X84160000Y-66815000D02*
X85387000Y-68042000D01*
D38*
X65110000Y-66815000D02*
X66364000Y-68069000D01*
D37*
X140083000Y-68042000D02*
X141310000Y-66815000D01*
D38*
X60289738Y-66710000D02*
X61648738Y-68069000D01*
D37*
X123487000Y-68042000D02*
X132313000Y-68042000D01*
X103210000Y-66815000D02*
X104437000Y-68042000D01*
X114645000Y-66710000D02*
X117477922Y-66710000D01*
X98177922Y-66460000D02*
X99759922Y-68042000D01*
X142537000Y-68042000D02*
X151442568Y-68042000D01*
D38*
X46060000Y-66815000D02*
X47314000Y-68069000D01*
D37*
X156909922Y-68042000D02*
X159133000Y-68042000D01*
X141310000Y-66815000D02*
X142537000Y-68042000D01*
X132313000Y-68042000D02*
X133645000Y-66710000D01*
D38*
X66364000Y-68069000D02*
X74786000Y-68069000D01*
D37*
X133645000Y-66710000D02*
X136527922Y-66710000D01*
X151442568Y-68042000D02*
X152747468Y-66737100D01*
D38*
X79339738Y-66710000D02*
X80698738Y-68069000D01*
X76145000Y-66710000D02*
X79339738Y-66710000D01*
D37*
X137859922Y-68042000D02*
X140083000Y-68042000D01*
X122260000Y-66815000D02*
X123487000Y-68042000D01*
X136527922Y-66710000D02*
X137859922Y-68042000D01*
D38*
X47314000Y-68069000D02*
X56036000Y-68069000D01*
X57395000Y-66710000D02*
X60289738Y-66710000D01*
D37*
X121033000Y-68042000D02*
X122260000Y-66815000D01*
X85387000Y-68042000D02*
X94063000Y-68042000D01*
D38*
X61648738Y-68069000D02*
X63856000Y-68069000D01*
X82906000Y-68069000D02*
X84160000Y-66815000D01*
X74786000Y-68069000D02*
X76145000Y-66710000D01*
D37*
X94063000Y-68042000D02*
X95645000Y-66460000D01*
%TO.N,/Row1*%
X140083000Y-48992000D02*
X141310000Y-47765000D01*
X121033000Y-48992000D02*
X122260000Y-47765000D01*
D38*
X75177384Y-49019000D02*
X76736384Y-47460000D01*
D37*
X133697468Y-47687100D02*
X136555022Y-47687100D01*
X123487000Y-48992000D02*
X132392568Y-48992000D01*
X103292050Y-47847050D02*
X108070872Y-47847050D01*
X155605022Y-47687100D02*
X157127922Y-49210000D01*
D38*
X65110000Y-47765000D02*
X66364000Y-49019000D01*
X82906000Y-49019000D02*
X84160000Y-47765000D01*
D37*
X136555022Y-47687100D02*
X137859922Y-48992000D01*
D38*
X80698738Y-49019000D02*
X82906000Y-49019000D01*
D37*
X108070872Y-47847050D02*
X112459922Y-43458000D01*
X141310000Y-47765000D02*
X142537000Y-48992000D01*
D38*
X79139738Y-47460000D02*
X80698738Y-49019000D01*
X47314000Y-49019000D02*
X56086000Y-49019000D01*
X59839738Y-47210000D02*
X61648738Y-49019000D01*
X63856000Y-49019000D02*
X65110000Y-47765000D01*
X46060000Y-47765000D02*
X47314000Y-49019000D01*
D37*
X142537000Y-48992000D02*
X150986292Y-48992000D01*
X152291192Y-47687100D02*
X155605022Y-47687100D01*
D38*
X76736384Y-47460000D02*
X79139738Y-47460000D01*
X56086000Y-49019000D02*
X57895000Y-47210000D01*
D37*
X137859922Y-48992000D02*
X140083000Y-48992000D01*
X158915000Y-49210000D02*
X160360000Y-47765000D01*
X157127922Y-49210000D02*
X158915000Y-49210000D01*
D38*
X61648738Y-49019000D02*
X63856000Y-49019000D01*
X66364000Y-49019000D02*
X75177384Y-49019000D01*
D37*
X118809922Y-48992000D02*
X121033000Y-48992000D01*
X150986292Y-48992000D02*
X152291192Y-47687100D01*
X117933000Y-47460000D02*
X117933000Y-48115078D01*
X113931000Y-43458000D02*
X117933000Y-47460000D01*
D38*
X57895000Y-47210000D02*
X59839738Y-47210000D01*
D37*
X117933000Y-48115078D02*
X118809922Y-48992000D01*
X112459922Y-43458000D02*
X113931000Y-43458000D01*
X132392568Y-48992000D02*
X133697468Y-47687100D01*
X122260000Y-47765000D02*
X123487000Y-48992000D01*
%TO.N,/LED_GND*%
X91045000Y-29610000D02*
X85688836Y-29610000D01*
X118345000Y-72885736D02*
X117399264Y-71940000D01*
X33367000Y-74238000D02*
X33367000Y-91182000D01*
X112841950Y-60493050D02*
X98678050Y-60493050D01*
X55778836Y-93564264D02*
X56724572Y-94510000D01*
X117647364Y-33610000D02*
X105714550Y-33610000D01*
X36728836Y-55793836D02*
X37395000Y-56460000D01*
D38*
X153107752Y-33655000D02*
X155392142Y-33655000D01*
X103206306Y-114673000D02*
X104145000Y-115611694D01*
D37*
X60497364Y-33610000D02*
X43398836Y-33610000D01*
X75048836Y-56121020D02*
X75048836Y-55372492D01*
X61098836Y-34960000D02*
X61098836Y-34211472D01*
D38*
X144150000Y-34930000D02*
X144775000Y-34930000D01*
D37*
X113874572Y-94510000D02*
X130958836Y-94510000D01*
X60249264Y-71940000D02*
X43165000Y-71940000D01*
X137298836Y-34211472D02*
X136697364Y-33610000D01*
X74828836Y-93490000D02*
X74828836Y-93943836D01*
X99295000Y-72885736D02*
X98349264Y-71940000D01*
D38*
X48891000Y-125220000D02*
X42205000Y-125220000D01*
D37*
X35675000Y-93490000D02*
X36728836Y-93490000D01*
X123210800Y-126714144D02*
X122859183Y-126362527D01*
D38*
X137518836Y-34930000D02*
X144140000Y-34930000D01*
D37*
X85688836Y-29610000D02*
X80368836Y-34930000D01*
X111908836Y-94510000D02*
X112928836Y-93490000D01*
X93878836Y-93564264D02*
X94824572Y-94510000D01*
D38*
X42595000Y-95755000D02*
X42595000Y-94625000D01*
D37*
X139465465Y-141330733D02*
X139465465Y-139668320D01*
X80148836Y-34960000D02*
X80148836Y-34211472D01*
X138415000Y-71940000D02*
X137395000Y-72960000D01*
D38*
X65915000Y-115680000D02*
X66952000Y-114643000D01*
D37*
X130958836Y-94510000D02*
X131978836Y-93490000D01*
X161760000Y-66235101D02*
X161760000Y-67645000D01*
X151028836Y-55402492D02*
X151028836Y-56733125D01*
X94763900Y-33328900D02*
X91045000Y-29610000D01*
X139465465Y-139668320D02*
X127476479Y-127679334D01*
X119365000Y-71940000D02*
X118345000Y-72960000D01*
X118248836Y-34960000D02*
X118248836Y-34211472D01*
X123210800Y-127679334D02*
X123210800Y-126714144D01*
X149893836Y-94625000D02*
X151028836Y-93490000D01*
X74828836Y-93943836D02*
X75395000Y-94510000D01*
X131978836Y-93564264D02*
X133039572Y-94625000D01*
X61098836Y-34211472D02*
X60497364Y-33610000D01*
X156445000Y-72885736D02*
X155499264Y-71940000D01*
X158932188Y-63407289D02*
X161760000Y-66235101D01*
X73771328Y-56460000D02*
X74828836Y-55402492D01*
X161760000Y-67645000D02*
X156445000Y-72960000D01*
X133039572Y-94625000D02*
X149893836Y-94625000D01*
X62215000Y-71940000D02*
X61195000Y-72960000D01*
X79397364Y-33460000D02*
X62598836Y-33460000D01*
X117399264Y-71940000D02*
X100315000Y-71940000D01*
X56724572Y-94510000D02*
X73808836Y-94510000D01*
X41199264Y-71940000D02*
X35665000Y-71940000D01*
X122859183Y-126362527D02*
X119560000Y-124824093D01*
X130921328Y-56460000D02*
X131978836Y-55402492D01*
X155499264Y-71940000D02*
X138415000Y-71940000D01*
X33367000Y-91182000D02*
X35675000Y-93490000D01*
X54643836Y-94625000D02*
X55778836Y-93490000D01*
X137395000Y-72885736D02*
X136449264Y-71940000D01*
D38*
X40563000Y-97787000D02*
X42595000Y-95755000D01*
D37*
X78252816Y-59325000D02*
X75048836Y-56121020D01*
X42048836Y-34211472D02*
X41447364Y-33610000D01*
D38*
X40563000Y-118241157D02*
X40563000Y-97787000D01*
D37*
X118248836Y-34211472D02*
X117647364Y-33610000D01*
D38*
X146685000Y-33020000D02*
X152472752Y-33020000D01*
D37*
X54721328Y-56460000D02*
X55778836Y-55402492D01*
X131978836Y-55402492D02*
X131978836Y-55793836D01*
D38*
X155392142Y-33655000D02*
X156568836Y-34831694D01*
D37*
X112928836Y-55402492D02*
X112928836Y-55743836D01*
X41447364Y-33610000D02*
X36245000Y-33610000D01*
X136449264Y-71940000D02*
X119365000Y-71940000D01*
D38*
X85165000Y-115680000D02*
X86172000Y-114673000D01*
D37*
X85560000Y-59325000D02*
X78252816Y-59325000D01*
X99418836Y-34930000D02*
X99418836Y-34483836D01*
X100242086Y-33916750D02*
X99198836Y-34960000D01*
X98349264Y-71940000D02*
X81265000Y-71940000D01*
X55778836Y-55402492D02*
X55778836Y-55843836D01*
X73808836Y-94510000D02*
X74828836Y-93490000D01*
X91518278Y-57953050D02*
X86931950Y-57953050D01*
X98263900Y-33328900D02*
X94763900Y-33328900D01*
X157703000Y-63407289D02*
X158932188Y-63407289D01*
X112928836Y-55743836D02*
X113645000Y-56460000D01*
X112895000Y-57210000D02*
X112928836Y-57176164D01*
X131978836Y-55793836D02*
X132645000Y-56460000D01*
X98678050Y-60493050D02*
X93878836Y-55693836D01*
X80148836Y-34211472D02*
X79397364Y-33460000D01*
X94824572Y-94510000D02*
X111908836Y-94510000D01*
D38*
X64976306Y-114643000D02*
X59468000Y-114643000D01*
D37*
X36245000Y-33610000D02*
X33125000Y-36730000D01*
D38*
X42205000Y-119883157D02*
X40563000Y-118241157D01*
D37*
X119598836Y-33610000D02*
X118248836Y-34960000D01*
D38*
X84226306Y-114643000D02*
X85165000Y-115581694D01*
X59468000Y-114643000D02*
X48891000Y-125220000D01*
D37*
X42145000Y-72885736D02*
X41199264Y-71940000D01*
X55778836Y-55843836D02*
X56395000Y-56460000D01*
D38*
X65915000Y-115581694D02*
X64976306Y-114643000D01*
D37*
X37395000Y-56460000D02*
X54721328Y-56460000D01*
X35665000Y-71940000D02*
X33367000Y-74238000D01*
X33125000Y-52440000D02*
X36057492Y-55372492D01*
X79299264Y-71940000D02*
X62215000Y-71940000D01*
X86931950Y-57953050D02*
X85560000Y-59325000D01*
X112928836Y-93564264D02*
X113874572Y-94510000D01*
X42048836Y-34960000D02*
X42048836Y-34211472D01*
D38*
X66952000Y-114643000D02*
X84226306Y-114643000D01*
D37*
X80245000Y-72885736D02*
X79299264Y-71940000D01*
X37789572Y-94625000D02*
X42595000Y-94625000D01*
X105407800Y-33916750D02*
X100242086Y-33916750D01*
X56395000Y-56460000D02*
X73771328Y-56460000D01*
D38*
X144145000Y-34925000D02*
X144150000Y-34930000D01*
D37*
X36728836Y-93564264D02*
X37789572Y-94625000D01*
X81265000Y-71940000D02*
X80245000Y-72960000D01*
D38*
X144775000Y-34930000D02*
X146685000Y-33020000D01*
D37*
X113645000Y-56460000D02*
X130921328Y-56460000D01*
X110482305Y-115710000D02*
X104145000Y-115710000D01*
X92858836Y-94510000D02*
X93878836Y-93490000D01*
X100315000Y-71940000D02*
X99295000Y-72960000D01*
X33125000Y-36730000D02*
X33125000Y-52440000D01*
X43398836Y-33610000D02*
X42048836Y-34960000D01*
X112885000Y-60450000D02*
X112841950Y-60493050D01*
X99418836Y-34483836D02*
X98263900Y-33328900D01*
D38*
X144140000Y-34930000D02*
X144145000Y-34925000D01*
D37*
X43165000Y-71940000D02*
X42145000Y-72960000D01*
X75395000Y-94510000D02*
X92858836Y-94510000D01*
X132645000Y-56460000D02*
X149971328Y-56460000D01*
D38*
X152472752Y-33020000D02*
X153107752Y-33655000D01*
D37*
X119628199Y-124855894D02*
X110482305Y-115710000D01*
X137298836Y-34960000D02*
X137298836Y-34211472D01*
X127476479Y-127679334D02*
X123210800Y-127679334D01*
X151028836Y-56733125D02*
X157703000Y-63407289D01*
X112928836Y-57176164D02*
X112928836Y-55402492D01*
X94098836Y-55372492D02*
X91518278Y-57953050D01*
X36728836Y-55402492D02*
X36728836Y-55793836D01*
X61195000Y-72885736D02*
X60249264Y-71940000D01*
D38*
X86172000Y-114673000D02*
X103206306Y-114673000D01*
D37*
X149971328Y-56460000D02*
X151028836Y-55402492D01*
X42595000Y-94625000D02*
X54643836Y-94625000D01*
D38*
X42205000Y-125220000D02*
X42205000Y-119883157D01*
D37*
X136697364Y-33610000D02*
X119598836Y-33610000D01*
X62598836Y-33460000D02*
X61098836Y-34960000D01*
%TO.N,/LED_5V*%
X54545000Y-75540000D02*
X37065000Y-75540000D01*
X112785000Y-74450000D02*
X111695000Y-75540000D01*
D38*
X62628836Y-90710000D02*
X61338836Y-92000000D01*
X126152000Y-90883000D02*
X136584284Y-90883000D01*
D37*
X112785000Y-75060000D02*
X112785000Y-74450000D01*
D38*
X138655836Y-90883000D02*
X150983000Y-90883000D01*
D37*
X34025000Y-39383836D02*
X36948836Y-36460000D01*
X75288836Y-37510000D02*
X74808836Y-37030000D01*
X162560000Y-65903731D02*
X162560000Y-70205000D01*
D38*
X60798000Y-118277000D02*
X60355000Y-117834000D01*
X61338836Y-91837552D02*
X60384284Y-90883000D01*
D37*
X132315000Y-75540000D02*
X131835000Y-75060000D01*
D38*
X37088000Y-127817000D02*
X36645000Y-127374000D01*
D37*
X36145000Y-74450000D02*
X34167000Y-76428000D01*
D38*
X136584284Y-90883000D02*
X137538836Y-91837552D01*
D37*
X74808836Y-37030000D02*
X74808836Y-36420000D01*
X137007492Y-52822492D02*
X137538836Y-53353836D01*
X119578836Y-52822492D02*
X137007492Y-52822492D01*
X92645000Y-75540000D02*
X75165000Y-75540000D01*
X99198836Y-53123964D02*
X98597364Y-52522492D01*
X101125000Y-52960000D02*
X100212508Y-53872492D01*
X45795000Y-36460000D02*
X55998836Y-36460000D01*
D38*
X144811778Y-155665708D02*
X134355249Y-145209179D01*
X100555836Y-90883000D02*
X117534284Y-90883000D01*
D37*
X36585000Y-75060000D02*
X36585000Y-74450000D01*
D38*
X40182000Y-96898000D02*
X41960000Y-95120000D01*
D37*
X61098836Y-53872492D02*
X61098836Y-53123964D01*
X60497364Y-52522492D02*
X43398836Y-52522492D01*
D38*
X40182000Y-116336157D02*
X40182000Y-96898000D01*
D37*
X80148836Y-53872492D02*
X80148836Y-53123964D01*
X41325000Y-52575000D02*
X41272492Y-52522492D01*
X93735000Y-74450000D02*
X92645000Y-75540000D01*
X156108836Y-52822492D02*
X156588836Y-53302492D01*
X138628836Y-52822492D02*
X156108836Y-52822492D01*
X74685000Y-75060000D02*
X74685000Y-74450000D01*
X100212508Y-53872492D02*
X99198836Y-53872492D01*
X37550308Y-37810000D02*
X44445000Y-37810000D01*
X86845000Y-37510000D02*
X86810000Y-37475000D01*
X92957492Y-52522492D02*
X90955450Y-50520450D01*
X118248836Y-53123964D02*
X118248836Y-53872492D01*
D38*
X126064948Y-90883000D02*
X119605836Y-90883000D01*
D37*
X86810000Y-37475000D02*
X82795000Y-37475000D01*
X156588836Y-53302492D02*
X156588836Y-53912492D01*
D38*
X35541000Y-120977157D02*
X40182000Y-116336157D01*
D37*
X150885000Y-75060000D02*
X150885000Y-74450000D01*
D38*
X98484284Y-90883000D02*
X99438836Y-91837552D01*
X80388836Y-91837552D02*
X79261284Y-90710000D01*
D37*
X82760000Y-37510000D02*
X75288836Y-37510000D01*
X62448836Y-52522492D02*
X61098836Y-53872492D01*
X37065000Y-75540000D02*
X36585000Y-75060000D01*
X92208836Y-35210000D02*
X89145000Y-35210000D01*
X42048836Y-53872492D02*
X42048836Y-53123964D01*
X55635000Y-74450000D02*
X54545000Y-75540000D01*
X131835000Y-75060000D02*
X131835000Y-74450000D01*
X131835000Y-74450000D02*
X130745000Y-75540000D01*
X41447364Y-52522492D02*
X41377508Y-52522492D01*
D38*
X78498000Y-118277000D02*
X60798000Y-118277000D01*
D37*
X157225000Y-75540000D02*
X151365000Y-75540000D01*
D38*
X134355249Y-138424190D02*
X134587024Y-138192415D01*
X36377000Y-126710000D02*
X35541000Y-125874000D01*
D37*
X157028836Y-53912492D02*
X158880635Y-55764291D01*
D38*
X117534284Y-90883000D02*
X118488836Y-91837552D01*
X117542027Y-128316719D02*
X127417723Y-138192415D01*
D37*
X162560000Y-70205000D02*
X157225000Y-75540000D01*
X75165000Y-75540000D02*
X74685000Y-75060000D01*
D38*
X155634284Y-90883000D02*
X156588836Y-91837552D01*
X137538836Y-92000000D02*
X138655836Y-90883000D01*
D37*
X99198836Y-53872492D02*
X99198836Y-53123964D01*
D38*
X126108474Y-90926526D02*
X126152000Y-90883000D01*
D37*
X137538836Y-53353836D02*
X137538836Y-53912492D01*
D38*
X126108474Y-90926526D02*
X126064948Y-90883000D01*
D37*
X55635000Y-75060000D02*
X55635000Y-74450000D01*
D38*
X79605000Y-117170000D02*
X78498000Y-118277000D01*
X134355249Y-145209179D02*
X134355249Y-138424190D01*
D37*
X36948836Y-36460000D02*
X36948836Y-37208528D01*
X118488836Y-53912492D02*
X119578836Y-52822492D01*
X80148836Y-53123964D02*
X79547364Y-52522492D01*
X98597364Y-52522492D02*
X92957492Y-52522492D01*
D38*
X127417723Y-138192415D02*
X134587024Y-138192415D01*
D37*
X90955450Y-50520450D02*
X83500878Y-50520450D01*
X150885000Y-74450000D02*
X149795000Y-75540000D01*
X149795000Y-75540000D02*
X132315000Y-75540000D01*
X82795000Y-37475000D02*
X82760000Y-37510000D01*
X111398008Y-52522492D02*
X117647364Y-52522492D01*
X38610000Y-90675000D02*
X41960000Y-90675000D01*
X83500878Y-50520450D02*
X80148836Y-53872492D01*
D38*
X97508000Y-118277000D02*
X98585000Y-117200000D01*
X49708000Y-127817000D02*
X37088000Y-127817000D01*
D37*
X56115000Y-75540000D02*
X55635000Y-75060000D01*
X41272492Y-52522492D02*
X37187492Y-52522492D01*
D38*
X107400975Y-126679975D02*
X117542027Y-126679975D01*
D37*
X113265000Y-75540000D02*
X112785000Y-75060000D01*
X59065308Y-40275000D02*
X71233836Y-40275000D01*
X93735000Y-75060000D02*
X93735000Y-74450000D01*
X79547364Y-52522492D02*
X62448836Y-52522492D01*
D38*
X60355000Y-117834000D02*
X60355000Y-117170000D01*
X99438836Y-92000000D02*
X100555836Y-90883000D01*
X98585000Y-117200000D02*
X98585000Y-117864000D01*
D37*
X55998836Y-37208528D02*
X59065308Y-40275000D01*
D38*
X60384284Y-90883000D02*
X43405836Y-90883000D01*
X117542027Y-126679975D02*
X117542027Y-128316719D01*
D37*
X94215000Y-75540000D02*
X93735000Y-75060000D01*
D38*
X98585000Y-117864000D02*
X107400975Y-126679975D01*
D37*
X34025000Y-49360000D02*
X34025000Y-39383836D01*
X111695000Y-75540000D02*
X94215000Y-75540000D01*
X41960000Y-90675000D02*
X42288836Y-91390000D01*
X61098836Y-53123964D02*
X60497364Y-52522492D01*
X74685000Y-74450000D02*
X73595000Y-75540000D01*
D38*
X80388836Y-92000000D02*
X81505836Y-90883000D01*
D37*
X158880635Y-55764291D02*
X158880635Y-62224365D01*
X158880635Y-62224365D02*
X162560000Y-65903731D01*
X151365000Y-75540000D02*
X150885000Y-75060000D01*
D38*
X79261284Y-90710000D02*
X62628836Y-90710000D01*
D37*
X137538836Y-53912492D02*
X138628836Y-52822492D01*
D38*
X81505836Y-90883000D02*
X98484284Y-90883000D01*
D37*
X43398836Y-52522492D02*
X42048836Y-53872492D01*
X117647364Y-52522492D02*
X118248836Y-53123964D01*
D38*
X79605000Y-117834000D02*
X80048000Y-118277000D01*
D37*
X73595000Y-75540000D02*
X56115000Y-75540000D01*
D38*
X36645000Y-127374000D02*
X36645000Y-126710000D01*
X79605000Y-117170000D02*
X79605000Y-117834000D01*
D37*
X41377508Y-52522492D02*
X41325000Y-52575000D01*
D38*
X119605836Y-90883000D02*
X118488836Y-92000000D01*
D37*
X71233836Y-40275000D02*
X75048836Y-36460000D01*
X111210500Y-52710000D02*
X111398008Y-52522492D01*
X37187492Y-52522492D02*
X34025000Y-49360000D01*
D38*
X60355000Y-117170000D02*
X49708000Y-127817000D01*
X35541000Y-125874000D02*
X35541000Y-120977157D01*
D37*
X34167000Y-86232000D02*
X38610000Y-90675000D01*
X44445000Y-37810000D02*
X45795000Y-36460000D01*
D38*
X43405836Y-90883000D02*
X42288836Y-92000000D01*
D37*
X36948836Y-37208528D02*
X37550308Y-37810000D01*
X42288836Y-91390000D02*
X42288836Y-92000000D01*
X34167000Y-76428000D02*
X34167000Y-86232000D01*
X55998836Y-36460000D02*
X55998836Y-37208528D01*
X42048836Y-53123964D02*
X41447364Y-52522492D01*
D38*
X80048000Y-118277000D02*
X97508000Y-118277000D01*
D37*
X93418836Y-36420000D02*
X92208836Y-35210000D01*
X89145000Y-35210000D02*
X86845000Y-37510000D01*
X130745000Y-75540000D02*
X113265000Y-75540000D01*
%TO.N,/Col6*%
X105865000Y-56776750D02*
X108413250Y-59325000D01*
X146500000Y-59325000D02*
X151180000Y-64005000D01*
X108413250Y-59325000D02*
X146500000Y-59325000D01*
%TO.N,/Col5*%
X112445000Y-51940000D02*
X109415000Y-51940000D01*
X107118250Y-54236750D02*
X105407800Y-54236750D01*
X109415000Y-51940000D02*
X107118250Y-54236750D01*
%TO.N,/Col4*%
X105865000Y-51218375D02*
X112128375Y-44955000D01*
%TO.N,/Col3*%
X95460778Y-44955000D02*
X94030000Y-44955000D01*
X100538828Y-50033050D02*
X95460778Y-44955000D01*
X105407800Y-49156750D02*
X104531500Y-50033050D01*
X104531500Y-50033050D02*
X100538828Y-50033050D01*
%TO.N,/Col2*%
X92624690Y-43512000D02*
X90883640Y-45253050D01*
X89909160Y-45253050D02*
X88116110Y-43460000D01*
X88116110Y-43460000D02*
X79039215Y-43460000D01*
X105636400Y-46616750D02*
X102531650Y-43512000D01*
X90883640Y-45253050D02*
X89909160Y-45253050D01*
X102531650Y-43512000D02*
X92624690Y-43512000D01*
X77544215Y-44955000D02*
X74980000Y-44955000D01*
X79039215Y-43460000D02*
X77544215Y-44955000D01*
%TO.N,/Col1*%
X78421529Y-43512000D02*
X57373000Y-43512000D01*
X79033079Y-42900450D02*
X78421529Y-43512000D01*
X57373000Y-43512000D02*
X55930000Y-44955000D01*
X104460100Y-42900450D02*
X79033079Y-42900450D01*
X105636400Y-44076750D02*
X104460100Y-42900450D01*
%TD*%
M02*
