%TF.GenerationSoftware,KiCad,Pcbnew,7.0.1*%
%TF.CreationDate,2023-04-06T15:28:31+10:00*%
%TF.ProjectId,genesys,67656e65-7379-4732-9e6b-696361645f70,rev?*%
%TF.SameCoordinates,Original*%
%TF.FileFunction,Drillmap*%
%TF.FilePolarity,Positive*%
%FSLAX45Y45*%
G04 Gerber Fmt 4.5, Leading zero omitted, Abs format (unit mm)*
G04 Created by KiCad (PCBNEW 7.0.1) date 2023-04-06 15:28:31*
%MOMM*%
%LPD*%
G01*
G04 APERTURE LIST*
%ADD10C,1.085540*%
%ADD11C,0.200000*%
%ADD12C,0.030000*%
%ADD13C,0.080000*%
%ADD14C,0.099060*%
%ADD15C,0.109220*%
%ADD16C,0.110000*%
%ADD17C,0.149860*%
%ADD18C,0.300000*%
G04 APERTURE END LIST*
D10*
X3187916Y-2146084D02*
X3187917Y-2146084D01*
X3174140Y-2146430D02*
X3187916Y-2146084D01*
X3160550Y-2147457D02*
X3174140Y-2146430D01*
X3147161Y-2149149D02*
X3160550Y-2147457D01*
X3133992Y-2151488D02*
X3147161Y-2149149D01*
X3121057Y-2154459D02*
X3133992Y-2151488D01*
X3108373Y-2158045D02*
X3121057Y-2154459D01*
X3095958Y-2162229D02*
X3108373Y-2158045D01*
X3083827Y-2166995D02*
X3095958Y-2162229D01*
X3071997Y-2172327D02*
X3083827Y-2166995D01*
X3060485Y-2178207D02*
X3071997Y-2172327D01*
X3049307Y-2184620D02*
X3060485Y-2178207D01*
X3038479Y-2191549D02*
X3049307Y-2184620D01*
X3028019Y-2198976D02*
X3038479Y-2191549D01*
X3017942Y-2206887D02*
X3028019Y-2198976D01*
X3008266Y-2215264D02*
X3017942Y-2206887D01*
X2999006Y-2224090D02*
X3008266Y-2215264D01*
X2990180Y-2233350D02*
X2999006Y-2224090D01*
X2981803Y-2243027D02*
X2990180Y-2233350D01*
X2973892Y-2253103D02*
X2981803Y-2243027D01*
X2966464Y-2263564D02*
X2973892Y-2253103D01*
X2959536Y-2274391D02*
X2966464Y-2263564D01*
X2953123Y-2285569D02*
X2959536Y-2274391D01*
X2947243Y-2297081D02*
X2953123Y-2285569D01*
X2941911Y-2308911D02*
X2947243Y-2297081D01*
X2937145Y-2321042D02*
X2941911Y-2308911D01*
X2932961Y-2333457D02*
X2937145Y-2321042D01*
X2929375Y-2346141D02*
X2932961Y-2333457D01*
X2926404Y-2359076D02*
X2929375Y-2346141D01*
X2924065Y-2372246D02*
X2926404Y-2359076D01*
X2922373Y-2385634D02*
X2924065Y-2372246D01*
X2921346Y-2399224D02*
X2922373Y-2385634D01*
X2921000Y-2413000D02*
X2921346Y-2399224D01*
X2921000Y-13060855D02*
X2921000Y-2413000D01*
X2921346Y-13074630D02*
X2921000Y-13060855D01*
X2922373Y-13088221D02*
X2921346Y-13074630D01*
X2924065Y-13101609D02*
X2922373Y-13088221D01*
X2926404Y-13114779D02*
X2924065Y-13101609D01*
X2929375Y-13127714D02*
X2926404Y-13114779D01*
X2932961Y-13140397D02*
X2929375Y-13127714D01*
X2937145Y-13152812D02*
X2932961Y-13140397D01*
X2941911Y-13164943D02*
X2937145Y-13152812D01*
X2947243Y-13176773D02*
X2941911Y-13164943D01*
X2953123Y-13188285D02*
X2947243Y-13176773D01*
X2959536Y-13199463D02*
X2953123Y-13188285D01*
X2966464Y-13210291D02*
X2959536Y-13199463D01*
X2973892Y-13220751D02*
X2966464Y-13210291D01*
X2981803Y-13230828D02*
X2973892Y-13220751D01*
X2990180Y-13240504D02*
X2981803Y-13230828D01*
X2999006Y-13249764D02*
X2990180Y-13240504D01*
X3008266Y-13258591D02*
X2999006Y-13249764D01*
X3017942Y-13266968D02*
X3008266Y-13258591D01*
X3028019Y-13274878D02*
X3017942Y-13266968D01*
X3038479Y-13282306D02*
X3028019Y-13274878D01*
X3049307Y-13289235D02*
X3038479Y-13282306D01*
X3060485Y-13295647D02*
X3049307Y-13289235D01*
X3071997Y-13301528D02*
X3060485Y-13295647D01*
X3083827Y-13306859D02*
X3071997Y-13301528D01*
X3095958Y-13311625D02*
X3083827Y-13306859D01*
X3108373Y-13315810D02*
X3095958Y-13311625D01*
X3121057Y-13319396D02*
X3108373Y-13315810D01*
X3133992Y-13322367D02*
X3121057Y-13319396D01*
X3147161Y-13324706D02*
X3133992Y-13322367D01*
X3160550Y-13326398D02*
X3147161Y-13324706D01*
X3174140Y-13327425D02*
X3160550Y-13326398D01*
X3187916Y-13327771D02*
X3174140Y-13327425D01*
X10644424Y-13327771D02*
X3187916Y-13327771D01*
X10722921Y-13341660D02*
X10644424Y-13327771D01*
X10801261Y-13358366D02*
X10722921Y-13341660D01*
X10957298Y-13399857D02*
X10801261Y-13358366D01*
X11112194Y-13451509D02*
X10957298Y-13399857D01*
X11265609Y-13512588D02*
X11112194Y-13451509D01*
X11417202Y-13582359D02*
X11265609Y-13512588D01*
X11566631Y-13660090D02*
X11417202Y-13582359D01*
X11713557Y-13745044D02*
X11566631Y-13660090D01*
X11857639Y-13836489D02*
X11713557Y-13745044D01*
X11998536Y-13933691D02*
X11857639Y-13836489D01*
X12135906Y-14035913D02*
X11998536Y-13933691D01*
X12269410Y-14142424D02*
X12135906Y-14035913D01*
X12398707Y-14252488D02*
X12269410Y-14142424D01*
X12523456Y-14365371D02*
X12398707Y-14252488D01*
X12643316Y-14480339D02*
X12523456Y-14365371D01*
X12757946Y-14596658D02*
X12643316Y-14480339D01*
X12867006Y-14713594D02*
X12757946Y-14596658D01*
X12921191Y-14776194D02*
X12867006Y-14713594D01*
X12973928Y-14842746D02*
X12921191Y-14776194D01*
X13075060Y-14986401D02*
X12973928Y-14842746D01*
X13170409Y-15141945D02*
X13075060Y-14986401D01*
X13259979Y-15306762D02*
X13170409Y-15141945D01*
X13343778Y-15478239D02*
X13259979Y-15306762D01*
X13421810Y-15653759D02*
X13343778Y-15478239D01*
X13494082Y-15830710D02*
X13421810Y-15653759D01*
X13560599Y-16006476D02*
X13494082Y-15830710D01*
X13676392Y-16343996D02*
X13560599Y-16006476D01*
X13769235Y-16645400D02*
X13676392Y-16343996D01*
X13886256Y-17056199D02*
X13769235Y-16645400D01*
X13896427Y-17062486D02*
X13886256Y-17056199D01*
X13906841Y-17068068D02*
X13896427Y-17062486D01*
X13917487Y-17072976D02*
X13906841Y-17068068D01*
X13928353Y-17077240D02*
X13917487Y-17072976D01*
X13939425Y-17080890D02*
X13928353Y-17077240D01*
X13950693Y-17083955D02*
X13939425Y-17080890D01*
X13973763Y-17088451D02*
X13950693Y-17083955D01*
X13997465Y-17090966D02*
X13973763Y-17088451D01*
X14021700Y-17091740D02*
X13997465Y-17090966D01*
X14046370Y-17091011D02*
X14021700Y-17091740D01*
X14071376Y-17089018D02*
X14046370Y-17091011D01*
X14096619Y-17085999D02*
X14071376Y-17089018D01*
X14122001Y-17082193D02*
X14096619Y-17085999D01*
X14172788Y-17073175D02*
X14122001Y-17082193D01*
X14222949Y-17063874D02*
X14172788Y-17073175D01*
X14247548Y-17059714D02*
X14222949Y-17063874D01*
X14271695Y-17056199D02*
X14247548Y-17059714D01*
X14398992Y-17036760D02*
X14271695Y-17056199D01*
X14537554Y-17010645D02*
X14398992Y-17036760D01*
X14684695Y-16978948D02*
X14537554Y-17010645D01*
X14837727Y-16942765D02*
X14684695Y-16978948D01*
X15150710Y-16861312D02*
X14837727Y-16942765D01*
X15455004Y-16775041D02*
X15150710Y-16861312D01*
X15729105Y-16692704D02*
X15455004Y-16775041D01*
X15951513Y-16623054D02*
X15729105Y-16692704D01*
X16155241Y-16556831D02*
X15951513Y-16623054D01*
X16181315Y-16547627D02*
X16155241Y-16556831D01*
X16206914Y-16537783D02*
X16181315Y-16547627D01*
X16231872Y-16527224D02*
X16206914Y-16537783D01*
X16256022Y-16515872D02*
X16231872Y-16527224D01*
X16279197Y-16503651D02*
X16256022Y-16515872D01*
X16301231Y-16490484D02*
X16279197Y-16503651D01*
X16321958Y-16476294D02*
X16301231Y-16490484D01*
X16331779Y-16468791D02*
X16321958Y-16476294D01*
X16341210Y-16461005D02*
X16331779Y-16468791D01*
X16350231Y-16452924D02*
X16341210Y-16461005D01*
X16358821Y-16444539D02*
X16350231Y-16452924D01*
X16366960Y-16435842D02*
X16358821Y-16444539D01*
X16374625Y-16426822D02*
X16366960Y-16435842D01*
X16381797Y-16417469D02*
X16374625Y-16426822D01*
X16388455Y-16407775D02*
X16381797Y-16417469D01*
X16394577Y-16397729D02*
X16388455Y-16407775D01*
X16400143Y-16387321D02*
X16394577Y-16397729D01*
X16405133Y-16376544D02*
X16400143Y-16387321D01*
X16409524Y-16365386D02*
X16405133Y-16376544D01*
X16413298Y-16353838D02*
X16409524Y-16365386D01*
X16416432Y-16341890D02*
X16413298Y-16353838D01*
X16418905Y-16329534D02*
X16416432Y-16341890D01*
X16420698Y-16316759D02*
X16418905Y-16329534D01*
X16421789Y-16303556D02*
X16420698Y-16316759D01*
X16422157Y-16289915D02*
X16421789Y-16303556D01*
X16422157Y-2413000D02*
X16422157Y-16289915D01*
X16421811Y-2399224D02*
X16422157Y-2413000D01*
X16420784Y-2385634D02*
X16421811Y-2399224D01*
X16419093Y-2372245D02*
X16420784Y-2385634D01*
X16416753Y-2359076D02*
X16419093Y-2372245D01*
X16413782Y-2346141D02*
X16416753Y-2359076D01*
X16410197Y-2333457D02*
X16413782Y-2346141D01*
X16406012Y-2321042D02*
X16410197Y-2333457D01*
X16401246Y-2308911D02*
X16406012Y-2321042D01*
X16395915Y-2297081D02*
X16401246Y-2308911D01*
X16390034Y-2285569D02*
X16395915Y-2297081D01*
X16383622Y-2274391D02*
X16390034Y-2285569D01*
X16376693Y-2263564D02*
X16383622Y-2274391D01*
X16369265Y-2253103D02*
X16376693Y-2263564D01*
X16361355Y-2243027D02*
X16369265Y-2253103D01*
X16352978Y-2233350D02*
X16361355Y-2243027D01*
X16344151Y-2224090D02*
X16352978Y-2233350D01*
X16334891Y-2215264D02*
X16344151Y-2224090D01*
X16325215Y-2206887D02*
X16334891Y-2215264D01*
X16315138Y-2198976D02*
X16325215Y-2206887D01*
X16304678Y-2191548D02*
X16315138Y-2198976D01*
X16293850Y-2184620D02*
X16304678Y-2191548D01*
X16282672Y-2178207D02*
X16293850Y-2184620D01*
X16271160Y-2172327D02*
X16282672Y-2178207D01*
X16259330Y-2166995D02*
X16271160Y-2172327D01*
X16247199Y-2162229D02*
X16259330Y-2166995D01*
X16234784Y-2158045D02*
X16247199Y-2162229D01*
X16222101Y-2154459D02*
X16234784Y-2158045D01*
X16209166Y-2151488D02*
X16222101Y-2154459D01*
X16195996Y-2149149D02*
X16209166Y-2151488D01*
X16182608Y-2147457D02*
X16195996Y-2149149D01*
X16169017Y-2146430D02*
X16182608Y-2147457D01*
X16155241Y-2146084D02*
X16169017Y-2146430D01*
X3187917Y-2146084D02*
X16155241Y-2146084D01*
D11*
D12*
X4181000Y-9052500D02*
X4211000Y-9082500D01*
X4211000Y-9052500D02*
X4181000Y-9082500D01*
X4181000Y-9497000D02*
X4211000Y-9527000D01*
X4211000Y-9497000D02*
X4181000Y-9527000D01*
X9256000Y-3795000D02*
X9286000Y-3825000D01*
X9286000Y-3795000D02*
X9256000Y-3825000D01*
X10097500Y-5281000D02*
X10127500Y-5311000D01*
X10127500Y-5281000D02*
X10097500Y-5311000D01*
X11106050Y-5256000D02*
X11136050Y-5286000D01*
X11136050Y-5256000D02*
X11106050Y-5286000D01*
X11229500Y-5179000D02*
X11259500Y-5209000D01*
X11259500Y-5179000D02*
X11229500Y-5209000D01*
X11273500Y-6030000D02*
X11303500Y-6060000D01*
X11303500Y-6030000D02*
X11273500Y-6060000D01*
X11274500Y-5706000D02*
X11304500Y-5736000D01*
X11304500Y-5706000D02*
X11274500Y-5736000D01*
X12367500Y-3350500D02*
X12397500Y-3380500D01*
X12397500Y-3350500D02*
X12367500Y-3380500D01*
X12558000Y-3731500D02*
X12588000Y-3761500D01*
X12588000Y-3731500D02*
X12558000Y-3761500D01*
X12558000Y-4303000D02*
X12588000Y-4333000D01*
X12588000Y-4303000D02*
X12558000Y-4333000D01*
X12558000Y-4430000D02*
X12588000Y-4460000D01*
X12588000Y-4430000D02*
X12558000Y-4460000D01*
X14805000Y-3835000D02*
X14835000Y-3865000D01*
X14835000Y-3835000D02*
X14805000Y-3865000D01*
X14805000Y-6165000D02*
X14835000Y-6195000D01*
X14835000Y-6165000D02*
X14805000Y-6195000D01*
X15545000Y-11935000D02*
X15575000Y-11965000D01*
X15575000Y-11935000D02*
X15545000Y-11965000D01*
D13*
X16000000Y-11310000D02*
G75*
G03*
X16000000Y-11310000I-40000J0D01*
G01*
X16000000Y-11564000D02*
G75*
G03*
X16000000Y-11564000I-40000J0D01*
G01*
X16000000Y-11951000D02*
G75*
G03*
X16000000Y-11951000I-40000J0D01*
G01*
X16000000Y-12205000D02*
G75*
G03*
X16000000Y-12205000I-40000J0D01*
G01*
D14*
X15250000Y-11204470D02*
X15250000Y-11303530D01*
X15200470Y-11254000D02*
X15299530Y-11254000D01*
X15250000Y-12220470D02*
X15250000Y-12319530D01*
X15200470Y-12270000D02*
X15299530Y-12270000D01*
X15565000Y-11204470D02*
X15565000Y-11303530D01*
X15515470Y-11254000D02*
X15614530Y-11254000D01*
X15565000Y-12220470D02*
X15565000Y-12319530D01*
X15515470Y-12270000D02*
X15614530Y-12270000D01*
D15*
X9078256Y-3176290D02*
X9078256Y-3099059D01*
X9001025Y-3099059D01*
X9001025Y-3176290D01*
X9078256Y-3176290D01*
X9078256Y-3430290D02*
X9078256Y-3353059D01*
X9001025Y-3353059D01*
X9001025Y-3430290D01*
X9078256Y-3430290D01*
X9078256Y-3684290D02*
X9078256Y-3607059D01*
X9001025Y-3607059D01*
X9001025Y-3684290D01*
X9078256Y-3684290D01*
X9078256Y-3938290D02*
X9078256Y-3861059D01*
X9001025Y-3861059D01*
X9001025Y-3938290D01*
X9078256Y-3938290D01*
X9078256Y-4192290D02*
X9078256Y-4115059D01*
X9001025Y-4115059D01*
X9001025Y-4192290D01*
X9078256Y-4192290D01*
X9078256Y-4446291D02*
X9078256Y-4369060D01*
X9001025Y-4369060D01*
X9001025Y-4446291D01*
X9078256Y-4446291D01*
X9078256Y-4700291D02*
X9078256Y-4623060D01*
X9001025Y-4623060D01*
X9001025Y-4700291D01*
X9078256Y-4700291D01*
X9078256Y-4954291D02*
X9078256Y-4877060D01*
X9001025Y-4877060D01*
X9001025Y-4954291D01*
X9078256Y-4954291D01*
X9078256Y-5208291D02*
X9078256Y-5131060D01*
X9001025Y-5131060D01*
X9001025Y-5208291D01*
X9078256Y-5208291D01*
X9078256Y-5462291D02*
X9078256Y-5385060D01*
X9001025Y-5385060D01*
X9001025Y-5462291D01*
X9078256Y-5462291D01*
X9078256Y-5716290D02*
X9078256Y-5639059D01*
X9001025Y-5639059D01*
X9001025Y-5716290D01*
X9078256Y-5716290D01*
X9078256Y-5970290D02*
X9078256Y-5893059D01*
X9001025Y-5893059D01*
X9001025Y-5970290D01*
X9078256Y-5970290D01*
X10602256Y-3176290D02*
X10602256Y-3099059D01*
X10525025Y-3099059D01*
X10525025Y-3176290D01*
X10602256Y-3176290D01*
X10602256Y-3430290D02*
X10602256Y-3353059D01*
X10525025Y-3353059D01*
X10525025Y-3430290D01*
X10602256Y-3430290D01*
X10602256Y-3684290D02*
X10602256Y-3607059D01*
X10525025Y-3607059D01*
X10525025Y-3684290D01*
X10602256Y-3684290D01*
X10602256Y-3938290D02*
X10602256Y-3861059D01*
X10525025Y-3861059D01*
X10525025Y-3938290D01*
X10602256Y-3938290D01*
X10602256Y-4192290D02*
X10602256Y-4115059D01*
X10525025Y-4115059D01*
X10525025Y-4192290D01*
X10602256Y-4192290D01*
X10602256Y-4446291D02*
X10602256Y-4369060D01*
X10525025Y-4369060D01*
X10525025Y-4446291D01*
X10602256Y-4446291D01*
X10602256Y-4700291D02*
X10602256Y-4623060D01*
X10525025Y-4623060D01*
X10525025Y-4700291D01*
X10602256Y-4700291D01*
X10602256Y-4954291D02*
X10602256Y-4877060D01*
X10525025Y-4877060D01*
X10525025Y-4954291D01*
X10602256Y-4954291D01*
X10602256Y-5208291D02*
X10602256Y-5131060D01*
X10525025Y-5131060D01*
X10525025Y-5208291D01*
X10602256Y-5208291D01*
X10602256Y-5462291D02*
X10602256Y-5385060D01*
X10525025Y-5385060D01*
X10525025Y-5462291D01*
X10602256Y-5462291D01*
X10602256Y-5716290D02*
X10602256Y-5639059D01*
X10525025Y-5639059D01*
X10525025Y-5716290D01*
X10602256Y-5716290D01*
X10602256Y-5970290D02*
X10602256Y-5893059D01*
X10525025Y-5893059D01*
X10525025Y-5970290D01*
X10602256Y-5970290D01*
D16*
X4606000Y-2926500D02*
X4661000Y-2871500D01*
X4606000Y-2816500D01*
X4551000Y-2871500D01*
X4606000Y-2926500D01*
X4606000Y-3942500D02*
X4661000Y-3887500D01*
X4606000Y-3832500D01*
X4551000Y-3887500D01*
X4606000Y-3942500D01*
X4606000Y-4831500D02*
X4661000Y-4776500D01*
X4606000Y-4721500D01*
X4551000Y-4776500D01*
X4606000Y-4831500D01*
X4606000Y-5847500D02*
X4661000Y-5792500D01*
X4606000Y-5737500D01*
X4551000Y-5792500D01*
X4606000Y-5847500D01*
X4606000Y-6736500D02*
X4661000Y-6681500D01*
X4606000Y-6626500D01*
X4551000Y-6681500D01*
X4606000Y-6736500D01*
X4606000Y-7752500D02*
X4661000Y-7697500D01*
X4606000Y-7642500D01*
X4551000Y-7697500D01*
X4606000Y-7752500D01*
X4606000Y-8641500D02*
X4661000Y-8586500D01*
X4606000Y-8531500D01*
X4551000Y-8586500D01*
X4606000Y-8641500D01*
X4606000Y-9657500D02*
X4661000Y-9602500D01*
X4606000Y-9547500D01*
X4551000Y-9602500D01*
X4606000Y-9657500D01*
X4606000Y-11975250D02*
X4661000Y-11920250D01*
X4606000Y-11865250D01*
X4551000Y-11920250D01*
X4606000Y-11975250D01*
X4606000Y-12991250D02*
X4661000Y-12936250D01*
X4606000Y-12881250D01*
X4551000Y-12936250D01*
X4606000Y-12991250D01*
X6511000Y-2926500D02*
X6566000Y-2871500D01*
X6511000Y-2816500D01*
X6456000Y-2871500D01*
X6511000Y-2926500D01*
X6511000Y-3942500D02*
X6566000Y-3887500D01*
X6511000Y-3832500D01*
X6456000Y-3887500D01*
X6511000Y-3942500D01*
X6511000Y-4831500D02*
X6566000Y-4776500D01*
X6511000Y-4721500D01*
X6456000Y-4776500D01*
X6511000Y-4831500D01*
X6511000Y-5847500D02*
X6566000Y-5792500D01*
X6511000Y-5737500D01*
X6456000Y-5792500D01*
X6511000Y-5847500D01*
X6511000Y-6736500D02*
X6566000Y-6681500D01*
X6511000Y-6626500D01*
X6456000Y-6681500D01*
X6511000Y-6736500D01*
X6511000Y-7752500D02*
X6566000Y-7697500D01*
X6511000Y-7642500D01*
X6456000Y-7697500D01*
X6511000Y-7752500D01*
X6511000Y-8641500D02*
X6566000Y-8586500D01*
X6511000Y-8531500D01*
X6456000Y-8586500D01*
X6511000Y-8641500D01*
X6511000Y-9657500D02*
X6566000Y-9602500D01*
X6511000Y-9547500D01*
X6456000Y-9602500D01*
X6511000Y-9657500D01*
X6989500Y-11018000D02*
X7044500Y-10963000D01*
X6989500Y-10908000D01*
X6934500Y-10963000D01*
X6989500Y-11018000D01*
X6989500Y-12034000D02*
X7044500Y-11979000D01*
X6989500Y-11924000D01*
X6934500Y-11979000D01*
X6989500Y-12034000D01*
X8416000Y-2926500D02*
X8471000Y-2871500D01*
X8416000Y-2816500D01*
X8361000Y-2871500D01*
X8416000Y-2926500D01*
X8416000Y-3942500D02*
X8471000Y-3887500D01*
X8416000Y-3832500D01*
X8361000Y-3887500D01*
X8416000Y-3942500D01*
X8416000Y-4831500D02*
X8471000Y-4776500D01*
X8416000Y-4721500D01*
X8361000Y-4776500D01*
X8416000Y-4831500D01*
X8416000Y-5847500D02*
X8471000Y-5792500D01*
X8416000Y-5737500D01*
X8361000Y-5792500D01*
X8416000Y-5847500D01*
X8416000Y-6736500D02*
X8471000Y-6681500D01*
X8416000Y-6626500D01*
X8361000Y-6681500D01*
X8416000Y-6736500D01*
X8416000Y-7752500D02*
X8471000Y-7697500D01*
X8416000Y-7642500D01*
X8361000Y-7697500D01*
X8416000Y-7752500D01*
X8416000Y-8641500D02*
X8471000Y-8586500D01*
X8416000Y-8531500D01*
X8361000Y-8586500D01*
X8416000Y-8641500D01*
X8416000Y-9657500D02*
X8471000Y-9602500D01*
X8416000Y-9547500D01*
X8361000Y-9602500D01*
X8416000Y-9657500D01*
X8892250Y-11022750D02*
X8947250Y-10967750D01*
X8892250Y-10912750D01*
X8837250Y-10967750D01*
X8892250Y-11022750D01*
X8892250Y-12038750D02*
X8947250Y-11983750D01*
X8892250Y-11928750D01*
X8837250Y-11983750D01*
X8892250Y-12038750D01*
X10321000Y-2926500D02*
X10376000Y-2871500D01*
X10321000Y-2816500D01*
X10266000Y-2871500D01*
X10321000Y-2926500D01*
X10321000Y-3942500D02*
X10376000Y-3887500D01*
X10321000Y-3832500D01*
X10266000Y-3887500D01*
X10321000Y-3942500D01*
X10321000Y-4831500D02*
X10376000Y-4776500D01*
X10321000Y-4721500D01*
X10266000Y-4776500D01*
X10321000Y-4831500D01*
X10321000Y-5847500D02*
X10376000Y-5792500D01*
X10321000Y-5737500D01*
X10266000Y-5792500D01*
X10321000Y-5847500D01*
X10321000Y-6736500D02*
X10376000Y-6681500D01*
X10321000Y-6626500D01*
X10266000Y-6681500D01*
X10321000Y-6736500D01*
X10321000Y-7752500D02*
X10376000Y-7697500D01*
X10321000Y-7642500D01*
X10266000Y-7697500D01*
X10321000Y-7752500D01*
X10321000Y-8641500D02*
X10376000Y-8586500D01*
X10321000Y-8531500D01*
X10266000Y-8586500D01*
X10321000Y-8641500D01*
X10321000Y-9657500D02*
X10376000Y-9602500D01*
X10321000Y-9547500D01*
X10266000Y-9602500D01*
X10321000Y-9657500D01*
X10797250Y-11022750D02*
X10852250Y-10967750D01*
X10797250Y-10912750D01*
X10742250Y-10967750D01*
X10797250Y-11022750D01*
X10797250Y-12038750D02*
X10852250Y-11983750D01*
X10797250Y-11928750D01*
X10742250Y-11983750D01*
X10797250Y-12038750D01*
X11938000Y-3942500D02*
X11993000Y-3887500D01*
X11938000Y-3832500D01*
X11883000Y-3887500D01*
X11938000Y-3942500D01*
X12200960Y-2961119D02*
X12255960Y-2906119D01*
X12200960Y-2851119D01*
X12145960Y-2906119D01*
X12200960Y-2961119D01*
X12226000Y-4831500D02*
X12281000Y-4776500D01*
X12226000Y-4721500D01*
X12171000Y-4776500D01*
X12226000Y-4831500D01*
X12226000Y-5847500D02*
X12281000Y-5792500D01*
X12226000Y-5737500D01*
X12171000Y-5792500D01*
X12226000Y-5847500D01*
X12226000Y-6736500D02*
X12281000Y-6681500D01*
X12226000Y-6626500D01*
X12171000Y-6681500D01*
X12226000Y-6736500D01*
X12226000Y-7752500D02*
X12281000Y-7697500D01*
X12226000Y-7642500D01*
X12171000Y-7697500D01*
X12226000Y-7752500D01*
X12226000Y-8641500D02*
X12281000Y-8586500D01*
X12226000Y-8531500D01*
X12171000Y-8586500D01*
X12226000Y-8641500D01*
X12226000Y-9657500D02*
X12281000Y-9602500D01*
X12226000Y-9547500D01*
X12171000Y-9602500D01*
X12226000Y-9657500D01*
X12476317Y-13363154D02*
X12531317Y-13308154D01*
X12476317Y-13253154D01*
X12421317Y-13308154D01*
X12476317Y-13363154D01*
X12905698Y-12442345D02*
X12960698Y-12387345D01*
X12905698Y-12332345D01*
X12850698Y-12387345D01*
X12905698Y-12442345D01*
X13869381Y-14754156D02*
X13924381Y-14699156D01*
X13869381Y-14644156D01*
X13814381Y-14699156D01*
X13869381Y-14754156D01*
X14130000Y-2958690D02*
X14185000Y-2903690D01*
X14130000Y-2848690D01*
X14075000Y-2903690D01*
X14130000Y-2958690D01*
X14130000Y-3974690D02*
X14185000Y-3919690D01*
X14130000Y-3864690D01*
X14075000Y-3919690D01*
X14130000Y-3974690D01*
X14131000Y-4831500D02*
X14186000Y-4776500D01*
X14131000Y-4721500D01*
X14076000Y-4776500D01*
X14131000Y-4831500D01*
X14131000Y-5847500D02*
X14186000Y-5792500D01*
X14131000Y-5737500D01*
X14076000Y-5792500D01*
X14131000Y-5847500D01*
X14131000Y-6736500D02*
X14186000Y-6681500D01*
X14131000Y-6626500D01*
X14076000Y-6681500D01*
X14131000Y-6736500D01*
X14131000Y-7752500D02*
X14186000Y-7697500D01*
X14131000Y-7642500D01*
X14076000Y-7697500D01*
X14131000Y-7752500D01*
X14131000Y-8641500D02*
X14186000Y-8586500D01*
X14131000Y-8531500D01*
X14076000Y-8586500D01*
X14131000Y-8641500D01*
X14131000Y-9657500D02*
X14186000Y-9602500D01*
X14131000Y-9547500D01*
X14076000Y-9602500D01*
X14131000Y-9657500D01*
X14581119Y-16751460D02*
X14636119Y-16696460D01*
X14581119Y-16641460D01*
X14526119Y-16696460D01*
X14581119Y-16751460D01*
X14647682Y-14101084D02*
X14702682Y-14046084D01*
X14647682Y-13991084D01*
X14592682Y-14046084D01*
X14647682Y-14101084D01*
X15562500Y-16488500D02*
X15617500Y-16433500D01*
X15562500Y-16378500D01*
X15507500Y-16433500D01*
X15562500Y-16488500D01*
X16036000Y-2926500D02*
X16091000Y-2871500D01*
X16036000Y-2816500D01*
X15981000Y-2871500D01*
X16036000Y-2926500D01*
X16036000Y-3942500D02*
X16091000Y-3887500D01*
X16036000Y-3832500D01*
X15981000Y-3887500D01*
X16036000Y-3942500D01*
X16036000Y-4831500D02*
X16091000Y-4776500D01*
X16036000Y-4721500D01*
X15981000Y-4776500D01*
X16036000Y-4831500D01*
X16036000Y-5847500D02*
X16091000Y-5792500D01*
X16036000Y-5737500D01*
X15981000Y-5792500D01*
X16036000Y-5847500D01*
X16036000Y-6736500D02*
X16091000Y-6681500D01*
X16036000Y-6626500D01*
X15981000Y-6681500D01*
X16036000Y-6736500D01*
X16036000Y-7752500D02*
X16091000Y-7697500D01*
X16036000Y-7642500D01*
X15981000Y-7697500D01*
X16036000Y-7752500D01*
X16036000Y-8641500D02*
X16091000Y-8586500D01*
X16036000Y-8531500D01*
X15981000Y-8586500D01*
X16036000Y-8641500D01*
X16036000Y-9657500D02*
X16091000Y-9602500D01*
X16036000Y-9547500D01*
X15981000Y-9602500D01*
X16036000Y-9657500D01*
D17*
X3486070Y-2769570D02*
X3635930Y-2919430D01*
X3635930Y-2769570D02*
X3486070Y-2919430D01*
X3635930Y-2844500D02*
G75*
G03*
X3635930Y-2844500I-74930J0D01*
G01*
X3486070Y-4674570D02*
X3635930Y-4824430D01*
X3635930Y-4674570D02*
X3486070Y-4824430D01*
X3635930Y-4749500D02*
G75*
G03*
X3635930Y-4749500I-74930J0D01*
G01*
X3486070Y-6579570D02*
X3635930Y-6729430D01*
X3635930Y-6579570D02*
X3486070Y-6729430D01*
X3635930Y-6654500D02*
G75*
G03*
X3635930Y-6654500I-74930J0D01*
G01*
X3486070Y-8484570D02*
X3635930Y-8634430D01*
X3635930Y-8484570D02*
X3486070Y-8634430D01*
X3635930Y-8559500D02*
G75*
G03*
X3635930Y-8559500I-74930J0D01*
G01*
X3486070Y-11818320D02*
X3635930Y-11968180D01*
X3635930Y-11818320D02*
X3486070Y-11968180D01*
X3635930Y-11893250D02*
G75*
G03*
X3635930Y-11893250I-74930J0D01*
G01*
X3613070Y-2515570D02*
X3762930Y-2665430D01*
X3762930Y-2515570D02*
X3613070Y-2665430D01*
X3762930Y-2590500D02*
G75*
G03*
X3762930Y-2590500I-74930J0D01*
G01*
X3613070Y-4420570D02*
X3762930Y-4570430D01*
X3762930Y-4420570D02*
X3613070Y-4570430D01*
X3762930Y-4495500D02*
G75*
G03*
X3762930Y-4495500I-74930J0D01*
G01*
X3613070Y-6325570D02*
X3762930Y-6475430D01*
X3762930Y-6325570D02*
X3613070Y-6475430D01*
X3762930Y-6400500D02*
G75*
G03*
X3762930Y-6400500I-74930J0D01*
G01*
X3613070Y-8230570D02*
X3762930Y-8380430D01*
X3762930Y-8230570D02*
X3613070Y-8380430D01*
X3762930Y-8305500D02*
G75*
G03*
X3762930Y-8305500I-74930J0D01*
G01*
X3613070Y-11564320D02*
X3762930Y-11714180D01*
X3762930Y-11564320D02*
X3613070Y-11714180D01*
X3762930Y-11639250D02*
G75*
G03*
X3762930Y-11639250I-74930J0D01*
G01*
X4121070Y-2515570D02*
X4270930Y-2665430D01*
X4270930Y-2515570D02*
X4121070Y-2665430D01*
X4270930Y-2590500D02*
G75*
G03*
X4270930Y-2590500I-74930J0D01*
G01*
X4121070Y-4420570D02*
X4270930Y-4570430D01*
X4270930Y-4420570D02*
X4121070Y-4570430D01*
X4270930Y-4495500D02*
G75*
G03*
X4270930Y-4495500I-74930J0D01*
G01*
X4121070Y-6325570D02*
X4270930Y-6475430D01*
X4270930Y-6325570D02*
X4121070Y-6475430D01*
X4270930Y-6400500D02*
G75*
G03*
X4270930Y-6400500I-74930J0D01*
G01*
X4121070Y-8230570D02*
X4270930Y-8380430D01*
X4270930Y-8230570D02*
X4121070Y-8380430D01*
X4270930Y-8305500D02*
G75*
G03*
X4270930Y-8305500I-74930J0D01*
G01*
X4121070Y-11564320D02*
X4270930Y-11714180D01*
X4270930Y-11564320D02*
X4121070Y-11714180D01*
X4270930Y-11639250D02*
G75*
G03*
X4270930Y-11639250I-74930J0D01*
G01*
X4248070Y-2769570D02*
X4397930Y-2919430D01*
X4397930Y-2769570D02*
X4248070Y-2919430D01*
X4397930Y-2844500D02*
G75*
G03*
X4397930Y-2844500I-74930J0D01*
G01*
X4248070Y-4674570D02*
X4397930Y-4824430D01*
X4397930Y-4674570D02*
X4248070Y-4824430D01*
X4397930Y-4749500D02*
G75*
G03*
X4397930Y-4749500I-74930J0D01*
G01*
X4248070Y-6579570D02*
X4397930Y-6729430D01*
X4397930Y-6579570D02*
X4248070Y-6729430D01*
X4397930Y-6654500D02*
G75*
G03*
X4397930Y-6654500I-74930J0D01*
G01*
X4248070Y-8484570D02*
X4397930Y-8634430D01*
X4397930Y-8484570D02*
X4248070Y-8634430D01*
X4397930Y-8559500D02*
G75*
G03*
X4397930Y-8559500I-74930J0D01*
G01*
X4248070Y-11818320D02*
X4397930Y-11968180D01*
X4397930Y-11818320D02*
X4248070Y-11968180D01*
X4397930Y-11893250D02*
G75*
G03*
X4397930Y-11893250I-74930J0D01*
G01*
X5391070Y-2769570D02*
X5540930Y-2919430D01*
X5540930Y-2769570D02*
X5391070Y-2919430D01*
X5540930Y-2844500D02*
G75*
G03*
X5540930Y-2844500I-74930J0D01*
G01*
X5391070Y-4674570D02*
X5540930Y-4824430D01*
X5540930Y-4674570D02*
X5391070Y-4824430D01*
X5540930Y-4749500D02*
G75*
G03*
X5540930Y-4749500I-74930J0D01*
G01*
X5391070Y-6579570D02*
X5540930Y-6729430D01*
X5540930Y-6579570D02*
X5391070Y-6729430D01*
X5540930Y-6654500D02*
G75*
G03*
X5540930Y-6654500I-74930J0D01*
G01*
X5391070Y-8484570D02*
X5540930Y-8634430D01*
X5540930Y-8484570D02*
X5391070Y-8634430D01*
X5540930Y-8559500D02*
G75*
G03*
X5540930Y-8559500I-74930J0D01*
G01*
X5518070Y-2515570D02*
X5667930Y-2665430D01*
X5667930Y-2515570D02*
X5518070Y-2665430D01*
X5667930Y-2590500D02*
G75*
G03*
X5667930Y-2590500I-74930J0D01*
G01*
X5518070Y-4420570D02*
X5667930Y-4570430D01*
X5667930Y-4420570D02*
X5518070Y-4570430D01*
X5667930Y-4495500D02*
G75*
G03*
X5667930Y-4495500I-74930J0D01*
G01*
X5518070Y-6325570D02*
X5667930Y-6475430D01*
X5667930Y-6325570D02*
X5518070Y-6475430D01*
X5667930Y-6400500D02*
G75*
G03*
X5667930Y-6400500I-74930J0D01*
G01*
X5518070Y-8230570D02*
X5667930Y-8380430D01*
X5667930Y-8230570D02*
X5518070Y-8380430D01*
X5667930Y-8305500D02*
G75*
G03*
X5667930Y-8305500I-74930J0D01*
G01*
X5867320Y-10865820D02*
X6017180Y-11015680D01*
X6017180Y-10865820D02*
X5867320Y-11015680D01*
X6017180Y-10940750D02*
G75*
G03*
X6017180Y-10940750I-74930J0D01*
G01*
X5994320Y-10611820D02*
X6144180Y-10761680D01*
X6144180Y-10611820D02*
X5994320Y-10761680D01*
X6144180Y-10686750D02*
G75*
G03*
X6144180Y-10686750I-74930J0D01*
G01*
X6026070Y-2515570D02*
X6175930Y-2665430D01*
X6175930Y-2515570D02*
X6026070Y-2665430D01*
X6175930Y-2590500D02*
G75*
G03*
X6175930Y-2590500I-74930J0D01*
G01*
X6026070Y-4420570D02*
X6175930Y-4570430D01*
X6175930Y-4420570D02*
X6026070Y-4570430D01*
X6175930Y-4495500D02*
G75*
G03*
X6175930Y-4495500I-74930J0D01*
G01*
X6026070Y-6325570D02*
X6175930Y-6475430D01*
X6175930Y-6325570D02*
X6026070Y-6475430D01*
X6175930Y-6400500D02*
G75*
G03*
X6175930Y-6400500I-74930J0D01*
G01*
X6026070Y-8230570D02*
X6175930Y-8380430D01*
X6175930Y-8230570D02*
X6026070Y-8380430D01*
X6175930Y-8305500D02*
G75*
G03*
X6175930Y-8305500I-74930J0D01*
G01*
X6153070Y-2769570D02*
X6302930Y-2919430D01*
X6302930Y-2769570D02*
X6153070Y-2919430D01*
X6302930Y-2844500D02*
G75*
G03*
X6302930Y-2844500I-74930J0D01*
G01*
X6153070Y-4674570D02*
X6302930Y-4824430D01*
X6302930Y-4674570D02*
X6153070Y-4824430D01*
X6302930Y-4749500D02*
G75*
G03*
X6302930Y-4749500I-74930J0D01*
G01*
X6153070Y-6579570D02*
X6302930Y-6729430D01*
X6302930Y-6579570D02*
X6153070Y-6729430D01*
X6302930Y-6654500D02*
G75*
G03*
X6302930Y-6654500I-74930J0D01*
G01*
X6153070Y-8484570D02*
X6302930Y-8634430D01*
X6302930Y-8484570D02*
X6153070Y-8634430D01*
X6302930Y-8559500D02*
G75*
G03*
X6302930Y-8559500I-74930J0D01*
G01*
X6502320Y-10611820D02*
X6652180Y-10761680D01*
X6652180Y-10611820D02*
X6502320Y-10761680D01*
X6652180Y-10686750D02*
G75*
G03*
X6652180Y-10686750I-74930J0D01*
G01*
X6629320Y-10865820D02*
X6779180Y-11015680D01*
X6779180Y-10865820D02*
X6629320Y-11015680D01*
X6779180Y-10940750D02*
G75*
G03*
X6779180Y-10940750I-74930J0D01*
G01*
X7296070Y-2769570D02*
X7445930Y-2919430D01*
X7445930Y-2769570D02*
X7296070Y-2919430D01*
X7445930Y-2844500D02*
G75*
G03*
X7445930Y-2844500I-74930J0D01*
G01*
X7296070Y-4674570D02*
X7445930Y-4824430D01*
X7445930Y-4674570D02*
X7296070Y-4824430D01*
X7445930Y-4749500D02*
G75*
G03*
X7445930Y-4749500I-74930J0D01*
G01*
X7296070Y-6579570D02*
X7445930Y-6729430D01*
X7445930Y-6579570D02*
X7296070Y-6729430D01*
X7445930Y-6654500D02*
G75*
G03*
X7445930Y-6654500I-74930J0D01*
G01*
X7296070Y-8484570D02*
X7445930Y-8634430D01*
X7445930Y-8484570D02*
X7296070Y-8634430D01*
X7445930Y-8559500D02*
G75*
G03*
X7445930Y-8559500I-74930J0D01*
G01*
X7423070Y-2515570D02*
X7572930Y-2665430D01*
X7572930Y-2515570D02*
X7423070Y-2665430D01*
X7572930Y-2590500D02*
G75*
G03*
X7572930Y-2590500I-74930J0D01*
G01*
X7423070Y-4420570D02*
X7572930Y-4570430D01*
X7572930Y-4420570D02*
X7423070Y-4570430D01*
X7572930Y-4495500D02*
G75*
G03*
X7572930Y-4495500I-74930J0D01*
G01*
X7423070Y-6325570D02*
X7572930Y-6475430D01*
X7572930Y-6325570D02*
X7423070Y-6475430D01*
X7572930Y-6400500D02*
G75*
G03*
X7572930Y-6400500I-74930J0D01*
G01*
X7423070Y-8230570D02*
X7572930Y-8380430D01*
X7572930Y-8230570D02*
X7423070Y-8380430D01*
X7572930Y-8305500D02*
G75*
G03*
X7572930Y-8305500I-74930J0D01*
G01*
X7764570Y-10865820D02*
X7914430Y-11015680D01*
X7914430Y-10865820D02*
X7764570Y-11015680D01*
X7914430Y-10940750D02*
G75*
G03*
X7914430Y-10940750I-74930J0D01*
G01*
X7891570Y-10611820D02*
X8041430Y-10761680D01*
X8041430Y-10611820D02*
X7891570Y-10761680D01*
X8041430Y-10686750D02*
G75*
G03*
X8041430Y-10686750I-74930J0D01*
G01*
X7931070Y-2515570D02*
X8080930Y-2665430D01*
X8080930Y-2515570D02*
X7931070Y-2665430D01*
X8080930Y-2590500D02*
G75*
G03*
X8080930Y-2590500I-74930J0D01*
G01*
X7931070Y-4420570D02*
X8080930Y-4570430D01*
X8080930Y-4420570D02*
X7931070Y-4570430D01*
X8080930Y-4495500D02*
G75*
G03*
X8080930Y-4495500I-74930J0D01*
G01*
X7931070Y-6325570D02*
X8080930Y-6475430D01*
X8080930Y-6325570D02*
X7931070Y-6475430D01*
X8080930Y-6400500D02*
G75*
G03*
X8080930Y-6400500I-74930J0D01*
G01*
X7931070Y-8230570D02*
X8080930Y-8380430D01*
X8080930Y-8230570D02*
X7931070Y-8380430D01*
X8080930Y-8305500D02*
G75*
G03*
X8080930Y-8305500I-74930J0D01*
G01*
X8058070Y-2769570D02*
X8207930Y-2919430D01*
X8207930Y-2769570D02*
X8058070Y-2919430D01*
X8207930Y-2844500D02*
G75*
G03*
X8207930Y-2844500I-74930J0D01*
G01*
X8058070Y-4674570D02*
X8207930Y-4824430D01*
X8207930Y-4674570D02*
X8058070Y-4824430D01*
X8207930Y-4749500D02*
G75*
G03*
X8207930Y-4749500I-74930J0D01*
G01*
X8058070Y-6579570D02*
X8207930Y-6729430D01*
X8207930Y-6579570D02*
X8058070Y-6729430D01*
X8207930Y-6654500D02*
G75*
G03*
X8207930Y-6654500I-74930J0D01*
G01*
X8058070Y-8484570D02*
X8207930Y-8634430D01*
X8207930Y-8484570D02*
X8058070Y-8634430D01*
X8207930Y-8559500D02*
G75*
G03*
X8207930Y-8559500I-74930J0D01*
G01*
X8399570Y-10611820D02*
X8549430Y-10761680D01*
X8549430Y-10611820D02*
X8399570Y-10761680D01*
X8549430Y-10686750D02*
G75*
G03*
X8549430Y-10686750I-74930J0D01*
G01*
X8526570Y-10865820D02*
X8676430Y-11015680D01*
X8676430Y-10865820D02*
X8526570Y-11015680D01*
X8676430Y-10940750D02*
G75*
G03*
X8676430Y-10940750I-74930J0D01*
G01*
X9201070Y-2769570D02*
X9350930Y-2919430D01*
X9350930Y-2769570D02*
X9201070Y-2919430D01*
X9350930Y-2844500D02*
G75*
G03*
X9350930Y-2844500I-74930J0D01*
G01*
X9201070Y-4674570D02*
X9350930Y-4824430D01*
X9350930Y-4674570D02*
X9201070Y-4824430D01*
X9350930Y-4749500D02*
G75*
G03*
X9350930Y-4749500I-74930J0D01*
G01*
X9201070Y-6579570D02*
X9350930Y-6729430D01*
X9350930Y-6579570D02*
X9201070Y-6729430D01*
X9350930Y-6654500D02*
G75*
G03*
X9350930Y-6654500I-74930J0D01*
G01*
X9201070Y-8484570D02*
X9350930Y-8634430D01*
X9350930Y-8484570D02*
X9201070Y-8634430D01*
X9350930Y-8559500D02*
G75*
G03*
X9350930Y-8559500I-74930J0D01*
G01*
X9328070Y-2515570D02*
X9477930Y-2665430D01*
X9477930Y-2515570D02*
X9328070Y-2665430D01*
X9477930Y-2590500D02*
G75*
G03*
X9477930Y-2590500I-74930J0D01*
G01*
X9328070Y-4420570D02*
X9477930Y-4570430D01*
X9477930Y-4420570D02*
X9328070Y-4570430D01*
X9477930Y-4495500D02*
G75*
G03*
X9477930Y-4495500I-74930J0D01*
G01*
X9328070Y-6325570D02*
X9477930Y-6475430D01*
X9477930Y-6325570D02*
X9328070Y-6475430D01*
X9477930Y-6400500D02*
G75*
G03*
X9477930Y-6400500I-74930J0D01*
G01*
X9328070Y-8230570D02*
X9477930Y-8380430D01*
X9477930Y-8230570D02*
X9328070Y-8380430D01*
X9477930Y-8305500D02*
G75*
G03*
X9477930Y-8305500I-74930J0D01*
G01*
X9677320Y-10865820D02*
X9827180Y-11015680D01*
X9827180Y-10865820D02*
X9677320Y-11015680D01*
X9827180Y-10940750D02*
G75*
G03*
X9827180Y-10940750I-74930J0D01*
G01*
X9804320Y-10611820D02*
X9954180Y-10761680D01*
X9954180Y-10611820D02*
X9804320Y-10761680D01*
X9954180Y-10686750D02*
G75*
G03*
X9954180Y-10686750I-74930J0D01*
G01*
X9836070Y-2515570D02*
X9985930Y-2665430D01*
X9985930Y-2515570D02*
X9836070Y-2665430D01*
X9985930Y-2590500D02*
G75*
G03*
X9985930Y-2590500I-74930J0D01*
G01*
X9836070Y-4420570D02*
X9985930Y-4570430D01*
X9985930Y-4420570D02*
X9836070Y-4570430D01*
X9985930Y-4495500D02*
G75*
G03*
X9985930Y-4495500I-74930J0D01*
G01*
X9836070Y-6325570D02*
X9985930Y-6475430D01*
X9985930Y-6325570D02*
X9836070Y-6475430D01*
X9985930Y-6400500D02*
G75*
G03*
X9985930Y-6400500I-74930J0D01*
G01*
X9836070Y-8230570D02*
X9985930Y-8380430D01*
X9985930Y-8230570D02*
X9836070Y-8380430D01*
X9985930Y-8305500D02*
G75*
G03*
X9985930Y-8305500I-74930J0D01*
G01*
X9963070Y-2769570D02*
X10112930Y-2919430D01*
X10112930Y-2769570D02*
X9963070Y-2919430D01*
X10112930Y-2844500D02*
G75*
G03*
X10112930Y-2844500I-74930J0D01*
G01*
X9963070Y-4674570D02*
X10112930Y-4824430D01*
X10112930Y-4674570D02*
X9963070Y-4824430D01*
X10112930Y-4749500D02*
G75*
G03*
X10112930Y-4749500I-74930J0D01*
G01*
X9963070Y-6579570D02*
X10112930Y-6729430D01*
X10112930Y-6579570D02*
X9963070Y-6729430D01*
X10112930Y-6654500D02*
G75*
G03*
X10112930Y-6654500I-74930J0D01*
G01*
X9963070Y-8484570D02*
X10112930Y-8634430D01*
X10112930Y-8484570D02*
X9963070Y-8634430D01*
X10112930Y-8559500D02*
G75*
G03*
X10112930Y-8559500I-74930J0D01*
G01*
X10312320Y-10611820D02*
X10462180Y-10761680D01*
X10462180Y-10611820D02*
X10312320Y-10761680D01*
X10462180Y-10686750D02*
G75*
G03*
X10462180Y-10686750I-74930J0D01*
G01*
X10439320Y-10865820D02*
X10589180Y-11015680D01*
X10589180Y-10865820D02*
X10439320Y-11015680D01*
X10589180Y-10940750D02*
G75*
G03*
X10589180Y-10940750I-74930J0D01*
G01*
X11106070Y-2769570D02*
X11255930Y-2919430D01*
X11255930Y-2769570D02*
X11106070Y-2919430D01*
X11255930Y-2844500D02*
G75*
G03*
X11255930Y-2844500I-74930J0D01*
G01*
X11106070Y-4674570D02*
X11255930Y-4824430D01*
X11255930Y-4674570D02*
X11106070Y-4824430D01*
X11255930Y-4749500D02*
G75*
G03*
X11255930Y-4749500I-74930J0D01*
G01*
X11106070Y-6579570D02*
X11255930Y-6729430D01*
X11255930Y-6579570D02*
X11106070Y-6729430D01*
X11255930Y-6654500D02*
G75*
G03*
X11255930Y-6654500I-74930J0D01*
G01*
X11106070Y-8484570D02*
X11255930Y-8634430D01*
X11255930Y-8484570D02*
X11106070Y-8634430D01*
X11255930Y-8559500D02*
G75*
G03*
X11255930Y-8559500I-74930J0D01*
G01*
X11233070Y-2515570D02*
X11382930Y-2665430D01*
X11382930Y-2515570D02*
X11233070Y-2665430D01*
X11382930Y-2590500D02*
G75*
G03*
X11382930Y-2590500I-74930J0D01*
G01*
X11233070Y-4420570D02*
X11382930Y-4570430D01*
X11382930Y-4420570D02*
X11233070Y-4570430D01*
X11382930Y-4495500D02*
G75*
G03*
X11382930Y-4495500I-74930J0D01*
G01*
X11233070Y-6325570D02*
X11382930Y-6475430D01*
X11382930Y-6325570D02*
X11233070Y-6475430D01*
X11382930Y-6400500D02*
G75*
G03*
X11382930Y-6400500I-74930J0D01*
G01*
X11233070Y-8230570D02*
X11382930Y-8380430D01*
X11382930Y-8230570D02*
X11233070Y-8380430D01*
X11382930Y-8305500D02*
G75*
G03*
X11382930Y-8305500I-74930J0D01*
G01*
X11741070Y-2515570D02*
X11890930Y-2665430D01*
X11890930Y-2515570D02*
X11741070Y-2665430D01*
X11890930Y-2590500D02*
G75*
G03*
X11890930Y-2590500I-74930J0D01*
G01*
X11741070Y-4420570D02*
X11890930Y-4570430D01*
X11890930Y-4420570D02*
X11741070Y-4570430D01*
X11890930Y-4495500D02*
G75*
G03*
X11890930Y-4495500I-74930J0D01*
G01*
X11741070Y-6325570D02*
X11890930Y-6475430D01*
X11890930Y-6325570D02*
X11741070Y-6475430D01*
X11890930Y-6400500D02*
G75*
G03*
X11890930Y-6400500I-74930J0D01*
G01*
X11741070Y-8230570D02*
X11890930Y-8380430D01*
X11890930Y-8230570D02*
X11741070Y-8380430D01*
X11890930Y-8305500D02*
G75*
G03*
X11890930Y-8305500I-74930J0D01*
G01*
X11868070Y-2769570D02*
X12017930Y-2919430D01*
X12017930Y-2769570D02*
X11868070Y-2919430D01*
X12017930Y-2844500D02*
G75*
G03*
X12017930Y-2844500I-74930J0D01*
G01*
X11868070Y-4674570D02*
X12017930Y-4824430D01*
X12017930Y-4674570D02*
X11868070Y-4824430D01*
X12017930Y-4749500D02*
G75*
G03*
X12017930Y-4749500I-74930J0D01*
G01*
X11868070Y-6579570D02*
X12017930Y-6729430D01*
X12017930Y-6579570D02*
X11868070Y-6729430D01*
X12017930Y-6654500D02*
G75*
G03*
X12017930Y-6654500I-74930J0D01*
G01*
X11868070Y-8484570D02*
X12017930Y-8634430D01*
X12017930Y-8484570D02*
X11868070Y-8634430D01*
X12017930Y-8559500D02*
G75*
G03*
X12017930Y-8559500I-74930J0D01*
G01*
X11913634Y-11839372D02*
X12063494Y-11989232D01*
X12063494Y-11839372D02*
X11913634Y-11989232D01*
X12063494Y-11914302D02*
G75*
G03*
X12063494Y-11914302I-74930J0D01*
G01*
X12136080Y-11662843D02*
X12285940Y-11812703D01*
X12285940Y-11662843D02*
X12136080Y-11812703D01*
X12285940Y-11737773D02*
G75*
G03*
X12285940Y-11737773I-74930J0D01*
G01*
X12596485Y-11877533D02*
X12746345Y-12027393D01*
X12746345Y-11877533D02*
X12596485Y-12027393D01*
X12746345Y-11952463D02*
G75*
G03*
X12746345Y-11952463I-74930J0D01*
G01*
X12604241Y-12161407D02*
X12754101Y-12311267D01*
X12754101Y-12161407D02*
X12604241Y-12311267D01*
X12754101Y-12236337D02*
G75*
G03*
X12754101Y-12236337I-74930J0D01*
G01*
X13011070Y-2769570D02*
X13160930Y-2919430D01*
X13160930Y-2769570D02*
X13011070Y-2919430D01*
X13160930Y-2844500D02*
G75*
G03*
X13160930Y-2844500I-74930J0D01*
G01*
X13011070Y-4674570D02*
X13160930Y-4824430D01*
X13160930Y-4674570D02*
X13011070Y-4824430D01*
X13160930Y-4749500D02*
G75*
G03*
X13160930Y-4749500I-74930J0D01*
G01*
X13011070Y-6579570D02*
X13160930Y-6729430D01*
X13160930Y-6579570D02*
X13011070Y-6729430D01*
X13160930Y-6654500D02*
G75*
G03*
X13160930Y-6654500I-74930J0D01*
G01*
X13011070Y-8484570D02*
X13160930Y-8634430D01*
X13160930Y-8484570D02*
X13011070Y-8634430D01*
X13160930Y-8559500D02*
G75*
G03*
X13160930Y-8559500I-74930J0D01*
G01*
X13138070Y-2515570D02*
X13287930Y-2665430D01*
X13287930Y-2515570D02*
X13138070Y-2665430D01*
X13287930Y-2590500D02*
G75*
G03*
X13287930Y-2590500I-74930J0D01*
G01*
X13138070Y-4420570D02*
X13287930Y-4570430D01*
X13287930Y-4420570D02*
X13138070Y-4570430D01*
X13287930Y-4495500D02*
G75*
G03*
X13287930Y-4495500I-74930J0D01*
G01*
X13138070Y-6325570D02*
X13287930Y-6475430D01*
X13287930Y-6325570D02*
X13138070Y-6475430D01*
X13287930Y-6400500D02*
G75*
G03*
X13287930Y-6400500I-74930J0D01*
G01*
X13138070Y-8230570D02*
X13287930Y-8380430D01*
X13287930Y-8230570D02*
X13138070Y-8380430D01*
X13287930Y-8305500D02*
G75*
G03*
X13287930Y-8305500I-74930J0D01*
G01*
X13646070Y-2515570D02*
X13795930Y-2665430D01*
X13795930Y-2515570D02*
X13646070Y-2665430D01*
X13795930Y-2590500D02*
G75*
G03*
X13795930Y-2590500I-74930J0D01*
G01*
X13646070Y-4420570D02*
X13795930Y-4570430D01*
X13795930Y-4420570D02*
X13646070Y-4570430D01*
X13795930Y-4495500D02*
G75*
G03*
X13795930Y-4495500I-74930J0D01*
G01*
X13646070Y-6325570D02*
X13795930Y-6475430D01*
X13795930Y-6325570D02*
X13646070Y-6475430D01*
X13795930Y-6400500D02*
G75*
G03*
X13795930Y-6400500I-74930J0D01*
G01*
X13646070Y-8230570D02*
X13795930Y-8380430D01*
X13795930Y-8230570D02*
X13646070Y-8380430D01*
X13795930Y-8305500D02*
G75*
G03*
X13795930Y-8305500I-74930J0D01*
G01*
X13773070Y-2769570D02*
X13922930Y-2919430D01*
X13922930Y-2769570D02*
X13773070Y-2919430D01*
X13922930Y-2844500D02*
G75*
G03*
X13922930Y-2844500I-74930J0D01*
G01*
X13773070Y-4674570D02*
X13922930Y-4824430D01*
X13922930Y-4674570D02*
X13773070Y-4824430D01*
X13922930Y-4749500D02*
G75*
G03*
X13922930Y-4749500I-74930J0D01*
G01*
X13773070Y-6579570D02*
X13922930Y-6729430D01*
X13922930Y-6579570D02*
X13773070Y-6729430D01*
X13922930Y-6654500D02*
G75*
G03*
X13922930Y-6654500I-74930J0D01*
G01*
X13773070Y-8484570D02*
X13922930Y-8634430D01*
X13922930Y-8484570D02*
X13773070Y-8634430D01*
X13922930Y-8559500D02*
G75*
G03*
X13922930Y-8559500I-74930J0D01*
G01*
X13921266Y-13158844D02*
X14071126Y-13308704D01*
X14071126Y-13158844D02*
X13921266Y-13308704D01*
X14071126Y-13233774D02*
G75*
G03*
X14071126Y-13233774I-74930J0D01*
G01*
X14197475Y-13092864D02*
X14347335Y-13242724D01*
X14347335Y-13092864D02*
X14197475Y-13242724D01*
X14347335Y-13167794D02*
G75*
G03*
X14347335Y-13167794I-74930J0D01*
G01*
X14411070Y-13742570D02*
X14560930Y-13892430D01*
X14560930Y-13742570D02*
X14411070Y-13892430D01*
X14560930Y-13817500D02*
G75*
G03*
X14560930Y-13817500I-74930J0D01*
G01*
X14524011Y-13482014D02*
X14673871Y-13631874D01*
X14673871Y-13482014D02*
X14524011Y-13631874D01*
X14673871Y-13556944D02*
G75*
G03*
X14673871Y-13556944I-74930J0D01*
G01*
X14916070Y-2769570D02*
X15065930Y-2919430D01*
X15065930Y-2769570D02*
X14916070Y-2919430D01*
X15065930Y-2844500D02*
G75*
G03*
X15065930Y-2844500I-74930J0D01*
G01*
X14916070Y-4674570D02*
X15065930Y-4824430D01*
X15065930Y-4674570D02*
X14916070Y-4824430D01*
X15065930Y-4749500D02*
G75*
G03*
X15065930Y-4749500I-74930J0D01*
G01*
X14916070Y-6579570D02*
X15065930Y-6729430D01*
X15065930Y-6579570D02*
X14916070Y-6729430D01*
X15065930Y-6654500D02*
G75*
G03*
X15065930Y-6654500I-74930J0D01*
G01*
X14916070Y-8484570D02*
X15065930Y-8634430D01*
X15065930Y-8484570D02*
X14916070Y-8634430D01*
X15065930Y-8559500D02*
G75*
G03*
X15065930Y-8559500I-74930J0D01*
G01*
X15043070Y-2515570D02*
X15192930Y-2665430D01*
X15192930Y-2515570D02*
X15043070Y-2665430D01*
X15192930Y-2590500D02*
G75*
G03*
X15192930Y-2590500I-74930J0D01*
G01*
X15043070Y-4420570D02*
X15192930Y-4570430D01*
X15192930Y-4420570D02*
X15043070Y-4570430D01*
X15192930Y-4495500D02*
G75*
G03*
X15192930Y-4495500I-74930J0D01*
G01*
X15043070Y-6325570D02*
X15192930Y-6475430D01*
X15192930Y-6325570D02*
X15043070Y-6475430D01*
X15192930Y-6400500D02*
G75*
G03*
X15192930Y-6400500I-74930J0D01*
G01*
X15043070Y-8230570D02*
X15192930Y-8380430D01*
X15192930Y-8230570D02*
X15043070Y-8380430D01*
X15192930Y-8305500D02*
G75*
G03*
X15192930Y-8305500I-74930J0D01*
G01*
X15138328Y-15186834D02*
X15288188Y-15336694D01*
X15288188Y-15186834D02*
X15138328Y-15336694D01*
X15288188Y-15261764D02*
G75*
G03*
X15288188Y-15261764I-74930J0D01*
G01*
X15335548Y-15922870D02*
X15485408Y-16072730D01*
X15485408Y-15922870D02*
X15335548Y-16072730D01*
X15485408Y-15997800D02*
G75*
G03*
X15485408Y-15997800I-74930J0D01*
G01*
X15416543Y-15243767D02*
X15566403Y-15393627D01*
X15566403Y-15243767D02*
X15416543Y-15393627D01*
X15566403Y-15318697D02*
G75*
G03*
X15566403Y-15318697I-74930J0D01*
G01*
X15548023Y-15734457D02*
X15697883Y-15884317D01*
X15697883Y-15734457D02*
X15548023Y-15884317D01*
X15697883Y-15809387D02*
G75*
G03*
X15697883Y-15809387I-74930J0D01*
G01*
X15551070Y-2515570D02*
X15700930Y-2665430D01*
X15700930Y-2515570D02*
X15551070Y-2665430D01*
X15700930Y-2590500D02*
G75*
G03*
X15700930Y-2590500I-74930J0D01*
G01*
X15551070Y-4420570D02*
X15700930Y-4570430D01*
X15700930Y-4420570D02*
X15551070Y-4570430D01*
X15700930Y-4495500D02*
G75*
G03*
X15700930Y-4495500I-74930J0D01*
G01*
X15551070Y-6325570D02*
X15700930Y-6475430D01*
X15700930Y-6325570D02*
X15551070Y-6475430D01*
X15700930Y-6400500D02*
G75*
G03*
X15700930Y-6400500I-74930J0D01*
G01*
X15551070Y-8230570D02*
X15700930Y-8380430D01*
X15700930Y-8230570D02*
X15551070Y-8380430D01*
X15700930Y-8305500D02*
G75*
G03*
X15700930Y-8305500I-74930J0D01*
G01*
X15678070Y-2769570D02*
X15827930Y-2919430D01*
X15827930Y-2769570D02*
X15678070Y-2919430D01*
X15827930Y-2844500D02*
G75*
G03*
X15827930Y-2844500I-74930J0D01*
G01*
X15678070Y-4674570D02*
X15827930Y-4824430D01*
X15827930Y-4674570D02*
X15678070Y-4824430D01*
X15827930Y-4749500D02*
G75*
G03*
X15827930Y-4749500I-74930J0D01*
G01*
X15678070Y-6579570D02*
X15827930Y-6729430D01*
X15827930Y-6579570D02*
X15678070Y-6729430D01*
X15827930Y-6654500D02*
G75*
G03*
X15827930Y-6654500I-74930J0D01*
G01*
X15678070Y-8484570D02*
X15827930Y-8634430D01*
X15827930Y-8484570D02*
X15678070Y-8634430D01*
X15827930Y-8559500D02*
G75*
G03*
X15827930Y-8559500I-74930J0D01*
G01*
D18*
X4739500Y-3902500D02*
X5039500Y-4202500D01*
X5039500Y-3902500D02*
X4739500Y-4202500D01*
X4889500Y-3902500D02*
X4889500Y-4202500D01*
X4739500Y-4052500D02*
X5039500Y-4052500D01*
X4739500Y-7787500D02*
X5039500Y-8087500D01*
X5039500Y-7787500D02*
X4739500Y-8087500D01*
X4889500Y-7787500D02*
X4889500Y-8087500D01*
X4739500Y-7937500D02*
X5039500Y-7937500D01*
X14264500Y-14645500D02*
X14564500Y-14945500D01*
X14564500Y-14645500D02*
X14264500Y-14945500D01*
X14414500Y-14645500D02*
X14414500Y-14945500D01*
X14264500Y-14795500D02*
X14564500Y-14795500D01*
X14300000Y-3902500D02*
X14600000Y-4202500D01*
X14600000Y-3902500D02*
X14300000Y-4202500D01*
X14450000Y-3902500D02*
X14450000Y-4202500D01*
X14300000Y-4052500D02*
X14600000Y-4052500D01*
X14300000Y-7780000D02*
X14600000Y-8080000D01*
X14600000Y-7780000D02*
X14300000Y-8080000D01*
X14450000Y-7780000D02*
X14450000Y-8080000D01*
X14300000Y-7930000D02*
X14600000Y-7930000D01*
D11*
X3114342Y-17458541D02*
X3114342Y-17258541D01*
X3114342Y-17258541D02*
X3161961Y-17258541D01*
X3161961Y-17258541D02*
X3190532Y-17268065D01*
X3190532Y-17268065D02*
X3209580Y-17287112D01*
X3209580Y-17287112D02*
X3219104Y-17306160D01*
X3219104Y-17306160D02*
X3228628Y-17344255D01*
X3228628Y-17344255D02*
X3228628Y-17372826D01*
X3228628Y-17372826D02*
X3219104Y-17410922D01*
X3219104Y-17410922D02*
X3209580Y-17429969D01*
X3209580Y-17429969D02*
X3190532Y-17449017D01*
X3190532Y-17449017D02*
X3161961Y-17458541D01*
X3161961Y-17458541D02*
X3114342Y-17458541D01*
X3314342Y-17458541D02*
X3314342Y-17325207D01*
X3314342Y-17363303D02*
X3323866Y-17344255D01*
X3323866Y-17344255D02*
X3333390Y-17334731D01*
X3333390Y-17334731D02*
X3352437Y-17325207D01*
X3352437Y-17325207D02*
X3371485Y-17325207D01*
X3438151Y-17458541D02*
X3438151Y-17325207D01*
X3438151Y-17258541D02*
X3428628Y-17268065D01*
X3428628Y-17268065D02*
X3438151Y-17277588D01*
X3438151Y-17277588D02*
X3447675Y-17268065D01*
X3447675Y-17268065D02*
X3438151Y-17258541D01*
X3438151Y-17258541D02*
X3438151Y-17277588D01*
X3561961Y-17458541D02*
X3542913Y-17449017D01*
X3542913Y-17449017D02*
X3533390Y-17429969D01*
X3533390Y-17429969D02*
X3533390Y-17258541D01*
X3666723Y-17458541D02*
X3647675Y-17449017D01*
X3647675Y-17449017D02*
X3638151Y-17429969D01*
X3638151Y-17429969D02*
X3638151Y-17258541D01*
X3895294Y-17458541D02*
X3895294Y-17258541D01*
X3895294Y-17258541D02*
X3961961Y-17401398D01*
X3961961Y-17401398D02*
X4028628Y-17258541D01*
X4028628Y-17258541D02*
X4028628Y-17458541D01*
X4209580Y-17458541D02*
X4209580Y-17353779D01*
X4209580Y-17353779D02*
X4200056Y-17334731D01*
X4200056Y-17334731D02*
X4181009Y-17325207D01*
X4181009Y-17325207D02*
X4142913Y-17325207D01*
X4142913Y-17325207D02*
X4123866Y-17334731D01*
X4209580Y-17449017D02*
X4190532Y-17458541D01*
X4190532Y-17458541D02*
X4142913Y-17458541D01*
X4142913Y-17458541D02*
X4123866Y-17449017D01*
X4123866Y-17449017D02*
X4114342Y-17429969D01*
X4114342Y-17429969D02*
X4114342Y-17410922D01*
X4114342Y-17410922D02*
X4123866Y-17391874D01*
X4123866Y-17391874D02*
X4142913Y-17382350D01*
X4142913Y-17382350D02*
X4190532Y-17382350D01*
X4190532Y-17382350D02*
X4209580Y-17372826D01*
X4304818Y-17325207D02*
X4304818Y-17525207D01*
X4304818Y-17334731D02*
X4323866Y-17325207D01*
X4323866Y-17325207D02*
X4361961Y-17325207D01*
X4361961Y-17325207D02*
X4381009Y-17334731D01*
X4381009Y-17334731D02*
X4390533Y-17344255D01*
X4390533Y-17344255D02*
X4400056Y-17363303D01*
X4400056Y-17363303D02*
X4400056Y-17420445D01*
X4400056Y-17420445D02*
X4390533Y-17439493D01*
X4390533Y-17439493D02*
X4381009Y-17449017D01*
X4381009Y-17449017D02*
X4361961Y-17458541D01*
X4361961Y-17458541D02*
X4323866Y-17458541D01*
X4323866Y-17458541D02*
X4304818Y-17449017D01*
X4485771Y-17439493D02*
X4495294Y-17449017D01*
X4495294Y-17449017D02*
X4485771Y-17458541D01*
X4485771Y-17458541D02*
X4476247Y-17449017D01*
X4476247Y-17449017D02*
X4485771Y-17439493D01*
X4485771Y-17439493D02*
X4485771Y-17458541D01*
X4485771Y-17334731D02*
X4495294Y-17344255D01*
X4495294Y-17344255D02*
X4485771Y-17353779D01*
X4485771Y-17353779D02*
X4476247Y-17344255D01*
X4476247Y-17344255D02*
X4485771Y-17334731D01*
X4485771Y-17334731D02*
X4485771Y-17353779D01*
D12*
X2836723Y-17771017D02*
X2866723Y-17801017D01*
X2866723Y-17771017D02*
X2836723Y-17801017D01*
D11*
X3152437Y-17678541D02*
X3171485Y-17678541D01*
X3171485Y-17678541D02*
X3190532Y-17688065D01*
X3190532Y-17688065D02*
X3200056Y-17697588D01*
X3200056Y-17697588D02*
X3209580Y-17716636D01*
X3209580Y-17716636D02*
X3219104Y-17754731D01*
X3219104Y-17754731D02*
X3219104Y-17802350D01*
X3219104Y-17802350D02*
X3209580Y-17840445D01*
X3209580Y-17840445D02*
X3200056Y-17859493D01*
X3200056Y-17859493D02*
X3190532Y-17869017D01*
X3190532Y-17869017D02*
X3171485Y-17878541D01*
X3171485Y-17878541D02*
X3152437Y-17878541D01*
X3152437Y-17878541D02*
X3133390Y-17869017D01*
X3133390Y-17869017D02*
X3123866Y-17859493D01*
X3123866Y-17859493D02*
X3114342Y-17840445D01*
X3114342Y-17840445D02*
X3104818Y-17802350D01*
X3104818Y-17802350D02*
X3104818Y-17754731D01*
X3104818Y-17754731D02*
X3114342Y-17716636D01*
X3114342Y-17716636D02*
X3123866Y-17697588D01*
X3123866Y-17697588D02*
X3133390Y-17688065D01*
X3133390Y-17688065D02*
X3152437Y-17678541D01*
X3304818Y-17859493D02*
X3314342Y-17869017D01*
X3314342Y-17869017D02*
X3304818Y-17878541D01*
X3304818Y-17878541D02*
X3295294Y-17869017D01*
X3295294Y-17869017D02*
X3304818Y-17859493D01*
X3304818Y-17859493D02*
X3304818Y-17878541D01*
X3381009Y-17678541D02*
X3504818Y-17678541D01*
X3504818Y-17678541D02*
X3438151Y-17754731D01*
X3438151Y-17754731D02*
X3466723Y-17754731D01*
X3466723Y-17754731D02*
X3485771Y-17764255D01*
X3485771Y-17764255D02*
X3495294Y-17773779D01*
X3495294Y-17773779D02*
X3504818Y-17792826D01*
X3504818Y-17792826D02*
X3504818Y-17840445D01*
X3504818Y-17840445D02*
X3495294Y-17859493D01*
X3495294Y-17859493D02*
X3485771Y-17869017D01*
X3485771Y-17869017D02*
X3466723Y-17878541D01*
X3466723Y-17878541D02*
X3409580Y-17878541D01*
X3409580Y-17878541D02*
X3390532Y-17869017D01*
X3390532Y-17869017D02*
X3381009Y-17859493D01*
X3628628Y-17678541D02*
X3647675Y-17678541D01*
X3647675Y-17678541D02*
X3666723Y-17688065D01*
X3666723Y-17688065D02*
X3676247Y-17697588D01*
X3676247Y-17697588D02*
X3685771Y-17716636D01*
X3685771Y-17716636D02*
X3695294Y-17754731D01*
X3695294Y-17754731D02*
X3695294Y-17802350D01*
X3695294Y-17802350D02*
X3685771Y-17840445D01*
X3685771Y-17840445D02*
X3676247Y-17859493D01*
X3676247Y-17859493D02*
X3666723Y-17869017D01*
X3666723Y-17869017D02*
X3647675Y-17878541D01*
X3647675Y-17878541D02*
X3628628Y-17878541D01*
X3628628Y-17878541D02*
X3609580Y-17869017D01*
X3609580Y-17869017D02*
X3600056Y-17859493D01*
X3600056Y-17859493D02*
X3590532Y-17840445D01*
X3590532Y-17840445D02*
X3581009Y-17802350D01*
X3581009Y-17802350D02*
X3581009Y-17754731D01*
X3581009Y-17754731D02*
X3590532Y-17716636D01*
X3590532Y-17716636D02*
X3600056Y-17697588D01*
X3600056Y-17697588D02*
X3609580Y-17688065D01*
X3609580Y-17688065D02*
X3628628Y-17678541D01*
X3819104Y-17678541D02*
X3838152Y-17678541D01*
X3838152Y-17678541D02*
X3857199Y-17688065D01*
X3857199Y-17688065D02*
X3866723Y-17697588D01*
X3866723Y-17697588D02*
X3876247Y-17716636D01*
X3876247Y-17716636D02*
X3885771Y-17754731D01*
X3885771Y-17754731D02*
X3885771Y-17802350D01*
X3885771Y-17802350D02*
X3876247Y-17840445D01*
X3876247Y-17840445D02*
X3866723Y-17859493D01*
X3866723Y-17859493D02*
X3857199Y-17869017D01*
X3857199Y-17869017D02*
X3838152Y-17878541D01*
X3838152Y-17878541D02*
X3819104Y-17878541D01*
X3819104Y-17878541D02*
X3800056Y-17869017D01*
X3800056Y-17869017D02*
X3790532Y-17859493D01*
X3790532Y-17859493D02*
X3781009Y-17840445D01*
X3781009Y-17840445D02*
X3771485Y-17802350D01*
X3771485Y-17802350D02*
X3771485Y-17754731D01*
X3771485Y-17754731D02*
X3781009Y-17716636D01*
X3781009Y-17716636D02*
X3790532Y-17697588D01*
X3790532Y-17697588D02*
X3800056Y-17688065D01*
X3800056Y-17688065D02*
X3819104Y-17678541D01*
X3971485Y-17878541D02*
X3971485Y-17745207D01*
X3971485Y-17764255D02*
X3981009Y-17754731D01*
X3981009Y-17754731D02*
X4000056Y-17745207D01*
X4000056Y-17745207D02*
X4028628Y-17745207D01*
X4028628Y-17745207D02*
X4047675Y-17754731D01*
X4047675Y-17754731D02*
X4057199Y-17773779D01*
X4057199Y-17773779D02*
X4057199Y-17878541D01*
X4057199Y-17773779D02*
X4066723Y-17754731D01*
X4066723Y-17754731D02*
X4085771Y-17745207D01*
X4085771Y-17745207D02*
X4114342Y-17745207D01*
X4114342Y-17745207D02*
X4133390Y-17754731D01*
X4133390Y-17754731D02*
X4142913Y-17773779D01*
X4142913Y-17773779D02*
X4142913Y-17878541D01*
X4238152Y-17878541D02*
X4238152Y-17745207D01*
X4238152Y-17764255D02*
X4247675Y-17754731D01*
X4247675Y-17754731D02*
X4266723Y-17745207D01*
X4266723Y-17745207D02*
X4295295Y-17745207D01*
X4295295Y-17745207D02*
X4314342Y-17754731D01*
X4314342Y-17754731D02*
X4323866Y-17773779D01*
X4323866Y-17773779D02*
X4323866Y-17878541D01*
X4323866Y-17773779D02*
X4333390Y-17754731D01*
X4333390Y-17754731D02*
X4352437Y-17745207D01*
X4352437Y-17745207D02*
X4381009Y-17745207D01*
X4381009Y-17745207D02*
X4400056Y-17754731D01*
X4400056Y-17754731D02*
X4409580Y-17773779D01*
X4409580Y-17773779D02*
X4409580Y-17878541D01*
X4800056Y-17669017D02*
X4628628Y-17926160D01*
X5057199Y-17678541D02*
X5076247Y-17678541D01*
X5076247Y-17678541D02*
X5095295Y-17688065D01*
X5095295Y-17688065D02*
X5104818Y-17697588D01*
X5104818Y-17697588D02*
X5114342Y-17716636D01*
X5114342Y-17716636D02*
X5123866Y-17754731D01*
X5123866Y-17754731D02*
X5123866Y-17802350D01*
X5123866Y-17802350D02*
X5114342Y-17840445D01*
X5114342Y-17840445D02*
X5104818Y-17859493D01*
X5104818Y-17859493D02*
X5095295Y-17869017D01*
X5095295Y-17869017D02*
X5076247Y-17878541D01*
X5076247Y-17878541D02*
X5057199Y-17878541D01*
X5057199Y-17878541D02*
X5038152Y-17869017D01*
X5038152Y-17869017D02*
X5028628Y-17859493D01*
X5028628Y-17859493D02*
X5019104Y-17840445D01*
X5019104Y-17840445D02*
X5009580Y-17802350D01*
X5009580Y-17802350D02*
X5009580Y-17754731D01*
X5009580Y-17754731D02*
X5019104Y-17716636D01*
X5019104Y-17716636D02*
X5028628Y-17697588D01*
X5028628Y-17697588D02*
X5038152Y-17688065D01*
X5038152Y-17688065D02*
X5057199Y-17678541D01*
X5209580Y-17859493D02*
X5219104Y-17869017D01*
X5219104Y-17869017D02*
X5209580Y-17878541D01*
X5209580Y-17878541D02*
X5200057Y-17869017D01*
X5200057Y-17869017D02*
X5209580Y-17859493D01*
X5209580Y-17859493D02*
X5209580Y-17878541D01*
X5342914Y-17678541D02*
X5361961Y-17678541D01*
X5361961Y-17678541D02*
X5381009Y-17688065D01*
X5381009Y-17688065D02*
X5390533Y-17697588D01*
X5390533Y-17697588D02*
X5400057Y-17716636D01*
X5400057Y-17716636D02*
X5409580Y-17754731D01*
X5409580Y-17754731D02*
X5409580Y-17802350D01*
X5409580Y-17802350D02*
X5400057Y-17840445D01*
X5400057Y-17840445D02*
X5390533Y-17859493D01*
X5390533Y-17859493D02*
X5381009Y-17869017D01*
X5381009Y-17869017D02*
X5361961Y-17878541D01*
X5361961Y-17878541D02*
X5342914Y-17878541D01*
X5342914Y-17878541D02*
X5323866Y-17869017D01*
X5323866Y-17869017D02*
X5314342Y-17859493D01*
X5314342Y-17859493D02*
X5304818Y-17840445D01*
X5304818Y-17840445D02*
X5295295Y-17802350D01*
X5295295Y-17802350D02*
X5295295Y-17754731D01*
X5295295Y-17754731D02*
X5304818Y-17716636D01*
X5304818Y-17716636D02*
X5314342Y-17697588D01*
X5314342Y-17697588D02*
X5323866Y-17688065D01*
X5323866Y-17688065D02*
X5342914Y-17678541D01*
X5600056Y-17878541D02*
X5485771Y-17878541D01*
X5542914Y-17878541D02*
X5542914Y-17678541D01*
X5542914Y-17678541D02*
X5523866Y-17707112D01*
X5523866Y-17707112D02*
X5504818Y-17726160D01*
X5504818Y-17726160D02*
X5485771Y-17735684D01*
X5790533Y-17878541D02*
X5676247Y-17878541D01*
X5733390Y-17878541D02*
X5733390Y-17678541D01*
X5733390Y-17678541D02*
X5714342Y-17707112D01*
X5714342Y-17707112D02*
X5695295Y-17726160D01*
X5695295Y-17726160D02*
X5676247Y-17735684D01*
X5904818Y-17764255D02*
X5885771Y-17754731D01*
X5885771Y-17754731D02*
X5876247Y-17745207D01*
X5876247Y-17745207D02*
X5866723Y-17726160D01*
X5866723Y-17726160D02*
X5866723Y-17716636D01*
X5866723Y-17716636D02*
X5876247Y-17697588D01*
X5876247Y-17697588D02*
X5885771Y-17688065D01*
X5885771Y-17688065D02*
X5904818Y-17678541D01*
X5904818Y-17678541D02*
X5942914Y-17678541D01*
X5942914Y-17678541D02*
X5961961Y-17688065D01*
X5961961Y-17688065D02*
X5971485Y-17697588D01*
X5971485Y-17697588D02*
X5981009Y-17716636D01*
X5981009Y-17716636D02*
X5981009Y-17726160D01*
X5981009Y-17726160D02*
X5971485Y-17745207D01*
X5971485Y-17745207D02*
X5961961Y-17754731D01*
X5961961Y-17754731D02*
X5942914Y-17764255D01*
X5942914Y-17764255D02*
X5904818Y-17764255D01*
X5904818Y-17764255D02*
X5885771Y-17773779D01*
X5885771Y-17773779D02*
X5876247Y-17783303D01*
X5876247Y-17783303D02*
X5866723Y-17802350D01*
X5866723Y-17802350D02*
X5866723Y-17840445D01*
X5866723Y-17840445D02*
X5876247Y-17859493D01*
X5876247Y-17859493D02*
X5885771Y-17869017D01*
X5885771Y-17869017D02*
X5904818Y-17878541D01*
X5904818Y-17878541D02*
X5942914Y-17878541D01*
X5942914Y-17878541D02*
X5961961Y-17869017D01*
X5961961Y-17869017D02*
X5971485Y-17859493D01*
X5971485Y-17859493D02*
X5981009Y-17840445D01*
X5981009Y-17840445D02*
X5981009Y-17802350D01*
X5981009Y-17802350D02*
X5971485Y-17783303D01*
X5971485Y-17783303D02*
X5961961Y-17773779D01*
X5961961Y-17773779D02*
X5942914Y-17764255D01*
X6057199Y-17678541D02*
X6057199Y-17716636D01*
X6133390Y-17678541D02*
X6133390Y-17716636D01*
X6428628Y-17954731D02*
X6419104Y-17945207D01*
X6419104Y-17945207D02*
X6400057Y-17916636D01*
X6400057Y-17916636D02*
X6390533Y-17897588D01*
X6390533Y-17897588D02*
X6381009Y-17869017D01*
X6381009Y-17869017D02*
X6371485Y-17821398D01*
X6371485Y-17821398D02*
X6371485Y-17783303D01*
X6371485Y-17783303D02*
X6381009Y-17735684D01*
X6381009Y-17735684D02*
X6390533Y-17707112D01*
X6390533Y-17707112D02*
X6400057Y-17688065D01*
X6400057Y-17688065D02*
X6419104Y-17659493D01*
X6419104Y-17659493D02*
X6428628Y-17649969D01*
X6609580Y-17878541D02*
X6495295Y-17878541D01*
X6552437Y-17878541D02*
X6552437Y-17678541D01*
X6552437Y-17678541D02*
X6533390Y-17707112D01*
X6533390Y-17707112D02*
X6514342Y-17726160D01*
X6514342Y-17726160D02*
X6495295Y-17735684D01*
X6790533Y-17678541D02*
X6695295Y-17678541D01*
X6695295Y-17678541D02*
X6685771Y-17773779D01*
X6685771Y-17773779D02*
X6695295Y-17764255D01*
X6695295Y-17764255D02*
X6714342Y-17754731D01*
X6714342Y-17754731D02*
X6761961Y-17754731D01*
X6761961Y-17754731D02*
X6781009Y-17764255D01*
X6781009Y-17764255D02*
X6790533Y-17773779D01*
X6790533Y-17773779D02*
X6800057Y-17792826D01*
X6800057Y-17792826D02*
X6800057Y-17840445D01*
X6800057Y-17840445D02*
X6790533Y-17859493D01*
X6790533Y-17859493D02*
X6781009Y-17869017D01*
X6781009Y-17869017D02*
X6761961Y-17878541D01*
X6761961Y-17878541D02*
X6714342Y-17878541D01*
X6714342Y-17878541D02*
X6695295Y-17869017D01*
X6695295Y-17869017D02*
X6685771Y-17859493D01*
X7038152Y-17878541D02*
X7038152Y-17678541D01*
X7123866Y-17878541D02*
X7123866Y-17773779D01*
X7123866Y-17773779D02*
X7114342Y-17754731D01*
X7114342Y-17754731D02*
X7095295Y-17745207D01*
X7095295Y-17745207D02*
X7066723Y-17745207D01*
X7066723Y-17745207D02*
X7047676Y-17754731D01*
X7047676Y-17754731D02*
X7038152Y-17764255D01*
X7247676Y-17878541D02*
X7228628Y-17869017D01*
X7228628Y-17869017D02*
X7219104Y-17859493D01*
X7219104Y-17859493D02*
X7209580Y-17840445D01*
X7209580Y-17840445D02*
X7209580Y-17783303D01*
X7209580Y-17783303D02*
X7219104Y-17764255D01*
X7219104Y-17764255D02*
X7228628Y-17754731D01*
X7228628Y-17754731D02*
X7247676Y-17745207D01*
X7247676Y-17745207D02*
X7276247Y-17745207D01*
X7276247Y-17745207D02*
X7295295Y-17754731D01*
X7295295Y-17754731D02*
X7304819Y-17764255D01*
X7304819Y-17764255D02*
X7314342Y-17783303D01*
X7314342Y-17783303D02*
X7314342Y-17840445D01*
X7314342Y-17840445D02*
X7304819Y-17859493D01*
X7304819Y-17859493D02*
X7295295Y-17869017D01*
X7295295Y-17869017D02*
X7276247Y-17878541D01*
X7276247Y-17878541D02*
X7247676Y-17878541D01*
X7428628Y-17878541D02*
X7409580Y-17869017D01*
X7409580Y-17869017D02*
X7400057Y-17849969D01*
X7400057Y-17849969D02*
X7400057Y-17678541D01*
X7581009Y-17869017D02*
X7561961Y-17878541D01*
X7561961Y-17878541D02*
X7523866Y-17878541D01*
X7523866Y-17878541D02*
X7504819Y-17869017D01*
X7504819Y-17869017D02*
X7495295Y-17849969D01*
X7495295Y-17849969D02*
X7495295Y-17773779D01*
X7495295Y-17773779D02*
X7504819Y-17754731D01*
X7504819Y-17754731D02*
X7523866Y-17745207D01*
X7523866Y-17745207D02*
X7561961Y-17745207D01*
X7561961Y-17745207D02*
X7581009Y-17754731D01*
X7581009Y-17754731D02*
X7590533Y-17773779D01*
X7590533Y-17773779D02*
X7590533Y-17792826D01*
X7590533Y-17792826D02*
X7495295Y-17811874D01*
X7666723Y-17869017D02*
X7685771Y-17878541D01*
X7685771Y-17878541D02*
X7723866Y-17878541D01*
X7723866Y-17878541D02*
X7742914Y-17869017D01*
X7742914Y-17869017D02*
X7752438Y-17849969D01*
X7752438Y-17849969D02*
X7752438Y-17840445D01*
X7752438Y-17840445D02*
X7742914Y-17821398D01*
X7742914Y-17821398D02*
X7723866Y-17811874D01*
X7723866Y-17811874D02*
X7695295Y-17811874D01*
X7695295Y-17811874D02*
X7676247Y-17802350D01*
X7676247Y-17802350D02*
X7666723Y-17783303D01*
X7666723Y-17783303D02*
X7666723Y-17773779D01*
X7666723Y-17773779D02*
X7676247Y-17754731D01*
X7676247Y-17754731D02*
X7695295Y-17745207D01*
X7695295Y-17745207D02*
X7723866Y-17745207D01*
X7723866Y-17745207D02*
X7742914Y-17754731D01*
X7819104Y-17954731D02*
X7828628Y-17945207D01*
X7828628Y-17945207D02*
X7847676Y-17916636D01*
X7847676Y-17916636D02*
X7857200Y-17897588D01*
X7857200Y-17897588D02*
X7866723Y-17869017D01*
X7866723Y-17869017D02*
X7876247Y-17821398D01*
X7876247Y-17821398D02*
X7876247Y-17783303D01*
X7876247Y-17783303D02*
X7866723Y-17735684D01*
X7866723Y-17735684D02*
X7857200Y-17707112D01*
X7857200Y-17707112D02*
X7847676Y-17688065D01*
X7847676Y-17688065D02*
X7828628Y-17659493D01*
X7828628Y-17659493D02*
X7819104Y-17649969D01*
D13*
X2866723Y-18050017D02*
G75*
G03*
X2866723Y-18050017I-40000J0D01*
G01*
D11*
X3152437Y-17942541D02*
X3171485Y-17942541D01*
X3171485Y-17942541D02*
X3190532Y-17952065D01*
X3190532Y-17952065D02*
X3200056Y-17961588D01*
X3200056Y-17961588D02*
X3209580Y-17980636D01*
X3209580Y-17980636D02*
X3219104Y-18018731D01*
X3219104Y-18018731D02*
X3219104Y-18066350D01*
X3219104Y-18066350D02*
X3209580Y-18104445D01*
X3209580Y-18104445D02*
X3200056Y-18123493D01*
X3200056Y-18123493D02*
X3190532Y-18133017D01*
X3190532Y-18133017D02*
X3171485Y-18142541D01*
X3171485Y-18142541D02*
X3152437Y-18142541D01*
X3152437Y-18142541D02*
X3133390Y-18133017D01*
X3133390Y-18133017D02*
X3123866Y-18123493D01*
X3123866Y-18123493D02*
X3114342Y-18104445D01*
X3114342Y-18104445D02*
X3104818Y-18066350D01*
X3104818Y-18066350D02*
X3104818Y-18018731D01*
X3104818Y-18018731D02*
X3114342Y-17980636D01*
X3114342Y-17980636D02*
X3123866Y-17961588D01*
X3123866Y-17961588D02*
X3133390Y-17952065D01*
X3133390Y-17952065D02*
X3152437Y-17942541D01*
X3304818Y-18123493D02*
X3314342Y-18133017D01*
X3314342Y-18133017D02*
X3304818Y-18142541D01*
X3304818Y-18142541D02*
X3295294Y-18133017D01*
X3295294Y-18133017D02*
X3304818Y-18123493D01*
X3304818Y-18123493D02*
X3304818Y-18142541D01*
X3428628Y-18028255D02*
X3409580Y-18018731D01*
X3409580Y-18018731D02*
X3400056Y-18009207D01*
X3400056Y-18009207D02*
X3390532Y-17990160D01*
X3390532Y-17990160D02*
X3390532Y-17980636D01*
X3390532Y-17980636D02*
X3400056Y-17961588D01*
X3400056Y-17961588D02*
X3409580Y-17952065D01*
X3409580Y-17952065D02*
X3428628Y-17942541D01*
X3428628Y-17942541D02*
X3466723Y-17942541D01*
X3466723Y-17942541D02*
X3485771Y-17952065D01*
X3485771Y-17952065D02*
X3495294Y-17961588D01*
X3495294Y-17961588D02*
X3504818Y-17980636D01*
X3504818Y-17980636D02*
X3504818Y-17990160D01*
X3504818Y-17990160D02*
X3495294Y-18009207D01*
X3495294Y-18009207D02*
X3485771Y-18018731D01*
X3485771Y-18018731D02*
X3466723Y-18028255D01*
X3466723Y-18028255D02*
X3428628Y-18028255D01*
X3428628Y-18028255D02*
X3409580Y-18037779D01*
X3409580Y-18037779D02*
X3400056Y-18047303D01*
X3400056Y-18047303D02*
X3390532Y-18066350D01*
X3390532Y-18066350D02*
X3390532Y-18104445D01*
X3390532Y-18104445D02*
X3400056Y-18123493D01*
X3400056Y-18123493D02*
X3409580Y-18133017D01*
X3409580Y-18133017D02*
X3428628Y-18142541D01*
X3428628Y-18142541D02*
X3466723Y-18142541D01*
X3466723Y-18142541D02*
X3485771Y-18133017D01*
X3485771Y-18133017D02*
X3495294Y-18123493D01*
X3495294Y-18123493D02*
X3504818Y-18104445D01*
X3504818Y-18104445D02*
X3504818Y-18066350D01*
X3504818Y-18066350D02*
X3495294Y-18047303D01*
X3495294Y-18047303D02*
X3485771Y-18037779D01*
X3485771Y-18037779D02*
X3466723Y-18028255D01*
X3628628Y-17942541D02*
X3647675Y-17942541D01*
X3647675Y-17942541D02*
X3666723Y-17952065D01*
X3666723Y-17952065D02*
X3676247Y-17961588D01*
X3676247Y-17961588D02*
X3685771Y-17980636D01*
X3685771Y-17980636D02*
X3695294Y-18018731D01*
X3695294Y-18018731D02*
X3695294Y-18066350D01*
X3695294Y-18066350D02*
X3685771Y-18104445D01*
X3685771Y-18104445D02*
X3676247Y-18123493D01*
X3676247Y-18123493D02*
X3666723Y-18133017D01*
X3666723Y-18133017D02*
X3647675Y-18142541D01*
X3647675Y-18142541D02*
X3628628Y-18142541D01*
X3628628Y-18142541D02*
X3609580Y-18133017D01*
X3609580Y-18133017D02*
X3600056Y-18123493D01*
X3600056Y-18123493D02*
X3590532Y-18104445D01*
X3590532Y-18104445D02*
X3581009Y-18066350D01*
X3581009Y-18066350D02*
X3581009Y-18018731D01*
X3581009Y-18018731D02*
X3590532Y-17980636D01*
X3590532Y-17980636D02*
X3600056Y-17961588D01*
X3600056Y-17961588D02*
X3609580Y-17952065D01*
X3609580Y-17952065D02*
X3628628Y-17942541D01*
X3819104Y-17942541D02*
X3838152Y-17942541D01*
X3838152Y-17942541D02*
X3857199Y-17952065D01*
X3857199Y-17952065D02*
X3866723Y-17961588D01*
X3866723Y-17961588D02*
X3876247Y-17980636D01*
X3876247Y-17980636D02*
X3885771Y-18018731D01*
X3885771Y-18018731D02*
X3885771Y-18066350D01*
X3885771Y-18066350D02*
X3876247Y-18104445D01*
X3876247Y-18104445D02*
X3866723Y-18123493D01*
X3866723Y-18123493D02*
X3857199Y-18133017D01*
X3857199Y-18133017D02*
X3838152Y-18142541D01*
X3838152Y-18142541D02*
X3819104Y-18142541D01*
X3819104Y-18142541D02*
X3800056Y-18133017D01*
X3800056Y-18133017D02*
X3790532Y-18123493D01*
X3790532Y-18123493D02*
X3781009Y-18104445D01*
X3781009Y-18104445D02*
X3771485Y-18066350D01*
X3771485Y-18066350D02*
X3771485Y-18018731D01*
X3771485Y-18018731D02*
X3781009Y-17980636D01*
X3781009Y-17980636D02*
X3790532Y-17961588D01*
X3790532Y-17961588D02*
X3800056Y-17952065D01*
X3800056Y-17952065D02*
X3819104Y-17942541D01*
X3971485Y-18142541D02*
X3971485Y-18009207D01*
X3971485Y-18028255D02*
X3981009Y-18018731D01*
X3981009Y-18018731D02*
X4000056Y-18009207D01*
X4000056Y-18009207D02*
X4028628Y-18009207D01*
X4028628Y-18009207D02*
X4047675Y-18018731D01*
X4047675Y-18018731D02*
X4057199Y-18037779D01*
X4057199Y-18037779D02*
X4057199Y-18142541D01*
X4057199Y-18037779D02*
X4066723Y-18018731D01*
X4066723Y-18018731D02*
X4085771Y-18009207D01*
X4085771Y-18009207D02*
X4114342Y-18009207D01*
X4114342Y-18009207D02*
X4133390Y-18018731D01*
X4133390Y-18018731D02*
X4142913Y-18037779D01*
X4142913Y-18037779D02*
X4142913Y-18142541D01*
X4238152Y-18142541D02*
X4238152Y-18009207D01*
X4238152Y-18028255D02*
X4247675Y-18018731D01*
X4247675Y-18018731D02*
X4266723Y-18009207D01*
X4266723Y-18009207D02*
X4295295Y-18009207D01*
X4295295Y-18009207D02*
X4314342Y-18018731D01*
X4314342Y-18018731D02*
X4323866Y-18037779D01*
X4323866Y-18037779D02*
X4323866Y-18142541D01*
X4323866Y-18037779D02*
X4333390Y-18018731D01*
X4333390Y-18018731D02*
X4352437Y-18009207D01*
X4352437Y-18009207D02*
X4381009Y-18009207D01*
X4381009Y-18009207D02*
X4400056Y-18018731D01*
X4400056Y-18018731D02*
X4409580Y-18037779D01*
X4409580Y-18037779D02*
X4409580Y-18142541D01*
X4800056Y-17933017D02*
X4628628Y-18190160D01*
X5057199Y-17942541D02*
X5076247Y-17942541D01*
X5076247Y-17942541D02*
X5095295Y-17952065D01*
X5095295Y-17952065D02*
X5104818Y-17961588D01*
X5104818Y-17961588D02*
X5114342Y-17980636D01*
X5114342Y-17980636D02*
X5123866Y-18018731D01*
X5123866Y-18018731D02*
X5123866Y-18066350D01*
X5123866Y-18066350D02*
X5114342Y-18104445D01*
X5114342Y-18104445D02*
X5104818Y-18123493D01*
X5104818Y-18123493D02*
X5095295Y-18133017D01*
X5095295Y-18133017D02*
X5076247Y-18142541D01*
X5076247Y-18142541D02*
X5057199Y-18142541D01*
X5057199Y-18142541D02*
X5038152Y-18133017D01*
X5038152Y-18133017D02*
X5028628Y-18123493D01*
X5028628Y-18123493D02*
X5019104Y-18104445D01*
X5019104Y-18104445D02*
X5009580Y-18066350D01*
X5009580Y-18066350D02*
X5009580Y-18018731D01*
X5009580Y-18018731D02*
X5019104Y-17980636D01*
X5019104Y-17980636D02*
X5028628Y-17961588D01*
X5028628Y-17961588D02*
X5038152Y-17952065D01*
X5038152Y-17952065D02*
X5057199Y-17942541D01*
X5209580Y-18123493D02*
X5219104Y-18133017D01*
X5219104Y-18133017D02*
X5209580Y-18142541D01*
X5209580Y-18142541D02*
X5200057Y-18133017D01*
X5200057Y-18133017D02*
X5209580Y-18123493D01*
X5209580Y-18123493D02*
X5209580Y-18142541D01*
X5342914Y-17942541D02*
X5361961Y-17942541D01*
X5361961Y-17942541D02*
X5381009Y-17952065D01*
X5381009Y-17952065D02*
X5390533Y-17961588D01*
X5390533Y-17961588D02*
X5400057Y-17980636D01*
X5400057Y-17980636D02*
X5409580Y-18018731D01*
X5409580Y-18018731D02*
X5409580Y-18066350D01*
X5409580Y-18066350D02*
X5400057Y-18104445D01*
X5400057Y-18104445D02*
X5390533Y-18123493D01*
X5390533Y-18123493D02*
X5381009Y-18133017D01*
X5381009Y-18133017D02*
X5361961Y-18142541D01*
X5361961Y-18142541D02*
X5342914Y-18142541D01*
X5342914Y-18142541D02*
X5323866Y-18133017D01*
X5323866Y-18133017D02*
X5314342Y-18123493D01*
X5314342Y-18123493D02*
X5304818Y-18104445D01*
X5304818Y-18104445D02*
X5295295Y-18066350D01*
X5295295Y-18066350D02*
X5295295Y-18018731D01*
X5295295Y-18018731D02*
X5304818Y-17980636D01*
X5304818Y-17980636D02*
X5314342Y-17961588D01*
X5314342Y-17961588D02*
X5323866Y-17952065D01*
X5323866Y-17952065D02*
X5342914Y-17942541D01*
X5476247Y-17942541D02*
X5600056Y-17942541D01*
X5600056Y-17942541D02*
X5533390Y-18018731D01*
X5533390Y-18018731D02*
X5561961Y-18018731D01*
X5561961Y-18018731D02*
X5581009Y-18028255D01*
X5581009Y-18028255D02*
X5590533Y-18037779D01*
X5590533Y-18037779D02*
X5600056Y-18056826D01*
X5600056Y-18056826D02*
X5600056Y-18104445D01*
X5600056Y-18104445D02*
X5590533Y-18123493D01*
X5590533Y-18123493D02*
X5581009Y-18133017D01*
X5581009Y-18133017D02*
X5561961Y-18142541D01*
X5561961Y-18142541D02*
X5504818Y-18142541D01*
X5504818Y-18142541D02*
X5485771Y-18133017D01*
X5485771Y-18133017D02*
X5476247Y-18123493D01*
X5790533Y-18142541D02*
X5676247Y-18142541D01*
X5733390Y-18142541D02*
X5733390Y-17942541D01*
X5733390Y-17942541D02*
X5714342Y-17971112D01*
X5714342Y-17971112D02*
X5695295Y-17990160D01*
X5695295Y-17990160D02*
X5676247Y-17999684D01*
X5971485Y-17942541D02*
X5876247Y-17942541D01*
X5876247Y-17942541D02*
X5866723Y-18037779D01*
X5866723Y-18037779D02*
X5876247Y-18028255D01*
X5876247Y-18028255D02*
X5895295Y-18018731D01*
X5895295Y-18018731D02*
X5942914Y-18018731D01*
X5942914Y-18018731D02*
X5961961Y-18028255D01*
X5961961Y-18028255D02*
X5971485Y-18037779D01*
X5971485Y-18037779D02*
X5981009Y-18056826D01*
X5981009Y-18056826D02*
X5981009Y-18104445D01*
X5981009Y-18104445D02*
X5971485Y-18123493D01*
X5971485Y-18123493D02*
X5961961Y-18133017D01*
X5961961Y-18133017D02*
X5942914Y-18142541D01*
X5942914Y-18142541D02*
X5895295Y-18142541D01*
X5895295Y-18142541D02*
X5876247Y-18133017D01*
X5876247Y-18133017D02*
X5866723Y-18123493D01*
X6057199Y-17942541D02*
X6057199Y-17980636D01*
X6133390Y-17942541D02*
X6133390Y-17980636D01*
X6428628Y-18218731D02*
X6419104Y-18209207D01*
X6419104Y-18209207D02*
X6400057Y-18180636D01*
X6400057Y-18180636D02*
X6390533Y-18161588D01*
X6390533Y-18161588D02*
X6381009Y-18133017D01*
X6381009Y-18133017D02*
X6371485Y-18085398D01*
X6371485Y-18085398D02*
X6371485Y-18047303D01*
X6371485Y-18047303D02*
X6381009Y-17999684D01*
X6381009Y-17999684D02*
X6390533Y-17971112D01*
X6390533Y-17971112D02*
X6400057Y-17952065D01*
X6400057Y-17952065D02*
X6419104Y-17923493D01*
X6419104Y-17923493D02*
X6428628Y-17913969D01*
X6590533Y-18009207D02*
X6590533Y-18142541D01*
X6542914Y-17933017D02*
X6495295Y-18075874D01*
X6495295Y-18075874D02*
X6619104Y-18075874D01*
X6847676Y-18142541D02*
X6847676Y-17942541D01*
X6933390Y-18142541D02*
X6933390Y-18037779D01*
X6933390Y-18037779D02*
X6923866Y-18018731D01*
X6923866Y-18018731D02*
X6904819Y-18009207D01*
X6904819Y-18009207D02*
X6876247Y-18009207D01*
X6876247Y-18009207D02*
X6857199Y-18018731D01*
X6857199Y-18018731D02*
X6847676Y-18028255D01*
X7057199Y-18142541D02*
X7038152Y-18133017D01*
X7038152Y-18133017D02*
X7028628Y-18123493D01*
X7028628Y-18123493D02*
X7019104Y-18104445D01*
X7019104Y-18104445D02*
X7019104Y-18047303D01*
X7019104Y-18047303D02*
X7028628Y-18028255D01*
X7028628Y-18028255D02*
X7038152Y-18018731D01*
X7038152Y-18018731D02*
X7057199Y-18009207D01*
X7057199Y-18009207D02*
X7085771Y-18009207D01*
X7085771Y-18009207D02*
X7104819Y-18018731D01*
X7104819Y-18018731D02*
X7114342Y-18028255D01*
X7114342Y-18028255D02*
X7123866Y-18047303D01*
X7123866Y-18047303D02*
X7123866Y-18104445D01*
X7123866Y-18104445D02*
X7114342Y-18123493D01*
X7114342Y-18123493D02*
X7104819Y-18133017D01*
X7104819Y-18133017D02*
X7085771Y-18142541D01*
X7085771Y-18142541D02*
X7057199Y-18142541D01*
X7238152Y-18142541D02*
X7219104Y-18133017D01*
X7219104Y-18133017D02*
X7209580Y-18113969D01*
X7209580Y-18113969D02*
X7209580Y-17942541D01*
X7390533Y-18133017D02*
X7371485Y-18142541D01*
X7371485Y-18142541D02*
X7333390Y-18142541D01*
X7333390Y-18142541D02*
X7314342Y-18133017D01*
X7314342Y-18133017D02*
X7304819Y-18113969D01*
X7304819Y-18113969D02*
X7304819Y-18037779D01*
X7304819Y-18037779D02*
X7314342Y-18018731D01*
X7314342Y-18018731D02*
X7333390Y-18009207D01*
X7333390Y-18009207D02*
X7371485Y-18009207D01*
X7371485Y-18009207D02*
X7390533Y-18018731D01*
X7390533Y-18018731D02*
X7400057Y-18037779D01*
X7400057Y-18037779D02*
X7400057Y-18056826D01*
X7400057Y-18056826D02*
X7304819Y-18075874D01*
X7476247Y-18133017D02*
X7495295Y-18142541D01*
X7495295Y-18142541D02*
X7533390Y-18142541D01*
X7533390Y-18142541D02*
X7552438Y-18133017D01*
X7552438Y-18133017D02*
X7561961Y-18113969D01*
X7561961Y-18113969D02*
X7561961Y-18104445D01*
X7561961Y-18104445D02*
X7552438Y-18085398D01*
X7552438Y-18085398D02*
X7533390Y-18075874D01*
X7533390Y-18075874D02*
X7504819Y-18075874D01*
X7504819Y-18075874D02*
X7485771Y-18066350D01*
X7485771Y-18066350D02*
X7476247Y-18047303D01*
X7476247Y-18047303D02*
X7476247Y-18037779D01*
X7476247Y-18037779D02*
X7485771Y-18018731D01*
X7485771Y-18018731D02*
X7504819Y-18009207D01*
X7504819Y-18009207D02*
X7533390Y-18009207D01*
X7533390Y-18009207D02*
X7552438Y-18018731D01*
X7628628Y-18218731D02*
X7638152Y-18209207D01*
X7638152Y-18209207D02*
X7657200Y-18180636D01*
X7657200Y-18180636D02*
X7666723Y-18161588D01*
X7666723Y-18161588D02*
X7676247Y-18133017D01*
X7676247Y-18133017D02*
X7685771Y-18085398D01*
X7685771Y-18085398D02*
X7685771Y-18047303D01*
X7685771Y-18047303D02*
X7676247Y-17999684D01*
X7676247Y-17999684D02*
X7666723Y-17971112D01*
X7666723Y-17971112D02*
X7657200Y-17952065D01*
X7657200Y-17952065D02*
X7638152Y-17923493D01*
X7638152Y-17923493D02*
X7628628Y-17913969D01*
D14*
X2817193Y-18264487D02*
X2817193Y-18363547D01*
X2767663Y-18314017D02*
X2866723Y-18314017D01*
D11*
X3152437Y-18206541D02*
X3171485Y-18206541D01*
X3171485Y-18206541D02*
X3190532Y-18216065D01*
X3190532Y-18216065D02*
X3200056Y-18225588D01*
X3200056Y-18225588D02*
X3209580Y-18244636D01*
X3209580Y-18244636D02*
X3219104Y-18282731D01*
X3219104Y-18282731D02*
X3219104Y-18330350D01*
X3219104Y-18330350D02*
X3209580Y-18368445D01*
X3209580Y-18368445D02*
X3200056Y-18387493D01*
X3200056Y-18387493D02*
X3190532Y-18397017D01*
X3190532Y-18397017D02*
X3171485Y-18406541D01*
X3171485Y-18406541D02*
X3152437Y-18406541D01*
X3152437Y-18406541D02*
X3133390Y-18397017D01*
X3133390Y-18397017D02*
X3123866Y-18387493D01*
X3123866Y-18387493D02*
X3114342Y-18368445D01*
X3114342Y-18368445D02*
X3104818Y-18330350D01*
X3104818Y-18330350D02*
X3104818Y-18282731D01*
X3104818Y-18282731D02*
X3114342Y-18244636D01*
X3114342Y-18244636D02*
X3123866Y-18225588D01*
X3123866Y-18225588D02*
X3133390Y-18216065D01*
X3133390Y-18216065D02*
X3152437Y-18206541D01*
X3304818Y-18387493D02*
X3314342Y-18397017D01*
X3314342Y-18397017D02*
X3304818Y-18406541D01*
X3304818Y-18406541D02*
X3295294Y-18397017D01*
X3295294Y-18397017D02*
X3304818Y-18387493D01*
X3304818Y-18387493D02*
X3304818Y-18406541D01*
X3409580Y-18406541D02*
X3447675Y-18406541D01*
X3447675Y-18406541D02*
X3466723Y-18397017D01*
X3466723Y-18397017D02*
X3476247Y-18387493D01*
X3476247Y-18387493D02*
X3495294Y-18358922D01*
X3495294Y-18358922D02*
X3504818Y-18320826D01*
X3504818Y-18320826D02*
X3504818Y-18244636D01*
X3504818Y-18244636D02*
X3495294Y-18225588D01*
X3495294Y-18225588D02*
X3485771Y-18216065D01*
X3485771Y-18216065D02*
X3466723Y-18206541D01*
X3466723Y-18206541D02*
X3428628Y-18206541D01*
X3428628Y-18206541D02*
X3409580Y-18216065D01*
X3409580Y-18216065D02*
X3400056Y-18225588D01*
X3400056Y-18225588D02*
X3390532Y-18244636D01*
X3390532Y-18244636D02*
X3390532Y-18292255D01*
X3390532Y-18292255D02*
X3400056Y-18311303D01*
X3400056Y-18311303D02*
X3409580Y-18320826D01*
X3409580Y-18320826D02*
X3428628Y-18330350D01*
X3428628Y-18330350D02*
X3466723Y-18330350D01*
X3466723Y-18330350D02*
X3485771Y-18320826D01*
X3485771Y-18320826D02*
X3495294Y-18311303D01*
X3495294Y-18311303D02*
X3504818Y-18292255D01*
X3600056Y-18406541D02*
X3638151Y-18406541D01*
X3638151Y-18406541D02*
X3657199Y-18397017D01*
X3657199Y-18397017D02*
X3666723Y-18387493D01*
X3666723Y-18387493D02*
X3685771Y-18358922D01*
X3685771Y-18358922D02*
X3695294Y-18320826D01*
X3695294Y-18320826D02*
X3695294Y-18244636D01*
X3695294Y-18244636D02*
X3685771Y-18225588D01*
X3685771Y-18225588D02*
X3676247Y-18216065D01*
X3676247Y-18216065D02*
X3657199Y-18206541D01*
X3657199Y-18206541D02*
X3619104Y-18206541D01*
X3619104Y-18206541D02*
X3600056Y-18216065D01*
X3600056Y-18216065D02*
X3590532Y-18225588D01*
X3590532Y-18225588D02*
X3581009Y-18244636D01*
X3581009Y-18244636D02*
X3581009Y-18292255D01*
X3581009Y-18292255D02*
X3590532Y-18311303D01*
X3590532Y-18311303D02*
X3600056Y-18320826D01*
X3600056Y-18320826D02*
X3619104Y-18330350D01*
X3619104Y-18330350D02*
X3657199Y-18330350D01*
X3657199Y-18330350D02*
X3676247Y-18320826D01*
X3676247Y-18320826D02*
X3685771Y-18311303D01*
X3685771Y-18311303D02*
X3695294Y-18292255D01*
X3885771Y-18406541D02*
X3771485Y-18406541D01*
X3828628Y-18406541D02*
X3828628Y-18206541D01*
X3828628Y-18206541D02*
X3809580Y-18235112D01*
X3809580Y-18235112D02*
X3790532Y-18254160D01*
X3790532Y-18254160D02*
X3771485Y-18263684D01*
X3971485Y-18406541D02*
X3971485Y-18273207D01*
X3971485Y-18292255D02*
X3981009Y-18282731D01*
X3981009Y-18282731D02*
X4000056Y-18273207D01*
X4000056Y-18273207D02*
X4028628Y-18273207D01*
X4028628Y-18273207D02*
X4047675Y-18282731D01*
X4047675Y-18282731D02*
X4057199Y-18301779D01*
X4057199Y-18301779D02*
X4057199Y-18406541D01*
X4057199Y-18301779D02*
X4066723Y-18282731D01*
X4066723Y-18282731D02*
X4085771Y-18273207D01*
X4085771Y-18273207D02*
X4114342Y-18273207D01*
X4114342Y-18273207D02*
X4133390Y-18282731D01*
X4133390Y-18282731D02*
X4142913Y-18301779D01*
X4142913Y-18301779D02*
X4142913Y-18406541D01*
X4238152Y-18406541D02*
X4238152Y-18273207D01*
X4238152Y-18292255D02*
X4247675Y-18282731D01*
X4247675Y-18282731D02*
X4266723Y-18273207D01*
X4266723Y-18273207D02*
X4295295Y-18273207D01*
X4295295Y-18273207D02*
X4314342Y-18282731D01*
X4314342Y-18282731D02*
X4323866Y-18301779D01*
X4323866Y-18301779D02*
X4323866Y-18406541D01*
X4323866Y-18301779D02*
X4333390Y-18282731D01*
X4333390Y-18282731D02*
X4352437Y-18273207D01*
X4352437Y-18273207D02*
X4381009Y-18273207D01*
X4381009Y-18273207D02*
X4400056Y-18282731D01*
X4400056Y-18282731D02*
X4409580Y-18301779D01*
X4409580Y-18301779D02*
X4409580Y-18406541D01*
X4800056Y-18197017D02*
X4628628Y-18454160D01*
X5057199Y-18206541D02*
X5076247Y-18206541D01*
X5076247Y-18206541D02*
X5095295Y-18216065D01*
X5095295Y-18216065D02*
X5104818Y-18225588D01*
X5104818Y-18225588D02*
X5114342Y-18244636D01*
X5114342Y-18244636D02*
X5123866Y-18282731D01*
X5123866Y-18282731D02*
X5123866Y-18330350D01*
X5123866Y-18330350D02*
X5114342Y-18368445D01*
X5114342Y-18368445D02*
X5104818Y-18387493D01*
X5104818Y-18387493D02*
X5095295Y-18397017D01*
X5095295Y-18397017D02*
X5076247Y-18406541D01*
X5076247Y-18406541D02*
X5057199Y-18406541D01*
X5057199Y-18406541D02*
X5038152Y-18397017D01*
X5038152Y-18397017D02*
X5028628Y-18387493D01*
X5028628Y-18387493D02*
X5019104Y-18368445D01*
X5019104Y-18368445D02*
X5009580Y-18330350D01*
X5009580Y-18330350D02*
X5009580Y-18282731D01*
X5009580Y-18282731D02*
X5019104Y-18244636D01*
X5019104Y-18244636D02*
X5028628Y-18225588D01*
X5028628Y-18225588D02*
X5038152Y-18216065D01*
X5038152Y-18216065D02*
X5057199Y-18206541D01*
X5209580Y-18387493D02*
X5219104Y-18397017D01*
X5219104Y-18397017D02*
X5209580Y-18406541D01*
X5209580Y-18406541D02*
X5200057Y-18397017D01*
X5200057Y-18397017D02*
X5209580Y-18387493D01*
X5209580Y-18387493D02*
X5209580Y-18406541D01*
X5342914Y-18206541D02*
X5361961Y-18206541D01*
X5361961Y-18206541D02*
X5381009Y-18216065D01*
X5381009Y-18216065D02*
X5390533Y-18225588D01*
X5390533Y-18225588D02*
X5400057Y-18244636D01*
X5400057Y-18244636D02*
X5409580Y-18282731D01*
X5409580Y-18282731D02*
X5409580Y-18330350D01*
X5409580Y-18330350D02*
X5400057Y-18368445D01*
X5400057Y-18368445D02*
X5390533Y-18387493D01*
X5390533Y-18387493D02*
X5381009Y-18397017D01*
X5381009Y-18397017D02*
X5361961Y-18406541D01*
X5361961Y-18406541D02*
X5342914Y-18406541D01*
X5342914Y-18406541D02*
X5323866Y-18397017D01*
X5323866Y-18397017D02*
X5314342Y-18387493D01*
X5314342Y-18387493D02*
X5304818Y-18368445D01*
X5304818Y-18368445D02*
X5295295Y-18330350D01*
X5295295Y-18330350D02*
X5295295Y-18282731D01*
X5295295Y-18282731D02*
X5304818Y-18244636D01*
X5304818Y-18244636D02*
X5314342Y-18225588D01*
X5314342Y-18225588D02*
X5323866Y-18216065D01*
X5323866Y-18216065D02*
X5342914Y-18206541D01*
X5476247Y-18206541D02*
X5600056Y-18206541D01*
X5600056Y-18206541D02*
X5533390Y-18282731D01*
X5533390Y-18282731D02*
X5561961Y-18282731D01*
X5561961Y-18282731D02*
X5581009Y-18292255D01*
X5581009Y-18292255D02*
X5590533Y-18301779D01*
X5590533Y-18301779D02*
X5600056Y-18320826D01*
X5600056Y-18320826D02*
X5600056Y-18368445D01*
X5600056Y-18368445D02*
X5590533Y-18387493D01*
X5590533Y-18387493D02*
X5581009Y-18397017D01*
X5581009Y-18397017D02*
X5561961Y-18406541D01*
X5561961Y-18406541D02*
X5504818Y-18406541D01*
X5504818Y-18406541D02*
X5485771Y-18397017D01*
X5485771Y-18397017D02*
X5476247Y-18387493D01*
X5695295Y-18406541D02*
X5733390Y-18406541D01*
X5733390Y-18406541D02*
X5752437Y-18397017D01*
X5752437Y-18397017D02*
X5761961Y-18387493D01*
X5761961Y-18387493D02*
X5781009Y-18358922D01*
X5781009Y-18358922D02*
X5790533Y-18320826D01*
X5790533Y-18320826D02*
X5790533Y-18244636D01*
X5790533Y-18244636D02*
X5781009Y-18225588D01*
X5781009Y-18225588D02*
X5771485Y-18216065D01*
X5771485Y-18216065D02*
X5752437Y-18206541D01*
X5752437Y-18206541D02*
X5714342Y-18206541D01*
X5714342Y-18206541D02*
X5695295Y-18216065D01*
X5695295Y-18216065D02*
X5685771Y-18225588D01*
X5685771Y-18225588D02*
X5676247Y-18244636D01*
X5676247Y-18244636D02*
X5676247Y-18292255D01*
X5676247Y-18292255D02*
X5685771Y-18311303D01*
X5685771Y-18311303D02*
X5695295Y-18320826D01*
X5695295Y-18320826D02*
X5714342Y-18330350D01*
X5714342Y-18330350D02*
X5752437Y-18330350D01*
X5752437Y-18330350D02*
X5771485Y-18320826D01*
X5771485Y-18320826D02*
X5781009Y-18311303D01*
X5781009Y-18311303D02*
X5790533Y-18292255D01*
X5914342Y-18206541D02*
X5933390Y-18206541D01*
X5933390Y-18206541D02*
X5952437Y-18216065D01*
X5952437Y-18216065D02*
X5961961Y-18225588D01*
X5961961Y-18225588D02*
X5971485Y-18244636D01*
X5971485Y-18244636D02*
X5981009Y-18282731D01*
X5981009Y-18282731D02*
X5981009Y-18330350D01*
X5981009Y-18330350D02*
X5971485Y-18368445D01*
X5971485Y-18368445D02*
X5961961Y-18387493D01*
X5961961Y-18387493D02*
X5952437Y-18397017D01*
X5952437Y-18397017D02*
X5933390Y-18406541D01*
X5933390Y-18406541D02*
X5914342Y-18406541D01*
X5914342Y-18406541D02*
X5895295Y-18397017D01*
X5895295Y-18397017D02*
X5885771Y-18387493D01*
X5885771Y-18387493D02*
X5876247Y-18368445D01*
X5876247Y-18368445D02*
X5866723Y-18330350D01*
X5866723Y-18330350D02*
X5866723Y-18282731D01*
X5866723Y-18282731D02*
X5876247Y-18244636D01*
X5876247Y-18244636D02*
X5885771Y-18225588D01*
X5885771Y-18225588D02*
X5895295Y-18216065D01*
X5895295Y-18216065D02*
X5914342Y-18206541D01*
X6057199Y-18206541D02*
X6057199Y-18244636D01*
X6133390Y-18206541D02*
X6133390Y-18244636D01*
X6428628Y-18482731D02*
X6419104Y-18473207D01*
X6419104Y-18473207D02*
X6400057Y-18444636D01*
X6400057Y-18444636D02*
X6390533Y-18425588D01*
X6390533Y-18425588D02*
X6381009Y-18397017D01*
X6381009Y-18397017D02*
X6371485Y-18349398D01*
X6371485Y-18349398D02*
X6371485Y-18311303D01*
X6371485Y-18311303D02*
X6381009Y-18263684D01*
X6381009Y-18263684D02*
X6390533Y-18235112D01*
X6390533Y-18235112D02*
X6400057Y-18216065D01*
X6400057Y-18216065D02*
X6419104Y-18187493D01*
X6419104Y-18187493D02*
X6428628Y-18177969D01*
X6590533Y-18273207D02*
X6590533Y-18406541D01*
X6542914Y-18197017D02*
X6495295Y-18339874D01*
X6495295Y-18339874D02*
X6619104Y-18339874D01*
X6847676Y-18406541D02*
X6847676Y-18206541D01*
X6933390Y-18406541D02*
X6933390Y-18301779D01*
X6933390Y-18301779D02*
X6923866Y-18282731D01*
X6923866Y-18282731D02*
X6904819Y-18273207D01*
X6904819Y-18273207D02*
X6876247Y-18273207D01*
X6876247Y-18273207D02*
X6857199Y-18282731D01*
X6857199Y-18282731D02*
X6847676Y-18292255D01*
X7057199Y-18406541D02*
X7038152Y-18397017D01*
X7038152Y-18397017D02*
X7028628Y-18387493D01*
X7028628Y-18387493D02*
X7019104Y-18368445D01*
X7019104Y-18368445D02*
X7019104Y-18311303D01*
X7019104Y-18311303D02*
X7028628Y-18292255D01*
X7028628Y-18292255D02*
X7038152Y-18282731D01*
X7038152Y-18282731D02*
X7057199Y-18273207D01*
X7057199Y-18273207D02*
X7085771Y-18273207D01*
X7085771Y-18273207D02*
X7104819Y-18282731D01*
X7104819Y-18282731D02*
X7114342Y-18292255D01*
X7114342Y-18292255D02*
X7123866Y-18311303D01*
X7123866Y-18311303D02*
X7123866Y-18368445D01*
X7123866Y-18368445D02*
X7114342Y-18387493D01*
X7114342Y-18387493D02*
X7104819Y-18397017D01*
X7104819Y-18397017D02*
X7085771Y-18406541D01*
X7085771Y-18406541D02*
X7057199Y-18406541D01*
X7238152Y-18406541D02*
X7219104Y-18397017D01*
X7219104Y-18397017D02*
X7209580Y-18377969D01*
X7209580Y-18377969D02*
X7209580Y-18206541D01*
X7390533Y-18397017D02*
X7371485Y-18406541D01*
X7371485Y-18406541D02*
X7333390Y-18406541D01*
X7333390Y-18406541D02*
X7314342Y-18397017D01*
X7314342Y-18397017D02*
X7304819Y-18377969D01*
X7304819Y-18377969D02*
X7304819Y-18301779D01*
X7304819Y-18301779D02*
X7314342Y-18282731D01*
X7314342Y-18282731D02*
X7333390Y-18273207D01*
X7333390Y-18273207D02*
X7371485Y-18273207D01*
X7371485Y-18273207D02*
X7390533Y-18282731D01*
X7390533Y-18282731D02*
X7400057Y-18301779D01*
X7400057Y-18301779D02*
X7400057Y-18320826D01*
X7400057Y-18320826D02*
X7304819Y-18339874D01*
X7476247Y-18397017D02*
X7495295Y-18406541D01*
X7495295Y-18406541D02*
X7533390Y-18406541D01*
X7533390Y-18406541D02*
X7552438Y-18397017D01*
X7552438Y-18397017D02*
X7561961Y-18377969D01*
X7561961Y-18377969D02*
X7561961Y-18368445D01*
X7561961Y-18368445D02*
X7552438Y-18349398D01*
X7552438Y-18349398D02*
X7533390Y-18339874D01*
X7533390Y-18339874D02*
X7504819Y-18339874D01*
X7504819Y-18339874D02*
X7485771Y-18330350D01*
X7485771Y-18330350D02*
X7476247Y-18311303D01*
X7476247Y-18311303D02*
X7476247Y-18301779D01*
X7476247Y-18301779D02*
X7485771Y-18282731D01*
X7485771Y-18282731D02*
X7504819Y-18273207D01*
X7504819Y-18273207D02*
X7533390Y-18273207D01*
X7533390Y-18273207D02*
X7552438Y-18282731D01*
X7628628Y-18482731D02*
X7638152Y-18473207D01*
X7638152Y-18473207D02*
X7657200Y-18444636D01*
X7657200Y-18444636D02*
X7666723Y-18425588D01*
X7666723Y-18425588D02*
X7676247Y-18397017D01*
X7676247Y-18397017D02*
X7685771Y-18349398D01*
X7685771Y-18349398D02*
X7685771Y-18311303D01*
X7685771Y-18311303D02*
X7676247Y-18263684D01*
X7676247Y-18263684D02*
X7666723Y-18235112D01*
X7666723Y-18235112D02*
X7657200Y-18216065D01*
X7657200Y-18216065D02*
X7638152Y-18187493D01*
X7638152Y-18187493D02*
X7628628Y-18177969D01*
D15*
X2850728Y-18616632D02*
X2850728Y-18539401D01*
X2773498Y-18539401D01*
X2773498Y-18616632D01*
X2850728Y-18616632D01*
D11*
X3219104Y-18670541D02*
X3104818Y-18670541D01*
X3161961Y-18670541D02*
X3161961Y-18470541D01*
X3161961Y-18470541D02*
X3142913Y-18499112D01*
X3142913Y-18499112D02*
X3123866Y-18518160D01*
X3123866Y-18518160D02*
X3104818Y-18527684D01*
X3304818Y-18651493D02*
X3314342Y-18661017D01*
X3314342Y-18661017D02*
X3304818Y-18670541D01*
X3304818Y-18670541D02*
X3295294Y-18661017D01*
X3295294Y-18661017D02*
X3304818Y-18651493D01*
X3304818Y-18651493D02*
X3304818Y-18670541D01*
X3438151Y-18470541D02*
X3457199Y-18470541D01*
X3457199Y-18470541D02*
X3476247Y-18480065D01*
X3476247Y-18480065D02*
X3485771Y-18489588D01*
X3485771Y-18489588D02*
X3495294Y-18508636D01*
X3495294Y-18508636D02*
X3504818Y-18546731D01*
X3504818Y-18546731D02*
X3504818Y-18594350D01*
X3504818Y-18594350D02*
X3495294Y-18632445D01*
X3495294Y-18632445D02*
X3485771Y-18651493D01*
X3485771Y-18651493D02*
X3476247Y-18661017D01*
X3476247Y-18661017D02*
X3457199Y-18670541D01*
X3457199Y-18670541D02*
X3438151Y-18670541D01*
X3438151Y-18670541D02*
X3419104Y-18661017D01*
X3419104Y-18661017D02*
X3409580Y-18651493D01*
X3409580Y-18651493D02*
X3400056Y-18632445D01*
X3400056Y-18632445D02*
X3390532Y-18594350D01*
X3390532Y-18594350D02*
X3390532Y-18546731D01*
X3390532Y-18546731D02*
X3400056Y-18508636D01*
X3400056Y-18508636D02*
X3409580Y-18489588D01*
X3409580Y-18489588D02*
X3419104Y-18480065D01*
X3419104Y-18480065D02*
X3438151Y-18470541D01*
X3600056Y-18670541D02*
X3638151Y-18670541D01*
X3638151Y-18670541D02*
X3657199Y-18661017D01*
X3657199Y-18661017D02*
X3666723Y-18651493D01*
X3666723Y-18651493D02*
X3685771Y-18622922D01*
X3685771Y-18622922D02*
X3695294Y-18584826D01*
X3695294Y-18584826D02*
X3695294Y-18508636D01*
X3695294Y-18508636D02*
X3685771Y-18489588D01*
X3685771Y-18489588D02*
X3676247Y-18480065D01*
X3676247Y-18480065D02*
X3657199Y-18470541D01*
X3657199Y-18470541D02*
X3619104Y-18470541D01*
X3619104Y-18470541D02*
X3600056Y-18480065D01*
X3600056Y-18480065D02*
X3590532Y-18489588D01*
X3590532Y-18489588D02*
X3581009Y-18508636D01*
X3581009Y-18508636D02*
X3581009Y-18556255D01*
X3581009Y-18556255D02*
X3590532Y-18575303D01*
X3590532Y-18575303D02*
X3600056Y-18584826D01*
X3600056Y-18584826D02*
X3619104Y-18594350D01*
X3619104Y-18594350D02*
X3657199Y-18594350D01*
X3657199Y-18594350D02*
X3676247Y-18584826D01*
X3676247Y-18584826D02*
X3685771Y-18575303D01*
X3685771Y-18575303D02*
X3695294Y-18556255D01*
X3771485Y-18489588D02*
X3781009Y-18480065D01*
X3781009Y-18480065D02*
X3800056Y-18470541D01*
X3800056Y-18470541D02*
X3847675Y-18470541D01*
X3847675Y-18470541D02*
X3866723Y-18480065D01*
X3866723Y-18480065D02*
X3876247Y-18489588D01*
X3876247Y-18489588D02*
X3885771Y-18508636D01*
X3885771Y-18508636D02*
X3885771Y-18527684D01*
X3885771Y-18527684D02*
X3876247Y-18556255D01*
X3876247Y-18556255D02*
X3761961Y-18670541D01*
X3761961Y-18670541D02*
X3885771Y-18670541D01*
X3971485Y-18670541D02*
X3971485Y-18537207D01*
X3971485Y-18556255D02*
X3981009Y-18546731D01*
X3981009Y-18546731D02*
X4000056Y-18537207D01*
X4000056Y-18537207D02*
X4028628Y-18537207D01*
X4028628Y-18537207D02*
X4047675Y-18546731D01*
X4047675Y-18546731D02*
X4057199Y-18565779D01*
X4057199Y-18565779D02*
X4057199Y-18670541D01*
X4057199Y-18565779D02*
X4066723Y-18546731D01*
X4066723Y-18546731D02*
X4085771Y-18537207D01*
X4085771Y-18537207D02*
X4114342Y-18537207D01*
X4114342Y-18537207D02*
X4133390Y-18546731D01*
X4133390Y-18546731D02*
X4142913Y-18565779D01*
X4142913Y-18565779D02*
X4142913Y-18670541D01*
X4238152Y-18670541D02*
X4238152Y-18537207D01*
X4238152Y-18556255D02*
X4247675Y-18546731D01*
X4247675Y-18546731D02*
X4266723Y-18537207D01*
X4266723Y-18537207D02*
X4295295Y-18537207D01*
X4295295Y-18537207D02*
X4314342Y-18546731D01*
X4314342Y-18546731D02*
X4323866Y-18565779D01*
X4323866Y-18565779D02*
X4323866Y-18670541D01*
X4323866Y-18565779D02*
X4333390Y-18546731D01*
X4333390Y-18546731D02*
X4352437Y-18537207D01*
X4352437Y-18537207D02*
X4381009Y-18537207D01*
X4381009Y-18537207D02*
X4400056Y-18546731D01*
X4400056Y-18546731D02*
X4409580Y-18565779D01*
X4409580Y-18565779D02*
X4409580Y-18670541D01*
X4800056Y-18461017D02*
X4628628Y-18718160D01*
X5057199Y-18470541D02*
X5076247Y-18470541D01*
X5076247Y-18470541D02*
X5095295Y-18480065D01*
X5095295Y-18480065D02*
X5104818Y-18489588D01*
X5104818Y-18489588D02*
X5114342Y-18508636D01*
X5114342Y-18508636D02*
X5123866Y-18546731D01*
X5123866Y-18546731D02*
X5123866Y-18594350D01*
X5123866Y-18594350D02*
X5114342Y-18632445D01*
X5114342Y-18632445D02*
X5104818Y-18651493D01*
X5104818Y-18651493D02*
X5095295Y-18661017D01*
X5095295Y-18661017D02*
X5076247Y-18670541D01*
X5076247Y-18670541D02*
X5057199Y-18670541D01*
X5057199Y-18670541D02*
X5038152Y-18661017D01*
X5038152Y-18661017D02*
X5028628Y-18651493D01*
X5028628Y-18651493D02*
X5019104Y-18632445D01*
X5019104Y-18632445D02*
X5009580Y-18594350D01*
X5009580Y-18594350D02*
X5009580Y-18546731D01*
X5009580Y-18546731D02*
X5019104Y-18508636D01*
X5019104Y-18508636D02*
X5028628Y-18489588D01*
X5028628Y-18489588D02*
X5038152Y-18480065D01*
X5038152Y-18480065D02*
X5057199Y-18470541D01*
X5209580Y-18651493D02*
X5219104Y-18661017D01*
X5219104Y-18661017D02*
X5209580Y-18670541D01*
X5209580Y-18670541D02*
X5200057Y-18661017D01*
X5200057Y-18661017D02*
X5209580Y-18651493D01*
X5209580Y-18651493D02*
X5209580Y-18670541D01*
X5342914Y-18470541D02*
X5361961Y-18470541D01*
X5361961Y-18470541D02*
X5381009Y-18480065D01*
X5381009Y-18480065D02*
X5390533Y-18489588D01*
X5390533Y-18489588D02*
X5400057Y-18508636D01*
X5400057Y-18508636D02*
X5409580Y-18546731D01*
X5409580Y-18546731D02*
X5409580Y-18594350D01*
X5409580Y-18594350D02*
X5400057Y-18632445D01*
X5400057Y-18632445D02*
X5390533Y-18651493D01*
X5390533Y-18651493D02*
X5381009Y-18661017D01*
X5381009Y-18661017D02*
X5361961Y-18670541D01*
X5361961Y-18670541D02*
X5342914Y-18670541D01*
X5342914Y-18670541D02*
X5323866Y-18661017D01*
X5323866Y-18661017D02*
X5314342Y-18651493D01*
X5314342Y-18651493D02*
X5304818Y-18632445D01*
X5304818Y-18632445D02*
X5295295Y-18594350D01*
X5295295Y-18594350D02*
X5295295Y-18546731D01*
X5295295Y-18546731D02*
X5304818Y-18508636D01*
X5304818Y-18508636D02*
X5314342Y-18489588D01*
X5314342Y-18489588D02*
X5323866Y-18480065D01*
X5323866Y-18480065D02*
X5342914Y-18470541D01*
X5581009Y-18537207D02*
X5581009Y-18670541D01*
X5533390Y-18461017D02*
X5485771Y-18603874D01*
X5485771Y-18603874D02*
X5609580Y-18603874D01*
X5666723Y-18470541D02*
X5790533Y-18470541D01*
X5790533Y-18470541D02*
X5723866Y-18546731D01*
X5723866Y-18546731D02*
X5752437Y-18546731D01*
X5752437Y-18546731D02*
X5771485Y-18556255D01*
X5771485Y-18556255D02*
X5781009Y-18565779D01*
X5781009Y-18565779D02*
X5790533Y-18584826D01*
X5790533Y-18584826D02*
X5790533Y-18632445D01*
X5790533Y-18632445D02*
X5781009Y-18651493D01*
X5781009Y-18651493D02*
X5771485Y-18661017D01*
X5771485Y-18661017D02*
X5752437Y-18670541D01*
X5752437Y-18670541D02*
X5695295Y-18670541D01*
X5695295Y-18670541D02*
X5676247Y-18661017D01*
X5676247Y-18661017D02*
X5666723Y-18651493D01*
X5914342Y-18470541D02*
X5933390Y-18470541D01*
X5933390Y-18470541D02*
X5952437Y-18480065D01*
X5952437Y-18480065D02*
X5961961Y-18489588D01*
X5961961Y-18489588D02*
X5971485Y-18508636D01*
X5971485Y-18508636D02*
X5981009Y-18546731D01*
X5981009Y-18546731D02*
X5981009Y-18594350D01*
X5981009Y-18594350D02*
X5971485Y-18632445D01*
X5971485Y-18632445D02*
X5961961Y-18651493D01*
X5961961Y-18651493D02*
X5952437Y-18661017D01*
X5952437Y-18661017D02*
X5933390Y-18670541D01*
X5933390Y-18670541D02*
X5914342Y-18670541D01*
X5914342Y-18670541D02*
X5895295Y-18661017D01*
X5895295Y-18661017D02*
X5885771Y-18651493D01*
X5885771Y-18651493D02*
X5876247Y-18632445D01*
X5876247Y-18632445D02*
X5866723Y-18594350D01*
X5866723Y-18594350D02*
X5866723Y-18546731D01*
X5866723Y-18546731D02*
X5876247Y-18508636D01*
X5876247Y-18508636D02*
X5885771Y-18489588D01*
X5885771Y-18489588D02*
X5895295Y-18480065D01*
X5895295Y-18480065D02*
X5914342Y-18470541D01*
X6057199Y-18470541D02*
X6057199Y-18508636D01*
X6133390Y-18470541D02*
X6133390Y-18508636D01*
X6428628Y-18746731D02*
X6419104Y-18737207D01*
X6419104Y-18737207D02*
X6400057Y-18708636D01*
X6400057Y-18708636D02*
X6390533Y-18689588D01*
X6390533Y-18689588D02*
X6381009Y-18661017D01*
X6381009Y-18661017D02*
X6371485Y-18613398D01*
X6371485Y-18613398D02*
X6371485Y-18575303D01*
X6371485Y-18575303D02*
X6381009Y-18527684D01*
X6381009Y-18527684D02*
X6390533Y-18499112D01*
X6390533Y-18499112D02*
X6400057Y-18480065D01*
X6400057Y-18480065D02*
X6419104Y-18451493D01*
X6419104Y-18451493D02*
X6428628Y-18441969D01*
X6495295Y-18489588D02*
X6504818Y-18480065D01*
X6504818Y-18480065D02*
X6523866Y-18470541D01*
X6523866Y-18470541D02*
X6571485Y-18470541D01*
X6571485Y-18470541D02*
X6590533Y-18480065D01*
X6590533Y-18480065D02*
X6600057Y-18489588D01*
X6600057Y-18489588D02*
X6609580Y-18508636D01*
X6609580Y-18508636D02*
X6609580Y-18527684D01*
X6609580Y-18527684D02*
X6600057Y-18556255D01*
X6600057Y-18556255D02*
X6485771Y-18670541D01*
X6485771Y-18670541D02*
X6609580Y-18670541D01*
X6781009Y-18537207D02*
X6781009Y-18670541D01*
X6733390Y-18461017D02*
X6685771Y-18603874D01*
X6685771Y-18603874D02*
X6809580Y-18603874D01*
X7038152Y-18670541D02*
X7038152Y-18470541D01*
X7123866Y-18670541D02*
X7123866Y-18565779D01*
X7123866Y-18565779D02*
X7114342Y-18546731D01*
X7114342Y-18546731D02*
X7095295Y-18537207D01*
X7095295Y-18537207D02*
X7066723Y-18537207D01*
X7066723Y-18537207D02*
X7047676Y-18546731D01*
X7047676Y-18546731D02*
X7038152Y-18556255D01*
X7247676Y-18670541D02*
X7228628Y-18661017D01*
X7228628Y-18661017D02*
X7219104Y-18651493D01*
X7219104Y-18651493D02*
X7209580Y-18632445D01*
X7209580Y-18632445D02*
X7209580Y-18575303D01*
X7209580Y-18575303D02*
X7219104Y-18556255D01*
X7219104Y-18556255D02*
X7228628Y-18546731D01*
X7228628Y-18546731D02*
X7247676Y-18537207D01*
X7247676Y-18537207D02*
X7276247Y-18537207D01*
X7276247Y-18537207D02*
X7295295Y-18546731D01*
X7295295Y-18546731D02*
X7304819Y-18556255D01*
X7304819Y-18556255D02*
X7314342Y-18575303D01*
X7314342Y-18575303D02*
X7314342Y-18632445D01*
X7314342Y-18632445D02*
X7304819Y-18651493D01*
X7304819Y-18651493D02*
X7295295Y-18661017D01*
X7295295Y-18661017D02*
X7276247Y-18670541D01*
X7276247Y-18670541D02*
X7247676Y-18670541D01*
X7428628Y-18670541D02*
X7409580Y-18661017D01*
X7409580Y-18661017D02*
X7400057Y-18641969D01*
X7400057Y-18641969D02*
X7400057Y-18470541D01*
X7581009Y-18661017D02*
X7561961Y-18670541D01*
X7561961Y-18670541D02*
X7523866Y-18670541D01*
X7523866Y-18670541D02*
X7504819Y-18661017D01*
X7504819Y-18661017D02*
X7495295Y-18641969D01*
X7495295Y-18641969D02*
X7495295Y-18565779D01*
X7495295Y-18565779D02*
X7504819Y-18546731D01*
X7504819Y-18546731D02*
X7523866Y-18537207D01*
X7523866Y-18537207D02*
X7561961Y-18537207D01*
X7561961Y-18537207D02*
X7581009Y-18546731D01*
X7581009Y-18546731D02*
X7590533Y-18565779D01*
X7590533Y-18565779D02*
X7590533Y-18584826D01*
X7590533Y-18584826D02*
X7495295Y-18603874D01*
X7666723Y-18661017D02*
X7685771Y-18670541D01*
X7685771Y-18670541D02*
X7723866Y-18670541D01*
X7723866Y-18670541D02*
X7742914Y-18661017D01*
X7742914Y-18661017D02*
X7752438Y-18641969D01*
X7752438Y-18641969D02*
X7752438Y-18632445D01*
X7752438Y-18632445D02*
X7742914Y-18613398D01*
X7742914Y-18613398D02*
X7723866Y-18603874D01*
X7723866Y-18603874D02*
X7695295Y-18603874D01*
X7695295Y-18603874D02*
X7676247Y-18594350D01*
X7676247Y-18594350D02*
X7666723Y-18575303D01*
X7666723Y-18575303D02*
X7666723Y-18565779D01*
X7666723Y-18565779D02*
X7676247Y-18546731D01*
X7676247Y-18546731D02*
X7695295Y-18537207D01*
X7695295Y-18537207D02*
X7723866Y-18537207D01*
X7723866Y-18537207D02*
X7742914Y-18546731D01*
X7819104Y-18746731D02*
X7828628Y-18737207D01*
X7828628Y-18737207D02*
X7847676Y-18708636D01*
X7847676Y-18708636D02*
X7857200Y-18689588D01*
X7857200Y-18689588D02*
X7866723Y-18661017D01*
X7866723Y-18661017D02*
X7876247Y-18613398D01*
X7876247Y-18613398D02*
X7876247Y-18575303D01*
X7876247Y-18575303D02*
X7866723Y-18527684D01*
X7866723Y-18527684D02*
X7857200Y-18499112D01*
X7857200Y-18499112D02*
X7847676Y-18480065D01*
X7847676Y-18480065D02*
X7828628Y-18451493D01*
X7828628Y-18451493D02*
X7819104Y-18441969D01*
D16*
X2811723Y-18897017D02*
X2866723Y-18842017D01*
X2811723Y-18787017D01*
X2756723Y-18842017D01*
X2811723Y-18897017D01*
D11*
X3219104Y-18934541D02*
X3104818Y-18934541D01*
X3161961Y-18934541D02*
X3161961Y-18734541D01*
X3161961Y-18734541D02*
X3142913Y-18763112D01*
X3142913Y-18763112D02*
X3123866Y-18782160D01*
X3123866Y-18782160D02*
X3104818Y-18791684D01*
X3304818Y-18915493D02*
X3314342Y-18925017D01*
X3314342Y-18925017D02*
X3304818Y-18934541D01*
X3304818Y-18934541D02*
X3295294Y-18925017D01*
X3295294Y-18925017D02*
X3304818Y-18915493D01*
X3304818Y-18915493D02*
X3304818Y-18934541D01*
X3504818Y-18934541D02*
X3390532Y-18934541D01*
X3447675Y-18934541D02*
X3447675Y-18734541D01*
X3447675Y-18734541D02*
X3428628Y-18763112D01*
X3428628Y-18763112D02*
X3409580Y-18782160D01*
X3409580Y-18782160D02*
X3390532Y-18791684D01*
X3628628Y-18734541D02*
X3647675Y-18734541D01*
X3647675Y-18734541D02*
X3666723Y-18744065D01*
X3666723Y-18744065D02*
X3676247Y-18753588D01*
X3676247Y-18753588D02*
X3685771Y-18772636D01*
X3685771Y-18772636D02*
X3695294Y-18810731D01*
X3695294Y-18810731D02*
X3695294Y-18858350D01*
X3695294Y-18858350D02*
X3685771Y-18896445D01*
X3685771Y-18896445D02*
X3676247Y-18915493D01*
X3676247Y-18915493D02*
X3666723Y-18925017D01*
X3666723Y-18925017D02*
X3647675Y-18934541D01*
X3647675Y-18934541D02*
X3628628Y-18934541D01*
X3628628Y-18934541D02*
X3609580Y-18925017D01*
X3609580Y-18925017D02*
X3600056Y-18915493D01*
X3600056Y-18915493D02*
X3590532Y-18896445D01*
X3590532Y-18896445D02*
X3581009Y-18858350D01*
X3581009Y-18858350D02*
X3581009Y-18810731D01*
X3581009Y-18810731D02*
X3590532Y-18772636D01*
X3590532Y-18772636D02*
X3600056Y-18753588D01*
X3600056Y-18753588D02*
X3609580Y-18744065D01*
X3609580Y-18744065D02*
X3628628Y-18734541D01*
X3819104Y-18734541D02*
X3838152Y-18734541D01*
X3838152Y-18734541D02*
X3857199Y-18744065D01*
X3857199Y-18744065D02*
X3866723Y-18753588D01*
X3866723Y-18753588D02*
X3876247Y-18772636D01*
X3876247Y-18772636D02*
X3885771Y-18810731D01*
X3885771Y-18810731D02*
X3885771Y-18858350D01*
X3885771Y-18858350D02*
X3876247Y-18896445D01*
X3876247Y-18896445D02*
X3866723Y-18915493D01*
X3866723Y-18915493D02*
X3857199Y-18925017D01*
X3857199Y-18925017D02*
X3838152Y-18934541D01*
X3838152Y-18934541D02*
X3819104Y-18934541D01*
X3819104Y-18934541D02*
X3800056Y-18925017D01*
X3800056Y-18925017D02*
X3790532Y-18915493D01*
X3790532Y-18915493D02*
X3781009Y-18896445D01*
X3781009Y-18896445D02*
X3771485Y-18858350D01*
X3771485Y-18858350D02*
X3771485Y-18810731D01*
X3771485Y-18810731D02*
X3781009Y-18772636D01*
X3781009Y-18772636D02*
X3790532Y-18753588D01*
X3790532Y-18753588D02*
X3800056Y-18744065D01*
X3800056Y-18744065D02*
X3819104Y-18734541D01*
X3971485Y-18934541D02*
X3971485Y-18801207D01*
X3971485Y-18820255D02*
X3981009Y-18810731D01*
X3981009Y-18810731D02*
X4000056Y-18801207D01*
X4000056Y-18801207D02*
X4028628Y-18801207D01*
X4028628Y-18801207D02*
X4047675Y-18810731D01*
X4047675Y-18810731D02*
X4057199Y-18829779D01*
X4057199Y-18829779D02*
X4057199Y-18934541D01*
X4057199Y-18829779D02*
X4066723Y-18810731D01*
X4066723Y-18810731D02*
X4085771Y-18801207D01*
X4085771Y-18801207D02*
X4114342Y-18801207D01*
X4114342Y-18801207D02*
X4133390Y-18810731D01*
X4133390Y-18810731D02*
X4142913Y-18829779D01*
X4142913Y-18829779D02*
X4142913Y-18934541D01*
X4238152Y-18934541D02*
X4238152Y-18801207D01*
X4238152Y-18820255D02*
X4247675Y-18810731D01*
X4247675Y-18810731D02*
X4266723Y-18801207D01*
X4266723Y-18801207D02*
X4295295Y-18801207D01*
X4295295Y-18801207D02*
X4314342Y-18810731D01*
X4314342Y-18810731D02*
X4323866Y-18829779D01*
X4323866Y-18829779D02*
X4323866Y-18934541D01*
X4323866Y-18829779D02*
X4333390Y-18810731D01*
X4333390Y-18810731D02*
X4352437Y-18801207D01*
X4352437Y-18801207D02*
X4381009Y-18801207D01*
X4381009Y-18801207D02*
X4400056Y-18810731D01*
X4400056Y-18810731D02*
X4409580Y-18829779D01*
X4409580Y-18829779D02*
X4409580Y-18934541D01*
X4800056Y-18725017D02*
X4628628Y-18982160D01*
X5057199Y-18734541D02*
X5076247Y-18734541D01*
X5076247Y-18734541D02*
X5095295Y-18744065D01*
X5095295Y-18744065D02*
X5104818Y-18753588D01*
X5104818Y-18753588D02*
X5114342Y-18772636D01*
X5114342Y-18772636D02*
X5123866Y-18810731D01*
X5123866Y-18810731D02*
X5123866Y-18858350D01*
X5123866Y-18858350D02*
X5114342Y-18896445D01*
X5114342Y-18896445D02*
X5104818Y-18915493D01*
X5104818Y-18915493D02*
X5095295Y-18925017D01*
X5095295Y-18925017D02*
X5076247Y-18934541D01*
X5076247Y-18934541D02*
X5057199Y-18934541D01*
X5057199Y-18934541D02*
X5038152Y-18925017D01*
X5038152Y-18925017D02*
X5028628Y-18915493D01*
X5028628Y-18915493D02*
X5019104Y-18896445D01*
X5019104Y-18896445D02*
X5009580Y-18858350D01*
X5009580Y-18858350D02*
X5009580Y-18810731D01*
X5009580Y-18810731D02*
X5019104Y-18772636D01*
X5019104Y-18772636D02*
X5028628Y-18753588D01*
X5028628Y-18753588D02*
X5038152Y-18744065D01*
X5038152Y-18744065D02*
X5057199Y-18734541D01*
X5209580Y-18915493D02*
X5219104Y-18925017D01*
X5219104Y-18925017D02*
X5209580Y-18934541D01*
X5209580Y-18934541D02*
X5200057Y-18925017D01*
X5200057Y-18925017D02*
X5209580Y-18915493D01*
X5209580Y-18915493D02*
X5209580Y-18934541D01*
X5342914Y-18734541D02*
X5361961Y-18734541D01*
X5361961Y-18734541D02*
X5381009Y-18744065D01*
X5381009Y-18744065D02*
X5390533Y-18753588D01*
X5390533Y-18753588D02*
X5400057Y-18772636D01*
X5400057Y-18772636D02*
X5409580Y-18810731D01*
X5409580Y-18810731D02*
X5409580Y-18858350D01*
X5409580Y-18858350D02*
X5400057Y-18896445D01*
X5400057Y-18896445D02*
X5390533Y-18915493D01*
X5390533Y-18915493D02*
X5381009Y-18925017D01*
X5381009Y-18925017D02*
X5361961Y-18934541D01*
X5361961Y-18934541D02*
X5342914Y-18934541D01*
X5342914Y-18934541D02*
X5323866Y-18925017D01*
X5323866Y-18925017D02*
X5314342Y-18915493D01*
X5314342Y-18915493D02*
X5304818Y-18896445D01*
X5304818Y-18896445D02*
X5295295Y-18858350D01*
X5295295Y-18858350D02*
X5295295Y-18810731D01*
X5295295Y-18810731D02*
X5304818Y-18772636D01*
X5304818Y-18772636D02*
X5314342Y-18753588D01*
X5314342Y-18753588D02*
X5323866Y-18744065D01*
X5323866Y-18744065D02*
X5342914Y-18734541D01*
X5581009Y-18801207D02*
X5581009Y-18934541D01*
X5533390Y-18725017D02*
X5485771Y-18867874D01*
X5485771Y-18867874D02*
X5609580Y-18867874D01*
X5666723Y-18734541D02*
X5790533Y-18734541D01*
X5790533Y-18734541D02*
X5723866Y-18810731D01*
X5723866Y-18810731D02*
X5752437Y-18810731D01*
X5752437Y-18810731D02*
X5771485Y-18820255D01*
X5771485Y-18820255D02*
X5781009Y-18829779D01*
X5781009Y-18829779D02*
X5790533Y-18848826D01*
X5790533Y-18848826D02*
X5790533Y-18896445D01*
X5790533Y-18896445D02*
X5781009Y-18915493D01*
X5781009Y-18915493D02*
X5771485Y-18925017D01*
X5771485Y-18925017D02*
X5752437Y-18934541D01*
X5752437Y-18934541D02*
X5695295Y-18934541D01*
X5695295Y-18934541D02*
X5676247Y-18925017D01*
X5676247Y-18925017D02*
X5666723Y-18915493D01*
X5857199Y-18734541D02*
X5981009Y-18734541D01*
X5981009Y-18734541D02*
X5914342Y-18810731D01*
X5914342Y-18810731D02*
X5942914Y-18810731D01*
X5942914Y-18810731D02*
X5961961Y-18820255D01*
X5961961Y-18820255D02*
X5971485Y-18829779D01*
X5971485Y-18829779D02*
X5981009Y-18848826D01*
X5981009Y-18848826D02*
X5981009Y-18896445D01*
X5981009Y-18896445D02*
X5971485Y-18915493D01*
X5971485Y-18915493D02*
X5961961Y-18925017D01*
X5961961Y-18925017D02*
X5942914Y-18934541D01*
X5942914Y-18934541D02*
X5885771Y-18934541D01*
X5885771Y-18934541D02*
X5866723Y-18925017D01*
X5866723Y-18925017D02*
X5857199Y-18915493D01*
X6057199Y-18734541D02*
X6057199Y-18772636D01*
X6133390Y-18734541D02*
X6133390Y-18772636D01*
X6428628Y-19010731D02*
X6419104Y-19001207D01*
X6419104Y-19001207D02*
X6400057Y-18972636D01*
X6400057Y-18972636D02*
X6390533Y-18953588D01*
X6390533Y-18953588D02*
X6381009Y-18925017D01*
X6381009Y-18925017D02*
X6371485Y-18877398D01*
X6371485Y-18877398D02*
X6371485Y-18839303D01*
X6371485Y-18839303D02*
X6381009Y-18791684D01*
X6381009Y-18791684D02*
X6390533Y-18763112D01*
X6390533Y-18763112D02*
X6400057Y-18744065D01*
X6400057Y-18744065D02*
X6419104Y-18715493D01*
X6419104Y-18715493D02*
X6428628Y-18705969D01*
X6485771Y-18734541D02*
X6619104Y-18734541D01*
X6619104Y-18734541D02*
X6533390Y-18934541D01*
X6733390Y-18734541D02*
X6752438Y-18734541D01*
X6752438Y-18734541D02*
X6771485Y-18744065D01*
X6771485Y-18744065D02*
X6781009Y-18753588D01*
X6781009Y-18753588D02*
X6790533Y-18772636D01*
X6790533Y-18772636D02*
X6800057Y-18810731D01*
X6800057Y-18810731D02*
X6800057Y-18858350D01*
X6800057Y-18858350D02*
X6790533Y-18896445D01*
X6790533Y-18896445D02*
X6781009Y-18915493D01*
X6781009Y-18915493D02*
X6771485Y-18925017D01*
X6771485Y-18925017D02*
X6752438Y-18934541D01*
X6752438Y-18934541D02*
X6733390Y-18934541D01*
X6733390Y-18934541D02*
X6714342Y-18925017D01*
X6714342Y-18925017D02*
X6704818Y-18915493D01*
X6704818Y-18915493D02*
X6695295Y-18896445D01*
X6695295Y-18896445D02*
X6685771Y-18858350D01*
X6685771Y-18858350D02*
X6685771Y-18810731D01*
X6685771Y-18810731D02*
X6695295Y-18772636D01*
X6695295Y-18772636D02*
X6704818Y-18753588D01*
X6704818Y-18753588D02*
X6714342Y-18744065D01*
X6714342Y-18744065D02*
X6733390Y-18734541D01*
X7038152Y-18934541D02*
X7038152Y-18734541D01*
X7123866Y-18934541D02*
X7123866Y-18829779D01*
X7123866Y-18829779D02*
X7114342Y-18810731D01*
X7114342Y-18810731D02*
X7095295Y-18801207D01*
X7095295Y-18801207D02*
X7066723Y-18801207D01*
X7066723Y-18801207D02*
X7047676Y-18810731D01*
X7047676Y-18810731D02*
X7038152Y-18820255D01*
X7247676Y-18934541D02*
X7228628Y-18925017D01*
X7228628Y-18925017D02*
X7219104Y-18915493D01*
X7219104Y-18915493D02*
X7209580Y-18896445D01*
X7209580Y-18896445D02*
X7209580Y-18839303D01*
X7209580Y-18839303D02*
X7219104Y-18820255D01*
X7219104Y-18820255D02*
X7228628Y-18810731D01*
X7228628Y-18810731D02*
X7247676Y-18801207D01*
X7247676Y-18801207D02*
X7276247Y-18801207D01*
X7276247Y-18801207D02*
X7295295Y-18810731D01*
X7295295Y-18810731D02*
X7304819Y-18820255D01*
X7304819Y-18820255D02*
X7314342Y-18839303D01*
X7314342Y-18839303D02*
X7314342Y-18896445D01*
X7314342Y-18896445D02*
X7304819Y-18915493D01*
X7304819Y-18915493D02*
X7295295Y-18925017D01*
X7295295Y-18925017D02*
X7276247Y-18934541D01*
X7276247Y-18934541D02*
X7247676Y-18934541D01*
X7428628Y-18934541D02*
X7409580Y-18925017D01*
X7409580Y-18925017D02*
X7400057Y-18905969D01*
X7400057Y-18905969D02*
X7400057Y-18734541D01*
X7581009Y-18925017D02*
X7561961Y-18934541D01*
X7561961Y-18934541D02*
X7523866Y-18934541D01*
X7523866Y-18934541D02*
X7504819Y-18925017D01*
X7504819Y-18925017D02*
X7495295Y-18905969D01*
X7495295Y-18905969D02*
X7495295Y-18829779D01*
X7495295Y-18829779D02*
X7504819Y-18810731D01*
X7504819Y-18810731D02*
X7523866Y-18801207D01*
X7523866Y-18801207D02*
X7561961Y-18801207D01*
X7561961Y-18801207D02*
X7581009Y-18810731D01*
X7581009Y-18810731D02*
X7590533Y-18829779D01*
X7590533Y-18829779D02*
X7590533Y-18848826D01*
X7590533Y-18848826D02*
X7495295Y-18867874D01*
X7666723Y-18925017D02*
X7685771Y-18934541D01*
X7685771Y-18934541D02*
X7723866Y-18934541D01*
X7723866Y-18934541D02*
X7742914Y-18925017D01*
X7742914Y-18925017D02*
X7752438Y-18905969D01*
X7752438Y-18905969D02*
X7752438Y-18896445D01*
X7752438Y-18896445D02*
X7742914Y-18877398D01*
X7742914Y-18877398D02*
X7723866Y-18867874D01*
X7723866Y-18867874D02*
X7695295Y-18867874D01*
X7695295Y-18867874D02*
X7676247Y-18858350D01*
X7676247Y-18858350D02*
X7666723Y-18839303D01*
X7666723Y-18839303D02*
X7666723Y-18829779D01*
X7666723Y-18829779D02*
X7676247Y-18810731D01*
X7676247Y-18810731D02*
X7695295Y-18801207D01*
X7695295Y-18801207D02*
X7723866Y-18801207D01*
X7723866Y-18801207D02*
X7742914Y-18810731D01*
X7819104Y-19010731D02*
X7828628Y-19001207D01*
X7828628Y-19001207D02*
X7847676Y-18972636D01*
X7847676Y-18972636D02*
X7857200Y-18953588D01*
X7857200Y-18953588D02*
X7866723Y-18925017D01*
X7866723Y-18925017D02*
X7876247Y-18877398D01*
X7876247Y-18877398D02*
X7876247Y-18839303D01*
X7876247Y-18839303D02*
X7866723Y-18791684D01*
X7866723Y-18791684D02*
X7857200Y-18763112D01*
X7857200Y-18763112D02*
X7847676Y-18744065D01*
X7847676Y-18744065D02*
X7828628Y-18715493D01*
X7828628Y-18715493D02*
X7819104Y-18705969D01*
D17*
X2716863Y-19031087D02*
X2866723Y-19180947D01*
X2866723Y-19031087D02*
X2716863Y-19180947D01*
X2866723Y-19106017D02*
G75*
G03*
X2866723Y-19106017I-74930J0D01*
G01*
D11*
X3219104Y-19198541D02*
X3104818Y-19198541D01*
X3161961Y-19198541D02*
X3161961Y-18998541D01*
X3161961Y-18998541D02*
X3142913Y-19027112D01*
X3142913Y-19027112D02*
X3123866Y-19046160D01*
X3123866Y-19046160D02*
X3104818Y-19055684D01*
X3304818Y-19179493D02*
X3314342Y-19189017D01*
X3314342Y-19189017D02*
X3304818Y-19198541D01*
X3304818Y-19198541D02*
X3295294Y-19189017D01*
X3295294Y-19189017D02*
X3304818Y-19179493D01*
X3304818Y-19179493D02*
X3304818Y-19198541D01*
X3485771Y-19065207D02*
X3485771Y-19198541D01*
X3438151Y-18989017D02*
X3390532Y-19131874D01*
X3390532Y-19131874D02*
X3514342Y-19131874D01*
X3600056Y-19198541D02*
X3638151Y-19198541D01*
X3638151Y-19198541D02*
X3657199Y-19189017D01*
X3657199Y-19189017D02*
X3666723Y-19179493D01*
X3666723Y-19179493D02*
X3685771Y-19150922D01*
X3685771Y-19150922D02*
X3695294Y-19112826D01*
X3695294Y-19112826D02*
X3695294Y-19036636D01*
X3695294Y-19036636D02*
X3685771Y-19017588D01*
X3685771Y-19017588D02*
X3676247Y-19008065D01*
X3676247Y-19008065D02*
X3657199Y-18998541D01*
X3657199Y-18998541D02*
X3619104Y-18998541D01*
X3619104Y-18998541D02*
X3600056Y-19008065D01*
X3600056Y-19008065D02*
X3590532Y-19017588D01*
X3590532Y-19017588D02*
X3581009Y-19036636D01*
X3581009Y-19036636D02*
X3581009Y-19084255D01*
X3581009Y-19084255D02*
X3590532Y-19103303D01*
X3590532Y-19103303D02*
X3600056Y-19112826D01*
X3600056Y-19112826D02*
X3619104Y-19122350D01*
X3619104Y-19122350D02*
X3657199Y-19122350D01*
X3657199Y-19122350D02*
X3676247Y-19112826D01*
X3676247Y-19112826D02*
X3685771Y-19103303D01*
X3685771Y-19103303D02*
X3695294Y-19084255D01*
X3790532Y-19198541D02*
X3828628Y-19198541D01*
X3828628Y-19198541D02*
X3847675Y-19189017D01*
X3847675Y-19189017D02*
X3857199Y-19179493D01*
X3857199Y-19179493D02*
X3876247Y-19150922D01*
X3876247Y-19150922D02*
X3885771Y-19112826D01*
X3885771Y-19112826D02*
X3885771Y-19036636D01*
X3885771Y-19036636D02*
X3876247Y-19017588D01*
X3876247Y-19017588D02*
X3866723Y-19008065D01*
X3866723Y-19008065D02*
X3847675Y-18998541D01*
X3847675Y-18998541D02*
X3809580Y-18998541D01*
X3809580Y-18998541D02*
X3790532Y-19008065D01*
X3790532Y-19008065D02*
X3781009Y-19017588D01*
X3781009Y-19017588D02*
X3771485Y-19036636D01*
X3771485Y-19036636D02*
X3771485Y-19084255D01*
X3771485Y-19084255D02*
X3781009Y-19103303D01*
X3781009Y-19103303D02*
X3790532Y-19112826D01*
X3790532Y-19112826D02*
X3809580Y-19122350D01*
X3809580Y-19122350D02*
X3847675Y-19122350D01*
X3847675Y-19122350D02*
X3866723Y-19112826D01*
X3866723Y-19112826D02*
X3876247Y-19103303D01*
X3876247Y-19103303D02*
X3885771Y-19084255D01*
X3971485Y-19198541D02*
X3971485Y-19065207D01*
X3971485Y-19084255D02*
X3981009Y-19074731D01*
X3981009Y-19074731D02*
X4000056Y-19065207D01*
X4000056Y-19065207D02*
X4028628Y-19065207D01*
X4028628Y-19065207D02*
X4047675Y-19074731D01*
X4047675Y-19074731D02*
X4057199Y-19093779D01*
X4057199Y-19093779D02*
X4057199Y-19198541D01*
X4057199Y-19093779D02*
X4066723Y-19074731D01*
X4066723Y-19074731D02*
X4085771Y-19065207D01*
X4085771Y-19065207D02*
X4114342Y-19065207D01*
X4114342Y-19065207D02*
X4133390Y-19074731D01*
X4133390Y-19074731D02*
X4142913Y-19093779D01*
X4142913Y-19093779D02*
X4142913Y-19198541D01*
X4238152Y-19198541D02*
X4238152Y-19065207D01*
X4238152Y-19084255D02*
X4247675Y-19074731D01*
X4247675Y-19074731D02*
X4266723Y-19065207D01*
X4266723Y-19065207D02*
X4295295Y-19065207D01*
X4295295Y-19065207D02*
X4314342Y-19074731D01*
X4314342Y-19074731D02*
X4323866Y-19093779D01*
X4323866Y-19093779D02*
X4323866Y-19198541D01*
X4323866Y-19093779D02*
X4333390Y-19074731D01*
X4333390Y-19074731D02*
X4352437Y-19065207D01*
X4352437Y-19065207D02*
X4381009Y-19065207D01*
X4381009Y-19065207D02*
X4400056Y-19074731D01*
X4400056Y-19074731D02*
X4409580Y-19093779D01*
X4409580Y-19093779D02*
X4409580Y-19198541D01*
X4800056Y-18989017D02*
X4628628Y-19246160D01*
X5057199Y-18998541D02*
X5076247Y-18998541D01*
X5076247Y-18998541D02*
X5095295Y-19008065D01*
X5095295Y-19008065D02*
X5104818Y-19017588D01*
X5104818Y-19017588D02*
X5114342Y-19036636D01*
X5114342Y-19036636D02*
X5123866Y-19074731D01*
X5123866Y-19074731D02*
X5123866Y-19122350D01*
X5123866Y-19122350D02*
X5114342Y-19160445D01*
X5114342Y-19160445D02*
X5104818Y-19179493D01*
X5104818Y-19179493D02*
X5095295Y-19189017D01*
X5095295Y-19189017D02*
X5076247Y-19198541D01*
X5076247Y-19198541D02*
X5057199Y-19198541D01*
X5057199Y-19198541D02*
X5038152Y-19189017D01*
X5038152Y-19189017D02*
X5028628Y-19179493D01*
X5028628Y-19179493D02*
X5019104Y-19160445D01*
X5019104Y-19160445D02*
X5009580Y-19122350D01*
X5009580Y-19122350D02*
X5009580Y-19074731D01*
X5009580Y-19074731D02*
X5019104Y-19036636D01*
X5019104Y-19036636D02*
X5028628Y-19017588D01*
X5028628Y-19017588D02*
X5038152Y-19008065D01*
X5038152Y-19008065D02*
X5057199Y-18998541D01*
X5209580Y-19179493D02*
X5219104Y-19189017D01*
X5219104Y-19189017D02*
X5209580Y-19198541D01*
X5209580Y-19198541D02*
X5200057Y-19189017D01*
X5200057Y-19189017D02*
X5209580Y-19179493D01*
X5209580Y-19179493D02*
X5209580Y-19198541D01*
X5342914Y-18998541D02*
X5361961Y-18998541D01*
X5361961Y-18998541D02*
X5381009Y-19008065D01*
X5381009Y-19008065D02*
X5390533Y-19017588D01*
X5390533Y-19017588D02*
X5400057Y-19036636D01*
X5400057Y-19036636D02*
X5409580Y-19074731D01*
X5409580Y-19074731D02*
X5409580Y-19122350D01*
X5409580Y-19122350D02*
X5400057Y-19160445D01*
X5400057Y-19160445D02*
X5390533Y-19179493D01*
X5390533Y-19179493D02*
X5381009Y-19189017D01*
X5381009Y-19189017D02*
X5361961Y-19198541D01*
X5361961Y-19198541D02*
X5342914Y-19198541D01*
X5342914Y-19198541D02*
X5323866Y-19189017D01*
X5323866Y-19189017D02*
X5314342Y-19179493D01*
X5314342Y-19179493D02*
X5304818Y-19160445D01*
X5304818Y-19160445D02*
X5295295Y-19122350D01*
X5295295Y-19122350D02*
X5295295Y-19074731D01*
X5295295Y-19074731D02*
X5304818Y-19036636D01*
X5304818Y-19036636D02*
X5314342Y-19017588D01*
X5314342Y-19017588D02*
X5323866Y-19008065D01*
X5323866Y-19008065D02*
X5342914Y-18998541D01*
X5590533Y-18998541D02*
X5495295Y-18998541D01*
X5495295Y-18998541D02*
X5485771Y-19093779D01*
X5485771Y-19093779D02*
X5495295Y-19084255D01*
X5495295Y-19084255D02*
X5514342Y-19074731D01*
X5514342Y-19074731D02*
X5561961Y-19074731D01*
X5561961Y-19074731D02*
X5581009Y-19084255D01*
X5581009Y-19084255D02*
X5590533Y-19093779D01*
X5590533Y-19093779D02*
X5600056Y-19112826D01*
X5600056Y-19112826D02*
X5600056Y-19160445D01*
X5600056Y-19160445D02*
X5590533Y-19179493D01*
X5590533Y-19179493D02*
X5581009Y-19189017D01*
X5581009Y-19189017D02*
X5561961Y-19198541D01*
X5561961Y-19198541D02*
X5514342Y-19198541D01*
X5514342Y-19198541D02*
X5495295Y-19189017D01*
X5495295Y-19189017D02*
X5485771Y-19179493D01*
X5695295Y-19198541D02*
X5733390Y-19198541D01*
X5733390Y-19198541D02*
X5752437Y-19189017D01*
X5752437Y-19189017D02*
X5761961Y-19179493D01*
X5761961Y-19179493D02*
X5781009Y-19150922D01*
X5781009Y-19150922D02*
X5790533Y-19112826D01*
X5790533Y-19112826D02*
X5790533Y-19036636D01*
X5790533Y-19036636D02*
X5781009Y-19017588D01*
X5781009Y-19017588D02*
X5771485Y-19008065D01*
X5771485Y-19008065D02*
X5752437Y-18998541D01*
X5752437Y-18998541D02*
X5714342Y-18998541D01*
X5714342Y-18998541D02*
X5695295Y-19008065D01*
X5695295Y-19008065D02*
X5685771Y-19017588D01*
X5685771Y-19017588D02*
X5676247Y-19036636D01*
X5676247Y-19036636D02*
X5676247Y-19084255D01*
X5676247Y-19084255D02*
X5685771Y-19103303D01*
X5685771Y-19103303D02*
X5695295Y-19112826D01*
X5695295Y-19112826D02*
X5714342Y-19122350D01*
X5714342Y-19122350D02*
X5752437Y-19122350D01*
X5752437Y-19122350D02*
X5771485Y-19112826D01*
X5771485Y-19112826D02*
X5781009Y-19103303D01*
X5781009Y-19103303D02*
X5790533Y-19084255D01*
X5914342Y-18998541D02*
X5933390Y-18998541D01*
X5933390Y-18998541D02*
X5952437Y-19008065D01*
X5952437Y-19008065D02*
X5961961Y-19017588D01*
X5961961Y-19017588D02*
X5971485Y-19036636D01*
X5971485Y-19036636D02*
X5981009Y-19074731D01*
X5981009Y-19074731D02*
X5981009Y-19122350D01*
X5981009Y-19122350D02*
X5971485Y-19160445D01*
X5971485Y-19160445D02*
X5961961Y-19179493D01*
X5961961Y-19179493D02*
X5952437Y-19189017D01*
X5952437Y-19189017D02*
X5933390Y-19198541D01*
X5933390Y-19198541D02*
X5914342Y-19198541D01*
X5914342Y-19198541D02*
X5895295Y-19189017D01*
X5895295Y-19189017D02*
X5885771Y-19179493D01*
X5885771Y-19179493D02*
X5876247Y-19160445D01*
X5876247Y-19160445D02*
X5866723Y-19122350D01*
X5866723Y-19122350D02*
X5866723Y-19074731D01*
X5866723Y-19074731D02*
X5876247Y-19036636D01*
X5876247Y-19036636D02*
X5885771Y-19017588D01*
X5885771Y-19017588D02*
X5895295Y-19008065D01*
X5895295Y-19008065D02*
X5914342Y-18998541D01*
X6057199Y-18998541D02*
X6057199Y-19036636D01*
X6133390Y-18998541D02*
X6133390Y-19036636D01*
X6428628Y-19274731D02*
X6419104Y-19265207D01*
X6419104Y-19265207D02*
X6400057Y-19236636D01*
X6400057Y-19236636D02*
X6390533Y-19217588D01*
X6390533Y-19217588D02*
X6381009Y-19189017D01*
X6381009Y-19189017D02*
X6371485Y-19141398D01*
X6371485Y-19141398D02*
X6371485Y-19103303D01*
X6371485Y-19103303D02*
X6381009Y-19055684D01*
X6381009Y-19055684D02*
X6390533Y-19027112D01*
X6390533Y-19027112D02*
X6400057Y-19008065D01*
X6400057Y-19008065D02*
X6419104Y-18979493D01*
X6419104Y-18979493D02*
X6428628Y-18969969D01*
X6609580Y-19198541D02*
X6495295Y-19198541D01*
X6552437Y-19198541D02*
X6552437Y-18998541D01*
X6552437Y-18998541D02*
X6533390Y-19027112D01*
X6533390Y-19027112D02*
X6514342Y-19046160D01*
X6514342Y-19046160D02*
X6495295Y-19055684D01*
X6781009Y-19065207D02*
X6781009Y-19198541D01*
X6733390Y-18989017D02*
X6685771Y-19131874D01*
X6685771Y-19131874D02*
X6809580Y-19131874D01*
X6923866Y-18998541D02*
X6942914Y-18998541D01*
X6942914Y-18998541D02*
X6961961Y-19008065D01*
X6961961Y-19008065D02*
X6971485Y-19017588D01*
X6971485Y-19017588D02*
X6981009Y-19036636D01*
X6981009Y-19036636D02*
X6990533Y-19074731D01*
X6990533Y-19074731D02*
X6990533Y-19122350D01*
X6990533Y-19122350D02*
X6981009Y-19160445D01*
X6981009Y-19160445D02*
X6971485Y-19179493D01*
X6971485Y-19179493D02*
X6961961Y-19189017D01*
X6961961Y-19189017D02*
X6942914Y-19198541D01*
X6942914Y-19198541D02*
X6923866Y-19198541D01*
X6923866Y-19198541D02*
X6904818Y-19189017D01*
X6904818Y-19189017D02*
X6895295Y-19179493D01*
X6895295Y-19179493D02*
X6885771Y-19160445D01*
X6885771Y-19160445D02*
X6876247Y-19122350D01*
X6876247Y-19122350D02*
X6876247Y-19074731D01*
X6876247Y-19074731D02*
X6885771Y-19036636D01*
X6885771Y-19036636D02*
X6895295Y-19017588D01*
X6895295Y-19017588D02*
X6904818Y-19008065D01*
X6904818Y-19008065D02*
X6923866Y-18998541D01*
X7228628Y-19198541D02*
X7228628Y-18998541D01*
X7314342Y-19198541D02*
X7314342Y-19093779D01*
X7314342Y-19093779D02*
X7304819Y-19074731D01*
X7304819Y-19074731D02*
X7285771Y-19065207D01*
X7285771Y-19065207D02*
X7257199Y-19065207D01*
X7257199Y-19065207D02*
X7238152Y-19074731D01*
X7238152Y-19074731D02*
X7228628Y-19084255D01*
X7438152Y-19198541D02*
X7419104Y-19189017D01*
X7419104Y-19189017D02*
X7409580Y-19179493D01*
X7409580Y-19179493D02*
X7400057Y-19160445D01*
X7400057Y-19160445D02*
X7400057Y-19103303D01*
X7400057Y-19103303D02*
X7409580Y-19084255D01*
X7409580Y-19084255D02*
X7419104Y-19074731D01*
X7419104Y-19074731D02*
X7438152Y-19065207D01*
X7438152Y-19065207D02*
X7466723Y-19065207D01*
X7466723Y-19065207D02*
X7485771Y-19074731D01*
X7485771Y-19074731D02*
X7495295Y-19084255D01*
X7495295Y-19084255D02*
X7504819Y-19103303D01*
X7504819Y-19103303D02*
X7504819Y-19160445D01*
X7504819Y-19160445D02*
X7495295Y-19179493D01*
X7495295Y-19179493D02*
X7485771Y-19189017D01*
X7485771Y-19189017D02*
X7466723Y-19198541D01*
X7466723Y-19198541D02*
X7438152Y-19198541D01*
X7619104Y-19198541D02*
X7600057Y-19189017D01*
X7600057Y-19189017D02*
X7590533Y-19169969D01*
X7590533Y-19169969D02*
X7590533Y-18998541D01*
X7771485Y-19189017D02*
X7752438Y-19198541D01*
X7752438Y-19198541D02*
X7714342Y-19198541D01*
X7714342Y-19198541D02*
X7695295Y-19189017D01*
X7695295Y-19189017D02*
X7685771Y-19169969D01*
X7685771Y-19169969D02*
X7685771Y-19093779D01*
X7685771Y-19093779D02*
X7695295Y-19074731D01*
X7695295Y-19074731D02*
X7714342Y-19065207D01*
X7714342Y-19065207D02*
X7752438Y-19065207D01*
X7752438Y-19065207D02*
X7771485Y-19074731D01*
X7771485Y-19074731D02*
X7781009Y-19093779D01*
X7781009Y-19093779D02*
X7781009Y-19112826D01*
X7781009Y-19112826D02*
X7685771Y-19131874D01*
X7857200Y-19189017D02*
X7876247Y-19198541D01*
X7876247Y-19198541D02*
X7914342Y-19198541D01*
X7914342Y-19198541D02*
X7933390Y-19189017D01*
X7933390Y-19189017D02*
X7942914Y-19169969D01*
X7942914Y-19169969D02*
X7942914Y-19160445D01*
X7942914Y-19160445D02*
X7933390Y-19141398D01*
X7933390Y-19141398D02*
X7914342Y-19131874D01*
X7914342Y-19131874D02*
X7885771Y-19131874D01*
X7885771Y-19131874D02*
X7866723Y-19122350D01*
X7866723Y-19122350D02*
X7857200Y-19103303D01*
X7857200Y-19103303D02*
X7857200Y-19093779D01*
X7857200Y-19093779D02*
X7866723Y-19074731D01*
X7866723Y-19074731D02*
X7885771Y-19065207D01*
X7885771Y-19065207D02*
X7914342Y-19065207D01*
X7914342Y-19065207D02*
X7933390Y-19074731D01*
X8009581Y-19274731D02*
X8019104Y-19265207D01*
X8019104Y-19265207D02*
X8038152Y-19236636D01*
X8038152Y-19236636D02*
X8047676Y-19217588D01*
X8047676Y-19217588D02*
X8057200Y-19189017D01*
X8057200Y-19189017D02*
X8066723Y-19141398D01*
X8066723Y-19141398D02*
X8066723Y-19103303D01*
X8066723Y-19103303D02*
X8057200Y-19055684D01*
X8057200Y-19055684D02*
X8047676Y-19027112D01*
X8047676Y-19027112D02*
X8038152Y-19008065D01*
X8038152Y-19008065D02*
X8019104Y-18979493D01*
X8019104Y-18979493D02*
X8009581Y-18969969D01*
X2666723Y-19275877D02*
X2866723Y-19475877D01*
X2866723Y-19275877D02*
X2666723Y-19475877D01*
X2766723Y-19275877D02*
X2766723Y-19475877D01*
X2666723Y-19375877D02*
X2866723Y-19375877D01*
X3095294Y-19268401D02*
X3219104Y-19268401D01*
X3219104Y-19268401D02*
X3152437Y-19344591D01*
X3152437Y-19344591D02*
X3181009Y-19344591D01*
X3181009Y-19344591D02*
X3200056Y-19354115D01*
X3200056Y-19354115D02*
X3209580Y-19363639D01*
X3209580Y-19363639D02*
X3219104Y-19382686D01*
X3219104Y-19382686D02*
X3219104Y-19430305D01*
X3219104Y-19430305D02*
X3209580Y-19449353D01*
X3209580Y-19449353D02*
X3200056Y-19458877D01*
X3200056Y-19458877D02*
X3181009Y-19468401D01*
X3181009Y-19468401D02*
X3123866Y-19468401D01*
X3123866Y-19468401D02*
X3104818Y-19458877D01*
X3104818Y-19458877D02*
X3095294Y-19449353D01*
X3304818Y-19449353D02*
X3314342Y-19458877D01*
X3314342Y-19458877D02*
X3304818Y-19468401D01*
X3304818Y-19468401D02*
X3295294Y-19458877D01*
X3295294Y-19458877D02*
X3304818Y-19449353D01*
X3304818Y-19449353D02*
X3304818Y-19468401D01*
X3438151Y-19268401D02*
X3457199Y-19268401D01*
X3457199Y-19268401D02*
X3476247Y-19277925D01*
X3476247Y-19277925D02*
X3485771Y-19287448D01*
X3485771Y-19287448D02*
X3495294Y-19306496D01*
X3495294Y-19306496D02*
X3504818Y-19344591D01*
X3504818Y-19344591D02*
X3504818Y-19392210D01*
X3504818Y-19392210D02*
X3495294Y-19430305D01*
X3495294Y-19430305D02*
X3485771Y-19449353D01*
X3485771Y-19449353D02*
X3476247Y-19458877D01*
X3476247Y-19458877D02*
X3457199Y-19468401D01*
X3457199Y-19468401D02*
X3438151Y-19468401D01*
X3438151Y-19468401D02*
X3419104Y-19458877D01*
X3419104Y-19458877D02*
X3409580Y-19449353D01*
X3409580Y-19449353D02*
X3400056Y-19430305D01*
X3400056Y-19430305D02*
X3390532Y-19392210D01*
X3390532Y-19392210D02*
X3390532Y-19344591D01*
X3390532Y-19344591D02*
X3400056Y-19306496D01*
X3400056Y-19306496D02*
X3409580Y-19287448D01*
X3409580Y-19287448D02*
X3419104Y-19277925D01*
X3419104Y-19277925D02*
X3438151Y-19268401D01*
X3628628Y-19268401D02*
X3647675Y-19268401D01*
X3647675Y-19268401D02*
X3666723Y-19277925D01*
X3666723Y-19277925D02*
X3676247Y-19287448D01*
X3676247Y-19287448D02*
X3685771Y-19306496D01*
X3685771Y-19306496D02*
X3695294Y-19344591D01*
X3695294Y-19344591D02*
X3695294Y-19392210D01*
X3695294Y-19392210D02*
X3685771Y-19430305D01*
X3685771Y-19430305D02*
X3676247Y-19449353D01*
X3676247Y-19449353D02*
X3666723Y-19458877D01*
X3666723Y-19458877D02*
X3647675Y-19468401D01*
X3647675Y-19468401D02*
X3628628Y-19468401D01*
X3628628Y-19468401D02*
X3609580Y-19458877D01*
X3609580Y-19458877D02*
X3600056Y-19449353D01*
X3600056Y-19449353D02*
X3590532Y-19430305D01*
X3590532Y-19430305D02*
X3581009Y-19392210D01*
X3581009Y-19392210D02*
X3581009Y-19344591D01*
X3581009Y-19344591D02*
X3590532Y-19306496D01*
X3590532Y-19306496D02*
X3600056Y-19287448D01*
X3600056Y-19287448D02*
X3609580Y-19277925D01*
X3609580Y-19277925D02*
X3628628Y-19268401D01*
X3819104Y-19268401D02*
X3838152Y-19268401D01*
X3838152Y-19268401D02*
X3857199Y-19277925D01*
X3857199Y-19277925D02*
X3866723Y-19287448D01*
X3866723Y-19287448D02*
X3876247Y-19306496D01*
X3876247Y-19306496D02*
X3885771Y-19344591D01*
X3885771Y-19344591D02*
X3885771Y-19392210D01*
X3885771Y-19392210D02*
X3876247Y-19430305D01*
X3876247Y-19430305D02*
X3866723Y-19449353D01*
X3866723Y-19449353D02*
X3857199Y-19458877D01*
X3857199Y-19458877D02*
X3838152Y-19468401D01*
X3838152Y-19468401D02*
X3819104Y-19468401D01*
X3819104Y-19468401D02*
X3800056Y-19458877D01*
X3800056Y-19458877D02*
X3790532Y-19449353D01*
X3790532Y-19449353D02*
X3781009Y-19430305D01*
X3781009Y-19430305D02*
X3771485Y-19392210D01*
X3771485Y-19392210D02*
X3771485Y-19344591D01*
X3771485Y-19344591D02*
X3781009Y-19306496D01*
X3781009Y-19306496D02*
X3790532Y-19287448D01*
X3790532Y-19287448D02*
X3800056Y-19277925D01*
X3800056Y-19277925D02*
X3819104Y-19268401D01*
X3971485Y-19468401D02*
X3971485Y-19335067D01*
X3971485Y-19354115D02*
X3981009Y-19344591D01*
X3981009Y-19344591D02*
X4000056Y-19335067D01*
X4000056Y-19335067D02*
X4028628Y-19335067D01*
X4028628Y-19335067D02*
X4047675Y-19344591D01*
X4047675Y-19344591D02*
X4057199Y-19363639D01*
X4057199Y-19363639D02*
X4057199Y-19468401D01*
X4057199Y-19363639D02*
X4066723Y-19344591D01*
X4066723Y-19344591D02*
X4085771Y-19335067D01*
X4085771Y-19335067D02*
X4114342Y-19335067D01*
X4114342Y-19335067D02*
X4133390Y-19344591D01*
X4133390Y-19344591D02*
X4142913Y-19363639D01*
X4142913Y-19363639D02*
X4142913Y-19468401D01*
X4238152Y-19468401D02*
X4238152Y-19335067D01*
X4238152Y-19354115D02*
X4247675Y-19344591D01*
X4247675Y-19344591D02*
X4266723Y-19335067D01*
X4266723Y-19335067D02*
X4295295Y-19335067D01*
X4295295Y-19335067D02*
X4314342Y-19344591D01*
X4314342Y-19344591D02*
X4323866Y-19363639D01*
X4323866Y-19363639D02*
X4323866Y-19468401D01*
X4323866Y-19363639D02*
X4333390Y-19344591D01*
X4333390Y-19344591D02*
X4352437Y-19335067D01*
X4352437Y-19335067D02*
X4381009Y-19335067D01*
X4381009Y-19335067D02*
X4400056Y-19344591D01*
X4400056Y-19344591D02*
X4409580Y-19363639D01*
X4409580Y-19363639D02*
X4409580Y-19468401D01*
X4800056Y-19258877D02*
X4628628Y-19516020D01*
X5057199Y-19268401D02*
X5076247Y-19268401D01*
X5076247Y-19268401D02*
X5095295Y-19277925D01*
X5095295Y-19277925D02*
X5104818Y-19287448D01*
X5104818Y-19287448D02*
X5114342Y-19306496D01*
X5114342Y-19306496D02*
X5123866Y-19344591D01*
X5123866Y-19344591D02*
X5123866Y-19392210D01*
X5123866Y-19392210D02*
X5114342Y-19430305D01*
X5114342Y-19430305D02*
X5104818Y-19449353D01*
X5104818Y-19449353D02*
X5095295Y-19458877D01*
X5095295Y-19458877D02*
X5076247Y-19468401D01*
X5076247Y-19468401D02*
X5057199Y-19468401D01*
X5057199Y-19468401D02*
X5038152Y-19458877D01*
X5038152Y-19458877D02*
X5028628Y-19449353D01*
X5028628Y-19449353D02*
X5019104Y-19430305D01*
X5019104Y-19430305D02*
X5009580Y-19392210D01*
X5009580Y-19392210D02*
X5009580Y-19344591D01*
X5009580Y-19344591D02*
X5019104Y-19306496D01*
X5019104Y-19306496D02*
X5028628Y-19287448D01*
X5028628Y-19287448D02*
X5038152Y-19277925D01*
X5038152Y-19277925D02*
X5057199Y-19268401D01*
X5209580Y-19449353D02*
X5219104Y-19458877D01*
X5219104Y-19458877D02*
X5209580Y-19468401D01*
X5209580Y-19468401D02*
X5200057Y-19458877D01*
X5200057Y-19458877D02*
X5209580Y-19449353D01*
X5209580Y-19449353D02*
X5209580Y-19468401D01*
X5409580Y-19468401D02*
X5295295Y-19468401D01*
X5352437Y-19468401D02*
X5352437Y-19268401D01*
X5352437Y-19268401D02*
X5333390Y-19296972D01*
X5333390Y-19296972D02*
X5314342Y-19316020D01*
X5314342Y-19316020D02*
X5295295Y-19325544D01*
X5600056Y-19468401D02*
X5485771Y-19468401D01*
X5542914Y-19468401D02*
X5542914Y-19268401D01*
X5542914Y-19268401D02*
X5523866Y-19296972D01*
X5523866Y-19296972D02*
X5504818Y-19316020D01*
X5504818Y-19316020D02*
X5485771Y-19325544D01*
X5714342Y-19354115D02*
X5695295Y-19344591D01*
X5695295Y-19344591D02*
X5685771Y-19335067D01*
X5685771Y-19335067D02*
X5676247Y-19316020D01*
X5676247Y-19316020D02*
X5676247Y-19306496D01*
X5676247Y-19306496D02*
X5685771Y-19287448D01*
X5685771Y-19287448D02*
X5695295Y-19277925D01*
X5695295Y-19277925D02*
X5714342Y-19268401D01*
X5714342Y-19268401D02*
X5752437Y-19268401D01*
X5752437Y-19268401D02*
X5771485Y-19277925D01*
X5771485Y-19277925D02*
X5781009Y-19287448D01*
X5781009Y-19287448D02*
X5790533Y-19306496D01*
X5790533Y-19306496D02*
X5790533Y-19316020D01*
X5790533Y-19316020D02*
X5781009Y-19335067D01*
X5781009Y-19335067D02*
X5771485Y-19344591D01*
X5771485Y-19344591D02*
X5752437Y-19354115D01*
X5752437Y-19354115D02*
X5714342Y-19354115D01*
X5714342Y-19354115D02*
X5695295Y-19363639D01*
X5695295Y-19363639D02*
X5685771Y-19373163D01*
X5685771Y-19373163D02*
X5676247Y-19392210D01*
X5676247Y-19392210D02*
X5676247Y-19430305D01*
X5676247Y-19430305D02*
X5685771Y-19449353D01*
X5685771Y-19449353D02*
X5695295Y-19458877D01*
X5695295Y-19458877D02*
X5714342Y-19468401D01*
X5714342Y-19468401D02*
X5752437Y-19468401D01*
X5752437Y-19468401D02*
X5771485Y-19458877D01*
X5771485Y-19458877D02*
X5781009Y-19449353D01*
X5781009Y-19449353D02*
X5790533Y-19430305D01*
X5790533Y-19430305D02*
X5790533Y-19392210D01*
X5790533Y-19392210D02*
X5781009Y-19373163D01*
X5781009Y-19373163D02*
X5771485Y-19363639D01*
X5771485Y-19363639D02*
X5752437Y-19354115D01*
X5981009Y-19468401D02*
X5866723Y-19468401D01*
X5923866Y-19468401D02*
X5923866Y-19268401D01*
X5923866Y-19268401D02*
X5904818Y-19296972D01*
X5904818Y-19296972D02*
X5885771Y-19316020D01*
X5885771Y-19316020D02*
X5866723Y-19325544D01*
X6057199Y-19268401D02*
X6057199Y-19306496D01*
X6133390Y-19268401D02*
X6133390Y-19306496D01*
X6428628Y-19544591D02*
X6419104Y-19535067D01*
X6419104Y-19535067D02*
X6400057Y-19506496D01*
X6400057Y-19506496D02*
X6390533Y-19487448D01*
X6390533Y-19487448D02*
X6381009Y-19458877D01*
X6381009Y-19458877D02*
X6371485Y-19411258D01*
X6371485Y-19411258D02*
X6371485Y-19373163D01*
X6371485Y-19373163D02*
X6381009Y-19325544D01*
X6381009Y-19325544D02*
X6390533Y-19296972D01*
X6390533Y-19296972D02*
X6400057Y-19277925D01*
X6400057Y-19277925D02*
X6419104Y-19249353D01*
X6419104Y-19249353D02*
X6428628Y-19239829D01*
X6600057Y-19268401D02*
X6504818Y-19268401D01*
X6504818Y-19268401D02*
X6495295Y-19363639D01*
X6495295Y-19363639D02*
X6504818Y-19354115D01*
X6504818Y-19354115D02*
X6523866Y-19344591D01*
X6523866Y-19344591D02*
X6571485Y-19344591D01*
X6571485Y-19344591D02*
X6590533Y-19354115D01*
X6590533Y-19354115D02*
X6600057Y-19363639D01*
X6600057Y-19363639D02*
X6609580Y-19382686D01*
X6609580Y-19382686D02*
X6609580Y-19430305D01*
X6609580Y-19430305D02*
X6600057Y-19449353D01*
X6600057Y-19449353D02*
X6590533Y-19458877D01*
X6590533Y-19458877D02*
X6571485Y-19468401D01*
X6571485Y-19468401D02*
X6523866Y-19468401D01*
X6523866Y-19468401D02*
X6504818Y-19458877D01*
X6504818Y-19458877D02*
X6495295Y-19449353D01*
X6847676Y-19468401D02*
X6847676Y-19268401D01*
X6933390Y-19468401D02*
X6933390Y-19363639D01*
X6933390Y-19363639D02*
X6923866Y-19344591D01*
X6923866Y-19344591D02*
X6904819Y-19335067D01*
X6904819Y-19335067D02*
X6876247Y-19335067D01*
X6876247Y-19335067D02*
X6857199Y-19344591D01*
X6857199Y-19344591D02*
X6847676Y-19354115D01*
X7057199Y-19468401D02*
X7038152Y-19458877D01*
X7038152Y-19458877D02*
X7028628Y-19449353D01*
X7028628Y-19449353D02*
X7019104Y-19430305D01*
X7019104Y-19430305D02*
X7019104Y-19373163D01*
X7019104Y-19373163D02*
X7028628Y-19354115D01*
X7028628Y-19354115D02*
X7038152Y-19344591D01*
X7038152Y-19344591D02*
X7057199Y-19335067D01*
X7057199Y-19335067D02*
X7085771Y-19335067D01*
X7085771Y-19335067D02*
X7104819Y-19344591D01*
X7104819Y-19344591D02*
X7114342Y-19354115D01*
X7114342Y-19354115D02*
X7123866Y-19373163D01*
X7123866Y-19373163D02*
X7123866Y-19430305D01*
X7123866Y-19430305D02*
X7114342Y-19449353D01*
X7114342Y-19449353D02*
X7104819Y-19458877D01*
X7104819Y-19458877D02*
X7085771Y-19468401D01*
X7085771Y-19468401D02*
X7057199Y-19468401D01*
X7238152Y-19468401D02*
X7219104Y-19458877D01*
X7219104Y-19458877D02*
X7209580Y-19439829D01*
X7209580Y-19439829D02*
X7209580Y-19268401D01*
X7390533Y-19458877D02*
X7371485Y-19468401D01*
X7371485Y-19468401D02*
X7333390Y-19468401D01*
X7333390Y-19468401D02*
X7314342Y-19458877D01*
X7314342Y-19458877D02*
X7304819Y-19439829D01*
X7304819Y-19439829D02*
X7304819Y-19363639D01*
X7304819Y-19363639D02*
X7314342Y-19344591D01*
X7314342Y-19344591D02*
X7333390Y-19335067D01*
X7333390Y-19335067D02*
X7371485Y-19335067D01*
X7371485Y-19335067D02*
X7390533Y-19344591D01*
X7390533Y-19344591D02*
X7400057Y-19363639D01*
X7400057Y-19363639D02*
X7400057Y-19382686D01*
X7400057Y-19382686D02*
X7304819Y-19401734D01*
X7476247Y-19458877D02*
X7495295Y-19468401D01*
X7495295Y-19468401D02*
X7533390Y-19468401D01*
X7533390Y-19468401D02*
X7552438Y-19458877D01*
X7552438Y-19458877D02*
X7561961Y-19439829D01*
X7561961Y-19439829D02*
X7561961Y-19430305D01*
X7561961Y-19430305D02*
X7552438Y-19411258D01*
X7552438Y-19411258D02*
X7533390Y-19401734D01*
X7533390Y-19401734D02*
X7504819Y-19401734D01*
X7504819Y-19401734D02*
X7485771Y-19392210D01*
X7485771Y-19392210D02*
X7476247Y-19373163D01*
X7476247Y-19373163D02*
X7476247Y-19363639D01*
X7476247Y-19363639D02*
X7485771Y-19344591D01*
X7485771Y-19344591D02*
X7504819Y-19335067D01*
X7504819Y-19335067D02*
X7533390Y-19335067D01*
X7533390Y-19335067D02*
X7552438Y-19344591D01*
X7628628Y-19544591D02*
X7638152Y-19535067D01*
X7638152Y-19535067D02*
X7657200Y-19506496D01*
X7657200Y-19506496D02*
X7666723Y-19487448D01*
X7666723Y-19487448D02*
X7676247Y-19458877D01*
X7676247Y-19458877D02*
X7685771Y-19411258D01*
X7685771Y-19411258D02*
X7685771Y-19373163D01*
X7685771Y-19373163D02*
X7676247Y-19325544D01*
X7676247Y-19325544D02*
X7666723Y-19296972D01*
X7666723Y-19296972D02*
X7657200Y-19277925D01*
X7657200Y-19277925D02*
X7638152Y-19249353D01*
X7638152Y-19249353D02*
X7628628Y-19239829D01*
M02*
