%TF.GenerationSoftware,KiCad,Pcbnew,7.0.1*%
%TF.CreationDate,2023-04-06T15:27:56+10:00*%
%TF.ProjectId,genesys,67656e65-7379-4732-9e6b-696361645f70,rev?*%
%TF.SameCoordinates,Original*%
%TF.FileFunction,Paste,Top*%
%TF.FilePolarity,Positive*%
%FSLAX46Y46*%
G04 Gerber Fmt 4.6, Leading zero omitted, Abs format (unit mm)*
G04 Created by KiCad (PCBNEW 7.0.1) date 2023-04-06 15:27:56*
%MOMM*%
%LPD*%
G01*
G04 APERTURE LIST*
G04 Aperture macros list*
%AMRoundRect*
0 Rectangle with rounded corners*
0 $1 Rounding radius*
0 $2 $3 $4 $5 $6 $7 $8 $9 X,Y pos of 4 corners*
0 Add a 4 corners polygon primitive as box body*
4,1,4,$2,$3,$4,$5,$6,$7,$8,$9,$2,$3,0*
0 Add four circle primitives for the rounded corners*
1,1,$1+$1,$2,$3*
1,1,$1+$1,$4,$5*
1,1,$1+$1,$6,$7*
1,1,$1+$1,$8,$9*
0 Add four rect primitives between the rounded corners*
20,1,$1+$1,$2,$3,$4,$5,0*
20,1,$1+$1,$4,$5,$6,$7,0*
20,1,$1+$1,$6,$7,$8,$9,0*
20,1,$1+$1,$8,$9,$2,$3,0*%
%AMRotRect*
0 Rectangle, with rotation*
0 The origin of the aperture is its center*
0 $1 length*
0 $2 width*
0 $3 Rotation angle, in degrees counterclockwise*
0 Add horizontal line*
21,1,$1,$2,0,0,$3*%
G04 Aperture macros list end*
%ADD10R,2.500000X1.200000*%
%ADD11R,1.700000X0.820000*%
%ADD12RoundRect,0.205000X0.645000X0.205000X-0.645000X0.205000X-0.645000X-0.205000X0.645000X-0.205000X0*%
%ADD13RoundRect,0.205000X-0.645000X-0.205000X0.645000X-0.205000X0.645000X0.205000X-0.645000X0.205000X0*%
%ADD14RotRect,1.700000X0.820000X285.000000*%
%ADD15RoundRect,0.205000X-0.364953X0.569964X-0.031077X-0.676080X0.364953X-0.569964X0.031077X0.676080X0*%
%ADD16RotRect,1.700000X0.820000X310.000000*%
%ADD17RoundRect,0.205000X-0.571637X0.362327X0.257559X-0.625870X0.571637X-0.362327X-0.257559X0.625870X0*%
%ADD18RotRect,1.700000X0.820000X335.000000*%
%ADD19RoundRect,0.205000X-0.671205X0.086796X0.497932X-0.458382X0.671205X-0.086796X-0.497932X0.458382X0*%
G04 APERTURE END LIST*
D10*
%TO.C,J1*%
X128905000Y-42735000D03*
X128905000Y-38735000D03*
X128905000Y-35735000D03*
X122405000Y-43835000D03*
%TD*%
D11*
%TO.C,SK6812Mini-E26*%
X118488836Y-92000000D03*
X118488836Y-93500000D03*
D12*
X112928836Y-93490000D03*
D11*
X112928836Y-91990000D03*
%TD*%
%TO.C,SK6812Mini-E27*%
X137538836Y-92000000D03*
X137538836Y-93500000D03*
D12*
X131978836Y-93490000D03*
D11*
X131978836Y-91990000D03*
%TD*%
%TO.C,SK6812Mini-E7*%
X36708836Y-36420000D03*
X36708836Y-34920000D03*
D13*
X42268836Y-34930000D03*
D11*
X42268836Y-36430000D03*
%TD*%
%TO.C,SK6812Mini-E19*%
X74685000Y-74450000D03*
X74685000Y-72950000D03*
D13*
X80245000Y-72960000D03*
D11*
X80245000Y-74460000D03*
%TD*%
%TO.C,SK6812Mini-E34*%
X60355000Y-117170000D03*
X60355000Y-115670000D03*
D13*
X65915000Y-115680000D03*
D11*
X65915000Y-117180000D03*
%TD*%
%TO.C,SK6812Mini-E23*%
X61338836Y-92000000D03*
X61338836Y-93500000D03*
D12*
X55778836Y-93490000D03*
D11*
X55778836Y-91990000D03*
%TD*%
%TO.C,SK6812Mini-E11*%
X99438836Y-53912492D03*
X99438836Y-55412492D03*
D12*
X93878836Y-55402492D03*
D11*
X93878836Y-53902492D03*
%TD*%
%TO.C,SK6812Mini-E5*%
X74808836Y-36420000D03*
X74808836Y-34920000D03*
D13*
X80368836Y-34930000D03*
D11*
X80368836Y-36430000D03*
%TD*%
%TO.C,SK6812Mini-E21*%
X36585000Y-74450000D03*
X36585000Y-72950000D03*
D13*
X42145000Y-72960000D03*
D11*
X42145000Y-74460000D03*
%TD*%
%TO.C,SK6812Mini-E25*%
X99438836Y-92000000D03*
X99438836Y-93500000D03*
D12*
X93878836Y-93490000D03*
D11*
X93878836Y-91990000D03*
%TD*%
D14*
%TO.C,SK6812Mini-E29*%
X144688430Y-155782546D03*
X146137318Y-155394318D03*
D15*
X147566693Y-160767454D03*
D14*
X146117804Y-161155682D03*
%TD*%
D11*
%TO.C,SK6812Mini-E17*%
X112785000Y-74450000D03*
X112785000Y-72950000D03*
D13*
X118345000Y-72960000D03*
D11*
X118345000Y-74460000D03*
%TD*%
%TO.C,SK6812Mini-E22*%
X42288836Y-92000000D03*
X42288836Y-93500000D03*
D12*
X36728836Y-93490000D03*
D11*
X36728836Y-91990000D03*
%TD*%
%TO.C,SK6812Mini-E33*%
X79605000Y-117170000D03*
X79605000Y-115670000D03*
D13*
X85165000Y-115680000D03*
D11*
X85165000Y-117180000D03*
%TD*%
%TO.C,SK6812Mini-E6*%
X55758836Y-36420000D03*
X55758836Y-34920000D03*
D13*
X61318836Y-34930000D03*
D11*
X61318836Y-36430000D03*
%TD*%
%TO.C,SK6812Mini-E18*%
X93735000Y-74450000D03*
X93735000Y-72950000D03*
D13*
X99295000Y-72960000D03*
D11*
X99295000Y-74460000D03*
%TD*%
%TO.C,SK6812Mini-E20*%
X55635000Y-74450000D03*
X55635000Y-72950000D03*
D13*
X61195000Y-72960000D03*
D11*
X61195000Y-74460000D03*
%TD*%
%TO.C,SK6812Mini-E3*%
X112908836Y-36420000D03*
X112908836Y-34920000D03*
D13*
X118468836Y-34930000D03*
D11*
X118468836Y-36430000D03*
%TD*%
%TO.C,SK6812Mini-E28*%
X156588836Y-92000000D03*
X156588836Y-93500000D03*
D12*
X151028836Y-93490000D03*
D11*
X151028836Y-91990000D03*
%TD*%
%TO.C,SK6812Mini-E4*%
X93858836Y-36420000D03*
X93858836Y-34920000D03*
D13*
X99418836Y-34930000D03*
D11*
X99418836Y-36430000D03*
%TD*%
%TO.C,SK6812Mini-E8*%
X42288836Y-53912492D03*
X42288836Y-55412492D03*
D12*
X36728836Y-55402492D03*
D11*
X36728836Y-53902492D03*
%TD*%
%TO.C,SK6812Mini-E32*%
X98585000Y-117200000D03*
X98585000Y-115700000D03*
D13*
X104145000Y-115710000D03*
D11*
X104145000Y-117210000D03*
%TD*%
%TO.C,SK6812Mini-E12*%
X118488836Y-53912492D03*
X118488836Y-55412492D03*
D12*
X112928836Y-55402492D03*
D11*
X112928836Y-53902492D03*
%TD*%
D16*
%TO.C,SK6812Mini-E30*%
X134587024Y-138192415D03*
X135736091Y-137228234D03*
D17*
X139302329Y-141493869D03*
D16*
X138153263Y-142458050D03*
%TD*%
D11*
%TO.C,SK6812Mini-E24*%
X80388836Y-92000000D03*
X80388836Y-93500000D03*
D12*
X74828836Y-93490000D03*
D11*
X74828836Y-91990000D03*
%TD*%
%TO.C,SK6812Mini-E10*%
X80388836Y-53912492D03*
X80388836Y-55412492D03*
D12*
X74828836Y-55402492D03*
D11*
X74828836Y-53902492D03*
%TD*%
D18*
%TO.C,SK6812Mini-E31*%
X117542027Y-126679975D03*
X118175955Y-125320513D03*
D19*
X123210800Y-127679334D03*
D18*
X122576872Y-129038795D03*
%TD*%
D11*
%TO.C,SK6812Mini-E15*%
X150885000Y-74450000D03*
X150885000Y-72950000D03*
D13*
X156445000Y-72960000D03*
D11*
X156445000Y-74460000D03*
%TD*%
%TO.C,SK6812Mini-E14*%
X156588836Y-53912492D03*
X156588836Y-55412492D03*
D12*
X151028836Y-55402492D03*
D11*
X151028836Y-53902492D03*
%TD*%
%TO.C,SK6812Mini-E9*%
X61338836Y-53912492D03*
X61338836Y-55412492D03*
D12*
X55778836Y-55402492D03*
D11*
X55778836Y-53902492D03*
%TD*%
%TO.C,SK6812Mini-E2*%
X131958836Y-36420000D03*
X131958836Y-34920000D03*
D13*
X137518836Y-34930000D03*
D11*
X137518836Y-36430000D03*
%TD*%
%TO.C,SK6812Mini-E16*%
X131835000Y-74450000D03*
X131835000Y-72950000D03*
D13*
X137395000Y-72960000D03*
D11*
X137395000Y-74460000D03*
%TD*%
%TO.C,SK6812Mini-E13*%
X137538836Y-53912492D03*
X137538836Y-55412492D03*
D12*
X131978836Y-55402492D03*
D11*
X131978836Y-53902492D03*
%TD*%
%TO.C,SK6812Mini-E1*%
X151008836Y-36420000D03*
X151008836Y-34920000D03*
D13*
X156568836Y-34930000D03*
D11*
X156568836Y-36430000D03*
%TD*%
%TO.C,SK6812Mini-E35*%
X36645000Y-126710000D03*
X36645000Y-125210000D03*
D13*
X42205000Y-125220000D03*
D11*
X42205000Y-126720000D03*
%TD*%
M02*
