%TF.GenerationSoftware,KiCad,Pcbnew,7.0.1*%
%TF.CreationDate,2023-04-06T15:27:56+10:00*%
%TF.ProjectId,genesys,67656e65-7379-4732-9e6b-696361645f70,rev?*%
%TF.SameCoordinates,Original*%
%TF.FileFunction,Soldermask,Bot*%
%TF.FilePolarity,Negative*%
%FSLAX46Y46*%
G04 Gerber Fmt 4.6, Leading zero omitted, Abs format (unit mm)*
G04 Created by KiCad (PCBNEW 7.0.1) date 2023-04-06 15:27:56*
%MOMM*%
%LPD*%
G01*
G04 APERTURE LIST*
G04 Aperture macros list*
%AMHorizOval*
0 Thick line with rounded ends*
0 $1 width*
0 $2 $3 position (X,Y) of the first rounded end (center of the circle)*
0 $4 $5 position (X,Y) of the second rounded end (center of the circle)*
0 Add line between two ends*
20,1,$1,$2,$3,$4,$5,0*
0 Add two circle primitives to create the rounded ends*
1,1,$1,$2,$3*
1,1,$1,$4,$5*%
%AMRotRect*
0 Rectangle, with rotation*
0 The origin of the aperture is its center*
0 $1 length*
0 $2 width*
0 $3 Rotation angle, in degrees counterclockwise*
0 Add horizontal line*
21,1,$1,$2,0,0,$3*%
G04 Aperture macros list end*
%ADD10C,1.651000*%
%ADD11C,1.400000*%
%ADD12R,2.500000X1.200000*%
%ADD13C,3.200000*%
%ADD14C,3.987800*%
%ADD15C,2.286000*%
%ADD16R,2.200000X2.200000*%
%ADD17O,2.200000X2.200000*%
%ADD18RotRect,2.200000X2.200000X40.000000*%
%ADD19HorizOval,2.200000X0.000000X0.000000X0.000000X0.000000X0*%
%ADD20R,1.752600X1.752600*%
%ADD21C,1.752600*%
%ADD22RotRect,2.200000X2.200000X65.000000*%
%ADD23HorizOval,2.200000X0.000000X0.000000X0.000000X0.000000X0*%
%ADD24RotRect,2.200000X2.200000X75.000000*%
%ADD25HorizOval,2.200000X0.000000X0.000000X0.000000X0.000000X0*%
%ADD26RotRect,2.200000X2.200000X15.000000*%
%ADD27HorizOval,2.200000X0.000000X0.000000X0.000000X0.000000X0*%
G04 APERTURE END LIST*
D10*
%TO.C,R2*%
X152500000Y-112540000D03*
X152500000Y-122700000D03*
%TD*%
%TO.C,R1*%
X155650000Y-112540000D03*
X155650000Y-122700000D03*
%TD*%
D11*
%TO.C,TP4*%
X159600000Y-119510000D03*
X159600000Y-122050000D03*
%TD*%
%TO.C,TP3*%
X159600000Y-115640000D03*
X159600000Y-113100000D03*
%TD*%
D12*
%TO.C,J2*%
X122405000Y-42735000D03*
X122405000Y-38735000D03*
X122405000Y-35735000D03*
X128905000Y-43835000D03*
%TD*%
D13*
%TO.C,H7*%
X144145000Y-147955000D03*
%TD*%
%TO.C,H5*%
X144500000Y-79300000D03*
%TD*%
%TO.C,H4*%
X144500000Y-40525000D03*
%TD*%
%TO.C,H2*%
X48895000Y-79375000D03*
%TD*%
%TO.C,H1*%
X48895000Y-40525000D03*
%TD*%
D14*
%TO.C,SW23*%
X58470000Y-88135000D03*
D15*
X54660000Y-85595000D03*
X55930000Y-83055000D03*
X61010000Y-83055000D03*
X62280000Y-85595000D03*
%TD*%
D16*
%TO.C,D3*%
X84160000Y-38875000D03*
D17*
X84160000Y-28715000D03*
%TD*%
D16*
%TO.C,D22*%
X46060000Y-96025000D03*
D17*
X46060000Y-85865000D03*
%TD*%
D16*
%TO.C,D28*%
X160360000Y-96025000D03*
D17*
X160360000Y-85865000D03*
%TD*%
D14*
%TO.C,SW4*%
X96570000Y-30985000D03*
D15*
X92760000Y-28445000D03*
X94030000Y-25905000D03*
X99110000Y-25905000D03*
X100380000Y-28445000D03*
%TD*%
D14*
%TO.C,SW18*%
X96570000Y-69085000D03*
D15*
X92760000Y-66545000D03*
X94030000Y-64005000D03*
X99110000Y-64005000D03*
X100380000Y-66545000D03*
%TD*%
D16*
%TO.C,D11*%
X103210000Y-57925000D03*
D17*
X103210000Y-47765000D03*
%TD*%
D14*
%TO.C,SW30*%
X63232500Y-111947500D03*
D15*
X59422500Y-109407500D03*
X60692500Y-106867500D03*
X65772500Y-106867500D03*
X67042500Y-109407500D03*
%TD*%
D14*
%TO.C,SW27*%
X134670000Y-88135000D03*
D15*
X130860000Y-85595000D03*
X132130000Y-83055000D03*
X137210000Y-83055000D03*
X138480000Y-85595000D03*
%TD*%
D14*
%TO.C,SW15*%
X39420000Y-69085000D03*
D15*
X35610000Y-66545000D03*
X36880000Y-64005000D03*
X41960000Y-64005000D03*
X43230000Y-66545000D03*
%TD*%
D16*
%TO.C,D17*%
X84160000Y-76975000D03*
D17*
X84160000Y-66815000D03*
%TD*%
D14*
%TO.C,SW32*%
X101332500Y-111947500D03*
D15*
X97522500Y-109407500D03*
X98792500Y-106867500D03*
X103872500Y-106867500D03*
X105142500Y-109407500D03*
%TD*%
D14*
%TO.C,SW9*%
X58470000Y-50035000D03*
D15*
X54660000Y-47495000D03*
X55930000Y-44955000D03*
X61010000Y-44955000D03*
X62280000Y-47495000D03*
%TD*%
D16*
%TO.C,D29*%
X46060000Y-129362500D03*
D17*
X46060000Y-119202500D03*
%TD*%
D16*
%TO.C,D20*%
X141310000Y-76975000D03*
D17*
X141310000Y-66815000D03*
%TD*%
D16*
%TO.C,D21*%
X160360000Y-76975000D03*
D17*
X160360000Y-66815000D03*
%TD*%
D16*
%TO.C,D18*%
X103210000Y-76975000D03*
D17*
X103210000Y-66815000D03*
%TD*%
D14*
%TO.C,SW10*%
X77520000Y-50035000D03*
D15*
X73710000Y-47495000D03*
X74980000Y-44955000D03*
X80060000Y-44955000D03*
X81330000Y-47495000D03*
%TD*%
D16*
%TO.C,D23*%
X65110000Y-96025000D03*
D17*
X65110000Y-85865000D03*
%TD*%
D14*
%TO.C,SW20*%
X134670000Y-69085000D03*
D15*
X130860000Y-66545000D03*
X132130000Y-64005000D03*
X137210000Y-64005000D03*
X138480000Y-66545000D03*
%TD*%
D14*
%TO.C,SW7*%
X153720000Y-30985000D03*
D15*
X149910000Y-28445000D03*
X151180000Y-25905000D03*
X156260000Y-25905000D03*
X157530000Y-28445000D03*
%TD*%
D14*
%TO.C,SW33*%
X122265226Y-123055221D03*
D15*
X119885644Y-119143024D03*
X122110105Y-117377727D03*
X126714149Y-119524628D03*
X126791709Y-122363375D03*
%TD*%
D16*
%TO.C,D6*%
X141300000Y-39196904D03*
D17*
X141300000Y-29036904D03*
%TD*%
D14*
%TO.C,SW28*%
X153720000Y-88135000D03*
D15*
X149910000Y-85595000D03*
X151180000Y-83055000D03*
X156260000Y-83055000D03*
X157530000Y-85595000D03*
%TD*%
D14*
%TO.C,SW24*%
X77520000Y-88135000D03*
D15*
X73710000Y-85595000D03*
X74980000Y-83055000D03*
X80060000Y-83055000D03*
X81330000Y-85595000D03*
%TD*%
D16*
%TO.C,D7*%
X160360000Y-38875000D03*
D17*
X160360000Y-28715000D03*
%TD*%
D16*
%TO.C,D32*%
X107972500Y-119837500D03*
D17*
X107972500Y-109677500D03*
%TD*%
D16*
%TO.C,D12*%
X122260000Y-57925000D03*
D17*
X122260000Y-47765000D03*
%TD*%
D14*
%TO.C,SW34*%
X140465226Y-136889051D03*
D15*
X139961958Y-132337741D03*
X142724051Y-131677937D03*
X145989412Y-135569443D03*
X144860000Y-138175000D03*
%TD*%
D14*
%TO.C,SW6*%
X134670000Y-30985000D03*
D15*
X130860000Y-28445000D03*
X132130000Y-25905000D03*
X137210000Y-25905000D03*
X138480000Y-28445000D03*
%TD*%
D18*
%TO.C,D34*%
X138693811Y-146991561D03*
D19*
X146476823Y-140460839D03*
%TD*%
D14*
%TO.C,SW26*%
X115620000Y-88135000D03*
D15*
X111810000Y-85595000D03*
X113080000Y-83055000D03*
X118160000Y-83055000D03*
X119430000Y-85595000D03*
%TD*%
D14*
%TO.C,SW22*%
X39420000Y-88135000D03*
D15*
X35610000Y-85595000D03*
X36880000Y-83055000D03*
X41960000Y-83055000D03*
X43230000Y-85595000D03*
%TD*%
D20*
%TO.C,U1*%
X90396400Y-31376750D03*
D21*
X90396400Y-33916750D03*
X90396400Y-36456750D03*
X90396400Y-38996750D03*
X90396400Y-41536750D03*
X90396400Y-44076750D03*
X90396400Y-46616750D03*
X90396400Y-49156750D03*
X90396400Y-51696750D03*
X90396400Y-54236750D03*
X90396400Y-56776750D03*
X90396400Y-59316750D03*
X105636400Y-59316750D03*
X105636400Y-56776750D03*
X105636400Y-54236750D03*
X105636400Y-51696750D03*
X105636400Y-49156750D03*
X105636400Y-46616750D03*
X105636400Y-44076750D03*
X105636400Y-41536750D03*
X105636400Y-38996750D03*
X105636400Y-36456750D03*
X105636400Y-33916750D03*
X105636400Y-31376750D03*
%TD*%
D14*
%TO.C,SW35*%
X150665226Y-156955221D03*
D15*
X152132577Y-152617643D03*
X154914729Y-153186969D03*
X156229530Y-158093872D03*
X154104778Y-159977998D03*
%TD*%
D16*
%TO.C,D26*%
X122260000Y-96025000D03*
D17*
X122260000Y-85865000D03*
%TD*%
D22*
%TO.C,D33*%
X124763174Y-133081540D03*
D23*
X129056976Y-123873453D03*
%TD*%
D14*
%TO.C,SW12*%
X115620000Y-50035000D03*
D15*
X111810000Y-47495000D03*
X113080000Y-44955000D03*
X118160000Y-44955000D03*
X119430000Y-47495000D03*
%TD*%
D24*
%TO.C,D5*%
X119380000Y-38875000D03*
D25*
X122009601Y-29061194D03*
%TD*%
D14*
%TO.C,SW2*%
X58470000Y-30985000D03*
D15*
X54660000Y-28445000D03*
X55930000Y-25905000D03*
X61010000Y-25905000D03*
X62280000Y-28445000D03*
%TD*%
D14*
%TO.C,SW13*%
X134670000Y-50035000D03*
D15*
X130860000Y-47495000D03*
X132130000Y-44955000D03*
X137210000Y-44955000D03*
X138480000Y-47495000D03*
%TD*%
D16*
%TO.C,D16*%
X65110000Y-76975000D03*
D17*
X65110000Y-66815000D03*
%TD*%
D16*
%TO.C,D13*%
X141310000Y-57925000D03*
D17*
X141310000Y-47765000D03*
%TD*%
D16*
%TO.C,D30*%
X69895000Y-119790000D03*
D17*
X69895000Y-109630000D03*
%TD*%
D14*
%TO.C,SW16*%
X58470000Y-69085000D03*
D15*
X54660000Y-66545000D03*
X55930000Y-64005000D03*
X61010000Y-64005000D03*
X62280000Y-66545000D03*
%TD*%
D14*
%TO.C,SW21*%
X153720000Y-69085000D03*
D15*
X149910000Y-66545000D03*
X151180000Y-64005000D03*
X156260000Y-64005000D03*
X157530000Y-66545000D03*
%TD*%
D14*
%TO.C,SW29*%
X39420000Y-121472500D03*
D15*
X35610000Y-118932500D03*
X36880000Y-116392500D03*
X41960000Y-116392500D03*
X43230000Y-118932500D03*
%TD*%
D14*
%TO.C,SW3*%
X77520000Y-30985000D03*
D15*
X73710000Y-28445000D03*
X74980000Y-25905000D03*
X80060000Y-25905000D03*
X81330000Y-28445000D03*
%TD*%
D16*
%TO.C,D10*%
X84160000Y-57925000D03*
D17*
X84160000Y-47765000D03*
%TD*%
D16*
%TO.C,D9*%
X65110000Y-57925000D03*
D17*
X65110000Y-47765000D03*
%TD*%
D14*
%TO.C,SW14*%
X153720000Y-50035000D03*
D15*
X149910000Y-47495000D03*
X151180000Y-44955000D03*
X156260000Y-44955000D03*
X157530000Y-47495000D03*
%TD*%
D16*
%TO.C,D4*%
X103210000Y-38875000D03*
D17*
X103210000Y-28715000D03*
%TD*%
D16*
%TO.C,D24*%
X84160000Y-96025000D03*
D17*
X84160000Y-85865000D03*
%TD*%
D16*
%TO.C,D31*%
X88922500Y-119837500D03*
D17*
X88922500Y-109677500D03*
%TD*%
D16*
%TO.C,D19*%
X122260000Y-76975000D03*
D17*
X122260000Y-66815000D03*
%TD*%
D14*
%TO.C,SW31*%
X82205000Y-111947500D03*
D15*
X78395000Y-109407500D03*
X79665000Y-106867500D03*
X84745000Y-106867500D03*
X86015000Y-109407500D03*
%TD*%
D16*
%TO.C,D15*%
X46060000Y-76975000D03*
D17*
X46060000Y-66815000D03*
%TD*%
D14*
%TO.C,SW5*%
X115620000Y-30985000D03*
D15*
X111810000Y-28445000D03*
X113080000Y-25905000D03*
X118160000Y-25905000D03*
X119430000Y-28445000D03*
%TD*%
D26*
%TO.C,D35*%
X145811194Y-166964601D03*
D27*
X155625000Y-164335000D03*
%TD*%
D16*
%TO.C,D8*%
X46060000Y-57925000D03*
D17*
X46060000Y-47765000D03*
%TD*%
D16*
%TO.C,D25*%
X103210000Y-96025000D03*
D17*
X103210000Y-85865000D03*
%TD*%
D14*
%TO.C,SW19*%
X115620000Y-69085000D03*
D15*
X111810000Y-66545000D03*
X113080000Y-64005000D03*
X118160000Y-64005000D03*
X119430000Y-66545000D03*
%TD*%
D14*
%TO.C,SW8*%
X39420000Y-50035000D03*
D15*
X35610000Y-47495000D03*
X36880000Y-44955000D03*
X41960000Y-44955000D03*
X43230000Y-47495000D03*
%TD*%
D14*
%TO.C,SW25*%
X96570000Y-88135000D03*
D15*
X92760000Y-85595000D03*
X94030000Y-83055000D03*
X99110000Y-83055000D03*
X100380000Y-85595000D03*
%TD*%
D14*
%TO.C,SW17*%
X77520000Y-69085000D03*
D15*
X73710000Y-66545000D03*
X74980000Y-64005000D03*
X80060000Y-64005000D03*
X81330000Y-66545000D03*
%TD*%
D16*
%TO.C,D2*%
X65110000Y-38875000D03*
D17*
X65110000Y-28715000D03*
%TD*%
D16*
%TO.C,D1*%
X46060000Y-38875000D03*
D17*
X46060000Y-28715000D03*
%TD*%
D16*
%TO.C,D14*%
X160360000Y-57925000D03*
D17*
X160360000Y-47765000D03*
%TD*%
D14*
%TO.C,SW1*%
X39420000Y-30985000D03*
D15*
X35610000Y-28445000D03*
X36880000Y-25905000D03*
X41960000Y-25905000D03*
X43230000Y-28445000D03*
%TD*%
D14*
%TO.C,SW11*%
X96570000Y-50035000D03*
D15*
X92760000Y-47495000D03*
X94030000Y-44955000D03*
X99110000Y-44955000D03*
X100380000Y-47495000D03*
%TD*%
D16*
%TO.C,D27*%
X141310000Y-96025000D03*
D17*
X141310000Y-85865000D03*
%TD*%
M02*
