<?xml version="1.0" encoding="UTF-8" standalone="no"?>
<svg
   version="1.1"
   width="136.8806mm"
   height="149.7076mm"
   viewBox="0.0000 0.0000 136.8806 149.7076"
   id="svg55376"
   sodipodi:docname="genesys-baseplate.svg"
   inkscape:version="1.2.1 (9c6d41e410, 2022-07-14)"
   xmlns:inkscape="http://www.inkscape.org/namespaces/inkscape"
   xmlns:sodipodi="http://sodipodi.sourceforge.net/DTD/sodipodi-0.dtd"
   xmlns="http://www.w3.org/2000/svg"
   xmlns:svg="http://www.w3.org/2000/svg"
   xmlns:rdf="http://www.w3.org/1999/02/22-rdf-syntax-ns#"
   xmlns:cc="http://creativecommons.org/ns#"
   xmlns:dc="http://purl.org/dc/elements/1.1/">
  <defs
     id="defs55380" />
  <sodipodi:namedview
     id="namedview55378"
     pagecolor="#ffffff"
     bordercolor="#000000"
     borderopacity="0.25"
     inkscape:showpageshadow="2"
     inkscape:pageopacity="0.0"
     inkscape:pagecheckerboard="0"
     inkscape:deskcolor="#d1d1d1"
     inkscape:document-units="mm"
     showgrid="false"
     inkscape:zoom="1.0939594"
     inkscape:cx="333.19337"
     inkscape:cy="144.4295"
     inkscape:window-width="2048"
     inkscape:window-height="1209"
     inkscape:window-x="456"
     inkscape:window-y="1432"
     inkscape:window-maximized="1"
     inkscape:current-layer="svg55376" />
  <title
     id="title53934">SVG Image created as genesys-User_Eco2.svg date 2023/04/02 23:00:45 </title>
  <desc
     id="desc53936">Image generated by PCBNEW </desc>
  <metadata
     id="metadata55713">
    <rdf:RDF>
      <cc:Work
         rdf:about="">
        <dc:title>SVG Image created as genesys-User_Eco2.svg date 2023/04/02 23:00:45 </dc:title>
      </cc:Work>
    </rdf:RDF>
  </metadata>
  <path
     id="path68504"
     style="display:inline;fill:#007bff;fill-opacity:1;stroke:none;stroke-width:1.005"
     inkscape:label="baseplate"
     d="m 3.725202,-1.7445632 -0.1384928,0.00413 a 0.54275,0.54275 0 0 0 -0.042892,0.00258 l -0.099735,0.00723 a 0.54275,0.54275 0 0 0 -0.047025,0.00362 l -0.1198898,0.015503 a 0.54275,0.54275 0 0 0 -0.00723,0.00103 l -0.00775,0.00103 a 0.54275,0.54275 0 0 0 -0.00465,0.00103 0.54275,0.54275 0 0 0 -0.022738,0.0031 l -0.1307481,0.023254 a 0.54275,0.54275 0 0 0 -0.016536,0.00362 0.54275,0.54275 0 0 0 -0.010852,0.00207 l -0.098702,0.022738 a 0.54275,0.54275 0 0 0 -0.057361,0.012402 l -0.125057,0.037207 a 0.54275,0.54275 0 0 0 -0.00982,0.0031 0.54275,0.54275 0 0 0 -0.015503,0.00465 l -0.125057,0.041341 a 0.54275,0.54275 0 0 0 -0.044442,0.017053 l -0.1023194,0.039274 a 0.54275,0.54275 0 0 0 -0.049093,0.022738 l -0.093534,0.041858 a 0.54275,0.54275 0 0 0 -0.038757,0.019637 l -0.079582,0.040307 a 0.54275,0.54275 0 0 0 -0.043408,0.022221 l -0.098184,0.056327 a 0.54275,0.54275 0 0 0 -0.00207,0.00155 l -0.011369,0.0062 a 0.54275,0.54275 0 0 0 -0.023254,0.013953 l -0.080615,0.05271 a 0.54275,0.54275 0 0 0 -0.050126,0.031006 l -0.1038697,0.074414 a 0.54275,0.54275 0 0 0 -0.0062,0.00465 0.54275,0.54275 0 0 0 -0.014986,0.010852 l -0.077515,0.062012 a 0.54275,0.54275 0 0 0 -0.043925,0.03359 l -0.095601,0.0842326 a 0.54275,0.54275 0 0 0 -0.0031,0.003101 0.54275,0.54275 0 0 0 -0.016536,0.0144694 l -0.091467,0.0878499 a 0.54275,0.54275 0 0 0 -0.00982,0.009819 0.54275,0.54275 0 0 0 -0.00982,0.009819 0.54275,0.54275 0 0 0 -0.010335,0.0108521 l -0.077515,0.0806152 a 0.54275,0.54275 0 0 0 -0.014469,0.016536 0.54275,0.54275 0 0 0 -0.0031,0.0031 0.54275,0.54275 0 0 0 -0.010852,0.012402 l -0.073381,0.083199 a 0.54275,0.54275 0 0 0 -0.034106,0.044442 l -0.061495,0.076998 a 0.54275,0.54275 0 0 0 -0.010852,0.014986 0.54275,0.54275 0 0 0 -0.00465,0.0062 0.54275,0.54275 0 0 0 -0.0093,0.013436 l -0.065112,0.090434 a 0.54275,0.54275 0 0 0 -0.032039,0.051676 l -0.0516764,0.079065 a 0.54275,0.54275 0 0 0 -0.0108521,0.018087 0.54275,0.54275 0 0 0 -0.003101,0.00517 l -0.006201,0.011369 a 0.54275,0.54275 0 0 0 -0.00155,0.00258 l -0.0563273,0.097668 a 0.54275,0.54275 0 0 0 -0.0222209,0.043408 l -0.0403076,0.079582 a 0.54275,0.54275 0 0 0 -5.1676e-4,0.00103 l -0.007235,0.014469 a 0.54275,0.54275 0 0 0 -0.0118856,0.023254 l -0.0418579,0.093534 a 0.54275,0.54275 0 0 0 -0.0227376,0.049093 l -0.0392741,0.1023194 a 0.54275,0.54275 0 0 0 -0.0170532,0.044442 l -0.0413411,0.125057 a 0.54275,0.54275 0 0 0 -0.004651,0.015503 0.54275,0.54275 0 0 0 -0.003101,0.00982 l -0.037207,0.125057 a 0.54275,0.54275 0 0 0 -0.0129191,0.058911 l -0.0222209,0.097152 a 0.54275,0.54275 0 0 0 -0.002067,0.010852 0.54275,0.54275 0 0 0 -0.003617,0.016536 l -0.0232518,0.1307467 a 0.54275,0.54275 0 0 0 -0.003101,0.022738 0.54275,0.54275 0 0 0 -0.001034,0.00465 l -0.001033,0.00775 a 0.54275,0.54275 0 0 0 -0.001034,0.00878 l -0.015503,0.118346 a 0.54275,0.54275 0 0 0 -0.003617,0.046509 l -0.007235,0.099219 a 0.54275,0.54275 0 0 0 -5.1677e-4,0.00775 l -5.1676e-4,0.00879 a 0.54275,0.54275 0 0 0 0,0.00413 0.54275,0.54275 0 0 0 -0.00155,0.023254 l -0.004134,0.1384933 a 0.54275,0.54275 0 0 0 0,0.011369 0.54275,0.54275 0 0 0 0,5.168e-4 V 107.94694 a 0.54275,0.54275 0 0 0 0,5.1e-4 0.54275,0.54275 0 0 0 0,0.0114 l 0.004134,0.13849 a 0.54275,0.54275 0 0 0 0.00155,0.0227 0.54275,0.54275 0 0 0 0,0.005 l 0.001034,0.0109 a 0.54275,0.54275 0 0 0 0,0.005 l 0.007235,0.0992 a 0.54275,0.54275 0 0 0 0.003617,0.047 l 0.0155029,0.11834 a 0.54275,0.54275 0 0 0 0.00155,0.0124 l 5.1676e-4,0.004 a 0.54275,0.54275 0 0 0 5.1677e-4,0.004 0.54275,0.54275 0 0 0 0.003617,0.0238 l 0.0232544,0.13075 a 0.54275,0.54275 0 0 0 0.003617,0.0165 0.54275,0.54275 0 0 0 0.002067,0.0109 l 0.0227376,0.0997 a 0.54275,0.54275 0 0 0 0.0124023,0.0568 l 0.037207,0.12506 a 0.54275,0.54275 0 0 0 0.003101,0.009 0.54275,0.54275 0 0 0 0.004651,0.0165 l 0.0413411,0.12506 a 0.54275,0.54275 0 0 0 0.0170532,0.0444 l 0.0392741,0.1018 a 0.54275,0.54275 0 0 0 0.0237712,0.0522 l 0.0408244,0.0904 a 0.54275,0.54275 0 0 0 0.0211873,0.0419 l 0.037207,0.0734 a 0.54275,0.54275 0 0 0 0.0237712,0.047 l 0.0640788,0.11111 a 0.54275,0.54275 0 0 0 0.003101,0.005 0.54275,0.54275 0 0 0 0.0108521,0.0181 l 0.0511597,0.0786 a 0.54275,0.54275 0 0 0 0.032556,0.0527 l 0.074414,0.10335 a 0.54275,0.54275 0 0 0 0.015503,0.0217 l 0.062528,0.0775 a 0.54275,0.54275 0 0 0 0.033073,0.0434 l 0.084233,0.0956 a 0.54275,0.54275 0 0 0 0.0031,0.003 0.54275,0.54275 0 0 0 0.014469,0.0165 l 0.08785,0.092 a 0.54275,0.54275 0 0 0 0.016536,0.016 0.54275,0.54275 0 0 0 0.0031,0.003 0.54275,0.54275 0 0 0 0.010852,0.0103 l 0.080615,0.0775 a 0.54275,0.54275 0 0 0 0.016536,0.0145 0.54275,0.54275 0 0 0 0.0031,0.003 0.54275,0.54275 0 0 0 0.012402,0.0109 l 0.083199,0.0734 a 0.54275,0.54275 0 0 0 0.045992,0.0351 l 0.075448,0.0605 a 0.54275,0.54275 0 0 0 0.014986,0.0109 0.54275,0.54275 0 0 0 0.0062,0.005 0.54275,0.54275 0 0 0 0.013436,0.009 l 0.090434,0.0651 a 0.54275,0.54275 0 0 0 0.05426,0.0336 l 0.076481,0.0501 a 0.54275,0.54275 0 0 0 0.018087,0.0108 0.54275,0.54275 0 0 0 0.00517,0.003 0.54275,0.54275 0 0 0 0.013436,0.008 l 0.098185,0.0568 a 0.54275,0.54275 0 0 0 0.047542,0.0238 l 0.074931,0.0382 a 0.54275,0.54275 0 0 0 0.010335,0.006 l 0.00568,0.003 a 0.54275,0.54275 0 0 0 0.00258,0.001 0.54275,0.54275 0 0 0 0.020671,0.0103 l 0.093534,0.0419 a 0.54275,0.54275 0 0 0 0.049093,0.0227 l 0.1214396,0.047 a 0.54275,0.54275 0 0 0 0.00103,5.2e-4 0.54275,0.54275 0 0 0 0.024288,0.009 l 0.125057,0.0408 a 0.54275,0.54275 0 0 0 0.010335,0.003 0.54275,0.54275 0 0 0 0.014986,0.005 l 0.125057,0.0372 a 0.54275,0.54275 0 0 0 0.063045,0.0139 l 0.075964,0.0171 a 0.54275,0.54275 0 0 0 0.013953,0.004 l 0.0031,5.2e-4 a 0.54275,0.54275 0 0 0 0.00258,5.2e-4 0.54275,0.54275 0 0 0 0.024805,0.005 l 0.1307414,0.0238 a 0.54275,0.54275 0 0 0 0.042375,0.006 l 0.1198893,0.0155 a 0.54275,0.54275 0 0 0 0.048576,0.004 l 0.094568,0.007 a 0.54275,0.54275 0 0 0 0.048059,0.004 l 0.1369425,0.004 a 0.54275,0.54275 0 0 0 0.021187,-5.2e-4 H 78.251402 l 0.741557,0.13126 a 0.54275,0.54275 0 0 0 0.0041,5.2e-4 l 0.761194,0.16329 a 0.54275,0.54275 0 0 0 0.0047,5.2e-4 l 1.520837,0.40566 1.496033,0.49816 1.523421,0.60668 1.491899,0.68678 1.467611,0.76326 1.45004,0.8382 1.432471,0.90795 1.380277,0.95343 1.367359,1.01906 a 0.54275,0.54275 0 0 0 0.0083,0.005 l 1.312065,1.04748 a 0.54275,0.54275 0 0 0 10e-4,10e-4 l 1.254187,1.06609 a 0.54275,0.54275 0 0 0 0.0124,0.0129 l 1.247985,1.12913 a 0.54275,0.54275 0 0 0 0.0062,0.005 l 1.181323,1.13327 1.134814,1.15238 a 0.54275,0.54275 0 0 0 0.0052,0.005 l 1.074875,1.15394 a 0.54275,0.54275 0 0 0 0.003,0.003 l 0.50901,0.58808 a 0.54275,0.54275 0 0 0 0.002,0.003 l 0.52039,0.65526 0.99322,1.41232 0.94154,1.53634 a 0.54275,0.54275 0 0 0 0.002,0.002 l 0.87953,1.62109 0.82786,1.69498 a 0.54275,0.54275 0 0 0 0.005,0.008 l 0.76688,1.72806 a 0.54275,0.54275 0 0 0 0.003,0.006 l 0.70487,1.72599 a 0.54275,0.54275 0 0 0 0.003,0.01 l 0.65887,1.73736 a 0.54275,0.54275 0 0 0 0.001,0.003 l 1.15031,3.35173 a 0.54275,0.54275 0 0 0 0.002,0.008 l 0.92811,3.01377 a 0.54275,0.54275 0 0 0 0.003,0.007 l 1.16479,4.09019 a 0.54275,0.54275 0 0 0 0.004,0.0114 0.54275,0.54275 0 0 0 0.0181,0.0501 0.54275,0.54275 0 0 0 0.0108,0.0238 0.54275,0.54275 0 0 0 0.0264,0.0491 0.54275,0.54275 0 0 0 0.01,0.015 0.54275,0.54275 0 0 0 0.0388,0.0522 0.54275,0.54275 0 0 0 0.006,0.006 0.54275,0.54275 0 0 0 0.0434,0.0439 0.54275,0.54275 0 0 0 0.0103,0.01 0.54275,0.54275 0 0 0 5.1e-4,5.1e-4 0.54275,0.54275 0 0 0 0.0682,0.0506 l 0.0868,0.0532 a 0.54275,0.54275 0 0 0 0.0439,0.0269 l 0.0889,0.047 a 0.54275,0.54275 0 0 0 0.0439,0.0233 l 0.10542,0.0486 a 0.54275,0.54275 0 0 0 0.0501,0.0202 l 0.0889,0.0346 a 0.54275,0.54275 0 0 0 0.046,0.0155 l 0.0925,0.0315 a 0.54275,0.54275 0 0 0 0.0475,0.0134 l 0.0713,0.0191 a 0.54275,0.54275 0 0 0 0.061,0.016 l 0.23048,0.045 a 0.54275,0.54275 0 0 0 0.0724,0.009 l 0.21084,0.0227 a 0.54275,0.54275 0 0 0 0.0517,0.003 l 0.22945,0.007 a 0.54275,0.54275 0 0 0 0.0429,0 l 0.23823,-0.006 a 0.54275,0.54275 0 0 0 0.0589,-0.005 l 0.21859,-0.0165 a 0.54275,0.54275 0 0 0 0.0439,-0.005 l 0.20258,-0.0253 a 0.54275,0.54275 0 0 0 0.0171,-0.002 l 0.01,-10e-4 a 0.54275,0.54275 0 0 0 0.0155,-0.002 l 0.25425,-0.0372 a 0.54275,0.54275 0 0 0 0.0532,-0.0109 l 0.45526,-0.0806 a 0.54275,0.54275 0 0 0 0.0186,-0.003 l 0.49247,-0.0915 0.2341,-0.0393 0.24236,-0.0351 a 0.54275,0.54275 0 0 0 0.0439,-0.008 l 1.23145,-0.18707 a 0.54275,0.54275 0 0 0 0.0196,-0.004 l 0.0109,-0.002 a 0.54275,0.54275 0 0 0 0.005,-0.001 l 1.36839,-0.25684 a 0.54275,0.54275 0 0 0 0.0491,-0.0119 l 1.43763,-0.30851 a 0.54275,0.54275 0 0 0 0.01,-0.002 l 1.50585,-0.3576 a 0.54275,0.54275 0 0 0 0.0367,-0.007 l 3.129,-0.81442 a 0.54275,0.54275 0 0 0 0.0455,-0.014 l 3.00912,-0.85369 a 0.54275,0.54275 0 0 0 0.008,-0.002 l 2.7404,-0.82217 a 0.54275,0.54275 0 0 0 0.006,-0.002 l 0.0165,-0.005 a 0.54275,0.54275 0 0 0 5.2e-4,0 l 2.20761,-0.69246 a 0.54275,0.54275 0 0 0 0.006,-0.002 l 2.00762,-0.65319 a 0.54275,0.54275 0 0 0 0.0429,-0.0129 l 0.25993,-0.092 a 0.54275,0.54275 0 0 0 0.0419,-0.0165 l 0.22737,-0.0868 a 0.54275,0.54275 0 0 0 0.0439,-0.0186 l 0.20205,-0.0853 a 0.54275,0.54275 0 0 0 0.0413,-0.017 l 0.22325,-0.10594 a 0.54275,0.54275 0 0 0 0.017,-0.008 0.54275,0.54275 0 0 0 0.0233,-0.0114 l 0.23255,-0.12299 a 0.54275,0.54275 0 0 0 0.0439,-0.0258 l 0.18139,-0.10748 a 0.54275,0.54275 0 0 0 0.0481,-0.0289 l 0.20722,-0.14263 a 0.54275,0.54275 0 0 0 0.0486,-0.0377 l 0.0724,-0.0543 a 0.54275,0.54275 0 0 0 0.0393,-0.0326 l 0.0703,-0.0574 a 0.54275,0.54275 0 0 0 0.032,-0.0284 l 0.0563,-0.0501 a 0.54275,0.54275 0 0 0 0.0191,-0.017 0.54275,0.54275 0 0 0 0.0103,-0.01 0.54275,0.54275 0 0 0 0.007,-0.006 l 0.0863,-0.0837 a 0.54275,0.54275 0 0 0 0.0434,-0.0481 l 0.0429,-0.046 a 0.54275,0.54275 0 0 0 0.0114,-0.0119 0.54275,0.54275 0 0 0 0.0129,-0.0145 0.54275,0.54275 0 0 0 0.005,-0.005 l 0.0765,-0.0899 a 0.54275,0.54275 0 0 0 0.0171,-0.0217 l 0.001,-10e-4 a 0.54275,0.54275 0 0 0 0.008,-0.0114 l 0.0532,-0.0687 a 0.54275,0.54275 0 0 0 0.01,-0.0124 0.54275,0.54275 0 0 0 0.016,-0.0217 l 0.0532,-0.0785 a 0.54275,0.54275 0 0 0 0.0305,-0.0444 l 0.0548,-0.0899 a 0.54275,0.54275 0 0 0 0.006,-0.01 0.54275,0.54275 0 0 0 0.0155,-0.0274 l 0.006,-0.0103 a 0.54275,0.54275 0 0 0 0.002,-0.004 l 0.0413,-0.0786 a 0.54275,0.54275 0 0 0 0.006,-0.0108 0.54275,0.54275 0 0 0 0.014,-0.0274 l 0.0506,-0.10749 a 0.54275,0.54275 0 0 0 0.0186,-0.0455 l 0.0382,-0.0972 a 0.54275,0.54275 0 0 0 0.0181,-0.0548 l 0.0305,-0.0894 a 0.54275,0.54275 0 0 0 0.0181,-0.0703 l 0.0186,-0.0703 a 0.54275,0.54275 0 0 0 0.003,-0.01 0.54275,0.54275 0 0 0 0.003,-0.0139 0.54275,0.54275 0 0 0 0.005,-0.0176 l 0.0253,-0.12299 a 0.54275,0.54275 0 0 0 0.009,-0.0646 l 0.0145,-0.0935 a 0.54275,0.54275 0 0 0 0.005,-0.0661 l 0.008,-0.0848 a 0.54275,0.54275 0 0 0 0.001,-0.0134 0.54275,0.54275 0 0 0 0.002,-0.0289 l 0.004,-0.13695 a 0.54275,0.54275 0 0 0 0,-0.0289 V 1.4666103 a 0.54275,0.54275 0 0 0 -0.002,-0.00672 0.54275,0.54275 0 0 0 0,-0.00517 l -0.002,-0.1229899 a 0.54275,0.54275 0 0 0 0,-0.013953 0.54275,0.54275 0 0 0 0,-5.168e-4 0.54275,0.54275 0 0 0 -0.002,-0.028422 0.54275,0.54275 0 0 0 -0.002,-0.019637 l -0.008,-0.1173055 a 0.54275,0.54275 0 0 0 -0.007,-0.053743 l -0.0103,-0.09095 a 0.54275,0.54275 0 0 0 -0.006,-0.042891 l -0.0232,-0.1297079 a 0.54275,0.54275 0 0 0 0,-0.00103 0.54275,0.54275 0 0 0 -0.003,-0.013436 0.54275,0.54275 0 0 0 -0.003,-0.013953 l -0.003,-0.014469 a 0.54275,0.54275 0 0 0 -10e-4,-0.00258 l -0.0253,-0.1116211 a 0.54275,0.54275 0 0 0 -0.0145,-0.052193 l -0.0279,-0.098185 a 0.54275,0.54275 0 0 0 -0.002,-0.00517 0.54275,0.54275 0 0 0 -0.003,-0.00879 0.54275,0.54275 0 0 0 -0.004,-0.013436 l -0.0413,-0.125057 a 0.54275,0.54275 0 0 0 -0.005,-0.011886 0.54275,0.54275 0 0 0 -0.005,-0.013436 0.54275,0.54275 0 0 0 -0.009,-0.023771 l -0.0279,-0.069246 a 0.54275,0.54275 0 0 0 -0.0212,-0.053743 l -0.0527,-0.1173055 a 0.54275,0.54275 0 0 0 -0.005,-0.010335 0.54275,0.54275 0 0 0 -0.007,-0.012919 l -0.007,-0.014469 a 0.54275,0.54275 0 0 0 -5.2e-4,-0.00103 l -0.0506,-0.099735 a 0.54275,0.54275 0 0 0 -0.0264,-0.045992 l -0.0419,-0.074931 a 0.54275,0.54275 0 0 0 -0.0217,-0.037207 l -0.0486,-0.074414 a 0.54275,0.54275 0 0 0 -0.0351,-0.056327 l -0.0646,-0.089917 a 0.54275,0.54275 0 0 0 -0.006,-0.00879 l -0.003,-0.0031 a 0.54275,0.54275 0 0 0 -0.0171,-0.023254 l -0.0605,-0.075448 a 0.54275,0.54275 0 0 0 -0.0357,-0.045992 l -0.0816,-0.093534 a 0.54275,0.54275 0 0 0 -0.0196,-0.021704 l -0.077,-0.0800984 a 0.54275,0.54275 0 0 0 -0.006,-0.006201 l -0.004,-0.004134 a 0.54275,0.54275 0 0 0 -0.001,-0.001034 0.54275,0.54275 0 0 0 -0.009,-0.009302 0.54275,0.54275 0 0 0 -0.0103,-0.0103353 0.54275,0.54275 0 0 0 -0.0108,-0.0103353 l -0.0806,-0.0775147 a 0.54275,0.54275 0 0 0 -0.009,-0.007751 0.54275,0.54275 0 0 0 -0.003,-0.002067 0.54275,0.54275 0 0 0 -0.008,-0.007751 l -0.0124,-0.0108521 a 0.54275,0.54275 0 0 0 -0.002,-0.001034 l -0.0837,-0.072347 a 0.54275,0.54275 0 0 0 -0.008,-0.0062 0.54275,0.54275 0 0 0 -0.008,-0.00723 0.54275,0.54275 0 0 0 -0.003,-0.00207 l -0.0977,-0.078031 a 0.54275,0.54275 0 0 0 -0.002,-0.00207 0.54275,0.54275 0 0 0 -0.01,-0.00723 0.54275,0.54275 0 0 0 -0.0114,-0.00827 l -0.10542,-0.074414 a 0.54275,0.54275 0 0 0 -0.0217,-0.013436 l -0.009,-0.0062 a 0.54275,0.54275 0 0 0 -0.005,-0.0031 l -0.092,-0.059945 a 0.54275,0.54275 0 0 0 -0.001,-0.00103 0.54275,0.54275 0 0 0 -0.0109,-0.0062 0.54275,0.54275 0 0 0 -0.007,-0.00413 0.54275,0.54275 0 0 0 -0.006,-0.00362 l -0.0134,-0.00775 a 0.54275,0.54275 0 0 0 -5.2e-4,0 l -0.0977,-0.056327 a 0.54275,0.54275 0 0 0 -0.0103,-0.00517 0.54275,0.54275 0 0 0 -0.0129,-0.00672 0.54275,0.54275 0 0 0 -0.0212,-0.010852 l -0.0661,-0.033073 a 0.54275,0.54275 0 0 0 -0.006,-0.00362 l -0.007,-0.00362 a 0.54275,0.54275 0 0 0 -0.0382,-0.01912 l -0.0837,-0.037207 a 0.54275,0.54275 0 0 0 -0.0589,-0.027389 l -0.10646,-0.040824 a 0.54275,0.54275 0 0 0 -0.0403,-0.015503 l -0.12248,-0.040308 a 0.54275,0.54275 0 0 0 -0.003,-0.00103 0.54275,0.54275 0 0 0 -0.0114,-0.00362 0.54275,0.54275 0 0 0 -0.0139,-0.00413 l -0.12661,-0.037207 a 0.54275,0.54275 0 0 0 -0.0512,-0.011369 l -0.0744,-0.016536 a 0.54275,0.54275 0 0 0 -0.007,-0.00207 l -0.007,-0.00155 a 0.54275,0.54275 0 0 0 -0.0424,-0.0093 l -0.11576,-0.020154 a 0.54275,0.54275 0 0 0 -0.0424,-0.00723 l -0.13488,-0.01757 a 0.54275,0.54275 0 0 0 -0.0491,-0.00362 l -0.0971,-0.00723 a 0.54275,0.54275 0 0 0 -0.0429,-0.00258 l -0.14081,-0.00413 a 0.54275,0.54275 0 0 0 -0.0119,0 0.54275,0.54275 0 0 0 -0.002,0 H 3.7370876 a 0.54275,0.54275 0 0 0 -5.168e-4,0 0.54275,0.54275 0 0 0 -0.011369,0 z" />
  <circle
     style="display:inline;fill:#ff00ff;stroke-width:2"
     id="path64430"
     cx="143.92368"
     cy="158.28708"
     r="2.1166666"
     inkscape:label="marker" />
</svg>
