<?xml version="1.0" encoding="UTF-8" standalone="no"?>
<svg
   version="1.1"
   width="136.0932mm"
   height="150.5204mm"
   viewBox="0.0000 0.0000 136.0932 150.5204"
   id="svg64372"
   sodipodi:docname="genesys-master.svg"
   inkscape:version="1.2.1 (9c6d41e410, 2022-07-14)"
   xmlns:inkscape="http://www.inkscape.org/namespaces/inkscape"
   xmlns:sodipodi="http://sodipodi.sourceforge.net/DTD/sodipodi-0.dtd"
   xmlns="http://www.w3.org/2000/svg"
   xmlns:svg="http://www.w3.org/2000/svg">
  <defs
     id="defs64376">
    <inkscape:path-effect
       effect="fill_between_many"
       method="originald"
       linkedpaths="#path67996,0,1"
       id="path-effect68371" />
  </defs>
  <sodipodi:namedview
     id="namedview64374"
     pagecolor="#ffffff"
     bordercolor="#000000"
     borderopacity="0.25"
     inkscape:showpageshadow="2"
     inkscape:pageopacity="0.0"
     inkscape:pagecheckerboard="0"
     inkscape:deskcolor="#d1d1d1"
     inkscape:document-units="mm"
     showgrid="false"
     inkscape:zoom="1"
     inkscape:cx="303"
     inkscape:cy="419"
     inkscape:window-width="3440"
     inkscape:window-height="1369"
     inkscape:window-x="-8"
     inkscape:window-y="-8"
     inkscape:window-maximized="1"
     inkscape:current-layer="svg64372" />
  <title
     id="title63138">SVG Image created as genesys-User_Eco1.svg date 2023/04/03 00:57:01 </title>
  <desc
     id="desc63140">Image generated by PCBNEW </desc>
  <path
     id="path68504"
     style="display:inline;fill:#007bff;fill-opacity:1;stroke:none;stroke-width:1.005"
     inkscape:label="baseplate"
     d="M 3.1992879 0 L 3.0607951 0.0041341146 A 0.54275 0.54275 0 0 0 3.0179036 0.0067179362 L 2.9181681 0.013952637 A 0.54275 0.54275 0 0 0 2.8711426 0.017569987 L 2.7512533 0.033072917 A 0.54275 0.54275 0 0 0 2.7440186 0.034106445 L 2.7362671 0.035139974 A 0.54275 0.54275 0 0 0 2.7316162 0.036173503 A 0.54275 0.54275 0 0 0 2.7088786 0.039274089 L 2.5781372 0.062528483 A 0.54275 0.54275 0 0 0 2.5616007 0.066145833 A 0.54275 0.54275 0 0 0 2.5507487 0.068212891 L 2.4520467 0.090950521 A 0.54275 0.54275 0 0 0 2.3946859 0.10335286 L 2.2696289 0.1405599 A 0.54275 0.54275 0 0 0 2.2598104 0.14366048 A 0.54275 0.54275 0 0 0 2.2443075 0.14831136 L 2.1192505 0.18965251 A 0.54275 0.54275 0 0 0 2.0748088 0.20670573 L 1.9724894 0.24597982 A 0.54275 0.54275 0 0 0 1.9233968 0.26871745 L 1.8298625 0.31057536 A 0.54275 0.54275 0 0 0 1.7911051 0.3302124 L 1.7115234 0.37052002 A 0.54275 0.54275 0 0 0 1.6681152 0.39274089 L 1.56993 0.4490682 A 0.54275 0.54275 0 0 0 1.567863 0.45061849 L 1.5564941 0.45681966 A 0.54275 0.54275 0 0 0 1.5332397 0.4707723 L 1.4526245 0.52348226 A 0.54275 0.54275 0 0 0 1.4024984 0.55448812 L 1.2986287 0.62890218 A 0.54275 0.54275 0 0 0 1.2924276 0.63355306 A 0.54275 0.54275 0 0 0 1.2774414 0.64440511 L 1.1999268 0.70641683 A 0.54275 0.54275 0 0 0 1.1560018 0.74000651 L 1.0604004 0.8242391 A 0.54275 0.54275 0 0 0 1.0572998 0.82733968 A 0.54275 0.54275 0 0 0 1.0407633 0.84180908 L 0.94929606 0.92965902 A 0.54275 0.54275 0 0 0 0.93947754 0.93947754 A 0.54275 0.54275 0 0 0 0.92965902 0.94929606 A 0.54275 0.54275 0 0 0 0.91932373 0.96014811 L 0.84180908 1.0407633 A 0.54275 0.54275 0 0 0 0.82733968 1.0572998 A 0.54275 0.54275 0 0 0 0.8242391 1.0604004 A 0.54275 0.54275 0 0 0 0.81338704 1.0728027 L 0.74000651 1.1560018 A 0.54275 0.54275 0 0 0 0.70590007 1.2004435 L 0.64440511 1.2774414 A 0.54275 0.54275 0 0 0 0.63355306 1.2924276 A 0.54275 0.54275 0 0 0 0.62890218 1.2986287 A 0.54275 0.54275 0 0 0 0.61960042 1.3120646 L 0.55448812 1.4024984 A 0.54275 0.54275 0 0 0 0.52244873 1.4541748 L 0.4707723 1.5332397 A 0.54275 0.54275 0 0 0 0.45992025 1.5513265 A 0.54275 0.54275 0 0 0 0.45681966 1.5564941 L 0.45061849 1.567863 A 0.54275 0.54275 0 0 0 0.4490682 1.5704468 L 0.39274089 1.6681152 A 0.54275 0.54275 0 0 0 0.37052002 1.7115234 L 0.3302124 1.7911051 A 0.54275 0.54275 0 0 0 0.32969564 1.7921387 L 0.32246094 1.8066081 A 0.54275 0.54275 0 0 0 0.31057536 1.8298625 L 0.26871745 1.9233968 A 0.54275 0.54275 0 0 0 0.24597982 1.9724894 L 0.20670573 2.0748088 A 0.54275 0.54275 0 0 0 0.18965251 2.1192505 L 0.14831136 2.2443075 A 0.54275 0.54275 0 0 0 0.14366048 2.2598104 A 0.54275 0.54275 0 0 0 0.1405599 2.2696289 L 0.10335286 2.3946859 A 0.54275 0.54275 0 0 0 0.090433757 2.453597 L 0.068212891 2.5507487 A 0.54275 0.54275 0 0 0 0.066145833 2.5616007 A 0.54275 0.54275 0 0 0 0.062528483 2.5781372 L 0.039274089 2.7088786 A 0.54275 0.54275 0 0 0 0.036173503 2.7316162 A 0.54275 0.54275 0 0 0 0.035139974 2.7362671 L 0.034106445 2.7440186 A 0.54275 0.54275 0 0 0 0.033072917 2.7528035 L 0.017569987 2.8711426 A 0.54275 0.54275 0 0 0 0.013952637 2.9176514 L 0.0067179362 3.0168701 A 0.54275 0.54275 0 0 0 0.0062011719 3.0246216 L 0.0056844076 3.0334066 A 0.54275 0.54275 0 0 0 0.0056844076 3.0375407 A 0.54275 0.54275 0 0 0 0.0041341146 3.0607951 L 0 3.1992879 A 0.54275 0.54275 0 0 0 0 3.2106567 A 0.54275 0.54275 0 0 0 0 3.2111735 L 0 109.6915 A 0.54275 0.54275 0 0 0 0 109.69201 A 0.54275 0.54275 0 0 0 0 109.70338 L 0.0041341146 109.84187 A 0.54275 0.54275 0 0 0 0.0056844076 109.86461 A 0.54275 0.54275 0 0 0 0.0056844076 109.86926 L 0.0067179362 109.88011 A 0.54275 0.54275 0 0 0 0.0067179362 109.88477 L 0.013952637 109.98398 A 0.54275 0.54275 0 0 0 0.017569987 110.03101 L 0.033072917 110.14935 A 0.54275 0.54275 0 0 0 0.03462321 110.16175 L 0.035139974 110.16589 A 0.54275 0.54275 0 0 0 0.035656738 110.1695 A 0.54275 0.54275 0 0 0 0.039274089 110.19327 L 0.062528483 110.32402 A 0.54275 0.54275 0 0 0 0.066145833 110.34055 A 0.54275 0.54275 0 0 0 0.068212891 110.3514 L 0.090950521 110.45114 A 0.54275 0.54275 0 0 0 0.10335286 110.50798 L 0.1405599 110.63304 A 0.54275 0.54275 0 0 0 0.14366048 110.64183 A 0.54275 0.54275 0 0 0 0.14831136 110.65836 L 0.18965251 110.78342 A 0.54275 0.54275 0 0 0 0.20670573 110.82786 L 0.24597982 110.92966 A 0.54275 0.54275 0 0 0 0.26975098 110.98186 L 0.31057536 111.07229 A 0.54275 0.54275 0 0 0 0.3317627 111.11415 L 0.36896973 111.18753 A 0.54275 0.54275 0 0 0 0.39274089 111.23455 L 0.45681966 111.34566 A 0.54275 0.54275 0 0 0 0.45992025 111.35083 A 0.54275 0.54275 0 0 0 0.4707723 111.36891 L 0.52193197 111.44746 A 0.54275 0.54275 0 0 0 0.55448812 111.50017 L 0.62890218 111.60352 A 0.54275 0.54275 0 0 0 0.64440511 111.62523 L 0.70693359 111.70274 A 0.54275 0.54275 0 0 0 0.74000651 111.74615 L 0.8242391 111.84175 A 0.54275 0.54275 0 0 0 0.82733968 111.84485 A 0.54275 0.54275 0 0 0 0.84180908 111.86139 L 0.92965902 111.95337 A 0.54275 0.54275 0 0 0 0.94619548 111.96939 A 0.54275 0.54275 0 0 0 0.94929606 111.97249 A 0.54275 0.54275 0 0 0 0.96014811 111.98283 L 1.0407633 112.06034 A 0.54275 0.54275 0 0 0 1.0572998 112.07481 A 0.54275 0.54275 0 0 0 1.0604004 112.07791 A 0.54275 0.54275 0 0 0 1.0728027 112.08877 L 1.1560018 112.16215 A 0.54275 0.54275 0 0 0 1.2019938 112.19729 L 1.2774414 112.25775 A 0.54275 0.54275 0 0 0 1.2924276 112.2686 A 0.54275 0.54275 0 0 0 1.2986287 112.27325 A 0.54275 0.54275 0 0 0 1.3120646 112.28255 L 1.4024984 112.34766 A 0.54275 0.54275 0 0 0 1.4567586 112.38125 L 1.5332397 112.43138 A 0.54275 0.54275 0 0 0 1.5513265 112.44223 A 0.54275 0.54275 0 0 0 1.5564941 112.44533 A 0.54275 0.54275 0 0 0 1.56993 112.45308 L 1.6681152 112.50993 A 0.54275 0.54275 0 0 0 1.7156576 112.5337 L 1.7905884 112.57194 A 0.54275 0.54275 0 0 0 1.8009237 112.57762 L 1.8066081 112.58021 A 0.54275 0.54275 0 0 0 1.8091919 112.58124 A 0.54275 0.54275 0 0 0 1.8298625 112.59158 L 1.9233968 112.63344 A 0.54275 0.54275 0 0 0 1.9724894 112.65617 L 2.093929 112.7032 A 0.54275 0.54275 0 0 0 2.0949626 112.70372 A 0.54275 0.54275 0 0 0 2.1192505 112.71302 L 2.2443075 112.75384 A 0.54275 0.54275 0 0 0 2.2546427 112.75694 A 0.54275 0.54275 0 0 0 2.2696289 112.76159 L 2.3946859 112.7988 A 0.54275 0.54275 0 0 0 2.4577311 112.81275 L 2.5336955 112.82981 A 0.54275 0.54275 0 0 0 2.5476481 112.83342 L 2.5507487 112.83394 A 0.54275 0.54275 0 0 0 2.5533325 112.83446 A 0.54275 0.54275 0 0 0 2.5781372 112.83962 L 2.7088786 112.8634 A 0.54275 0.54275 0 0 0 2.7512533 112.86908 L 2.8711426 112.88458 A 0.54275 0.54275 0 0 0 2.9197184 112.8882 L 3.0142863 112.89492 A 0.54275 0.54275 0 0 0 3.0623454 112.89854 L 3.1992879 112.90267 A 0.54275 0.54275 0 0 0 3.2204753 112.90215 L 77.725488 112.90215 L 78.467045 113.03341 A 0.54275 0.54275 0 0 0 78.471179 113.03393 L 79.232373 113.19722 A 0.54275 0.54275 0 0 0 79.237024 113.19774 L 80.757861 113.6034 L 82.253894 114.10156 L 83.777315 114.70824 L 85.269214 115.39502 L 86.736825 116.15828 L 88.186865 116.99648 L 89.619336 117.90443 L 90.999613 118.85786 L 92.366972 119.87692 A 0.54275 0.54275 0 0 0 92.37524 119.88209 L 93.687305 120.92957 A 0.54275 0.54275 0 0 0 93.688338 120.9306 L 94.942525 121.99669 A 0.54275 0.54275 0 0 0 94.954928 122.00961 L 96.202913 123.13874 A 0.54275 0.54275 0 0 0 96.209115 123.1439 L 97.390438 124.27717 L 98.525252 125.42955 A 0.54275 0.54275 0 0 0 98.53042 125.4342 L 99.60529 126.58814 A 0.54275 0.54275 0 0 0 99.607874 126.59072 L 100.11689 127.1788 A 0.54275 0.54275 0 0 0 100.11895 127.18138 L 100.63934 127.83664 L 101.63256 129.24896 L 102.5741 130.7853 A 0.54275 0.54275 0 0 0 102.57565 130.78737 L 103.45518 132.40846 L 104.28304 134.10344 A 0.54275 0.54275 0 0 0 104.28769 134.11171 L 105.05457 135.83977 A 0.54275 0.54275 0 0 0 105.05767 135.84597 L 105.76254 137.57196 A 0.54275 0.54275 0 0 0 105.76564 137.58178 L 106.42451 139.31914 A 0.54275 0.54275 0 0 0 106.42555 139.32225 L 107.57586 142.67398 A 0.54275 0.54275 0 0 0 107.57793 142.68173 L 108.50604 145.6955 A 0.54275 0.54275 0 0 0 108.50914 145.70273 L 109.67393 149.79292 A 0.54275 0.54275 0 0 0 109.67806 149.80429 A 0.54275 0.54275 0 0 0 109.69615 149.85442 A 0.54275 0.54275 0 0 0 109.707 149.87819 A 0.54275 0.54275 0 0 0 109.73335 149.92728 A 0.54275 0.54275 0 0 0 109.74317 149.94227 A 0.54275 0.54275 0 0 0 109.78193 149.99446 A 0.54275 0.54275 0 0 0 109.78761 150.00066 A 0.54275 0.54275 0 0 0 109.83102 150.04459 A 0.54275 0.54275 0 0 0 109.84136 150.05441 A 0.54275 0.54275 0 0 0 109.84187 150.05492 A 0.54275 0.54275 0 0 0 109.91009 150.10557 L 109.9969 150.15879 A 0.54275 0.54275 0 0 0 110.04083 150.18566 L 110.12971 150.23269 A 0.54275 0.54275 0 0 0 110.17364 150.25594 L 110.27906 150.30452 A 0.54275 0.54275 0 0 0 110.32918 150.32467 L 110.41807 150.3593 A 0.54275 0.54275 0 0 0 110.46406 150.3748 L 110.55656 150.40632 A 0.54275 0.54275 0 0 0 110.6041 150.41976 L 110.67542 150.43888 A 0.54275 0.54275 0 0 0 110.73639 150.4549 L 110.96687 150.49986 A 0.54275 0.54275 0 0 0 111.03922 150.50864 L 111.25006 150.53138 A 0.54275 0.54275 0 0 0 111.30173 150.53396 L 111.53118 150.5412 A 0.54275 0.54275 0 0 0 111.57407 150.5412 L 111.8123 150.535 A 0.54275 0.54275 0 0 0 111.87121 150.53035 L 112.0898 150.51381 A 0.54275 0.54275 0 0 0 112.13372 150.50864 L 112.3363 150.48332 A 0.54275 0.54275 0 0 0 112.35335 150.48125 L 112.36317 150.48022 A 0.54275 0.54275 0 0 0 112.37867 150.47867 L 112.63292 150.44146 A 0.54275 0.54275 0 0 0 112.68615 150.43061 L 113.14141 150.35 A 0.54275 0.54275 0 0 0 113.16002 150.34741 L 113.65249 150.25594 L 113.88659 150.21667 L 114.12895 150.18153 A 0.54275 0.54275 0 0 0 114.17288 150.17326 L 115.40433 149.98619 A 0.54275 0.54275 0 0 0 115.42396 149.98258 L 115.43481 149.98051 A 0.54275 0.54275 0 0 0 115.43998 149.97948 L 116.80837 149.72264 A 0.54275 0.54275 0 0 0 116.85747 149.71076 L 118.2951 149.40225 A 0.54275 0.54275 0 0 0 118.30492 149.40018 L 119.81077 149.04258 A 0.54275 0.54275 0 0 0 119.84747 149.03535 L 122.97647 148.22093 A 0.54275 0.54275 0 0 0 123.02195 148.20697 L 126.03107 147.35328 A 0.54275 0.54275 0 0 0 126.03882 147.35173 L 128.77922 146.52956 A 0.54275 0.54275 0 0 0 128.7849 146.52749 L 128.80144 146.52232 A 0.54275 0.54275 0 0 0 128.80196 146.52232 L 131.00957 145.82986 A 0.54275 0.54275 0 0 0 131.01578 145.82831 L 133.0234 145.17512 A 0.54275 0.54275 0 0 0 133.0663 145.1622 L 133.32623 145.07021 A 0.54275 0.54275 0 0 0 133.36809 145.05368 L 133.59546 144.96686 A 0.54275 0.54275 0 0 0 133.63939 144.94826 L 133.84144 144.86299 A 0.54275 0.54275 0 0 0 133.88278 144.84594 L 134.10603 144.74 A 0.54275 0.54275 0 0 0 134.12308 144.73225 A 0.54275 0.54275 0 0 0 134.14633 144.72088 L 134.37888 144.59789 A 0.54275 0.54275 0 0 0 134.4228 144.57205 L 134.60419 144.46457 A 0.54275 0.54275 0 0 0 134.65225 144.43563 L 134.85947 144.293 A 0.54275 0.54275 0 0 0 134.90804 144.25528 L 134.98039 144.20102 A 0.54275 0.54275 0 0 0 135.01967 144.16846 L 135.08995 144.1111 A 0.54275 0.54275 0 0 0 135.12198 144.08268 L 135.17831 144.03255 A 0.54275 0.54275 0 0 0 135.19743 144.0155 A 0.54275 0.54275 0 0 0 135.20777 144.00568 A 0.54275 0.54275 0 0 0 135.21449 144 L 135.30079 143.91628 A 0.54275 0.54275 0 0 0 135.34419 143.86822 L 135.38708 143.82223 A 0.54275 0.54275 0 0 0 135.39845 143.81034 A 0.54275 0.54275 0 0 0 135.41137 143.79587 A 0.54275 0.54275 0 0 0 135.41602 143.79122 L 135.4925 143.70131 A 0.54275 0.54275 0 0 0 135.50956 143.6796 L 135.51059 143.67857 A 0.54275 0.54275 0 0 0 135.51886 143.6672 L 135.57209 143.59847 A 0.54275 0.54275 0 0 0 135.58191 143.58607 A 0.54275 0.54275 0 0 0 135.59792 143.56436 L 135.65115 143.48582 A 0.54275 0.54275 0 0 0 135.68164 143.44137 L 135.73642 143.35146 A 0.54275 0.54275 0 0 0 135.7421 143.34164 A 0.54275 0.54275 0 0 0 135.7576 143.31425 L 135.76329 143.30391 A 0.54275 0.54275 0 0 0 135.76536 143.3003 L 135.8067 143.22175 A 0.54275 0.54275 0 0 0 135.81238 143.2109 A 0.54275 0.54275 0 0 0 135.82633 143.18351 L 135.87698 143.07602 A 0.54275 0.54275 0 0 0 135.89558 143.03055 L 135.93382 142.93339 A 0.54275 0.54275 0 0 0 135.95191 142.87862 L 135.9824 142.78922 A 0.54275 0.54275 0 0 0 136.00048 142.71894 L 136.01909 142.64866 A 0.54275 0.54275 0 0 0 136.02167 142.63884 A 0.54275 0.54275 0 0 0 136.02477 142.62489 A 0.54275 0.54275 0 0 0 136.02942 142.60732 L 136.05474 142.48433 A 0.54275 0.54275 0 0 0 136.06353 142.41973 L 136.078 142.3262 A 0.54275 0.54275 0 0 0 136.08317 142.26005 L 136.09092 142.1753 A 0.54275 0.54275 0 0 0 136.09195 142.16187 A 0.54275 0.54275 0 0 0 136.0935 142.13293 L 136.09764 141.99598 A 0.54275 0.54275 0 0 0 136.09764 141.96705 L 136.09764 3.2111735 A 0.54275 0.54275 0 0 0 136.09557 3.2044556 A 0.54275 0.54275 0 0 0 136.09557 3.1992879 L 136.0935 3.076298 A 0.54275 0.54275 0 0 0 136.0935 3.0623454 A 0.54275 0.54275 0 0 0 136.0935 3.0618286 A 0.54275 0.54275 0 0 0 136.09195 3.0334066 A 0.54275 0.54275 0 0 0 136.0904 3.0137695 L 136.08213 2.896464 A 0.54275 0.54275 0 0 0 136.0749 2.8427205 L 136.06456 2.75177 A 0.54275 0.54275 0 0 0 136.05836 2.7088786 L 136.03511 2.5791707 A 0.54275 0.54275 0 0 0 136.03511 2.5781372 A 0.54275 0.54275 0 0 0 136.03252 2.5647013 A 0.54275 0.54275 0 0 0 136.02942 2.5507487 L 136.02632 2.5362793 A 0.54275 0.54275 0 0 0 136.02529 2.5336955 L 135.99997 2.4220744 A 0.54275 0.54275 0 0 0 135.9855 2.3698812 L 135.95759 2.271696 A 0.54275 0.54275 0 0 0 135.95604 2.2665283 A 0.54275 0.54275 0 0 0 135.95346 2.2577433 A 0.54275 0.54275 0 0 0 135.94932 2.2443075 L 135.90798 2.1192505 A 0.54275 0.54275 0 0 0 135.90333 2.1073649 A 0.54275 0.54275 0 0 0 135.89816 2.093929 A 0.54275 0.54275 0 0 0 135.88886 2.0701579 L 135.86096 2.0009115 A 0.54275 0.54275 0 0 0 135.83977 1.947168 L 135.78706 1.8298625 A 0.54275 0.54275 0 0 0 135.78189 1.8195272 A 0.54275 0.54275 0 0 0 135.77517 1.8066081 L 135.76794 1.7921387 A 0.54275 0.54275 0 0 0 135.76742 1.7911051 L 135.71678 1.6913696 A 0.54275 0.54275 0 0 0 135.69043 1.6453776 L 135.64857 1.5704468 A 0.54275 0.54275 0 0 0 135.62686 1.5332397 L 135.57829 1.4588257 A 0.54275 0.54275 0 0 0 135.54315 1.4024984 L 135.47855 1.3125814 A 0.54275 0.54275 0 0 0 135.47287 1.3037964 L 135.47028 1.3006958 A 0.54275 0.54275 0 0 0 135.45323 1.2774414 L 135.39277 1.2019938 A 0.54275 0.54275 0 0 0 135.35711 1.1560018 L 135.27546 1.0624674 A 0.54275 0.54275 0 0 0 135.25583 1.0407633 L 135.17883 0.96066488 A 0.54275 0.54275 0 0 0 135.17263 0.9544637 L 135.16901 0.95032959 A 0.54275 0.54275 0 0 0 135.16798 0.94929606 A 0.54275 0.54275 0 0 0 135.15868 0.9399943 A 0.54275 0.54275 0 0 0 135.14834 0.92965902 A 0.54275 0.54275 0 0 0 135.13749 0.91932373 L 135.05687 0.84180908 A 0.54275 0.54275 0 0 0 135.04809 0.83405762 A 0.54275 0.54275 0 0 0 135.0455 0.83199056 A 0.54275 0.54275 0 0 0 135.03724 0.8242391 L 135.02483 0.81338704 A 0.54275 0.54275 0 0 0 135.02328 0.81235352 L 134.93957 0.74000651 A 0.54275 0.54275 0 0 0 134.9313 0.73380534 A 0.54275 0.54275 0 0 0 134.92303 0.72657064 A 0.54275 0.54275 0 0 0 134.91993 0.72450358 L 134.82226 0.64647217 A 0.54275 0.54275 0 0 0 134.82019 0.64440511 A 0.54275 0.54275 0 0 0 134.81038 0.63717041 A 0.54275 0.54275 0 0 0 134.79901 0.62890218 L 134.69359 0.55448812 A 0.54275 0.54275 0 0 0 134.67188 0.54105225 L 134.66258 0.53485107 A 0.54275 0.54275 0 0 0 134.65741 0.53175049 L 134.56543 0.47180583 A 0.54275 0.54275 0 0 0 134.5644 0.4707723 A 0.54275 0.54275 0 0 0 134.55354 0.46457113 A 0.54275 0.54275 0 0 0 134.54683 0.46043701 A 0.54275 0.54275 0 0 0 134.54114 0.45681966 L 134.52771 0.4490682 A 0.54275 0.54275 0 0 0 134.52719 0.4490682 L 134.42952 0.39274089 A 0.54275 0.54275 0 0 0 134.41919 0.38757324 A 0.54275 0.54275 0 0 0 134.40627 0.38085531 A 0.54275 0.54275 0 0 0 134.38508 0.37000326 L 134.31893 0.33693034 A 0.54275 0.54275 0 0 0 134.31273 0.33331299 L 134.30601 0.32969564 A 0.54275 0.54275 0 0 0 134.26777 0.31057536 L 134.18406 0.27336833 A 0.54275 0.54275 0 0 0 134.12515 0.24597982 L 134.01869 0.20515544 A 0.54275 0.54275 0 0 0 133.97839 0.18965251 L 133.85591 0.14934489 A 0.54275 0.54275 0 0 0 133.85333 0.14831136 A 0.54275 0.54275 0 0 0 133.84196 0.14469401 A 0.54275 0.54275 0 0 0 133.82801 0.1405599 L 133.7014 0.10335286 A 0.54275 0.54275 0 0 0 133.65024 0.091984049 L 133.57583 0.075447591 A 0.54275 0.54275 0 0 0 133.56859 0.073380534 L 133.56187 0.071830241 A 0.54275 0.54275 0 0 0 133.5195 0.062528483 L 133.40374 0.042374674 A 0.54275 0.54275 0 0 0 133.36137 0.035139974 L 133.22649 0.017569987 A 0.54275 0.54275 0 0 0 133.1774 0.013952637 L 133.08025 0.0067179362 A 0.54275 0.54275 0 0 0 133.03736 0.0041341146 L 132.89835 0 A 0.54275 0.54275 0 0 0 132.88646 0 A 0.54275 0.54275 0 0 0 132.88491 0 L 3.2111735 0 A 0.54275 0.54275 0 0 0 3.2106567 0 A 0.54275 0.54275 0 0 0 3.1992879 0 z " />
  <g
     style="display:none;fill:#d0d2cd;fill-opacity:0;stroke:#d0d2cd;stroke-width:0.12;stroke-linecap:round;stroke-linejoin:round;stroke-opacity:1"
     id="g64370"
     inkscape:label="led cutouts">
    <path
       d="m 88.7316,73.2919 h -3.4"
       id="path63840" />
    <path
       d="m 88.7316,70.2919 v 3"
       id="path63842" />
    <path
       d="m 85.3316,73.2919 v -3"
       id="path63844" />
    <path
       d="m 85.3316,70.2919 h 3.4"
       id="path63846" />
    <path
       d="m 107.7816,73.2919 h -3.4"
       id="path63848" />
    <path
       d="m 107.7816,70.2919 v 3"
       id="path63850" />
    <path
       d="m 104.3816,73.2919 v -3"
       id="path63852" />
    <path
       d="m 104.3816,70.2919 h 3.4"
       id="path63854" />
    <path
       d="m 9.1316,13.2919 h 3.4"
       id="path63856" />
    <path
       d="m 9.1316,16.2919 v -3"
       id="path63858" />
    <path
       d="m 12.5316,13.2919 v 3"
       id="path63860" />
    <path
       d="m 12.5316,16.2919 h -3.4"
       id="path63862" />
    <path
       d="m 47.1078,51.3219 h 3.4"
       id="path63864" />
    <path
       d="m 47.1078,54.3219 v -3"
       id="path63866" />
    <path
       d="m 50.5078,51.3219 v 3"
       id="path63868" />
    <path
       d="m 50.5078,54.3219 h -3.4"
       id="path63870" />
    <path
       d="m 32.7778,94.0419 h 3.4"
       id="path63872" />
    <path
       d="m 32.7778,97.0419 v -3"
       id="path63874" />
    <path
       d="m 36.1778,94.0419 v 3"
       id="path63876" />
    <path
       d="m 36.1778,97.0419 h -3.4"
       id="path63878" />
    <path
       d="m 31.5816,73.2919 h -3.4"
       id="path63880" />
    <path
       d="m 31.5816,70.2919 v 3"
       id="path63882" />
    <path
       d="m 28.1816,73.2919 v -3"
       id="path63884" />
    <path
       d="m 28.1816,70.2919 h 3.4"
       id="path63886" />
    <path
       d="m 69.6816,35.2044 h -3.4"
       id="path63888" />
    <path
       d="m 69.6816,32.2044 v 3"
       id="path63890" />
    <path
       d="m 66.2816,35.2044 v -3"
       id="path63892" />
    <path
       d="m 66.2816,32.2044 h 3.4"
       id="path63894" />
    <path
       d="m 47.2316,13.2919 h 3.4"
       id="path63896" />
    <path
       d="m 47.2316,16.2919 v -3"
       id="path63898" />
    <path
       d="m 50.6316,13.2919 v 3"
       id="path63900" />
    <path
       d="m 50.6316,16.2919 h -3.4"
       id="path63902" />
    <path
       d="m 9.0078,51.3219 h 3.4"
       id="path63904" />
    <path
       d="m 9.0078,54.3219 v -3"
       id="path63906" />
    <path
       d="m 12.4078,51.3219 v 3"
       id="path63908" />
    <path
       d="m 12.4078,54.3219 h -3.4"
       id="path63910" />
    <path
       d="m 69.6816,73.2919 h -3.4"
       id="path63912" />
    <path
       d="m 69.6816,70.2919 v 3"
       id="path63914" />
    <path
       d="m 66.2816,73.2919 v -3"
       id="path63916" />
    <path
       d="m 66.2816,70.2919 h 3.4"
       id="path63918" />
    <path
       d="m 118.438,135.3453 0.88,3.2842"
       id="path63920" />
    <path
       d="m 115.5402,136.1218 2.8978,-0.7765"
       id="path63922" />
    <path
       d="m 119.318,138.6295 -2.8978,0.7764"
       id="path63924" />
    <path
       d="m 116.4202,139.4059 -0.88,-3.2841"
       id="path63926" />
    <path
       d="m 85.2078,51.3219 h 3.4"
       id="path63928" />
    <path
       d="m 85.2078,54.3219 v -3"
       id="path63930" />
    <path
       d="m 88.6078,51.3219 v 3"
       id="path63932" />
    <path
       d="m 88.6078,54.3219 h -3.4"
       id="path63934" />
    <path
       d="m 12.5316,73.2919 h -3.4"
       id="path63936" />
    <path
       d="m 12.5316,70.2919 v 3"
       id="path63938" />
    <path
       d="m 9.1316,73.2919 v -3"
       id="path63940" />
    <path
       d="m 9.1316,70.2919 h 3.4"
       id="path63942" />
    <path
       d="m 52.0278,94.0419 h 3.4"
       id="path63944" />
    <path
       d="m 52.0278,97.0419 v -3"
       id="path63946" />
    <path
       d="m 55.4278,94.0419 v 3"
       id="path63948" />
    <path
       d="m 55.4278,97.0419 h -3.4"
       id="path63950" />
    <path
       d="m 28.1816,13.2919 h 3.4"
       id="path63952" />
    <path
       d="m 28.1816,16.2919 v -3"
       id="path63954" />
    <path
       d="m 31.5816,13.2919 v 3"
       id="path63956" />
    <path
       d="m 31.5816,16.2919 h -3.4"
       id="path63958" />
    <path
       d="m 66.1578,51.3219 h 3.4"
       id="path63960" />
    <path
       d="m 66.1578,54.3219 v -3"
       id="path63962" />
    <path
       d="m 69.5578,51.3219 v 3"
       id="path63964" />
    <path
       d="m 69.5578,54.3219 h -3.4"
       id="path63966" />
    <path
       d="m 28.0578,51.3219 h 3.4"
       id="path63968" />
    <path
       d="m 28.0578,54.3219 v -3"
       id="path63970" />
    <path
       d="m 31.4578,51.3219 v 3"
       id="path63972" />
    <path
       d="m 31.4578,54.3219 h -3.4"
       id="path63974" />
    <path
       d="m 85.3316,13.2919 h 3.4"
       id="path63976" />
    <path
       d="m 85.3316,16.2919 v -3"
       id="path63978" />
    <path
       d="m 88.7316,13.2919 v 3"
       id="path63980" />
    <path
       d="m 88.7316,16.2919 h -3.4"
       id="path63982" />
    <path
       d="m 126.8316,73.2919 h -3.4"
       id="path63984" />
    <path
       d="m 126.8316,70.2919 v 3"
       id="path63986" />
    <path
       d="m 123.4316,73.2919 v -3"
       id="path63988" />
    <path
       d="m 123.4316,70.2919 h 3.4"
       id="path63990" />
    <path
       d="m 66.2816,13.2919 h 3.4"
       id="path63992" />
    <path
       d="m 66.2816,16.2919 v -3"
       id="path63994" />
    <path
       d="m 69.6816,13.2919 v 3"
       id="path63996" />
    <path
       d="m 69.6816,16.2919 h -3.4"
       id="path63998" />
    <path
       d="m 12.5316,35.2044 h -3.4"
       id="path64000" />
    <path
       d="m 12.5316,32.2044 v 3"
       id="path64002" />
    <path
       d="m 9.1316,35.2044 v -3"
       id="path64004" />
    <path
       d="m 9.1316,32.2044 h 3.4"
       id="path64006" />
    <path
       d="m 71.0078,94.0719 h 3.4"
       id="path64008" />
    <path
       d="m 71.0078,97.0719 v -3"
       id="path64010" />
    <path
       d="m 74.4078,94.0719 v 3"
       id="path64012" />
    <path
       d="m 74.4078,97.0719 h -3.4"
       id="path64014" />
    <path
       d="m 88.7316,35.2044 h -3.4"
       id="path64016" />
    <path
       d="m 88.7316,32.2044 v 3"
       id="path64018" />
    <path
       d="m 85.3316,35.2044 v -3"
       id="path64020" />
    <path
       d="m 85.3316,32.2044 h 3.4"
       id="path64022" />
    <path
       d="m 108.3134,116.6888 2.1855,2.6045"
       id="path64024" />
    <path
       d="m 106.0153,118.6171 2.2981,-1.9283"
       id="path64026" />
    <path
       d="m 110.4989,119.2933 -2.2982,1.9284"
       id="path64028" />
    <path
       d="m 108.2007,121.2217 -2.1854,-2.6046"
       id="path64030" />
    <path
       d="m 50.6316,73.2919 h -3.4"
       id="path64032" />
    <path
       d="m 50.6316,70.2919 v 3"
       id="path64034" />
    <path
       d="m 47.2316,73.2919 v -3"
       id="path64036" />
    <path
       d="m 47.2316,70.2919 h 3.4"
       id="path64038" />
    <path
       d="m 50.6316,35.2044 h -3.4"
       id="path64040" />
    <path
       d="m 50.6316,32.2044 v 3"
       id="path64042" />
    <path
       d="m 47.2316,35.2044 v -3"
       id="path64044" />
    <path
       d="m 47.2316,32.2044 h 3.4"
       id="path64046" />
    <path
       d="m 90.7967,104.2196 3.0814,1.4369"
       id="path64048" />
    <path
       d="m 89.5288,106.9385 1.2679,-2.7189"
       id="path64050" />
    <path
       d="m 93.8781,105.6565 -1.2678,2.7189"
       id="path64052" />
    <path
       d="m 92.6103,108.3754 -3.0815,-1.4369"
       id="path64054" />
    <path
       d="m 123.3078,51.3219 h 3.4"
       id="path64056" />
    <path
       d="m 123.3078,54.3219 v -3"
       id="path64058" />
    <path
       d="m 126.7078,51.3219 v 3"
       id="path64060" />
    <path
       d="m 126.7078,54.3219 h -3.4"
       id="path64062" />
    <path
       d="m 126.8316,35.2044 h -3.4"
       id="path64064" />
    <path
       d="m 126.8316,32.2044 v 3"
       id="path64066" />
    <path
       d="m 123.4316,35.2044 v -3"
       id="path64068" />
    <path
       d="m 123.4316,32.2044 h 3.4"
       id="path64070" />
    <path
       d="m 31.5816,35.2044 h -3.4"
       id="path64072" />
    <path
       d="m 31.5816,32.2044 v 3"
       id="path64074" />
    <path
       d="m 28.1816,35.2044 v -3"
       id="path64076" />
    <path
       d="m 28.1816,32.2044 h 3.4"
       id="path64078" />
    <path
       d="m 104.3816,13.2919 h 3.4"
       id="path64080" />
    <path
       d="m 104.3816,16.2919 v -3"
       id="path64082" />
    <path
       d="m 107.7816,13.2919 v 3"
       id="path64084" />
    <path
       d="m 107.7816,16.2919 h -3.4"
       id="path64086" />
    <path
       d="m 104.2578,51.3219 h 3.4"
       id="path64088" />
    <path
       d="m 104.2578,54.3219 v -3"
       id="path64090" />
    <path
       d="m 107.6578,51.3219 v 3"
       id="path64092" />
    <path
       d="m 107.6578,54.3219 h -3.4"
       id="path64094" />
    <path
       d="m 107.7816,35.2044 h -3.4"
       id="path64096" />
    <path
       d="m 107.7816,32.2044 v 3"
       id="path64098" />
    <path
       d="m 104.3816,35.2044 v -3"
       id="path64100" />
    <path
       d="m 104.3816,32.2044 h 3.4"
       id="path64102" />
    <path
       d="m 123.4316,13.2919 h 3.4"
       id="path64104" />
    <path
       d="m 123.4316,16.2919 v -3"
       id="path64106" />
    <path
       d="m 126.8316,13.2919 v 3"
       id="path64108" />
    <path
       d="m 126.8316,16.2919 h -3.4"
       id="path64110" />
    <path
       d="m 9.0678,103.5819 h 3.4"
       id="path64112" />
    <path
       d="m 9.0678,106.5819 v -3"
       id="path64114" />
    <path
       d="m 12.4678,103.5819 v 3"
       id="path64116" />
    <path
       d="m 12.4678,106.5819 h -3.4"
       id="path64118" />
    <g
       id="g64120" />
    <g
       id="g64122" />
    <g
       id="g64124" />
    <g
       id="g64126" />
    <g
       id="g64128" />
    <g
       id="g64130" />
    <g
       id="g64132" />
    <g
       id="g64134" />
    <g
       id="g64136" />
    <g
       id="g64138" />
    <g
       id="g64140" />
    <g
       id="g64142" />
    <g
       id="g64144" />
    <g
       id="g64146" />
    <g
       id="g64148" />
    <g
       id="g64150" />
    <g
       id="g64152" />
    <g
       id="g64154" />
    <g
       id="g64156" />
    <g
       id="g64158" />
    <g
       id="g64160" />
    <g
       id="g64162" />
    <g
       id="g64164" />
    <g
       id="g64166" />
    <g
       id="g64168" />
    <g
       id="g64170" />
    <g
       id="g64172" />
    <g
       id="g64174" />
    <g
       id="g64176" />
    <g
       id="g64178" />
    <g
       id="g64180" />
    <g
       id="g64182" />
    <g
       id="g64184" />
    <g
       id="g64186" />
    <g
       id="g64188" />
    <g
       id="g64190" />
    <g
       id="g64192" />
    <g
       id="g64194" />
    <g
       id="g64196" />
    <g
       id="g64198" />
    <g
       id="g64200" />
    <g
       id="g64202" />
    <g
       id="g64204" />
    <g
       id="g64206" />
    <g
       id="g64208" />
    <g
       id="g64210" />
    <g
       id="g64212" />
    <g
       id="g64214" />
    <g
       id="g64216" />
    <g
       id="g64218" />
    <g
       id="g64220" />
    <g
       id="g64222" />
    <g
       id="g64224" />
    <g
       id="g64226" />
    <g
       id="g64228" />
    <g
       id="g64230" />
    <g
       id="g64232" />
    <g
       id="g64234" />
    <g
       id="g64236" />
    <g
       id="g64238" />
    <g
       id="g64240" />
    <g
       id="g64242" />
    <g
       id="g64244" />
    <g
       id="g64246" />
    <g
       id="g64248" />
    <g
       id="g64250" />
    <g
       id="g64252" />
    <g
       id="g64254" />
    <g
       id="g64256" />
    <g
       id="g64258" />
    <g
       id="g64260" />
    <g
       id="g64262" />
    <g
       id="g64264" />
    <g
       id="g64266" />
    <g
       id="g64268" />
    <g
       id="g64270" />
    <g
       id="g64272" />
    <g
       id="g64274" />
    <g
       id="g64276" />
    <g
       id="g64278" />
    <g
       id="g64280" />
    <g
       id="g64282" />
    <g
       id="g64284" />
    <g
       id="g64286" />
    <g
       id="g64288" />
    <g
       id="g64290" />
    <g
       id="g64292" />
    <g
       id="g64294" />
    <g
       id="g64296" />
    <g
       id="g64298" />
    <g
       id="g64300" />
    <g
       id="g64302" />
    <g
       id="g64304" />
    <g
       id="g64306" />
    <g
       id="g64308" />
    <g
       id="g64310" />
    <g
       id="g64312" />
    <g
       id="g64314" />
    <g
       id="g64316" />
    <g
       id="g64318" />
    <g
       id="g64320" />
    <g
       id="g64322" />
    <g
       id="g64324" />
    <g
       id="g64326" />
    <g
       id="g64328" />
    <g
       id="g64330" />
    <g
       id="g64332" />
    <g
       id="g64334" />
    <g
       id="g64336" />
    <g
       id="g64338" />
    <g
       id="g64340" />
    <g
       id="g64342" />
    <g
       id="g64344" />
    <g
       id="g64346" />
    <g
       id="g64348" />
    <g
       id="g64350" />
    <g
       id="g64352" />
    <g
       id="g64354" />
    <g
       id="g64356" />
    <g
       id="g64358" />
    <g
       id="g64360" />
    <g
       id="g64362" />
    <g
       id="g64364" />
    <g
       id="g64366" />
    <g
       id="g64368" />
  </g>
  <g
     style="display:none;fill:#d0d2cd;fill-opacity:0;stroke:#d0d2cd;stroke-width:1.0855;stroke-linecap:round;stroke-linejoin:round;stroke-opacity:1"
     id="g63838"
     inkscape:label="plate path">
    <path
       d="m 3.2119,0.5428 v 0"
       id="path63476"
       inkscape:label="path63476" />
    <path
       d="M 3.0742,0.5462 3.2119,0.5428"
       id="path63478" />
    <path
       d="M 2.9383,0.5565 3.0742,0.5462"
       id="path63480" />
    <path
       d="M 2.8044,0.5734 2.9383,0.5565"
       id="path63482" />
    <path
       d="M 2.6727,0.5968 2.8044,0.5734"
       id="path63484" />
    <path
       d="M 2.5433,0.6265 2.6727,0.5968"
       id="path63486" />
    <path
       d="M 2.4165,0.6624 2.5433,0.6265"
       id="path63488" />
    <path
       d="M 2.2923,0.7042 2.4165,0.6624"
       id="path63490" />
    <path
       d="M 2.171,0.7519 2.2923,0.7042"
       id="path63492" />
    <path
       d="M 2.0527,0.8052 2.171,0.7519"
       id="path63494" />
    <path
       d="M 1.9376,0.864 2.0527,0.8052"
       id="path63496" />
    <path
       d="M 1.8258,0.9281 1.9376,0.864"
       id="path63498" />
    <path
       d="M 1.7176,0.9974 1.8258,0.9281"
       id="path63500" />
    <path
       d="M 1.613,1.0717 1.7176,0.9974"
       id="path63502" />
    <path
       d="M 1.5122,1.1508 1.613,1.0717"
       id="path63504" />
    <path
       d="M 1.4154,1.2346 1.5122,1.1508"
       id="path63506" />
    <path
       d="M 1.3228,1.3228 1.4154,1.2346"
       id="path63508" />
    <path
       d="M 1.2346,1.4154 1.3228,1.3228"
       id="path63510" />
    <path
       d="M 1.1508,1.5122 1.2346,1.4154"
       id="path63512" />
    <path
       d="M 1.0717,1.613 1.1508,1.5122"
       id="path63514" />
    <path
       d="M 0.9974,1.7176 1.0717,1.613"
       id="path63516" />
    <path
       d="M 0.9281,1.8258 0.9974,1.7176"
       id="path63518" />
    <path
       d="M 0.864,1.9376 0.9281,1.8258"
       id="path63520" />
    <path
       d="M 0.8052,2.0527 0.864,1.9376"
       id="path63522" />
    <path
       d="M 0.7519,2.171 0.8052,2.0527"
       id="path63524" />
    <path
       d="M 0.7042,2.2923 0.7519,2.171"
       id="path63526" />
    <path
       d="M 0.6624,2.4165 0.7042,2.2923"
       id="path63528" />
    <path
       d="M 0.6265,2.5433 0.6624,2.4165"
       id="path63530" />
    <path
       d="M 0.5968,2.6727 0.6265,2.5433"
       id="path63532" />
    <path
       d="M 0.5734,2.8044 0.5968,2.6727"
       id="path63534" />
    <path
       d="M 0.5565,2.9383 0.5734,2.8044"
       id="path63536" />
    <path
       d="M 0.5462,3.0742 0.5565,2.9383"
       id="path63538" />
    <path
       d="M 0.5428,3.2119 0.5462,3.0742"
       id="path63540" />
    <path
       d="M 0.5428,109.6905 V 3.2119"
       id="path63542" />
    <path
       d="M 0.5462,109.8282 0.5428,109.6905"
       id="path63544" />
    <path
       d="M 0.5565,109.9641 0.5462,109.8282"
       id="path63546" />
    <path
       d="M 0.5734,110.098 0.5565,109.9641"
       id="path63548" />
    <path
       d="M 0.5968,110.2297 0.5734,110.098"
       id="path63550" />
    <path
       d="M 0.6265,110.3591 0.5968,110.2297"
       id="path63552" />
    <path
       d="M 0.6624,110.4859 0.6265,110.3591"
       id="path63554" />
    <path
       d="M 0.7042,110.6101 0.6624,110.4859"
       id="path63556" />
    <path
       d="M 0.7519,110.7314 0.7042,110.6101"
       id="path63558" />
    <path
       d="M 0.8052,110.8497 0.7519,110.7314"
       id="path63560" />
    <path
       d="M 0.864,110.9648 0.8052,110.8497"
       id="path63562" />
    <path
       d="M 0.9281,111.0766 0.864,110.9648"
       id="path63564" />
    <path
       d="M 0.9974,111.1848 0.9281,111.0766"
       id="path63566" />
    <path
       d="M 1.0717,111.2894 0.9974,111.1848"
       id="path63568" />
    <path
       d="M 1.1508,111.3902 1.0717,111.2894"
       id="path63570" />
    <path
       d="M 1.2346,111.487 1.1508,111.3902"
       id="path63572" />
    <path
       d="M 1.3228,111.5796 1.2346,111.487"
       id="path63574" />
    <path
       d="M 1.4154,111.6678 1.3228,111.5796"
       id="path63576" />
    <path
       d="M 1.5122,111.7516 1.4154,111.6678"
       id="path63578" />
    <path
       d="M 1.613,111.8307 1.5122,111.7516"
       id="path63580" />
    <path
       d="M 1.7176,111.905 1.613,111.8307"
       id="path63582" />
    <path
       d="M 1.8258,111.9743 1.7176,111.905"
       id="path63584" />
    <path
       d="M 1.9376,112.0384 1.8258,111.9743"
       id="path63586" />
    <path
       d="M 2.0527,112.0972 1.9376,112.0384"
       id="path63588" />
    <path
       d="M 2.171,112.1505 2.0527,112.0972"
       id="path63590" />
    <path
       d="M 2.2923,112.1982 2.171,112.1505"
       id="path63592" />
    <path
       d="M 2.4165,112.24 2.2923,112.1982"
       id="path63594" />
    <path
       d="M 2.5433,112.2759 2.4165,112.24"
       id="path63596" />
    <path
       d="M 2.6727,112.3056 2.5433,112.2759"
       id="path63598" />
    <path
       d="M 2.8044,112.329 2.6727,112.3056"
       id="path63600" />
    <path
       d="M 2.9383,112.3459 2.8044,112.329"
       id="path63602" />
    <path
       d="M 3.0742,112.3562 2.9383,112.3459"
       id="path63604" />
    <path
       d="m 3.2119,112.3596 -0.1377,-0.003"
       id="path63606" />
    <path
       d="M 77.777,112.3596 H 3.2119"
       id="path63608" />
    <path
       d="m 78.562,112.4985 -0.785,-0.1389"
       id="path63610" />
    <path
       d="M 79.3454,112.6656 78.562,112.4985"
       id="path63612" />
    <path
       d="m 80.9057,113.0805 -1.5603,-0.4149"
       id="path63614" />
    <path
       d="m 82.4547,113.597 -1.549,-0.5165"
       id="path63616" />
    <path
       d="M 83.9889,114.2078 82.4547,113.597"
       id="path63618" />
    <path
       d="m 85.5048,114.9055 -1.5159,-0.6977"
       id="path63620" />
    <path
       d="m 86.9991,115.6828 -1.4943,-0.7773"
       id="path63622" />
    <path
       d="m 88.4683,116.5324 -1.4692,-0.8496"
       id="path63624" />
    <path
       d="m 89.9092,117.4468 -1.4409,-0.9144"
       id="path63626" />
    <path
       d="m 91.3181,118.4188 -1.4089,-0.972"
       id="path63628" />
    <path
       d="m 92.6918,119.4411 -1.3737,-1.0223"
       id="path63630" />
    <path
       d="m 94.0269,120.5062 -1.3351,-1.0651"
       id="path63632" />
    <path
       d="m 95.3198,121.6068 -1.2929,-1.1006"
       id="path63634" />
    <path
       d="m 96.5673,122.7356 -1.2475,-1.1288"
       id="path63636" />
    <path
       d="m 97.7659,123.8853 -1.1986,-1.1497"
       id="path63638" />
    <path
       d="m 98.9122,125.0485 -1.1463,-1.1632"
       id="path63640" />
    <path
       d="m 100.0028,126.2179 -1.0906,-1.1694"
       id="path63642" />
    <path
       d="m 100.5447,126.8439 -0.5419,-0.626"
       id="path63644" />
    <path
       d="m 101.072,127.5094 -0.5273,-0.6655"
       id="path63646" />
    <path
       d="m 102.0834,128.9459 -1.0114,-1.4365"
       id="path63648" />
    <path
       d="m 103.0369,130.5014 -0.9535,-1.5555"
       id="path63650" />
    <path
       d="m 103.9326,132.1496 -0.8957,-1.6482"
       id="path63652" />
    <path
       d="m 104.7706,133.8643 -0.838,-1.7147"
       id="path63654" />
    <path
       d="m 105.5509,135.6195 -0.7803,-1.7552"
       id="path63656" />
    <path
       d="m 106.2736,137.389 -0.7227,-1.7695"
       id="path63658" />
    <path
       d="m 106.9388,139.1467 -0.6652,-1.7577"
       id="path63660" />
    <path
       d="m 108.0967,142.5219 -1.1579,-3.3752"
       id="path63662" />
    <path
       d="m 109.0251,145.5359 -0.9284,-3.014"
       id="path63664" />
    <path
       d="m 110.1953,149.6439 -1.1702,-4.108"
       id="path63666" />
    <path
       d="m 110.297,149.7068 -0.1017,-0.0629"
       id="path63668" />
    <path
       d="m 110.4012,149.7626 -0.1042,-0.0558"
       id="path63670" />
    <path
       d="m 110.5076,149.8117 -0.1064,-0.0491"
       id="path63672" />
    <path
       d="m 110.6163,149.8543 -0.1087,-0.0426"
       id="path63674" />
    <path
       d="m 110.727,149.8908 -0.1107,-0.0365"
       id="path63676" />
    <path
       d="m 110.8397,149.9215 -0.1127,-0.0307"
       id="path63678" />
    <path
       d="m 111.0704,149.9664 -0.2307,-0.0449"
       id="path63680" />
    <path
       d="m 111.3074,149.9916 -0.237,-0.0252"
       id="path63682" />
    <path
       d="m 111.5498,149.9993 -0.2424,-0.008"
       id="path63684" />
    <path
       d="m 111.7965,149.992 -0.2467,0.007"
       id="path63686" />
    <path
       d="m 112.0465,149.9721 -0.25,0.0199"
       id="path63688" />
    <path
       d="m 112.299,149.9419 -0.2525,0.0302"
       id="path63690" />
    <path
       d="m 112.5528,149.9039 -0.2538,0.038"
       id="path63692" />
    <path
       d="m 113.0607,149.8137 -0.5079,0.0902"
       id="path63694" />
    <path
       d="m 113.5623,149.7207 -0.5016,0.093"
       id="path63696" />
    <path
       d="m 113.8083,149.6791 -0.246,0.0416"
       id="path63698" />
    <path
       d="m 114.0497,149.6439 -0.2414,0.0352"
       id="path63700" />
    <path
       d="m 115.3227,149.4495 -1.273,0.1944"
       id="path63702" />
    <path
       d="m 116.7083,149.1884 -1.3856,0.2611"
       id="path63704" />
    <path
       d="m 118.1797,148.8714 -1.4714,0.317"
       id="path63706" />
    <path
       d="m 119.71,148.5096 -1.5303,0.3618"
       id="path63708" />
    <path
       d="m 122.8399,147.6951 -3.1299,0.8145"
       id="path63710" />
    <path
       d="m 125.8828,146.8323 -3.0429,0.8628"
       id="path63712" />
    <path
       d="m 128.6238,146.009 -2.741,0.8233"
       id="path63714" />
    <path
       d="m 130.8479,145.3125 -2.2241,0.6965"
       id="path63716" />
    <path
       d="m 132.8852,144.6502 -2.0373,0.6623"
       id="path63718" />
    <path
       d="m 133.1459,144.5582 -0.2607,0.092"
       id="path63720" />
    <path
       d="m 133.4019,144.4598 -0.256,0.0984"
       id="path63722" />
    <path
       d="m 133.6515,144.3542 -0.2496,0.1056"
       id="path63724" />
    <path
       d="m 133.893,144.2407 -0.2415,0.1135"
       id="path63726" />
    <path
       d="m 134.1247,144.1184 -0.2317,0.1223"
       id="path63728" />
    <path
       d="m 134.3451,143.9868 -0.2204,0.1316"
       id="path63730" />
    <path
       d="m 134.5523,143.8449 -0.2072,0.1419"
       id="path63732" />
    <path
       d="m 134.6506,143.7698 -0.0983,0.0751"
       id="path63734" />
    <path
       d="m 134.7449,143.692 -0.0943,0.0778"
       id="path63736" />
    <path
       d="m 134.8351,143.6112 -0.0902,0.0808"
       id="path63738" />
    <path
       d="m 134.921,143.5273 -0.0859,0.0839"
       id="path63740" />
    <path
       d="m 135.0024,143.4403 -0.0814,0.087"
       id="path63742" />
    <path
       d="m 135.079,143.3501 -0.0766,0.0902"
       id="path63744" />
    <path
       d="m 135.1507,143.2566 -0.0717,0.0935"
       id="path63746" />
    <path
       d="m 135.2173,143.1597 -0.0666,0.0969"
       id="path63748" />
    <path
       d="m 135.2785,143.0592 -0.0612,0.1005"
       id="path63750" />
    <path
       d="m 135.3342,142.9551 -0.0557,0.1041"
       id="path63752" />
    <path
       d="m 135.3841,142.8474 -0.0499,0.1077"
       id="path63754" />
    <path
       d="m 135.428,142.7358 -0.0439,0.1116"
       id="path63756" />
    <path
       d="m 135.4657,142.6203 -0.0377,0.1155"
       id="path63758" />
    <path
       d="m 135.4971,142.5008 -0.0314,0.1195"
       id="path63760" />
    <path
       d="m 135.5218,142.3773 -0.0247,0.1235"
       id="path63762" />
    <path
       d="m 135.5398,142.2495 -0.018,0.1278"
       id="path63764" />
    <path
       d="m 135.5507,142.1175 -0.0109,0.132"
       id="path63766" />
    <path
       d="m 135.5543,141.9811 -0.004,0.1364"
       id="path63768" />
    <path
       d="M 135.5543,3.2119 V 141.9811"
       id="path63770" />
    <path
       d="m 135.5509,3.0742 0.003,0.1377"
       id="path63772" />
    <path
       d="m 135.5406,2.9383 0.0103,0.1359"
       id="path63774" />
    <path
       d="m 135.5237,2.8044 0.0169,0.1339"
       id="path63776" />
    <path
       d="m 135.5003,2.6727 0.0234,0.1317"
       id="path63778" />
    <path
       d="m 135.4706,2.5433 0.0297,0.1294"
       id="path63780" />
    <path
       d="m 135.4347,2.4165 0.0359,0.1268"
       id="path63782" />
    <path
       d="m 135.3929,2.2923 0.0418,0.1242"
       id="path63784" />
    <path
       d="m 135.3452,2.171 0.0477,0.1213"
       id="path63786" />
    <path
       d="m 135.2919,2.0527 0.0533,0.1183"
       id="path63788" />
    <path
       d="m 135.2331,1.9376 0.0588,0.1151"
       id="path63790" />
    <path
       d="m 135.169,1.8258 0.0641,0.1118"
       id="path63792" />
    <path
       d="m 135.0997,1.7176 0.0693,0.1082"
       id="path63794" />
    <path
       d="m 135.0254,1.613 0.0743,0.1046"
       id="path63796" />
    <path
       d="m 134.9463,1.5122 0.0791,0.1008"
       id="path63798" />
    <path
       d="m 134.8625,1.4154 0.0838,0.0968"
       id="path63800" />
    <path
       d="m 134.7743,1.3228 0.0882,0.0926"
       id="path63802" />
    <path
       d="m 134.6817,1.2346 0.0926,0.0882"
       id="path63804" />
    <path
       d="m 134.5849,1.1508 0.0968,0.0838"
       id="path63806" />
    <path
       d="m 134.4842,1.0717 0.1007,0.0791"
       id="path63808" />
    <path
       d="m 134.3795,0.9974 0.1047,0.0743"
       id="path63810" />
    <path
       d="m 134.2713,0.9281 0.1082,0.0693"
       id="path63812" />
    <path
       d="m 134.1595,0.864 0.1118,0.0641"
       id="path63814" />
    <path
       d="m 134.0444,0.8052 0.1151,0.0588"
       id="path63816" />
    <path
       d="m 133.9261,0.7519 0.1183,0.0533"
       id="path63818" />
    <path
       d="m 133.8048,0.7042 0.1213,0.0477"
       id="path63820" />
    <path
       d="m 133.6806,0.6624 0.1242,0.0418"
       id="path63822" />
    <path
       d="m 133.5538,0.6265 0.1268,0.0359"
       id="path63824" />
    <path
       d="m 133.4244,0.5968 0.1294,0.0297"
       id="path63826" />
    <path
       d="m 133.2927,0.5734 0.1317,0.0234"
       id="path63828" />
    <path
       d="m 133.1588,0.5565 0.1339,0.0169"
       id="path63830" />
    <path
       d="m 133.0229,0.5462 0.1359,0.0103"
       id="path63832" />
    <path
       d="m 132.8852,0.5428 0.1377,0.0034"
       id="path63834" />
    <path
       d="M 3.2119,0.5428 H 132.8852"
       id="path63836" />
  </g>
  <circle
     style="display:inline;fill:#ff00ff;stroke-width:2"
     id="path64430"
     cx="143.39777"
     cy="160.03165"
     r="2.1166666"
     inkscape:label="marker" />
  <g
     id="g85894"
     transform="translate(-69.799447,-48.818566)"
     inkscape:label="switch mount holes"
     style="display:inline">
    <circle
       cx="185.27716"
       cy="175.85548"
       r="1.65"
       id="circle83293"
       style="fill:#b4dbd2;fill-opacity:1;stroke:#b4dbd2;stroke-width:0;stroke-linecap:round;stroke-linejoin:round;stroke-opacity:1" />
    <circle
       cx="185.91217"
       cy="107.27548"
       r="1.65"
       id="circle83295"
       style="fill:#b4dbd2;fill-opacity:1;stroke:#b4dbd2;stroke-width:0;stroke-linecap:round;stroke-linejoin:round;stroke-opacity:1" />
    <circle
       cx="185.91217"
       cy="68.425484"
       r="1.65"
       id="circle83297"
       style="fill:#b4dbd2;fill-opacity:1;stroke:#b4dbd2;stroke-width:0;stroke-linecap:round;stroke-linejoin:round;stroke-opacity:1" />
    <circle
       cx="90.027168"
       cy="107.27548"
       r="1.65"
       id="circle83299"
       style="fill:#b4dbd2;fill-opacity:1;stroke:#b4dbd2;stroke-width:0;stroke-linecap:round;stroke-linejoin:round;stroke-opacity:1" />
    <circle
       cx="90.027168"
       cy="68.425484"
       r="1.65"
       id="circle83301"
       style="fill:#b4dbd2;fill-opacity:1;stroke:#b4dbd2;stroke-width:0;stroke-linecap:round;stroke-linejoin:round;stroke-opacity:1" />
    <path
       style="fill:#b4dbd2;fill-opacity:1;fill-rule:evenodd;stroke:#b4dbd2;stroke-width:0;stroke-linecap:round;stroke-linejoin:round;stroke-opacity:1"
       d="m 92.577167,123.06048 h 14.050003 v -14.05 H 92.577167"
       id="path83305" />
    <path
       style="fill:#b4dbd2;fill-opacity:1;fill-rule:evenodd;stroke:#b4dbd2;stroke-width:0;stroke-linecap:round;stroke-linejoin:round;stroke-opacity:1"
       d="m 130.67717,65.910483 h 14.05 v -14.05 h -14.05"
       id="path83307" />
    <path
       style="fill:#b4dbd2;fill-opacity:1;fill-rule:evenodd;stroke:#b4dbd2;stroke-width:0;stroke-linecap:round;stroke-linejoin:round;stroke-opacity:1"
       d="m 130.67717,104.01048 h 14.05 V 89.960483 h -14.05"
       id="path83309" />
    <path
       style="fill:#b4dbd2;fill-opacity:1;fill-rule:evenodd;stroke:#b4dbd2;stroke-width:0;stroke-linecap:round;stroke-linejoin:round;stroke-opacity:1"
       d="m 97.339667,146.87298 h 14.050003 v -14.05 H 97.339667"
       id="path83311" />
    <path
       style="fill:#b4dbd2;fill-opacity:1;fill-rule:evenodd;stroke:#b4dbd2;stroke-width:0;stroke-linecap:round;stroke-linejoin:round;stroke-opacity:1"
       d="m 168.77717,123.06048 h 14.05 v -14.05 h -14.05"
       id="path83313" />
    <path
       style="fill:#b4dbd2;fill-opacity:1;fill-rule:evenodd;stroke:#b4dbd2;stroke-width:0;stroke-linecap:round;stroke-linejoin:round;stroke-opacity:1"
       d="m 73.527167,104.01048 h 14.05 V 89.960483 h -14.05"
       id="path83315" />
    <path
       style="fill:#b4dbd2;fill-opacity:1;fill-rule:evenodd;stroke:#b4dbd2;stroke-width:0;stroke-linecap:round;stroke-linejoin:round;stroke-opacity:1"
       d="m 135.43967,146.87298 h 14.05 v -14.05 h -14.05"
       id="path83317" />
    <path
       style="fill:#b4dbd2;fill-opacity:1;fill-rule:evenodd;stroke:#b4dbd2;stroke-width:0;stroke-linecap:round;stroke-linejoin:round;stroke-opacity:1"
       d="m 92.577167,84.960483 h 14.050003 v -14.05 H 92.577167"
       id="path83319" />
    <path
       style="fill:#b4dbd2;fill-opacity:1;fill-rule:evenodd;stroke:#b4dbd2;stroke-width:0;stroke-linecap:round;stroke-linejoin:round;stroke-opacity:1"
       d="m 111.62717,84.960483 h 14.05 v -14.05 h -14.05"
       id="path83321" />
    <path
       style="fill:#b4dbd2;fill-opacity:1;fill-rule:evenodd;stroke:#b4dbd2;stroke-width:0;stroke-linecap:round;stroke-linejoin:round;stroke-opacity:1"
       d="m 168.77717,104.01048 h 14.05 V 89.960483 h -14.05"
       id="path83323" />
    <path
       style="fill:#b4dbd2;fill-opacity:1;fill-rule:evenodd;stroke:#b4dbd2;stroke-width:0;stroke-linecap:round;stroke-linejoin:round;stroke-opacity:1"
       d="m 187.82717,65.910483 h 14.05 v -14.05 h -14.05"
       id="path83325" />
    <path
       style="fill:#b4dbd2;fill-opacity:1;fill-rule:evenodd;stroke:#b4dbd2;stroke-width:0;stroke-linecap:round;stroke-linejoin:round;stroke-opacity:1"
       d="m 154.06167,154.35358 12.7336,5.9378 5.9378,-12.7336 -12.7336,-5.9378"
       id="path83327" />
    <path
       style="fill:#b4dbd2;fill-opacity:1;fill-rule:evenodd;stroke:#b4dbd2;stroke-width:0;stroke-linecap:round;stroke-linejoin:round;stroke-opacity:1"
       d="m 187.82717,123.06048 h 14.05 v -14.05 h -14.05"
       id="path83329" />
    <path
       style="fill:#b4dbd2;fill-opacity:1;fill-rule:evenodd;stroke:#b4dbd2;stroke-width:0;stroke-linecap:round;stroke-linejoin:round;stroke-opacity:1"
       d="m 111.62717,123.06048 h 14.05 v -14.05 h -14.05"
       id="path83331" />
    <path
       style="fill:#b4dbd2;fill-opacity:1;fill-rule:evenodd;stroke:#b4dbd2;stroke-width:0;stroke-linecap:round;stroke-linejoin:round;stroke-opacity:1"
       d="m 171.70037,163.92368 9.0311,10.7629 10.7629,-9.0312 -9.0311,-10.7629"
       id="path83333" />
    <path
       style="fill:#b4dbd2;fill-opacity:1;fill-rule:evenodd;stroke:#b4dbd2;stroke-width:0;stroke-linecap:round;stroke-linejoin:round;stroke-opacity:1"
       d="m 168.77717,65.910483 h 14.05 v -14.05 h -14.05"
       id="path83335" />
    <path
       style="fill:#b4dbd2;fill-opacity:1;fill-rule:evenodd;stroke:#b4dbd2;stroke-width:0;stroke-linecap:round;stroke-linejoin:round;stroke-opacity:1"
       d="m 149.72717,123.06048 h 14.05 v -14.05 h -14.05"
       id="path83337" />
    <path
       style="fill:#b4dbd2;fill-opacity:1;fill-rule:evenodd;stroke:#b4dbd2;stroke-width:0;stroke-linecap:round;stroke-linejoin:round;stroke-opacity:1"
       d="m 73.527167,123.06048 h 14.05 v -14.05 h -14.05"
       id="path83339" />
    <path
       style="fill:#b4dbd2;fill-opacity:1;fill-rule:evenodd;stroke:#b4dbd2;stroke-width:0;stroke-linecap:round;stroke-linejoin:round;stroke-opacity:1"
       d="m 183.19357,179.88828 3.6364,13.5713 13.5712,-3.6365 -3.6364,-13.5712"
       id="path83341" />
    <path
       style="fill:#b4dbd2;fill-opacity:1;fill-rule:evenodd;stroke:#b4dbd2;stroke-width:0;stroke-linecap:round;stroke-linejoin:round;stroke-opacity:1"
       d="m 149.72717,84.960483 h 14.05 v -14.05 h -14.05"
       id="path83343" />
    <path
       style="fill:#b4dbd2;fill-opacity:1;fill-rule:evenodd;stroke:#b4dbd2;stroke-width:0;stroke-linecap:round;stroke-linejoin:round;stroke-opacity:1"
       d="m 92.577167,65.910483 h 14.050003 v -14.05 H 92.577167"
       id="path83345" />
    <path
       style="fill:#b4dbd2;fill-opacity:1;fill-rule:evenodd;stroke:#b4dbd2;stroke-width:0;stroke-linecap:round;stroke-linejoin:round;stroke-opacity:1"
       d="m 168.77717,84.960483 h 14.05 v -14.05 h -14.05"
       id="path83347" />
    <path
       style="fill:#b4dbd2;fill-opacity:1;fill-rule:evenodd;stroke:#b4dbd2;stroke-width:0;stroke-linecap:round;stroke-linejoin:round;stroke-opacity:1"
       d="M 92.577167,104.01048 H 106.62717 V 89.960483 H 92.577167"
       id="path83349" />
    <path
       style="fill:#b4dbd2;fill-opacity:1;fill-rule:evenodd;stroke:#b4dbd2;stroke-width:0;stroke-linecap:round;stroke-linejoin:round;stroke-opacity:1"
       d="m 187.82717,104.01048 h 14.05 V 89.960483 h -14.05"
       id="path83351" />
    <path
       style="fill:#b4dbd2;fill-opacity:1;fill-rule:evenodd;stroke:#b4dbd2;stroke-width:0;stroke-linecap:round;stroke-linejoin:round;stroke-opacity:1"
       d="m 73.527167,156.39798 h 14.05 v -14.05 h -14.05"
       id="path83353" />
    <path
       style="fill:#b4dbd2;fill-opacity:1;fill-rule:evenodd;stroke:#b4dbd2;stroke-width:0;stroke-linecap:round;stroke-linejoin:round;stroke-opacity:1"
       d="m 111.62717,65.910483 h 14.05 v -14.05 h -14.05"
       id="path83355" />
    <path
       style="fill:#b4dbd2;fill-opacity:1;fill-rule:evenodd;stroke:#b4dbd2;stroke-width:0;stroke-linecap:round;stroke-linejoin:round;stroke-opacity:1"
       d="m 187.82717,84.960483 h 14.05 v -14.05 h -14.05"
       id="path83357" />
    <path
       style="fill:#b4dbd2;fill-opacity:1;fill-rule:evenodd;stroke:#b4dbd2;stroke-width:0;stroke-linecap:round;stroke-linejoin:round;stroke-opacity:1"
       d="m 116.31217,146.87298 h 14.05 v -14.05 h -14.05"
       id="path83359" />
    <path
       style="fill:#b4dbd2;fill-opacity:1;fill-rule:evenodd;stroke:#b4dbd2;stroke-width:0;stroke-linecap:round;stroke-linejoin:round;stroke-opacity:1"
       d="m 149.72717,65.910483 h 14.05 v -14.05 h -14.05"
       id="path83361" />
    <path
       style="fill:#b4dbd2;fill-opacity:1;fill-rule:evenodd;stroke:#b4dbd2;stroke-width:0;stroke-linecap:round;stroke-linejoin:round;stroke-opacity:1"
       d="m 149.72717,104.01048 h 14.05 V 89.960483 h -14.05"
       id="path83363" />
    <path
       style="fill:#b4dbd2;fill-opacity:1;fill-rule:evenodd;stroke:#b4dbd2;stroke-width:0;stroke-linecap:round;stroke-linejoin:round;stroke-opacity:1"
       d="m 73.527167,84.960483 h 14.05 v -14.05 h -14.05"
       id="path83365" />
    <path
       style="fill:#b4dbd2;fill-opacity:1;fill-rule:evenodd;stroke:#b4dbd2;stroke-width:0;stroke-linecap:round;stroke-linejoin:round;stroke-opacity:1"
       d="m 130.67717,123.06048 h 14.05 v -14.05 h -14.05"
       id="path83367" />
    <path
       style="fill:#b4dbd2;fill-opacity:1;fill-rule:evenodd;stroke:#b4dbd2;stroke-width:0;stroke-linecap:round;stroke-linejoin:round;stroke-opacity:1"
       d="m 111.62717,104.01048 h 14.05 V 89.960483 h -14.05"
       id="path83369" />
    <path
       style="fill:#b4dbd2;fill-opacity:1;fill-rule:evenodd;stroke:#b4dbd2;stroke-width:0;stroke-linecap:round;stroke-linejoin:round;stroke-opacity:1"
       d="m 73.527167,65.910483 h 14.05 v -14.05 h -14.05"
       id="path83371" />
    <path
       style="display:inline;fill:#b4dbd2;fill-opacity:1;fill-rule:evenodd;stroke:#b4dbd2;stroke-width:0;stroke-linecap:round;stroke-linejoin:round;stroke-opacity:1"
       d="m 130.67717,84.960483 h 14.05 v -14.05 h -14.05"
       id="path83373" />
  </g>
</svg>
