<?xml version="1.0" standalone="no"?>
 <!DOCTYPE svg PUBLIC "-//W3C//DTD SVG 1.1//EN" 
 "http://www.w3.org/Graphics/SVG/1.1/DTD/svg11.dtd"> 
<svg
  xmlns:svg="http://www.w3.org/2000/svg"
  xmlns="http://www.w3.org/2000/svg"
  xmlns:xlink="http://www.w3.org/1999/xlink"
  version="1.1"
  width="156.5910mm" height="150.6982mm" viewBox="0.0000 0.0000 156.5910 150.6982">
<title>SVG Image created as genesys-Edge_Cuts.svg date 2023/04/06 13:30:38 </title>
  <desc>Image generated by PCBNEW </desc>
<g style="fill:#000000; fill-opacity:1.0000;stroke:#000000; stroke-opacity:1.0000;
stroke-linecap:round; stroke-linejoin:round;"
 transform="translate(0 0) scale(1 1)">
</g>
<g style="fill:#000000; fill-opacity:0.0; 
stroke:#000000; stroke-width:0.0000; stroke-opacity:1; 
stroke-linecap:round; stroke-linejoin:round;">
</g>
<g style="fill:#D0D2CD; fill-opacity:0.0; 
stroke:#D0D2CD; stroke-width:0.0000; stroke-opacity:1; 
stroke-linecap:round; stroke-linejoin:round;">
</g>
<g style="fill:#D0D2CD; fill-opacity:0.0; 
stroke:#D0D2CD; stroke-width:1.0855; stroke-opacity:1; 
stroke-linecap:round; stroke-linejoin:round;">
<path d="M3.2119 0.7108
L3.2119 0.7108
" />
<path d="M3.0742 0.7143
L3.2119 0.7108
" />
<path d="M2.9383 0.7246
L3.0742 0.7143
" />
<path d="M2.8044 0.7415
L2.9383 0.7246
" />
<path d="M2.6727 0.7649
L2.8044 0.7415
" />
<path d="M2.5433 0.7946
L2.6727 0.7649
" />
<path d="M2.4165 0.8304
L2.5433 0.7946
" />
<path d="M2.2923 0.8723
L2.4165 0.8304
" />
<path d="M2.1710 0.9200
L2.2923 0.8723
" />
<path d="M2.0527 0.9733
L2.1710 0.9200
" />
<path d="M1.9376 1.0321
L2.0527 0.9733
" />
<path d="M1.8258 1.0962
L1.9376 1.0321
" />
<path d="M1.7176 1.1655
L1.8258 1.0962
" />
<path d="M1.6130 1.2398
L1.7176 1.1655
" />
<path d="M1.5122 1.3189
L1.6130 1.2398
" />
<path d="M1.4154 1.4026
L1.5122 1.3189
" />
<path d="M1.3228 1.4909
L1.4154 1.4026
" />
<path d="M1.2346 1.5835
L1.3228 1.4909
" />
<path d="M1.1508 1.6803
L1.2346 1.5835
" />
<path d="M1.0717 1.7810
L1.1508 1.6803
" />
<path d="M0.9974 1.8856
L1.0717 1.7810
" />
<path d="M0.9281 1.9939
L0.9974 1.8856
" />
<path d="M0.8640 2.1057
L0.9281 1.9939
" />
<path d="M0.8052 2.2208
L0.8640 2.1057
" />
<path d="M0.7519 2.3391
L0.8052 2.2208
" />
<path d="M0.7042 2.4604
L0.7519 2.3391
" />
<path d="M0.6624 2.5846
L0.7042 2.4604
" />
<path d="M0.6265 2.7114
L0.6624 2.5846
" />
<path d="M0.5968 2.8408
L0.6265 2.7114
" />
<path d="M0.5734 2.9725
L0.5968 2.8408
" />
<path d="M0.5565 3.1063
L0.5734 2.9725
" />
<path d="M0.5462 3.2422
L0.5565 3.1063
" />
<path d="M0.5428 3.3800
L0.5462 3.2422
" />
<path d="M0.5428 109.8585
L0.5428 3.3800
" />
<path d="M0.5462 109.9963
L0.5428 109.8585
" />
<path d="M0.5565 110.1322
L0.5462 109.9963
" />
<path d="M0.5734 110.2661
L0.5565 110.1322
" />
<path d="M0.5968 110.3978
L0.5734 110.2661
" />
<path d="M0.6265 110.5271
L0.5968 110.3978
" />
<path d="M0.6624 110.6540
L0.6265 110.5271
" />
<path d="M0.7042 110.7781
L0.6624 110.6540
" />
<path d="M0.7519 110.8994
L0.7042 110.7781
" />
<path d="M0.8052 111.0177
L0.7519 110.8994
" />
<path d="M0.8640 111.1329
L0.8052 111.0177
" />
<path d="M0.9281 111.2446
L0.8640 111.1329
" />
<path d="M0.9974 111.3529
L0.9281 111.2446
" />
<path d="M1.0717 111.4575
L0.9974 111.3529
" />
<path d="M1.1508 111.5583
L1.0717 111.4575
" />
<path d="M1.2346 111.6550
L1.1508 111.5583
" />
<path d="M1.3228 111.7476
L1.2346 111.6550
" />
<path d="M1.4154 111.8359
L1.3228 111.7476
" />
<path d="M1.5122 111.9197
L1.4154 111.8359
" />
<path d="M1.6130 111.9988
L1.5122 111.9197
" />
<path d="M1.7176 112.0731
L1.6130 111.9988
" />
<path d="M1.8258 112.1423
L1.7176 112.0731
" />
<path d="M1.9376 112.2065
L1.8258 112.1423
" />
<path d="M2.0527 112.2653
L1.9376 112.2065
" />
<path d="M2.1710 112.3186
L2.0527 112.2653
" />
<path d="M2.2923 112.3663
L2.1710 112.3186
" />
<path d="M2.4165 112.4081
L2.2923 112.3663
" />
<path d="M2.5433 112.4440
L2.4165 112.4081
" />
<path d="M2.6727 112.4737
L2.5433 112.4440
" />
<path d="M2.8044 112.4971
L2.6727 112.4737
" />
<path d="M2.9383 112.5140
L2.8044 112.4971
" />
<path d="M3.0742 112.5242
L2.9383 112.5140
" />
<path d="M3.2119 112.5277
L3.0742 112.5242
" />
<path d="M77.7770 112.5277
L3.2119 112.5277
" />
<path d="M78.5620 112.6666
L77.7770 112.5277
" />
<path d="M79.3454 112.8337
L78.5620 112.6666
" />
<path d="M80.9057 113.2486
L79.3454 112.8337
" />
<path d="M82.4547 113.7651
L80.9057 113.2486
" />
<path d="M83.9889 114.3759
L82.4547 113.7651
" />
<path d="M85.5048 115.0736
L83.9889 114.3759
" />
<path d="M86.9991 115.8509
L85.5048 115.0736
" />
<path d="M88.4683 116.7004
L86.9991 115.8509
" />
<path d="M89.9092 117.6149
L88.4683 116.7004
" />
<path d="M91.3181 118.5869
L89.9092 117.6149
" />
<path d="M92.6918 119.6091
L91.3181 118.5869
" />
<path d="M94.0269 120.6742
L92.6918 119.6091
" />
<path d="M95.3198 121.7749
L94.0269 120.6742
" />
<path d="M96.5673 122.9037
L95.3198 121.7749
" />
<path d="M97.7659 124.0534
L96.5673 122.9037
" />
<path d="M98.9122 125.2166
L97.7659 124.0534
" />
<path d="M100.0028 126.3859
L98.9122 125.2166
" />
<path d="M100.5447 127.0119
L100.0028 126.3859
" />
<path d="M101.0720 127.6775
L100.5447 127.0119
" />
<path d="M102.0834 129.1140
L101.0720 127.6775
" />
<path d="M103.0369 130.6694
L102.0834 129.1140
" />
<path d="M103.9326 132.3176
L103.0369 130.6694
" />
<path d="M104.7706 134.0324
L103.9326 132.3176
" />
<path d="M105.5509 135.7876
L104.7706 134.0324
" />
<path d="M106.2736 137.5571
L105.5509 135.7876
" />
<path d="M106.9388 139.3148
L106.2736 137.5571
" />
<path d="M108.0967 142.6900
L106.9388 139.3148
" />
<path d="M109.0251 145.7040
L108.0967 142.6900
" />
<path d="M110.1953 149.8120
L109.0251 145.7040
" />
<path d="M110.2970 149.8749
L110.1953 149.8120
" />
<path d="M110.4012 149.9307
L110.2970 149.8749
" />
<path d="M110.5076 149.9798
L110.4012 149.9307
" />
<path d="M110.6163 150.0224
L110.5076 149.9798
" />
<path d="M110.7270 150.0589
L110.6163 150.0224
" />
<path d="M110.8397 150.0895
L110.7270 150.0589
" />
<path d="M111.0704 150.1345
L110.8397 150.0895
" />
<path d="M111.3074 150.1597
L111.0704 150.1345
" />
<path d="M111.5498 150.1674
L111.3074 150.1597
" />
<path d="M111.7965 150.1601
L111.5498 150.1674
" />
<path d="M112.0465 150.1402
L111.7965 150.1601
" />
<path d="M112.2990 150.1100
L112.0465 150.1402
" />
<path d="M112.5528 150.0719
L112.2990 150.1100
" />
<path d="M113.0607 149.9818
L112.5528 150.0719
" />
<path d="M113.5623 149.8887
L113.0607 149.9818
" />
<path d="M113.8083 149.8471
L113.5623 149.8887
" />
<path d="M114.0497 149.8120
L113.8083 149.8471
" />
<path d="M115.3227 149.6176
L114.0497 149.8120
" />
<path d="M116.7083 149.3564
L115.3227 149.6176
" />
<path d="M118.1797 149.0395
L116.7083 149.3564
" />
<path d="M119.7100 148.6776
L118.1797 149.0395
" />
<path d="M122.8399 147.8631
L119.7100 148.6776
" />
<path d="M125.8828 147.0004
L122.8399 147.8631
" />
<path d="M128.6238 146.1770
L125.8828 147.0004
" />
<path d="M130.8479 145.4805
L128.6238 146.1770
" />
<path d="M132.8852 144.8183
L130.8479 145.4805
" />
<path d="M133.1459 144.7263
L132.8852 144.8183
" />
<path d="M133.4019 144.6278
L133.1459 144.7263
" />
<path d="M133.6515 144.5222
L133.4019 144.6278
" />
<path d="M133.8930 144.4087
L133.6515 144.5222
" />
<path d="M134.1247 144.2865
L133.8930 144.4087
" />
<path d="M134.3451 144.1548
L134.1247 144.2865
" />
<path d="M134.5523 144.0129
L134.3451 144.1548
" />
<path d="M134.6506 143.9379
L134.5523 144.0129
" />
<path d="M134.7449 143.8600
L134.6506 143.9379
" />
<path d="M134.8351 143.7792
L134.7449 143.8600
" />
<path d="M134.9210 143.6954
L134.8351 143.7792
" />
<path d="M135.0024 143.6084
L134.9210 143.6954
" />
<path d="M135.0790 143.5182
L135.0024 143.6084
" />
<path d="M135.1507 143.4247
L135.0790 143.5182
" />
<path d="M135.2173 143.3277
L135.1507 143.4247
" />
<path d="M135.2785 143.2273
L135.2173 143.3277
" />
<path d="M135.3342 143.1232
L135.2785 143.2273
" />
<path d="M135.3841 143.0154
L135.3342 143.1232
" />
<path d="M135.4280 142.9039
L135.3841 143.0154
" />
<path d="M135.4657 142.7884
L135.4280 142.9039
" />
<path d="M135.4971 142.6689
L135.4657 142.7884
" />
<path d="M135.5218 142.5453
L135.4971 142.6689
" />
<path d="M135.5398 142.4176
L135.5218 142.5453
" />
<path d="M135.5507 142.2856
L135.5398 142.4176
" />
<path d="M135.5543 142.1492
L135.5507 142.2856
" />
<path d="M135.5543 3.3800
L135.5543 142.1492
" />
<path d="M135.5509 3.2422
L135.5543 3.3800
" />
<path d="M135.5406 3.1063
L135.5509 3.2422
" />
<path d="M135.5237 2.9725
L135.5406 3.1063
" />
<path d="M135.5003 2.8408
L135.5237 2.9725
" />
<path d="M135.4706 2.7114
L135.5003 2.8408
" />
<path d="M135.4347 2.5846
L135.4706 2.7114
" />
<path d="M135.3929 2.4604
L135.4347 2.5846
" />
<path d="M135.3452 2.3391
L135.3929 2.4604
" />
<path d="M135.2919 2.2208
L135.3452 2.3391
" />
<path d="M135.2331 2.1057
L135.2919 2.2208
" />
<path d="M135.1690 1.9939
L135.2331 2.1057
" />
<path d="M135.0997 1.8856
L135.1690 1.9939
" />
<path d="M135.0254 1.7810
L135.0997 1.8856
" />
<path d="M134.9463 1.6803
L135.0254 1.7810
" />
<path d="M134.8625 1.5835
L134.9463 1.6803
" />
<path d="M134.7743 1.4909
L134.8625 1.5835
" />
<path d="M134.6817 1.4026
L134.7743 1.4909
" />
<path d="M134.5849 1.3189
L134.6817 1.4026
" />
<path d="M134.4842 1.2398
L134.5849 1.3189
" />
<path d="M134.3795 1.1655
L134.4842 1.2398
" />
<path d="M134.2713 1.0962
L134.3795 1.1655
" />
<path d="M134.1595 1.0321
L134.2713 1.0962
" />
<path d="M134.0444 0.9733
L134.1595 1.0321
" />
<path d="M133.9261 0.9200
L134.0444 0.9733
" />
<path d="M133.8048 0.8723
L133.9261 0.9200
" />
<path d="M133.6806 0.8304
L133.8048 0.8723
" />
<path d="M133.5538 0.7946
L133.6806 0.8304
" />
<path d="M133.4244 0.7649
L133.5538 0.7946
" />
<path d="M133.2927 0.7415
L133.4244 0.7649
" />
<path d="M133.1588 0.7246
L133.2927 0.7415
" />
<path d="M133.0229 0.7143
L133.1588 0.7246
" />
<path d="M132.8852 0.7108
L133.0229 0.7143
" />
<path d="M3.2119 0.7108
L132.8852 0.7108
" />
</g>
<g style="fill:#D0D2CD; fill-opacity:0.0; 
stroke:#D0D2CD; stroke-width:0.1200; stroke-opacity:1; 
stroke-linecap:round; stroke-linejoin:round;">
<path d="M88.7316 73.4600
L85.3316 73.4600
" />
<path d="M88.7316 70.4600
L88.7316 73.4600
" />
<path d="M85.3316 73.4600
L85.3316 70.4600
" />
<path d="M85.3316 70.4600
L88.7316 70.4600
" />
<path d="M107.7816 73.4600
L104.3816 73.4600
" />
<path d="M107.7816 70.4600
L107.7816 73.4600
" />
<path d="M104.3816 73.4600
L104.3816 70.4600
" />
<path d="M104.3816 70.4600
L107.7816 70.4600
" />
<path d="M9.1316 13.4600
L12.5316 13.4600
" />
<path d="M9.1316 16.4600
L9.1316 13.4600
" />
<path d="M12.5316 13.4600
L12.5316 16.4600
" />
<path d="M12.5316 16.4600
L9.1316 16.4600
" />
<path d="M47.1078 51.4900
L50.5078 51.4900
" />
<path d="M47.1078 54.4900
L47.1078 51.4900
" />
<path d="M50.5078 51.4900
L50.5078 54.4900
" />
<path d="M50.5078 54.4900
L47.1078 54.4900
" />
<path d="M32.7778 94.2100
L36.1778 94.2100
" />
<path d="M32.7778 97.2100
L32.7778 94.2100
" />
<path d="M36.1778 94.2100
L36.1778 97.2100
" />
<path d="M36.1778 97.2100
L32.7778 97.2100
" />
<path d="M31.5816 73.4600
L28.1816 73.4600
" />
<path d="M31.5816 70.4600
L31.5816 73.4600
" />
<path d="M28.1816 73.4600
L28.1816 70.4600
" />
<path d="M28.1816 70.4600
L31.5816 70.4600
" />
<path d="M69.6816 35.3725
L66.2816 35.3725
" />
<path d="M69.6816 32.3725
L69.6816 35.3725
" />
<path d="M66.2816 35.3725
L66.2816 32.3725
" />
<path d="M66.2816 32.3725
L69.6816 32.3725
" />
<path d="M47.2316 13.4600
L50.6316 13.4600
" />
<path d="M47.2316 16.4600
L47.2316 13.4600
" />
<path d="M50.6316 13.4600
L50.6316 16.4600
" />
<path d="M50.6316 16.4600
L47.2316 16.4600
" />
<path d="M9.0078 51.4900
L12.4078 51.4900
" />
<path d="M9.0078 54.4900
L9.0078 51.4900
" />
<path d="M12.4078 51.4900
L12.4078 54.4900
" />
<path d="M12.4078 54.4900
L9.0078 54.4900
" />
<path d="M69.6816 73.4600
L66.2816 73.4600
" />
<path d="M69.6816 70.4600
L69.6816 73.4600
" />
<path d="M66.2816 73.4600
L66.2816 70.4600
" />
<path d="M66.2816 70.4600
L69.6816 70.4600
" />
<path d="M118.4380 135.5134
L119.3180 138.7976
" />
<path d="M115.5402 136.2899
L118.4380 135.5134
" />
<path d="M119.3180 138.7976
L116.4202 139.5740
" />
<path d="M116.4202 139.5740
L115.5402 136.2899
" />
<path d="M85.2078 51.4900
L88.6078 51.4900
" />
<path d="M85.2078 54.4900
L85.2078 51.4900
" />
<path d="M88.6078 51.4900
L88.6078 54.4900
" />
<path d="M88.6078 54.4900
L85.2078 54.4900
" />
<path d="M12.5316 73.4600
L9.1316 73.4600
" />
<path d="M12.5316 70.4600
L12.5316 73.4600
" />
<path d="M9.1316 73.4600
L9.1316 70.4600
" />
<path d="M9.1316 70.4600
L12.5316 70.4600
" />
<path d="M52.0278 94.2100
L55.4278 94.2100
" />
<path d="M52.0278 97.2100
L52.0278 94.2100
" />
<path d="M55.4278 94.2100
L55.4278 97.2100
" />
<path d="M55.4278 97.2100
L52.0278 97.2100
" />
<path d="M28.1816 13.4600
L31.5816 13.4600
" />
<path d="M28.1816 16.4600
L28.1816 13.4600
" />
<path d="M31.5816 13.4600
L31.5816 16.4600
" />
<path d="M31.5816 16.4600
L28.1816 16.4600
" />
<path d="M66.1578 51.4900
L69.5578 51.4900
" />
<path d="M66.1578 54.4900
L66.1578 51.4900
" />
<path d="M69.5578 51.4900
L69.5578 54.4900
" />
<path d="M69.5578 54.4900
L66.1578 54.4900
" />
<path d="M28.0578 51.4900
L31.4578 51.4900
" />
<path d="M28.0578 54.4900
L28.0578 51.4900
" />
<path d="M31.4578 51.4900
L31.4578 54.4900
" />
<path d="M31.4578 54.4900
L28.0578 54.4900
" />
<path d="M85.3316 13.4600
L88.7316 13.4600
" />
<path d="M85.3316 16.4600
L85.3316 13.4600
" />
<path d="M88.7316 13.4600
L88.7316 16.4600
" />
<path d="M88.7316 16.4600
L85.3316 16.4600
" />
<path d="M126.8316 73.4600
L123.4316 73.4600
" />
<path d="M126.8316 70.4600
L126.8316 73.4600
" />
<path d="M123.4316 73.4600
L123.4316 70.4600
" />
<path d="M123.4316 70.4600
L126.8316 70.4600
" />
<path d="M66.2816 13.4600
L69.6816 13.4600
" />
<path d="M66.2816 16.4600
L66.2816 13.4600
" />
<path d="M69.6816 13.4600
L69.6816 16.4600
" />
<path d="M69.6816 16.4600
L66.2816 16.4600
" />
<path d="M12.5316 35.3725
L9.1316 35.3725
" />
<path d="M12.5316 32.3725
L12.5316 35.3725
" />
<path d="M9.1316 35.3725
L9.1316 32.3725
" />
<path d="M9.1316 32.3725
L12.5316 32.3725
" />
<path d="M71.0078 94.2400
L74.4078 94.2400
" />
<path d="M71.0078 97.2400
L71.0078 94.2400
" />
<path d="M74.4078 94.2400
L74.4078 97.2400
" />
<path d="M74.4078 97.2400
L71.0078 97.2400
" />
<path d="M88.7316 35.3725
L85.3316 35.3725
" />
<path d="M88.7316 32.3725
L88.7316 35.3725
" />
<path d="M85.3316 35.3725
L85.3316 32.3725
" />
<path d="M85.3316 32.3725
L88.7316 32.3725
" />
<path d="M108.3134 116.8568
L110.4989 119.4614
" />
<path d="M106.0153 118.7852
L108.3134 116.8568
" />
<path d="M110.4989 119.4614
L108.2007 121.3898
" />
<path d="M108.2007 121.3898
L106.0153 118.7852
" />
<path d="M50.6316 73.4600
L47.2316 73.4600
" />
<path d="M50.6316 70.4600
L50.6316 73.4600
" />
<path d="M47.2316 73.4600
L47.2316 70.4600
" />
<path d="M47.2316 70.4600
L50.6316 70.4600
" />
<path d="M50.6316 35.3725
L47.2316 35.3725
" />
<path d="M50.6316 32.3725
L50.6316 35.3725
" />
<path d="M47.2316 35.3725
L47.2316 32.3725
" />
<path d="M47.2316 32.3725
L50.6316 32.3725
" />
<path d="M90.7967 104.3877
L93.8781 105.8246
" />
<path d="M89.5288 107.1066
L90.7967 104.3877
" />
<path d="M93.8781 105.8246
L92.6103 108.5435
" />
<path d="M92.6103 108.5435
L89.5288 107.1066
" />
<path d="M123.3078 51.4900
L126.7078 51.4900
" />
<path d="M123.3078 54.4900
L123.3078 51.4900
" />
<path d="M126.7078 51.4900
L126.7078 54.4900
" />
<path d="M126.7078 54.4900
L123.3078 54.4900
" />
<path d="M126.8316 35.3725
L123.4316 35.3725
" />
<path d="M126.8316 32.3725
L126.8316 35.3725
" />
<path d="M123.4316 35.3725
L123.4316 32.3725
" />
<path d="M123.4316 32.3725
L126.8316 32.3725
" />
<path d="M31.5816 35.3725
L28.1816 35.3725
" />
<path d="M31.5816 32.3725
L31.5816 35.3725
" />
<path d="M28.1816 35.3725
L28.1816 32.3725
" />
<path d="M28.1816 32.3725
L31.5816 32.3725
" />
<path d="M104.3816 13.4600
L107.7816 13.4600
" />
<path d="M104.3816 16.4600
L104.3816 13.4600
" />
<path d="M107.7816 13.4600
L107.7816 16.4600
" />
<path d="M107.7816 16.4600
L104.3816 16.4600
" />
<path d="M104.2578 51.4900
L107.6578 51.4900
" />
<path d="M104.2578 54.4900
L104.2578 51.4900
" />
<path d="M107.6578 51.4900
L107.6578 54.4900
" />
<path d="M107.6578 54.4900
L104.2578 54.4900
" />
<path d="M107.7816 35.3725
L104.3816 35.3725
" />
<path d="M107.7816 32.3725
L107.7816 35.3725
" />
<path d="M104.3816 35.3725
L104.3816 32.3725
" />
<path d="M104.3816 32.3725
L107.7816 32.3725
" />
<path d="M123.4316 13.4600
L126.8316 13.4600
" />
<path d="M123.4316 16.4600
L123.4316 13.4600
" />
<path d="M126.8316 13.4600
L126.8316 16.4600
" />
<path d="M126.8316 16.4600
L123.4316 16.4600
" />
<path d="M9.0678 103.7500
L12.4678 103.7500
" />
<path d="M9.0678 106.7500
L9.0678 103.7500
" />
<path d="M12.4678 103.7500
L12.4678 106.7500
" />
<path d="M12.4678 106.7500
L9.0678 106.7500
" />
<g >
</g>
<g >
</g>
<g >
</g>
<g >
</g>
<g >
</g>
<g >
</g>
<g >
</g>
<g >
</g>
<g >
</g>
<g >
</g>
<g >
</g>
<g >
</g>
<g >
</g>
<g >
</g>
<g >
</g>
<g >
</g>
<g >
</g>
<g >
</g>
<g >
</g>
<g >
</g>
<g >
</g>
<g >
</g>
<g >
</g>
<g >
</g>
<g >
</g>
<g >
</g>
<g >
</g>
<g >
</g>
<g >
</g>
<g >
</g>
<g >
</g>
<g >
</g>
<g >
</g>
<g >
</g>
<g >
</g>
<g >
</g>
<g >
</g>
<g >
</g>
<g >
</g>
<g >
</g>
<g >
</g>
<g >
</g>
<g >
</g>
<g >
</g>
<g >
</g>
<g >
</g>
<g >
</g>
<g >
</g>
<g >
</g>
<g >
</g>
<g >
</g>
<g >
</g>
<g >
</g>
<g >
</g>
<g >
</g>
<g >
</g>
<g >
</g>
<g >
</g>
<g >
</g>
<g >
</g>
<g >
</g>
<g >
</g>
<g >
</g>
<g >
</g>
<g >
</g>
<g >
</g>
<g >
</g>
<g >
</g>
<g >
</g>
<g >
</g>
<g >
</g>
<g >
</g>
<g >
</g>
<g >
</g>
<g >
</g>
<g >
</g>
<g >
</g>
<g >
</g>
<g >
</g>
<g >
</g>
<g >
</g>
<g >
</g>
<g >
</g>
<g >
</g>
<g >
</g>
<g >
</g>
<g >
</g>
<g >
</g>
<g >
</g>
<g >
</g>
<g >
</g>
<g >
</g>
<g >
</g>
<g >
</g>
<g >
</g>
<g >
</g>
<g >
</g>
<g >
</g>
<g >
</g>
<g >
</g>
<g >
</g>
<g >
</g>
<g >
</g>
<g >
</g>
<g >
</g>
<g >
</g>
<g >
</g>
<g >
</g>
<g >
</g>
<g >
</g>
<g >
</g>
<g >
</g>
<g >
</g>
<g >
</g>
<g >
</g>
<g >
</g>
<g >
</g>
<g >
</g>
</g> 
</svg>
